<svg width="441" height="441" viewBox="0 0 441 441" fill="none" xmlns="http://www.w3.org/2000/svg">
<mask id="mask0_261_2752" style="mask-type:alpha" maskUnits="userSpaceOnUse" x="0" y="0" width="441" height="441">
<rect x="-1" y="1" width="439" height="439" rx="9" transform="matrix(-1 0 0 1 439 0)" fill="#35355F" stroke="black" stroke-width="2"/>
</mask>
<g mask="url(#mask0_261_2752)">
<line x1="4.58579" y1="436.586" x2="436.586" y2="4.5858" stroke="#A259FF" stroke-width="4"/>
<line x1="-21.4142" y1="405.586" x2="410.586" y2="-26.4142" stroke="#A259FF" stroke-width="4"/>
<line x1="-48.4142" y1="372.586" x2="383.586" y2="-59.4142" stroke="#A259FF" stroke-width="4"/>
<line x1="-72.4142" y1="341.586" x2="359.586" y2="-90.4142" stroke="#A259FF" stroke-width="4"/>
<line x1="-98.4142" y1="314.586" x2="333.586" y2="-117.414" stroke="#A259FF" stroke-width="4"/>
<line x1="-121.414" y1="284.586" x2="310.586" y2="-147.414" stroke="#A259FF" stroke-width="4"/>
<line x1="-148.414" y1="257.586" x2="283.586" y2="-174.414" stroke="#A259FF" stroke-width="4"/>
<line x1="-171.414" y1="231.586" x2="260.586" y2="-200.414" stroke="#A259FF" stroke-width="4"/>
<line x1="44.5858" y1="458.586" x2="476.586" y2="26.5858" stroke="#A259FF" stroke-width="4"/>
<line x1="79.5858" y1="483.586" x2="511.586" y2="51.5858" stroke="#A259FF" stroke-width="4"/>
<line x1="115.586" y1="505.586" x2="547.586" y2="73.5858" stroke="#A259FF" stroke-width="4"/>
<line x1="151.586" y1="530.586" x2="583.586" y2="98.5858" stroke="#A259FF" stroke-width="4"/>
<line x1="182.586" y1="562.586" x2="614.586" y2="130.586" stroke="#A259FF" stroke-width="4"/>
<line x1="213.586" y1="595.586" x2="645.586" y2="163.586" stroke="#A259FF" stroke-width="4"/>
</g>
</svg>
