<svg width="418" height="412" viewBox="0 0 418 412" fill="none" xmlns="http://www.w3.org/2000/svg">
<path d="M193 32.5L144.25 60.6458V4.35417L193 32.5Z" fill="#A259FF"/>
<path d="M32.5 220L60.6458 268.75H4.35417L32.5 220Z" fill="#A259FF"/>
<path d="M385.5 192L357.354 143.25H413.646L385.5 192Z" fill="#A259FF"/>
<path d="M225 249.5L273.75 277.646V221.354L225 249.5Z" fill="#A259FF"/>
<path d="M125 97.5L76.25 125.646V69.3542L125 97.5Z" fill="#A259FF"/>
<path d="M97.5 288L125.646 336.75H69.3542L97.5 288Z" fill="#A259FF"/>
<path d="M320.5 124L292.354 75.25H348.646L320.5 124Z" fill="#A259FF"/>
<path d="M293 314.5L341.75 342.646V286.354L293 314.5Z" fill="#A259FF"/>
<path d="M69 32.5L20.25 60.6458V4.35417L69 32.5Z" fill="#A259FF"/>
<path d="M32.5 344L60.6458 392.75H4.35417L32.5 344Z" fill="#A259FF"/>
<path d="M385.5 68L357.354 19.25H413.646L385.5 68Z" fill="#A259FF"/>
<path d="M349 249.5L397.75 277.646V221.354L349 249.5Z" fill="#A259FF"/>
<path d="M69 162.5L20.25 190.646V134.354L69 162.5Z" fill="#A259FF"/>
<path d="M162.5 344L190.646 392.75H134.354L162.5 344Z" fill="#A259FF"/>
<path d="M255.5 68L227.354 19.25H283.646L255.5 68Z" fill="#A259FF"/>
<path d="M349 379.5L397.75 407.646V351.354L349 379.5Z" fill="#A259FF"/>
<path d="M193 162.5L144.25 190.646V134.354L193 162.5Z" fill="#A259FF"/>
<path d="M162.5 220L190.646 268.75H134.354L162.5 220Z" fill="#A259FF"/>
<path d="M255.5 192L227.354 143.25H283.646L255.5 192Z" fill="#A259FF"/>
<path d="M225 379.5L273.75 407.646V351.354L225 379.5Z" fill="#A259FF"/>
</svg>
