<svg width="412" height="381" viewBox="0 0 412 381" fill="none" xmlns="http://www.w3.org/2000/svg">
<circle cx="16.8254" cy="66.8254" r="16.8254" fill="#A259FF"/>
<circle cx="81.3938" cy="17.0154" r="16.8254" fill="#A259FF"/>
<circle cx="266.825" cy="66.8254" r="16.8254" fill="#A259FF"/>
<circle cx="138.825" cy="66.8254" r="16.8254" fill="#A259FF"/>
<circle cx="197.825" cy="16.8254" r="16.8254" fill="#A259FF"/>
<circle cx="330.825" cy="16.8254" r="16.8254" fill="#A259FF"/>
<circle cx="394.825" cy="66.8254" r="16.8254" fill="#A259FF"/>
<circle cx="16.8254" cy="163.825" r="16.8254" fill="#A259FF"/>
<circle cx="81.3938" cy="114.015" r="16.8254" fill="#A259FF"/>
<circle cx="266.825" cy="163.825" r="16.8254" fill="#A259FF"/>
<circle cx="138.825" cy="163.825" r="16.8254" fill="#A259FF"/>
<circle cx="197.825" cy="113.825" r="16.8254" fill="#A259FF"/>
<circle cx="330.825" cy="113.825" r="16.8254" fill="#A259FF"/>
<circle cx="394.825" cy="163.825" r="16.8254" fill="#A259FF"/>
<circle cx="16.8254" cy="264.825" r="16.8254" fill="#A259FF"/>
<circle cx="81.3938" cy="215.015" r="16.8254" fill="#A259FF"/>
<circle cx="266.825" cy="264.825" r="16.8254" fill="#A259FF"/>
<circle cx="138.825" cy="264.825" r="16.8254" fill="#A259FF"/>
<circle cx="197.825" cy="214.825" r="16.8254" fill="#A259FF"/>
<circle cx="330.825" cy="214.825" r="16.8254" fill="#A259FF"/>
<circle cx="394.825" cy="264.825" r="16.8254" fill="#A259FF"/>
<circle cx="16.8254" cy="363.825" r="16.8254" fill="#A259FF"/>
<circle cx="81.3938" cy="314.015" r="16.8254" fill="#A259FF"/>
<circle cx="266.825" cy="363.825" r="16.8254" fill="#A259FF"/>
<circle cx="138.825" cy="363.825" r="16.8254" fill="#A259FF"/>
<circle cx="197.825" cy="313.825" r="16.8254" fill="#A259FF"/>
<circle cx="330.825" cy="313.825" r="16.8254" fill="#A259FF"/>
<circle cx="394.825" cy="363.825" r="16.8254" fill="#A259FF"/>
</svg>
