<svg width="182" height="157" viewBox="0 0 182 157" fill="none" xmlns="http://www.w3.org/2000/svg">
<path d="M31.5727 57.3968C27.0559 54.9892 24.201 48.2362 22.7911 43.9636C22.08 41.8089 23.1346 39.5382 25.1477 38.4914L36.1756 32.7569C38.3537 31.6243 41.0301 32.2417 42.3167 34.3324C44.1108 37.2478 46.3565 41.4625 46.8799 45.0053C47.3166 47.9621 47.9809 49.8801 46.8799 52.6588C46.4572 53.7256 46.0915 54.2781 45.422 55.21C43.8909 57.3415 42.8213 58.7903 40.3197 59.5835C36.9633 60.6477 34.6799 59.0529 31.5727 57.3968Z" stroke="#D9D9D9" stroke-linejoin="round"/>
<path d="M1.32227 60.9089V52.0595C1.32227 50.1891 2.36621 48.4751 4.02812 47.6169L43.08 27.4508C44.7419 26.5926 45.7858 24.8846 45.7858 23.0142V1.2705C45.7858 -3.46742 78.2224 55.5743 80.4091 57.7611C81.9179 59.2699 90.7138 61.2992 96.0228 62.4124C98.3776 62.9062 100.09 64.9715 100.09 67.3776V118.363C100.09 121.125 97.8511 123.363 95.0897 123.363H84.0537V143.044C84.0537 144.646 83.2858 146.152 81.9885 147.092L72.4103 154.036C70.6596 155.306 68.2913 155.306 66.5406 154.036L56.9624 147.092C55.6651 146.152 54.8972 144.646 54.8972 143.044V106.598L43.5532 73.5671C42.9155 71.7101 41.257 70.3989 39.3022 70.2148C32.0121 69.5282 14.5255 67.8881 10.7981 67.6014C7.90166 67.3786 5.00521 65.7937 3.19125 64.5954C1.96409 63.7847 1.32227 62.3797 1.32227 60.9089Z" fill="#D9D9D9"/>
<path d="M115.761 118.363V72.1647C115.761 68.9176 118.808 66.5319 121.961 67.3107L146.74 73.4327L165.327 58.1256C165.327 58.1256 164.278 55.0606 164.234 53.0232C164.194 51.1516 164.121 49.9572 164.963 48.2853C165.643 46.934 166.338 46.3217 167.514 45.3696C168.998 44.168 169.982 43.312 171.887 43.1829C173.492 43.0741 174.429 43.5422 175.858 44.2573L175.896 44.2762C176.814 44.7352 177.295 45.0772 178.083 45.7341L178.162 45.7993C179.279 46.7294 179.988 47.3199 180.634 48.6497C181.269 49.9551 181.247 50.8475 181.363 52.2943C181.443 53.2874 181.565 53.8699 181.363 54.8455C181.066 56.2804 180.432 56.9619 179.541 58.1256C178.19 59.8911 177.297 61.1299 175.168 61.7701C172.97 62.4309 171.451 61.9316 169.336 61.0412C167.552 60.2901 165.327 58.1256 165.327 58.1256L146.74 73.4327L147.833 99.7674L153.541 105.117C154.55 106.062 155.122 107.383 155.122 108.765V146.277C155.122 148.104 154.126 149.785 152.524 150.662L144.144 155.25C142.591 156.101 140.704 156.066 139.183 155.16L131.687 150.694C130.173 149.792 129.246 148.16 129.246 146.398V123.363H120.761C118 123.363 115.761 121.125 115.761 118.363Z" fill="#D9D9D9"/>
<path d="M108.21 75.6194H106.912C104.151 75.6194 101.912 77.858 101.912 80.6194V108.523C101.912 111.284 104.151 113.523 106.912 113.523H108.21C110.972 113.523 113.21 111.284 113.21 108.523V80.6194C113.21 77.858 110.972 75.6194 108.21 75.6194Z" fill="#D9D9D9"/>
<path d="M54.8972 106.598L43.5532 73.5671C42.9155 71.7101 41.257 70.3989 39.3022 70.2148C32.0121 69.5282 14.5255 67.8881 10.7981 67.6014C7.90166 67.3786 5.00521 65.7937 3.19125 64.5954C1.96409 63.7847 1.32227 62.3797 1.32227 60.9089V52.0595C1.32227 50.1891 2.36621 48.4751 4.02812 47.6169L43.08 27.4508C44.7419 26.5926 45.7858 24.8846 45.7858 23.0142C45.7858 17.2217 45.7858 4.85801 45.7858 1.2705C45.7858 -3.46742 78.2224 55.5743 80.4091 57.7611C81.9179 59.2699 90.7138 61.2992 96.0228 62.4124C98.3776 62.9062 100.09 64.9715 100.09 67.3776V118.363C100.09 121.125 97.8511 123.363 95.0897 123.363H84.0537M54.8972 106.598V143.044C54.8972 144.646 55.6651 146.152 56.9624 147.092L66.5406 154.036C68.2913 155.306 70.6596 155.306 72.4103 154.036L81.9885 147.092C83.2858 146.152 84.0537 144.646 84.0537 143.044V123.363M54.8972 106.598L66.4126 97.6737C68.2155 96.2765 70.7354 96.2765 72.5383 97.6738L82.1165 105.097C83.3385 106.044 84.0537 107.503 84.0537 109.049V123.363M129.246 123.363H120.761C118 123.363 115.761 121.125 115.761 118.363V72.1648C115.761 68.9176 118.808 66.5319 121.961 67.3107L146.74 73.4327M129.246 123.363V108.806C129.246 107.399 129.839 106.058 130.878 105.11C133.763 102.48 135.949 100.487 138.637 98.0359C140.385 96.442 143.012 96.2908 144.931 97.6745L147.833 99.7674M129.246 123.363V146.398C129.246 148.16 130.173 149.792 131.687 150.694L139.183 155.16C140.704 156.066 142.591 156.101 144.144 155.25L152.524 150.662C154.126 149.785 155.122 148.104 155.122 146.277V108.765C155.122 107.383 154.55 106.062 153.541 105.117L147.833 99.7674M146.74 73.4327L147.833 99.7674M146.74 73.4327L165.327 58.1256M165.327 58.1256C165.327 58.1256 167.552 60.2901 169.336 61.0412C171.451 61.9316 172.97 62.4309 175.168 61.7701C177.297 61.1299 178.19 59.8911 179.541 58.1256C180.432 56.9619 181.066 56.2804 181.363 54.8455C181.565 53.8699 181.443 53.2874 181.363 52.2943C181.247 50.8475 181.269 49.9551 180.634 48.6497C179.973 47.2891 179.246 46.7024 178.083 45.7341C177.295 45.0772 176.814 44.7352 175.896 44.2762C174.445 43.5505 173.507 43.0731 171.887 43.1829C169.982 43.312 168.998 44.168 167.514 45.3696C166.338 46.3217 165.643 46.934 164.963 48.2853C164.121 49.9572 164.194 51.1516 164.234 53.0232C164.278 55.0605 165.327 58.1256 165.327 58.1256ZM106.912 75.6194H108.21C110.972 75.6194 113.21 77.858 113.21 80.6194V108.523C113.21 111.284 110.972 113.523 108.21 113.523H106.912C104.151 113.523 101.912 111.284 101.912 108.523V80.6194C101.912 77.858 104.151 75.6194 106.912 75.6194Z" stroke="black" stroke-linejoin="round"/>
<circle cx="70.2051" cy="112.065" r="4.96683" fill="#9A9A9A" stroke="black"/>
<circle cx="143.096" cy="112.065" r="4.96683" fill="#9A9A9A" stroke="black"/>
<path d="M50.1602 92.0199C50.1602 92.0199 56.075 88.1587 58.9071 84.7308C61.7071 81.3418 63.8489 79.2552 64.3739 74.8905C64.8073 71.2878 62.9057 69.3905 62.5516 65.7792C62.2045 62.2379 61.6886 60.1197 62.5516 56.6678C63.3235 53.5802 64.3735 51.9876 66.1962 49.3787C67.9839 46.8198 71.663 43.5474 71.663 43.5474" stroke="black" stroke-linejoin="round"/>
<path d="M28.058 39.8693C28.058 40.019 28.0609 39.5699 28.0555 39.4204C28.0463 39.1604 28.0686 38.9658 27.641 39.1677C27.5003 39.2341 27.0571 39.0327 27.1356 38.8537C26.8139 39.58 26.5241 40.3239 26.2426 41.0665C26.084 41.485 25.9421 41.8973 25.86 42.3372C25.843 42.4278 25.7732 42.6348 25.8256 42.7297C25.9082 42.8794 26.0344 42.553 26.0464 42.5138C26.1799 42.077 26.1677 41.6645 25.9066 41.275C25.7845 41.0929 25.6247 40.9023 25.3938 40.8727C25.1608 40.8428 25.1979 41.182 25.1927 41.3265C25.1737 41.8526 25.104 42.5344 25.4993 42.9505C26.0299 43.509 26.7392 42.6125 27.0571 42.2293C27.5171 41.6747 27.9271 41.0271 28.1708 40.3452C28.2367 40.1611 28.4181 39.6111 28.3131 39.7761C28.2291 39.9081 28.2147 40.1569 28.1905 40.3011C28.1095 40.7823 28.0484 41.2668 27.9697 41.7484C27.8967 42.1945 27.8177 42.6396 27.7587 43.0879C27.734 43.2752 27.5887 43.8012 27.7047 43.6521C27.7892 43.5435 27.8832 42.8807 27.8961 42.8278C28.0706 42.1095 28.2721 41.3981 28.4431 40.6789C28.5081 40.4057 28.6865 39.5936 28.5609 39.8448C28.1281 40.7103 27.9146 41.7858 27.7195 42.7199C27.6072 43.257 27.5029 43.8049 27.4668 44.3537C27.4608 44.4452 27.4202 44.7183 27.5134 44.7928C27.6476 44.9002 28.417 42.406 28.4603 42.244C28.634 41.5943 28.7946 40.9352 28.8774 40.2667C28.8774 40.2667 28.9576 39.4553 28.8479 39.5798C28.7052 39.7419 28.6174 40.0012 28.5462 40.198C28.3403 40.7665 28.2246 41.3704 28.1365 41.9668C28.0638 42.4589 27.937 43.0762 28.0654 43.5736C28.1313 43.8291 28.2805 43.5557 28.3278 43.4583C28.6421 42.8123 28.8164 42.0441 28.8774 41.3314C28.8926 41.1536 28.949 40.2891 28.4996 40.517C28.0769 40.7313 28.1164 41.8686 28.1316 42.2587C28.1452 42.6071 28.3303 43.6265 28.4456 42.6463C28.5108 42.0918 28.5319 41.5236 28.5069 40.9659C28.4889 40.563 28.4479 40.0777 28.1439 39.7736C27.655 39.2848 27.6552 40.499 27.641 40.7181C27.6098 41.1991 27.5436 41.8098 27.7464 42.2661C27.8654 42.5338 27.8753 42.1713 27.8789 42.0502C27.8797 42.0243 27.9145 41.4895 27.8372 41.5031C27.6744 41.5319 27.6757 42.5422 27.6704 42.661C27.6525 43.0612 27.6497 43.4672 27.6606 43.868C27.6646 44.0162 27.7329 43.82 27.7391 43.7797C27.7503 43.7066 27.7489 43.6325 27.7489 43.5589C27.7489 43.4869 27.6894 43.3108 27.7538 43.343C27.8729 43.4026 27.8989 44.0188 27.9476 44.1648C27.9771 44.2534 28.0496 44.3376 28.1021 44.2114C28.239 43.883 28.3356 43.5294 28.4456 43.1909C28.4878 43.0611 28.4959 42.8815 28.5683 43.105C28.6291 43.2931 28.695 43.4741 28.8185 43.6325C29.1461 44.0527 29.4183 43.3497 29.5299 43.1149C30.2485 41.6031 30.7078 39.9166 31.0312 38.2772C31.0893 37.9829 31.1833 37.648 31.1833 37.345C31.1833 37.0645 31.0324 37.8855 30.9454 38.1521C30.833 38.4965 30.5027 39.5304 30.5848 39.1775C30.6978 38.6916 30.9965 38.1186 30.8104 37.6124C30.5651 36.9447 29.9615 37.6768 29.7948 37.9509C29.4578 38.5052 29.2226 39.3633 29.3876 40.0116C29.4318 40.1852 29.6174 40.6645 29.8292 40.3771C30.0342 40.0989 30.0627 39.6901 30.1015 39.3615C30.1364 39.0653 30.2261 38.6204 30.0598 38.341C29.6678 37.6824 29.0388 39.6525 29 39.7589C28.5022 41.124 28.0334 42.5179 27.7783 43.9514C27.763 44.0373 27.607 44.6227 27.7145 44.7168C27.7228 44.724 27.7461 44.2754 27.7293 44.2163C27.6667 43.9974 27.4094 43.9308 27.2362 44.0618C26.8382 44.3627 26.6564 44.9849 26.5174 45.4405C26.4948 45.5144 26.3616 45.9667 26.5223 45.6686C26.7706 45.2082 27.0791 44.6187 27.0865 44.0839C27.0923 43.6714 26.8719 44.1395 26.8412 44.2948C26.7511 44.7507 26.5746 45.8719 27.1601 46.0857C28.2539 46.485 29.4287 45.4696 29.7973 44.5156C29.8149 44.4701 29.9873 44.044 29.7973 44.0274C29.5945 44.0098 29.5616 44.4071 29.5397 44.5181C29.3771 45.3443 29.3385 46.1831 29.3385 47.0228C29.3385 47.3092 29.4108 47.7378 29.6943 47.2828C29.9922 46.8044 30.089 46.2022 30.1236 45.649C30.1244 45.6351 30.1351 45.0327 29.9666 45.1878C29.8704 45.2763 29.9071 45.5868 29.9028 45.6882C29.8828 46.1589 29.863 46.6301 29.8782 47.1013C29.8855 47.3261 29.9429 49.034 30.5308 48.7989C30.9192 48.6435 31.0125 47.7973 30.9822 47.4545C30.9432 47.0148 30.6633 46.8127 30.2487 46.7824C29.8226 46.7512 29.8152 47.3289 29.7899 47.6311C29.7559 48.0386 29.5465 49.1759 30.0009 49.4759C30.425 49.756 30.2588 48.203 30.2315 48.1022C30.1203 47.6911 29.4686 46.6373 28.9902 47.2951C28.8036 47.5516 28.6467 47.9614 28.7277 48.2788C28.7784 48.4773 29.0241 48.9169 29.2968 48.7375C29.695 48.4756 29.6084 47.8379 29.3925 47.4987C29.335 47.4082 28.9104 47.0828 28.7743 47.2092C28.6196 47.3529 28.6947 48.0333 28.6958 48.1807C28.6998 48.7002 28.6792 49.3157 28.9068 49.7998C29.1595 50.3372 29.722 50.266 30.1236 49.942C30.2512 49.8391 31.4469 48.529 30.7835 48.529C30.7033 48.529 30.7634 49.732 30.992 49.7973C31.0089 49.8021 31.2413 48.7875 31.1146 48.6468C31.0535 48.5788 31.0607 48.7966 31.0607 48.8038C31.0607 49.277 31.0987 49.8078 31.3403 50.2266C31.4913 50.4882 31.5464 49.6714 31.5464 49.5937C31.5464 49.4055 31.4812 49.434 31.6249 49.5937C31.7039 49.6815 31.6197 50.0668 31.6126 50.1628C31.581 50.5925 31.5464 51.0247 31.5464 51.4556C31.5464 51.7208 31.5044 52.0357 31.6568 52.2701C31.688 52.318 31.8845 52.4806 31.8972 52.3535C31.9086 52.2398 31.9243 51.9681 31.7377 52.0321C31.4766 52.1218 30.8324 52.6268 30.8939 52.9545C30.9062 53.0203 31.0679 52.9639 31.0901 52.9545C31.2649 52.8809 31.3896 52.7153 31.4188 52.5277C31.4614 52.2549 31.1053 52.1037 30.8791 52.199C30.8599 52.207 30.9148 52.228 30.9356 52.2259C31.0966 52.2098 31.1411 52.0152 31.1563 51.8849C31.184 51.6484 31.1504 51.3954 31.019 51.1932C30.9712 51.1196 30.8794 51.0082 30.8693 51.1686C30.8408 51.6256 30.9815 52.2767 31.3158 52.6111C31.4185 52.7138 31.5879 52.8468 31.6249 52.6209C31.6567 52.4271 31.6511 52.1902 31.6126 51.9978C31.5911 51.8903 31.5234 51.7802 31.4826 51.961C31.3886 52.3774 31.2212 53.8647 31.8408 54.0143C32.1427 54.0872 32.2946 53.7893 32.3952 53.5629C32.483 53.3654 32.5987 52.7336 32.6062 52.9496C32.6098 53.0538 32.6933 53.6385 32.9055 53.4746C33.1227 53.3067 33.0238 52.9499 32.9006 52.773C32.8405 52.6868 32.9594 52.3637 32.9594 52.2456C32.9594 52.0033 32.8309 52.7134 32.8294 52.719C32.5832 53.6263 32.3208 54.5284 32.1916 55.4617C32.1826 55.5263 32.0889 55.9158 32.2382 55.8959C32.4499 55.8677 32.5575 55.6851 32.6307 55.5009C32.6898 55.3522 32.684 54.9464 32.822 54.8484C33.0097 54.715 33.4371 54.7404 33.6659 54.6717C33.7648 54.6421 34.121 54.4429 34.2204 54.4951C34.2911 54.5323 34.3759 54.7904 34.4436 54.8631C34.6563 55.0915 34.8965 55.3081 35.2065 55.3856C35.8701 55.5515 35.5861 54.3108 34.9465 54.6251C34.5388 54.8255 34.1182 55.2714 34.0388 55.7315C33.9973 55.9722 33.9772 56.2986 34.1958 56.4626C34.4983 56.6894 34.3752 56.0424 34.343 55.9327C34.2373 55.5722 33.9227 55.4328 33.5973 55.3243C33.3821 55.2526 33.5401 55.3277 33.6561 55.3709C34.3164 55.6166 35.0519 55.583 35.7266 55.42C36.0877 55.3327 36.827 55.1806 36.9924 54.7552C37.0518 54.6026 36.7786 54.7048 36.7398 54.8214C36.657 55.0698 36.8499 55.4686 37.1494 55.4322C37.6167 55.3755 38.0375 54.6369 38.0375 54.1958C38.0375 53.9659 37.7572 54.221 37.7186 54.3136C37.5483 54.7224 38.0895 55.0643 38.4177 55.1182C38.5693 55.1431 38.7329 55.1537 38.8863 55.1378C38.9142 55.135 39.0838 55.0745 38.9697 55.025C38.6669 54.8936 38.1186 55.071 37.8412 55.1575C37.321 55.3196 36.7587 55.5731 36.3448 55.9376C35.9317 56.3014 36.6969 56.3203 36.909 56.3203C36.9538 56.3203 37.4534 56.2195 37.2328 56.075C37.1741 56.0364 36.7723 56.0049 36.8379 56.1216C36.9491 56.3194 37.6569 56.1443 37.7505 56.1265C38.4615 55.9907 39.1663 55.7611 39.8038 55.4151C39.9138 55.3554 40.447 55.0606 40.0614 55.0152C39.8364 54.9887 39.5457 54.9147 39.3696 55.1084C39.2472 55.243 39.2049 55.5279 39.3377 55.6677C39.7948 56.1489 40.7363 55.4786 41.0794 55.1918C41.1573 55.1268 41.5087 54.862 41.4131 54.6963C41.2517 54.4169 40.6003 54.7008 40.422 54.7797C40.0386 54.9493 39.6941 55.2183 39.4162 55.5304C39.4083 55.5392 38.9394 56.153 39.2346 56.0259C39.5806 55.8769 39.8766 55.5168 40.108 55.2384C40.3439 54.9545 40.6254 54.6062 40.6967 54.2302C40.8282 53.5369 39.941 53.8482 39.5879 54.002C39.3963 54.0855 39.2148 54.1958 39.0531 54.3283C38.9835 54.3853 38.7072 54.6636 39.0237 54.4461C39.7461 53.9494 40.4636 53.3397 41.0107 52.6503C41.0701 52.5755 41.2096 52.4272 41.2143 52.3192C41.2231 52.1188 40.8323 52.4554 40.6673 52.5694C40.4563 52.7151 40.245 52.8683 40.0564 53.0428C40.0281 53.0691 39.9108 53.1915 39.9976 53.0527C40.263 52.6279 40.5995 52.245 40.8758 51.8261C40.9371 51.7332 41.1585 51.4119 40.8954 51.6053C40.5643 51.8488 40.244 52.1323 39.9657 52.4345C39.8385 52.5725 39.6204 52.8151 39.9117 52.5571C40.0392 52.4442 40.5551 52.0486 40.5348 51.8555C40.5226 51.739 40.0554 52.0959 40.0638 52.0959C40.1899 52.0959 40.6888 51.3955 40.7262 51.2618C40.7528 51.1666 40.2031 51.5322 40.1423 51.5881C40.1097 51.6181 40.0344 51.7184 40.0761 51.7034C40.3423 51.6076 40.5847 51.3432 40.785 51.1564C41.0743 50.8866 41.3805 50.652 41.6682 50.3861C41.9487 50.1268 42.1963 49.8481 42.3992 49.525C42.6212 49.1714 41.977 50.2456 41.781 50.6142C41.7291 50.7118 41.3133 51.383 41.4449 51.5366C41.544 51.6521 42.1661 50.6702 42.1981 50.6167C42.2551 50.5211 42.4263 50.2354 42.36 50.3247C42.1603 50.5935 41.9978 50.9021 41.835 51.1932C41.4466 51.8872 41.0304 52.6258 40.785 53.3863C40.7529 53.4858 40.6918 53.6226 40.8488 53.4746C41.152 53.1889 41.4048 52.854 41.6486 52.5179C41.8673 52.2162 42.1217 51.6824 42.4434 51.4679C42.5196 51.4171 42.3455 51.6229 42.2937 51.6985C41.9521 52.1979 41.6344 52.7116 41.3419 53.2415C41.2732 53.366 40.5907 54.3802 41.0132 54.5C41.284 54.5768 41.6221 54.3216 41.8129 54.1615C41.99 54.0129 42.327 53.3941 42.1833 53.5752C41.9822 53.8289 41.7996 54.1035 41.6314 54.3798C41.5172 54.5674 41.3195 54.8504 41.3149 55.0814C41.3101 55.3212 41.6697 55.1202 41.7369 55.0839C42.4105 54.7194 42.9952 54.1456 43.5571 53.6365C44.1266 53.1206 44.7172 52.601 45.2253 52.0223C45.4212 51.7992 45.125 52.0363 45.0977 52.0616C44.4693 52.6448 43.9323 53.3462 43.4001 54.0143C42.9649 54.5607 42.5385 55.1199 42.1588 55.707C42.066 55.8505 41.5538 56.5883 42.0411 56.178C42.5542 55.7459 43.0173 55.2466 43.3805 54.6816C43.5834 54.3659 43.5929 54.221 43.1646 54.3479C42.3569 54.5873 41.6137 55.0657 40.9102 55.5132C40.0232 56.0774 39.1594 56.6784 38.3024 57.2868C37.9855 57.5119 37.0228 58.1409 37.3899 58.013C37.7557 57.8855 38.1141 57.6037 38.4398 57.4046C39.136 56.9789 39.8334 56.5557 40.5348 56.1387C40.7255 56.0254 41.0008 55.8115 41.2291 55.7462C41.3302 55.7173 41.123 55.9914 41.1211 55.994C41.0818 56.0496 40.5872 56.7279 40.7311 56.6932C40.9826 56.6325 41.252 56.3488 41.4253 56.1829C41.8593 55.7673 42.2933 55.3089 42.6298 54.8091C42.8409 54.4956 42.7857 54.3098 42.3796 54.5295C41.9 54.7888 41.4725 55.176 41.126 55.5941C41.1187 55.603 40.891 55.8898 41.1187 55.707C41.7573 55.1943 42.2825 54.5109 42.7083 53.818C43.1883 53.0371 43.7427 51.9768 43.67 51.0067C43.6571 50.8349 43.4039 51.2322 43.3069 51.3747C43.0476 51.7556 42.7949 52.1487 42.5808 52.5571C42.5243 52.6649 42.079 53.7091 42.5415 53.2636C43.364 52.4714 43.8979 51.3672 44.2906 50.3125C44.3104 50.2594 44.8288 48.5626 44.6709 48.5732C44.5163 48.5835 44.2547 49.1614 44.2097 49.2429C43.914 49.7774 43.667 50.3385 43.4614 50.9135C43.2701 51.4487 43.1846 52.0003 43.0297 52.5424C43.0104 52.6101 43.0296 52.4014 43.0371 52.3314C43.1427 51.3386 43.3737 50.3538 43.5522 49.3729C43.6975 48.5749 43.8905 47.7522 43.9447 46.9394C43.9472 46.9027 43.9259 46.8057 43.9055 46.8363C43.8477 46.923 43.7309 47.2587 43.7141 47.3073C43.578 47.702 43.4586 48.1036 43.3511 48.5069C43.2894 48.7382 43.1775 49.0483 43.2358 49.2944C43.3189 49.6453 43.5949 48.6641 43.7117 48.3229C44.1829 46.9468 44.6287 45.5535 44.9849 44.1427C45.0039 44.0675 45.4784 42.4739 44.8818 43.0781C44.3247 43.6423 43.9234 44.3768 43.5375 45.0602C42.9712 46.0631 42.4526 47.096 42.0018 48.1561C41.7792 48.6798 41.5803 49.2116 41.4474 49.7654C41.412 49.9129 41.3307 50.1374 41.3493 50.2953C41.3691 50.464 41.492 49.9868 41.5553 49.8292C41.8067 49.2033 42.039 48.567 42.2471 47.9255C42.4838 47.196 42.7255 46.4244 42.7598 45.6514C42.7783 45.2373 42.5566 46.0622 42.5464 46.1298C42.4698 46.6384 42.4974 47.16 42.4974 47.6729C42.4974 47.8354 42.5053 47.7902 42.5268 47.614C42.5923 47.0781 42.6473 46.5406 42.6887 46.0022C42.6961 45.9058 42.7029 45.8093 42.7083 45.7128C42.712 45.6475 42.7668 45.5458 42.7083 45.5165C42.6619 45.4933 42.6541 45.6057 42.6347 45.6539C42.554 45.855 42.4857 46.0798 42.4336 46.2868C42.2673 46.947 42.1479 47.6278 42.1098 48.3082C42.0999 48.4836 42.095 48.7752 42.2177 48.4309C42.5064 47.6209 42.7438 46.7852 42.9929 45.963C43.3319 44.8443 43.7913 43.6517 43.8809 42.4746C43.8952 42.2868 43.8703 41.8454 43.562 42.0428C43.171 42.2932 42.9166 42.8359 42.7476 43.2449C42.5336 43.7627 42.4185 44.3092 42.3379 44.8615C42.2894 45.1937 42.1391 45.808 42.2545 46.1543C42.3289 46.3775 42.3182 45.6882 42.3502 45.4552C42.4429 44.7796 42.5308 44.1046 42.5783 43.424C42.6133 42.9226 42.641 42.4129 42.6102 41.9104C42.5775 41.3768 42.4665 41.7327 42.4189 41.9938C42.3302 42.4794 42.2783 42.9779 42.252 43.4706C42.2309 43.8679 42.2956 44.3152 42.2226 44.707C42.1901 44.881 42.138 44.3624 42.1147 44.1869C42 43.3249 41.9435 42.453 41.7908 41.5963C41.7263 41.234 41.5911 40.7452 41.4008 41.3731C41.2699 41.8052 41.2265 42.2592 41.1972 42.7076C41.1834 42.9175 41.1616 43.5479 41.1751 43.3381C41.2082 42.8252 41.2141 42.3063 41.2094 41.7926C41.2003 40.7903 41.1451 39.672 40.7139 38.7458C40.6053 38.5124 40.4569 38.4229 40.3876 38.736C40.292 39.1681 40.2419 39.6874 40.3337 40.1244C40.4436 40.6485 40.6919 39.871 40.7311 39.7172C40.9982 38.6676 41.2186 37.3581 40.9862 36.2828C40.9556 36.1412 40.9042 35.9557 40.7728 35.8706C40.5376 35.7185 40.3596 36.2322 40.314 36.3466C40.117 36.8407 40.0219 37.3656 39.9878 37.8945C39.964 38.263 39.9417 38.0149 39.8553 37.7817C39.5957 37.0809 39.2566 36.4123 38.8127 35.8093C38.6899 35.6425 38.3825 35.1725 38.1037 35.1911C37.6696 35.2201 37.7284 35.9978 37.7284 36.2828C37.7284 36.3757 37.7157 36.4918 37.748 36.5821C37.7753 36.6582 37.8885 36.7016 37.9197 36.5968C38.0378 36.2002 37.9252 35.6188 37.8756 35.223C37.8299 34.8584 37.7559 34.4139 37.488 34.1338C36.9648 33.5869 36.3173 34.4828 36.0602 34.8624C35.6172 35.5167 35.3266 36.2917 35.3513 37.0923C35.3585 37.3282 35.4937 37.5897 35.7609 37.6075C36.3353 37.6458 36.662 36.6322 36.6539 36.2092C36.6392 35.437 36.0549 35.0072 35.2899 35.1445C34.1848 35.3429 33.2811 36.2783 32.7239 37.1954C32.3592 37.7957 32.1972 38.4737 32.1597 39.1677C32.1396 39.539 32.107 40.023 32.2529 40.3796C32.4178 40.7826 32.7612 40.1767 32.827 40.0386C33.0229 39.627 33.1531 39.1762 33.2342 38.7286C33.2771 38.4916 33.4234 37.9106 33.2219 37.7007C32.8216 37.2837 31.9408 38.2697 31.777 38.4661C30.9134 39.5016 30.3519 40.8135 30.0156 42.1091C29.9095 42.5177 29.5868 43.5788 29.8979 44.0029C30.1166 44.3012 30.6061 43.79 30.7319 43.6521C31.0755 43.2759 31.3345 42.8219 31.566 42.3716C31.8551 41.8091 32.1582 41.199 32.3118 40.5807C32.3118 40.5807 32.3698 40.2546 32.3314 40.252C32.2341 40.2455 31.9773 40.8833 31.9683 40.9046C31.5046 42.0047 31.2249 43.2062 31.0214 44.3782C30.9329 44.8883 30.8482 45.5564 30.8448 46.0906C30.8441 46.2049 30.868 46.6266 30.9478 46.7725C31.1913 47.218 31.8904 46.5373 32.0321 46.3849C32.8621 45.4931 33.4107 44.2934 33.9456 43.2154C34.6461 41.8037 35.318 40.3549 35.6211 38.7997C35.6223 38.7939 35.776 38.2143 35.6015 38.2993C35.4445 38.3758 35.2779 38.6078 35.1992 38.709C34.7797 39.2483 34.4174 39.7952 34.0486 40.3747C32.88 42.2111 31.789 44.1886 31.6274 46.4021C31.6254 46.4283 31.5112 47.3449 31.8212 47.116C32.3516 46.7243 32.5637 45.7464 32.7288 45.1608C32.8021 44.9011 33.0655 44.1777 32.9447 43.868C32.9021 43.7587 32.7353 43.9932 32.6749 44.0937C32.4644 44.4437 32.1506 45.1366 32.0076 45.4675C31.4795 46.6889 30.9884 47.945 30.6387 49.2306C30.5775 49.4556 30.4467 50.1379 30.5357 49.9224C30.8255 49.2204 31.0278 48.4804 31.2618 47.7587C31.3447 47.5031 31.3256 47.7438 31.3256 47.8667C31.3256 48.2451 31.3051 48.6224 31.2815 49C31.2486 49.5252 31.2134 50.0582 31.2398 50.5848C31.2402 50.5935 31.2535 50.8213 31.3133 50.7369C31.5347 50.4243 31.591 49.8819 31.6715 49.525C31.8814 48.5946 31.6777 49.4625 31.8432 48.7105C31.8591 48.6385 31.8826 48.4435 31.9242 48.5045C32.0032 48.6203 31.9954 48.7757 32.0297 48.9117C32.1132 49.2433 32.1684 49.4465 32.2897 49.7752C32.4488 50.2063 32.6455 50.6379 32.9202 51.0092C32.9675 51.0731 33.0264 51.1556 33.1115 51.1711C33.253 51.1968 33.1927 50.1775 33.0821 50.1775C32.949 50.1775 33.1458 52.0097 33.1802 52.2333" stroke="#D9D9D9" stroke-linecap="round"/>
<path d="M33.1348 46.8901C33.1348 46.7066 33.1434 46.5647 33.2501 46.4019C33.7614 45.6209 34.5029 44.9127 35.2396 44.3437C35.3503 44.2582 35.778 43.938 35.404 44.2186C34.8486 44.6351 34.3485 45.126 33.7628 45.5016C33.7316 45.5216 33.008 45.9433 33.1299 45.7076C33.3807 45.2227 33.9855 44.778 34.4006 44.4516C35.7744 43.3714 37.5393 42.6365 39.307 42.6068C39.3542 42.606 39.7427 42.6187 39.7264 42.6314C39.3713 42.9076 38.9845 43.152 38.6299 43.436C38.1758 43.7997 37.7236 44.1702 37.2119 44.4516C37.0465 44.5426 36.939 44.5047 37.1531 44.3976C37.8581 44.0451 38.72 43.9401 39.4909 43.8285C39.554 43.8194 39.7435 43.8023 39.6798 43.7991C39.4034 43.7849 39.1271 43.7699 38.8507 43.7549C37.8192 43.699 36.7452 43.6479 35.7229 43.8261C35.473 43.8696 35.2301 43.9388 34.9845 44.0002C34.88 44.0263 34.7011 44.0357 34.6116 44.1082C34.5615 44.1487 35.1988 44.1523 35.2224 44.1523C36.2695 44.1523 37.324 44.116 38.3698 44.172C39.0816 44.21 39.8985 44.3113 40.4992 44.7362C40.6026 44.8093 40.6169 44.8588 40.4992 44.8588C40.1934 44.8588 40.5607 45.5494 40.6096 45.6659C40.9176 46.4003 41.2575 47.1466 41.6375 47.8468C41.6627 47.8933 42.0036 48.4499 41.8975 48.2908C41.5972 47.8403 41.3106 47.3755 40.9702 46.9538C40.9434 46.9206 40.5876 46.4434 40.7666 46.6423C41.0591 46.9673 41.3183 47.3153 41.5982 47.6505C41.8203 47.9166 41.7921 47.76 41.7871 47.4813C41.7611 46.026 41.7205 44.5424 41.4608 43.1073C41.2805 42.1107 40.9521 41.1009 40.1975 40.3892C39.7719 39.9878 39.2541 39.6406 38.7623 39.3245C38.5465 39.1857 38.2482 38.9276 38.1908 39.3073C38.0339 40.3448 37.9951 41.4217 37.9921 42.4695C37.9914 42.7047 37.8635 43.6146 38.1687 43.7672C38.4129 43.8893 38.3191 42.4855 38.3159 42.4449C38.2012 40.9906 37.7845 39.2815 36.5005 38.4144C36.2292 38.2311 35.2524 37.6949 34.955 38.1224C34.6688 38.5339 35.3822 39.0456 35.6395 39.2509C35.7313 39.3242 35.9686 39.5421 36.1129 39.5453C36.3072 39.5496 35.8979 39.215 35.7499 39.089C35.1143 38.5479 34.3633 38.1489 33.6401 37.7397C33.5155 37.6692 33.3898 37.6036 33.2623 37.5386C33.1959 37.5047 33.3833 37.6263 33.439 37.676C33.982 38.1607 34.4062 38.7993 34.7809 39.4177C34.9903 39.7634 35.166 40.1513 35.4211 40.4677C35.7224 40.8413 35.0459 39.5838 34.8397 39.1503C34.5929 38.6315 34.3445 38.1133 34.0915 37.5975C33.8616 37.1285 33.6488 36.4712 33.2869 36.0814C33.1735 35.9593 33.2834 36.4197 33.331 36.5794C33.4984 37.1402 33.7705 37.6659 34.0523 38.1764C34.5727 39.1195 35.1676 40.0505 35.8872 40.8553C35.9963 40.9773 36.4026 41.5221 36.6404 41.4489C36.8416 41.387 36.5309 40.6434 36.4956 40.5658C36.2572 40.0414 35.817 39.5849 35.2224 39.5085C34.9216 39.4698 34.6752 39.6314 34.6116 39.9329C34.4195 40.8429 35.5369 41.432 36.2945 41.5274C36.8812 41.6014 37.1237 40.9703 37.2512 40.502C37.4889 39.6286 37.596 38.4864 37.1089 37.676C36.8926 37.3161 36.4842 37.001 36.2037 37.4748C35.7901 38.1733 35.6752 39.1372 35.583 39.928C35.5359 40.3325 35.353 41.2687 35.7793 41.5618C35.99 41.7066 36.1914 39.9383 36.2061 39.7808C36.2472 39.3411 36.4146 38.1744 35.924 37.8747C35.7707 37.781 35.8102 38.0328 35.8234 38.0881C35.9147 38.4687 36.1669 38.829 36.4073 39.1282C36.9816 39.8433 37.7785 40.4719 38.6691 40.7326C38.8646 40.7898 39.2329 40.8927 39.4296 40.762C39.7977 40.5176 39.2868 39.6979 39.1549 39.4913C38.8903 39.077 38.5426 38.7089 38.1441 38.4217C38.0338 38.3422 37.6694 38.0903 37.7492 38.4242C37.9681 39.3409 38.5574 40.247 39.1082 40.9951C39.2626 41.2047 39.4245 41.4093 39.6062 41.5961C39.6501 41.6412 39.8427 41.8736 39.9251 41.8709C40.0781 41.8658 40.1435 39.5893 40.1533 39.4349C40.2115 38.5186 40.2816 37.5935 40.0772 36.6898C40.0702 36.6587 40.0286 36.5729 40.0355 36.6039C40.097 36.8807 40.3117 37.1496 40.4648 37.3767C40.9856 38.1491 41.564 38.8832 42.2458 39.5207C42.3114 39.582 42.8688 40.1152 42.8395 39.7489C42.7659 38.8291 42.1412 37.9373 41.6227 37.2148C41.079 36.457 40.4189 35.7965 39.8638 35.0486C39.7615 34.9107 39.4417 34.5222 39.5866 34.6144C39.691 34.6808 39.7133 34.8273 39.7681 34.9382C39.917 35.2391 40.1219 35.6849 40.2539 35.9784C40.4916 36.5068 40.7242 37.0383 40.9359 37.5778C41.0757 37.9343 41.0528 37.9075 40.8549 37.6367C40.1021 36.6065 39.2956 35.5778 38.6789 34.4574C38.5784 34.2747 38.7065 34.4095 38.7574 34.4697C39.0958 34.8695 39.3854 35.3157 39.6406 35.7723C39.7571 35.9808 39.8529 36.197 39.9595 36.4101C40.0053 36.5018 39.8653 36.228 39.8123 36.1403C39.5771 35.7507 39.3363 35.3645 39.1009 34.975C38.87 34.5931 38.6587 34.1509 38.3723 33.8049C38.2276 33.63 38.4896 34.2438 38.5661 34.4574C39.0419 35.7872 39.5311 37.1116 39.9791 38.4512C40.7237 40.6773 41.3932 42.9235 42.0202 45.1851C42.2351 45.9607 42.5375 46.7494 42.6629 47.5475C42.7343 48.002 42.56 48.558 42.4715 48.9973C42.3149 49.7751 42.0968 50.5491 41.8435 51.3009C41.7506 51.5768 41.6445 51.9326 41.3848 52.1006C41.0573 52.3125 40.7038 52.4887 40.3667 52.6845C39.9434 52.9303 39.539 53.221 39.1009 53.44C38.5682 53.7064 37.8353 53.7796 37.2659 53.6044C36.8292 53.47 36.3798 53.4998 35.9387 53.4008C35.3161 53.261 34.6472 52.9695 34.1332 52.5888C33.981 52.476 33.89 52.349 33.7751 52.2085C33.712 52.1314 33.4035 51.9269 33.6009 51.9927C33.7702 52.0491 33.9157 52.1395 34.0719 52.2233C34.3756 52.3863 34.7104 52.4856 35.0237 52.628C35.6525 52.9139 36.3183 53.1531 36.9961 53.2904C37.5464 53.4018 38.2028 53.444 38.7648 53.3566C39.1237 53.3008 39.6034 53.2692 39.9153 53.0696C40.2453 52.8584 40.5408 52.6163 40.8574 52.3876C41.037 52.2579 41.1431 52.1318 40.85 52.1472C40.143 52.1844 39.4525 52.3656 38.7452 52.4072C38.2641 52.4355 37.7687 52.3442 37.288 52.3189C36.1519 52.2591 34.819 52.1926 33.9075 51.4162C33.5852 51.1416 33.3277 50.9188 33.201 50.5134C33.1599 50.3819 33.1284 50.2458 33.0906 50.1135C32.9985 49.7911 32.8549 49.5063 32.806 49.1642C32.7683 48.9 32.6664 48.4048 32.9581 48.2589" stroke="#D9D9D9" stroke-linecap="round"/>
<path d="M38.1255 45.256C37.5747 45.256 37.0272 45.2275 36.4769 45.2143C35.829 45.1986 35.2939 45.2032 34.902 45.7858C34.7938 45.9466 34.7174 46.1029 34.5806 46.2397C34.2701 46.5502 34.0009 46.8967 33.7196 47.2332C33.5982 47.3784 33.3794 47.5711 33.359 47.7754C33.3052 48.3127 33.5542 48.8098 33.7883 49.2742C34.0788 49.8507 34.433 50.4172 34.9045 50.8639C35.9569 51.8609 37.8131 51.7776 39.0969 51.3496C39.5956 51.1834 40.096 51.037 40.5983 50.8835C40.8944 50.793 41.1732 50.6583 41.3391 50.388C41.7487 49.7206 41.4359 48.8628 41.1502 48.2169C40.9487 47.7612 40.741 47.4092 40.4314 47.0222C40.1392 46.657 39.9726 46.1565 39.7593 45.7417C39.4324 45.1061 38.6483 44.9732 38.0126 45.2167C37.5419 45.397 37.1485 45.601 36.6339 45.6092C36.2127 45.6159 36.1094 45.8487 35.871 46.1587C35.4156 46.7507 34.5929 47.1286 34.5929 47.9593C34.5929 48.6619 35.0543 49.2846 35.5668 49.733C36.2376 50.3199 37.1667 50.4223 38.0273 50.4223C38.7668 50.4223 39.5016 50.3389 40.0856 49.8458C40.5137 49.4843 40.7448 48.8549 40.7724 48.3028C40.8022 47.7076 40.6251 47.2749 40.1469 46.8996C39.8634 46.6771 39.5579 46.5352 39.2073 46.4703C38.8476 46.4037 38.4659 46.404 38.1009 46.404C37.8264 46.404 37.4873 46.3522 37.2178 46.4139C36.8328 46.5018 36.4591 46.713 36.0722 46.799C35.8097 46.8573 35.5755 47.1159 35.4319 47.3313" stroke="#D9D9D9" stroke-linecap="round"/>
<path d="M25.3024 43.5403C25.7305 44.2161 25.9722 45.0259 26.2335 45.7755C26.3399 46.0805 26.464 46.3765 26.5818 46.6769C26.5995 46.7222 26.7171 46.943 26.6164 46.7906C26.1735 46.1202 25.6881 45.4707 25.1345 44.8863C24.8476 44.5835 25.0616 44.9562 25.1542 45.1111C25.7202 46.0575 26.4052 46.9392 27.0288 47.8476C27.5357 48.5861 28.0122 49.3373 28.4391 50.1248C28.5962 50.4146 28.7956 50.7251 28.8935 51.0436C29.0839 51.6622 28.3101 49.8827 28.1081 49.2678C28.054 49.1029 28.002 48.9396 27.96 48.7714C27.949 48.7277 28.0109 48.8455 28.0365 48.8825C28.1935 49.1088 27.7764 49.6059 27.9265 49.837C28.8586 51.2713 29.2681 53.4511 30.1133 54.9393C30.307 55.2805 30.4799 54.2139 30.4777 54.2104C29.9174 53.3215 28.55 52.716 28.1081 51.7648C27.931 51.3834 28.1217 50.5917 28.5673 50.1248C27.5744 50.5151 27.6942 50.6546 28.4796 50.2248C28.5532 50.4459 28.339 50.8763 28.4391 51.0855C29.044 52.3494 29.4734 54.2994 30.4777 55.3038C30.7164 55.5425 31.9896 55.1659 32.3 55.3038C32.4162 55.3555 32.5597 55.5939 32.6644 55.6683C33.6048 56.3356 34.4879 56.1409 35.4188 56.823C35.785 57.0913 36.1506 57.3769 36.5648 57.5689C36.6623 57.6141 36.7935 57.6895 36.9057 57.6677C37.2029 57.6099 37.4865 57.575 37.7923 57.5911C38.1068 57.6077 38.4611 57.7012 38.7679 57.5862C38.9111 57.5325 38.9964 57.4416 39.0742 57.312C39.2179 57.0725 39.3048 57.0153 39.5928 57.0107C40.2104 57.0007 40.891 57.1079 41.4106 56.697C41.8599 56.3417 42.5548 55.7573 42.7295 55.1781C43.0081 54.2543 43.6252 53.5389 44.0632 52.6984C44.2243 52.3892 44.411 52.0943 44.53 51.7648C44.7305 51.2096 45.1144 50.7299 45.3228 50.1742C45.4851 49.7414 45.3945 49.2012 45.3969 48.7516C45.4005 48.0806 45.4562 47.4418 45.5945 46.7881C45.8152 45.7449 45.5807 44.794 45.3969 43.7477C45.2845 43.1075 45.0893 42.6376 44.6411 42.1646C44.3311 41.8373 44.019 41.4961 43.7989 41.1001C43.6174 40.7733 43.4721 40.5738 43.263 40.2949" stroke="#D9D9D9" stroke-linecap="round"/>
<path d="M27.9648 51.6108C28.5865 52.2325 29.0123 53.3537 29.7508 53.846C30.4738 54.3279 31.4298 54.0558 32.0447 54.6707" stroke="#D9D9D9" stroke-linecap="round"/>
<circle cx="35.5185" cy="44.8598" r="6.70401" fill="white" stroke="black"/>
<path d="M34.0976 49.8008C34.2257 49.6394 34.3583 49.4498 34.4743 49.2384C34.6687 48.884 34.831 48.4416 34.821 47.9529C34.8108 47.4498 34.6185 46.9425 34.1798 46.4791C33.2832 45.5318 32.149 45.5756 31.3337 45.8042C31.0178 45.8927 30.735 46.0118 30.5077 46.1237C30.3326 45.2412 30.406 44.3126 30.7287 43.4421C31.1256 42.3718 31.8745 41.4568 32.8506 40.8514C33.8266 40.2461 34.9673 39.9889 36.0808 40.1188C37.1938 40.2487 38.2129 40.7573 38.9701 41.5572C39.7273 42.3572 40.1797 43.4032 40.249 44.5227C40.3183 45.6426 39.9999 46.7688 39.343 47.7113C38.686 48.654 37.7324 49.3527 36.6432 49.6913C35.8051 49.9517 34.9273 49.9864 34.0976 49.8008Z" fill="black" stroke="black"/>
<ellipse cx="36.854" cy="42.6574" rx="0.697122" ry="1.80565" transform="rotate(-52.2002 36.854 42.6574)" fill="#D9D9D9"/>
</svg>
