<svg width="273" height="70" viewBox="0 0 273 70" fill="none" xmlns="http://www.w3.org/2000/svg">
<rect x="2" y="2" width="269" height="66" rx="33" fill="#B9A692" stroke="black" stroke-width="4"/>
<path d="M36.3799 26.0122H34.2119L34.1973 24.877H36.2114C36.5142 24.877 36.7827 24.8086 37.0171 24.6719C37.2515 24.5352 37.4346 24.3398 37.5664 24.0859C37.7031 23.8271 37.7715 23.5195 37.7715 23.1631C37.7715 22.7725 37.7129 22.4551 37.5957 22.2109C37.4834 21.9619 37.3101 21.7812 37.0757 21.6689C36.8462 21.5518 36.5532 21.4932 36.1968 21.4932H34.4976V31H33.1499V20.3359H36.1968C36.6558 20.3359 37.0659 20.3921 37.4272 20.5044C37.7886 20.6118 38.0938 20.7827 38.3428 21.0171C38.5967 21.2466 38.7896 21.5396 38.9214 21.896C39.0532 22.2524 39.1191 22.6797 39.1191 23.1777C39.1191 23.6172 39.019 24.0151 38.8188 24.3716C38.6235 24.7231 38.3501 25.0112 37.9985 25.2358C37.647 25.4604 37.2417 25.6045 36.7827 25.668L36.3799 26.0122ZM36.3286 31H33.6553L34.439 29.8501H36.3286C36.6802 29.8501 36.978 29.772 37.2222 29.6157C37.4663 29.4595 37.6519 29.2397 37.7788 28.9565C37.9106 28.6685 37.9766 28.3291 37.9766 27.9385C37.9766 27.543 37.9229 27.2012 37.8154 26.9131C37.708 26.625 37.5371 26.4028 37.3027 26.2466C37.0684 26.0903 36.7607 26.0122 36.3799 26.0122H34.644L34.6587 24.877H37.0024L37.3027 25.2871C37.7422 25.3311 38.1108 25.4775 38.4087 25.7266C38.7114 25.9707 38.9385 26.2832 39.0898 26.6641C39.2461 27.0449 39.3242 27.4648 39.3242 27.9238C39.3242 28.5879 39.1997 29.1494 38.9507 29.6084C38.7065 30.0625 38.3599 30.4092 37.9106 30.6484C37.4614 30.8828 36.9341 31 36.3286 31ZM42.2466 25.7998H44.1802C44.7271 25.7998 45.186 25.9121 45.5571 26.1367C45.9282 26.3564 46.209 26.6616 46.3994 27.0522C46.5898 27.438 46.6851 27.8774 46.6851 28.3706C46.6851 28.7368 46.6313 29.0811 46.5239 29.4033C46.4165 29.7207 46.2554 29.999 46.0405 30.2383C45.8306 30.4775 45.5693 30.6655 45.2568 30.8022C44.9492 30.9341 44.5903 31 44.1802 31H41.2798V23.0752H42.5688V29.8867H44.1802C44.4829 29.8867 44.7222 29.8159 44.8979 29.6743C45.0737 29.5327 45.1982 29.3496 45.2715 29.125C45.3496 28.9004 45.3887 28.666 45.3887 28.4219C45.3887 28.1826 45.3496 27.9482 45.2715 27.7188C45.1982 27.4893 45.0737 27.2988 44.8979 27.1475C44.7222 26.9912 44.4829 26.9131 44.1802 26.9131H42.2466V25.7998ZM49.1021 23.0752V31H47.8057V23.0752H49.1021ZM55.6279 19.6255H56.6753C56.6753 20.104 56.6094 20.4849 56.4775 20.7681C56.3506 21.0464 56.1797 21.2612 55.9648 21.4126C55.75 21.564 55.5107 21.6787 55.2471 21.7568C54.9834 21.835 54.7148 21.9106 54.4414 21.9839C54.0996 22.0718 53.7798 22.2109 53.4819 22.4014C53.1841 22.5869 52.9277 22.8506 52.7129 23.1924C52.5029 23.5342 52.3491 23.9785 52.2515 24.5254C52.1587 25.0723 52.1416 25.7485 52.2002 26.5542V27.228H51.1455V26.5542C51.1455 25.6509 51.2188 24.8623 51.3652 24.1885C51.5117 23.5146 51.7192 22.9458 51.9878 22.4819C52.2563 22.0181 52.5737 21.6494 52.9399 21.376C53.3062 21.1025 53.7114 20.9146 54.1558 20.812C54.439 20.7388 54.6904 20.6606 54.9102 20.5776C55.1348 20.4897 55.3105 20.3726 55.4375 20.2261C55.5645 20.0796 55.6279 19.8794 55.6279 19.6255ZM54.3901 23.5293C54.8247 23.5293 55.2104 23.6196 55.5474 23.8003C55.8843 23.981 56.1699 24.2324 56.4043 24.5547C56.6387 24.877 56.8169 25.2578 56.939 25.6973C57.061 26.1318 57.1221 26.6055 57.1221 27.1182V27.2793C57.1221 27.8311 57.0562 28.3438 56.9243 28.8174C56.7925 29.2861 56.5972 29.6963 56.3384 30.0479C56.0845 30.3945 55.772 30.6655 55.4009 30.8608C55.0298 31.0562 54.6074 31.1538 54.1338 31.1538C53.6602 31.1538 53.2378 31.0562 52.8667 30.8608C52.5005 30.6655 52.188 30.3945 51.9292 30.0479C51.6753 29.6963 51.48 29.2861 51.3433 28.8174C51.2114 28.3438 51.1455 27.8311 51.1455 27.2793V27.1182C51.1455 26.9961 51.1675 26.8765 51.2114 26.7593C51.2554 26.6421 51.3066 26.5225 51.3652 26.4004C51.4238 26.2783 51.4775 26.1489 51.5264 26.0122C51.6777 25.5728 51.8877 25.165 52.1562 24.7891C52.4248 24.4131 52.7446 24.1104 53.1157 23.8809C53.4917 23.6465 53.9165 23.5293 54.3901 23.5293ZM54.1265 24.6353C53.731 24.6353 53.4087 24.75 53.1597 24.9795C52.9155 25.209 52.7349 25.5142 52.6177 25.895C52.5005 26.271 52.4419 26.6787 52.4419 27.1182V27.2793C52.4419 27.6504 52.4736 28.002 52.5371 28.334C52.6006 28.666 52.7007 28.9614 52.8374 29.2202C52.9741 29.4741 53.1499 29.6743 53.3647 29.8208C53.5796 29.9673 53.8359 30.0405 54.1338 30.0405C54.4316 30.0405 54.6855 29.9673 54.8955 29.8208C55.1104 29.6743 55.2861 29.4741 55.4229 29.2202C55.5596 28.9614 55.6597 28.666 55.7231 28.334C55.7915 28.002 55.8257 27.6504 55.8257 27.2793V27.1182C55.8257 26.7861 55.7915 26.4712 55.7231 26.1733C55.6597 25.8755 55.5596 25.6118 55.4229 25.3823C55.2861 25.1528 55.1104 24.9722 54.8955 24.8403C54.6807 24.7036 54.4243 24.6353 54.1265 24.6353ZM61.4873 31.1465C61.0137 31.1465 60.5864 31.0757 60.2056 30.9341C59.8247 30.7925 59.5 30.5776 59.2314 30.2896C58.9629 29.9966 58.7578 29.6279 58.6162 29.1836C58.4746 28.7393 58.4038 28.2144 58.4038 27.6089V26.7153C58.4038 26.0171 58.4844 25.4263 58.6455 24.9429C58.8115 24.4595 59.0337 24.0713 59.312 23.7783C59.5903 23.4805 59.9053 23.2656 60.2568 23.1338C60.6084 22.9971 60.9697 22.9287 61.3408 22.9287C61.8389 22.9287 62.2637 23.0093 62.6152 23.1704C62.9668 23.3315 63.2524 23.5708 63.4722 23.8882C63.6919 24.2056 63.853 24.5962 63.9556 25.0601C64.063 25.5239 64.1167 26.0586 64.1167 26.6641V27.4185H59.1655V26.3125H62.8203V26.1294C62.8008 25.7192 62.7446 25.3579 62.6519 25.0454C62.564 24.7329 62.4175 24.4888 62.2124 24.313C62.0073 24.1323 61.7168 24.042 61.3408 24.042C61.1016 24.042 60.8794 24.0835 60.6743 24.1665C60.4741 24.2446 60.3008 24.3838 60.1543 24.584C60.0127 24.7793 59.9004 25.0503 59.8174 25.397C59.7393 25.7437 59.7002 26.1831 59.7002 26.7153V27.6089C59.7002 28.0337 59.7393 28.3999 59.8174 28.7075C59.9004 29.0103 60.02 29.2617 60.1763 29.4619C60.3374 29.6572 60.5327 29.8037 60.7622 29.9014C60.9966 29.9941 61.2627 30.0405 61.5605 30.0405C61.9951 30.0405 62.354 29.9575 62.6372 29.7915C62.9204 29.6206 63.167 29.4033 63.377 29.1396L64.0581 29.9526C63.9165 30.1528 63.731 30.3457 63.5015 30.5312C63.2769 30.7119 62.9985 30.8608 62.6665 30.978C62.3394 31.0903 61.9463 31.1465 61.4873 31.1465ZM66.9805 24.5986V34.0469H65.6841V23.0752H66.8633L66.9805 24.5986ZM71.4116 26.6787V27.4185C71.4116 28.0435 71.353 28.5903 71.2358 29.0591C71.1235 29.5229 70.9551 29.9111 70.7305 30.2236C70.5107 30.5312 70.2397 30.7632 69.9175 30.9194C69.5952 31.0708 69.2266 31.1465 68.8115 31.1465C68.3965 31.1465 68.0352 31.0684 67.7275 30.9121C67.4248 30.751 67.1685 30.519 66.9585 30.2163C66.7534 29.9136 66.5898 29.5498 66.4678 29.125C66.3506 28.6953 66.27 28.2144 66.2261 27.6821V26.5542C66.27 25.9927 66.3506 25.4897 66.4678 25.0454C66.585 24.5962 66.7461 24.2153 66.9512 23.9028C67.1611 23.5854 67.4175 23.3438 67.7202 23.1777C68.0278 23.0117 68.3867 22.9287 68.7969 22.9287C69.2217 22.9287 69.5952 23.002 69.9175 23.1484C70.2446 23.2949 70.5181 23.522 70.7378 23.8296C70.9624 24.1323 71.1309 24.5205 71.2432 24.9941C71.3555 25.4629 71.4116 26.0244 71.4116 26.6787ZM70.1152 27.4185V26.6787C70.1152 26.2393 70.0811 25.856 70.0127 25.5288C69.9492 25.2017 69.8467 24.9307 69.7051 24.7158C69.5635 24.501 69.3853 24.3398 69.1704 24.2324C68.9556 24.125 68.6968 24.0713 68.394 24.0713C68.1353 24.0713 67.9058 24.125 67.7056 24.2324C67.5103 24.3398 67.3418 24.4863 67.2002 24.6719C67.0586 24.8525 66.9414 25.0601 66.8486 25.2944C66.7559 25.5239 66.6875 25.7632 66.6436 26.0122V28.2314C66.7266 28.5439 66.8364 28.8394 66.9731 29.1177C67.1099 29.3911 67.293 29.6133 67.5225 29.7842C67.7568 29.9551 68.0522 30.0405 68.4087 30.0405C68.7065 30.0405 68.9629 29.9868 69.1777 29.8794C69.3926 29.772 69.5684 29.6108 69.7051 29.396C69.8467 29.1763 69.9492 28.9028 70.0127 28.5757C70.0811 28.2437 70.1152 27.8579 70.1152 27.4185ZM74.4878 28.854L77.3589 23.0752H78.6553V31H77.3589V25.2212L74.4878 31H73.1987V23.0752H74.4878V28.854ZM88.5796 23.0752V24.1958H85.4155V23.0752H88.5796ZM85.584 23.0752V31H84.2876V23.0752H85.584ZM89.7441 23.0752V31H88.4478V23.0752H89.7441ZM91.5459 27.4185V26.6641C91.5459 26.0488 91.624 25.5093 91.7803 25.0454C91.9365 24.5767 92.1538 24.186 92.4321 23.8735C92.7104 23.561 93.0352 23.3267 93.4062 23.1704C93.7773 23.0093 94.1753 22.9287 94.6001 22.9287C95.0347 22.9287 95.4375 23.0093 95.8086 23.1704C96.1797 23.3267 96.5044 23.561 96.7827 23.8735C97.0659 24.186 97.2856 24.5767 97.4419 25.0454C97.5981 25.5093 97.6763 26.0488 97.6763 26.6641V27.4185C97.6763 28.0337 97.5981 28.5757 97.4419 29.0444C97.2856 29.5083 97.0684 29.8965 96.79 30.209C96.5117 30.5215 96.187 30.7559 95.8159 30.9121C95.4448 31.0684 95.0444 31.1465 94.6147 31.1465C94.1851 31.1465 93.7847 31.0684 93.4136 30.9121C93.0425 30.7559 92.7153 30.5215 92.4321 30.209C92.1538 29.8965 91.9365 29.5083 91.7803 29.0444C91.624 28.5757 91.5459 28.0337 91.5459 27.4185ZM92.8423 26.6641V27.4185C92.8423 27.853 92.8862 28.2339 92.9741 28.561C93.062 28.8882 93.1865 29.1616 93.3477 29.3813C93.5088 29.6011 93.6968 29.7671 93.9116 29.8794C94.1265 29.9868 94.3608 30.0405 94.6147 30.0405C94.9077 30.0405 95.1641 29.9868 95.3838 29.8794C95.6084 29.7671 95.7939 29.6011 95.9404 29.3813C96.0869 29.1616 96.1968 28.8882 96.27 28.561C96.3433 28.2339 96.3799 27.853 96.3799 27.4185V26.6641C96.3799 26.2295 96.3359 25.8511 96.248 25.5288C96.1602 25.2017 96.0356 24.9282 95.8745 24.7085C95.7134 24.4839 95.5229 24.3179 95.3032 24.2104C95.0884 24.0981 94.854 24.042 94.6001 24.042C94.3511 24.042 94.1191 24.0981 93.9043 24.2104C93.6895 24.3179 93.5015 24.4839 93.3403 24.7085C93.1841 24.9282 93.062 25.2017 92.9741 25.5288C92.8862 25.8511 92.8423 26.2295 92.8423 26.6641ZM103.858 26.5103V27.6089H100.496V26.5103H103.858ZM100.76 23.0752V31H99.4634V23.0752H100.76ZM104.913 23.0752V31H103.616V23.0752H104.913ZM108.274 24.5986V34.0469H106.978V23.0752H108.157L108.274 24.5986ZM112.706 26.6787V27.4185C112.706 28.0435 112.647 28.5903 112.53 29.0591C112.417 29.5229 112.249 29.9111 112.024 30.2236C111.805 30.5312 111.534 30.7632 111.211 30.9194C110.889 31.0708 110.521 31.1465 110.105 31.1465C109.69 31.1465 109.329 31.0684 109.021 30.9121C108.719 30.751 108.462 30.519 108.252 30.2163C108.047 29.9136 107.884 29.5498 107.762 29.125C107.645 28.6953 107.564 28.2144 107.52 27.6821V26.5542C107.564 25.9927 107.645 25.4897 107.762 25.0454C107.879 24.5962 108.04 24.2153 108.245 23.9028C108.455 23.5854 108.711 23.3438 109.014 23.1777C109.322 23.0117 109.681 22.9287 110.091 22.9287C110.516 22.9287 110.889 23.002 111.211 23.1484C111.539 23.2949 111.812 23.522 112.032 23.8296C112.256 24.1323 112.425 24.5205 112.537 24.9941C112.649 25.4629 112.706 26.0244 112.706 26.6787ZM111.409 27.4185V26.6787C111.409 26.2393 111.375 25.856 111.307 25.5288C111.243 25.2017 111.141 24.9307 110.999 24.7158C110.857 24.501 110.679 24.3398 110.464 24.2324C110.25 24.125 109.991 24.0713 109.688 24.0713C109.429 24.0713 109.2 24.125 109 24.2324C108.804 24.3398 108.636 24.4863 108.494 24.6719C108.353 24.8525 108.235 25.0601 108.143 25.2944C108.05 25.5239 107.981 25.7632 107.938 26.0122V28.2314C108.021 28.5439 108.13 28.8394 108.267 29.1177C108.404 29.3911 108.587 29.6133 108.816 29.7842C109.051 29.9551 109.346 30.0405 109.703 30.0405C110 30.0405 110.257 29.9868 110.472 29.8794C110.687 29.772 110.862 29.6108 110.999 29.396C111.141 29.1763 111.243 28.9028 111.307 28.5757C111.375 28.2437 111.409 27.8579 111.409 27.4185ZM118.257 29.645V25.3457C118.257 25.0332 118.208 24.7817 118.111 24.5913C118.018 24.4009 117.876 24.2617 117.686 24.1738C117.5 24.0859 117.266 24.042 116.983 24.042C116.709 24.042 116.473 24.0981 116.272 24.2104C116.077 24.3228 115.926 24.4717 115.818 24.6572C115.716 24.8428 115.665 25.0479 115.665 25.2725H114.368C114.368 24.9893 114.429 24.7085 114.551 24.4302C114.678 24.1519 114.859 23.9004 115.093 23.6758C115.328 23.4463 115.608 23.2656 115.936 23.1338C116.268 22.9971 116.639 22.9287 117.049 22.9287C117.537 22.9287 117.969 23.0093 118.345 23.1704C118.721 23.3267 119.017 23.583 119.231 23.9395C119.446 24.2959 119.554 24.7695 119.554 25.3604V29.2715C119.554 29.5352 119.573 29.8159 119.612 30.1138C119.656 30.4116 119.717 30.668 119.795 30.8828V31H118.455C118.392 30.8438 118.343 30.6362 118.309 30.3774C118.274 30.1138 118.257 29.8696 118.257 29.645ZM118.462 26.1953L118.477 27.1475H117.576C117.269 27.1475 116.988 27.1816 116.734 27.25C116.485 27.3184 116.27 27.4185 116.089 27.5503C115.909 27.6772 115.77 27.8359 115.672 28.0264C115.579 28.2168 115.533 28.4341 115.533 28.6782C115.533 28.9956 115.577 29.2495 115.665 29.4399C115.752 29.6255 115.884 29.7598 116.06 29.8428C116.236 29.9258 116.458 29.9673 116.727 29.9673C117.054 29.9673 117.342 29.8916 117.591 29.7402C117.84 29.5889 118.033 29.4058 118.169 29.1909C118.311 28.9761 118.377 28.7759 118.367 28.5903L118.653 29.1982C118.633 29.3887 118.57 29.5962 118.462 29.8208C118.36 30.0405 118.216 30.2529 118.03 30.458C117.845 30.6582 117.625 30.8242 117.371 30.9561C117.122 31.083 116.841 31.1465 116.529 31.1465C116.07 31.1465 115.667 31.0586 115.32 30.8828C114.979 30.707 114.712 30.4482 114.522 30.1064C114.332 29.7646 114.236 29.3423 114.236 28.8394C114.236 28.4585 114.302 28.1069 114.434 27.7847C114.566 27.4624 114.761 27.1841 115.02 26.9497C115.279 26.7104 115.604 26.5249 115.994 26.3931C116.39 26.2612 116.846 26.1953 117.364 26.1953H118.462ZM124.761 27.5137H122.645L122.63 26.4297H124.329C124.666 26.4297 124.944 26.3882 125.164 26.3052C125.389 26.2222 125.557 26.0977 125.669 25.9316C125.782 25.7656 125.838 25.5605 125.838 25.3164C125.838 25.126 125.806 24.96 125.743 24.8184C125.679 24.6719 125.584 24.5522 125.457 24.4595C125.335 24.3618 125.181 24.291 124.996 24.2471C124.81 24.1982 124.593 24.1738 124.344 24.1738H122.974V31H121.685V23.0752H124.344C124.773 23.0752 125.159 23.1191 125.501 23.207C125.848 23.2949 126.141 23.4292 126.38 23.6099C126.624 23.7856 126.81 24.0103 126.937 24.2837C127.068 24.5571 127.134 24.8794 127.134 25.2505C127.134 25.4897 127.093 25.7168 127.01 25.9316C126.927 26.1465 126.802 26.3369 126.636 26.5029C126.475 26.6689 126.275 26.8057 126.036 26.9131C125.796 27.0156 125.521 27.0815 125.208 27.1108L124.761 27.5137ZM124.761 31H122.161L122.828 29.9014H124.761C125.059 29.9014 125.303 29.855 125.494 29.7622C125.684 29.6646 125.826 29.5278 125.918 29.3521C126.016 29.1714 126.065 28.9565 126.065 28.7075C126.065 28.4585 126.016 28.2461 125.918 28.0703C125.826 27.8896 125.684 27.7529 125.494 27.6602C125.303 27.5625 125.059 27.5137 124.761 27.5137H123.025L123.04 26.4297H125.186L125.64 26.8398C126.016 26.874 126.331 26.9814 126.585 27.1621C126.844 27.3428 127.037 27.5723 127.164 27.8506C127.295 28.124 127.361 28.4219 127.361 28.7441C127.361 29.1152 127.303 29.4424 127.186 29.7256C127.068 30.0088 126.897 30.2456 126.673 30.436C126.448 30.6216 126.175 30.7632 125.853 30.8608C125.53 30.9536 125.167 31 124.761 31ZM130.533 28.854L133.404 23.0752H134.7V31H133.404V25.2212L130.533 31H129.244V23.0752H130.533V28.854ZM139.966 27.5137H137.85L137.835 26.4297H139.534C139.871 26.4297 140.149 26.3882 140.369 26.3052C140.594 26.2222 140.762 26.0977 140.875 25.9316C140.987 25.7656 141.043 25.5605 141.043 25.3164C141.043 25.126 141.011 24.96 140.948 24.8184C140.884 24.6719 140.789 24.5522 140.662 24.4595C140.54 24.3618 140.386 24.291 140.201 24.2471C140.015 24.1982 139.798 24.1738 139.549 24.1738H138.179V31H136.89V23.0752H139.549C139.979 23.0752 140.364 23.1191 140.706 23.207C141.053 23.2949 141.346 23.4292 141.585 23.6099C141.829 23.7856 142.015 24.0103 142.142 24.2837C142.273 24.5571 142.339 24.8794 142.339 25.2505C142.339 25.4897 142.298 25.7168 142.215 25.9316C142.132 26.1465 142.007 26.3369 141.841 26.5029C141.68 26.6689 141.48 26.8057 141.241 26.9131C141.001 27.0156 140.726 27.0815 140.413 27.1108L139.966 27.5137ZM139.966 31H137.366L138.033 29.9014H139.966C140.264 29.9014 140.508 29.855 140.699 29.7622C140.889 29.6646 141.031 29.5278 141.124 29.3521C141.221 29.1714 141.27 28.9565 141.27 28.7075C141.27 28.4585 141.221 28.2461 141.124 28.0703C141.031 27.8896 140.889 27.7529 140.699 27.6602C140.508 27.5625 140.264 27.5137 139.966 27.5137H138.23L138.245 26.4297H140.391L140.845 26.8398C141.221 26.874 141.536 26.9814 141.79 27.1621C142.049 27.3428 142.242 27.5723 142.369 27.8506C142.5 28.124 142.566 28.4219 142.566 28.7441C142.566 29.1152 142.508 29.4424 142.391 29.7256C142.273 30.0088 142.103 30.2456 141.878 30.436C141.653 30.6216 141.38 30.7632 141.058 30.8608C140.735 30.9536 140.372 31 139.966 31ZM144.449 23.0752H145.745V29.8867H147.979V23.0752H149.275V29.8867H151.517V23.0752H152.806V31H144.449V23.0752ZM156.731 30.1797L158.497 23.0752H159.874L157.259 32.2231C157.195 32.4185 157.11 32.6284 157.002 32.853C156.9 33.0825 156.768 33.2998 156.607 33.5049C156.446 33.71 156.253 33.876 156.028 34.0029C155.804 34.1348 155.54 34.2007 155.237 34.2007C155.145 34.2007 155.025 34.186 154.878 34.1567C154.737 34.1274 154.634 34.103 154.571 34.0835V32.9849C154.6 32.9897 154.646 32.9946 154.71 32.9995C154.773 33.0093 154.82 33.0142 154.849 33.0142C155.103 33.0142 155.318 32.9727 155.494 32.8896C155.674 32.8115 155.828 32.6772 155.955 32.4868C156.082 32.3013 156.189 32.0449 156.277 31.7178L156.731 30.1797ZM155.589 23.0752L157.164 29.2275L157.5 30.6558L156.578 31.1538L154.175 23.0752H155.589ZM165.125 26.437V27.543H161.434V26.437H165.125ZM162.554 23.0752V31H161.265V23.0752H162.554ZM164.012 27.1255V26.957C164.012 26.3857 164.08 25.856 164.217 25.3677C164.358 24.8745 164.561 24.4473 164.825 24.0859C165.093 23.7197 165.416 23.4365 165.792 23.2363C166.167 23.0312 166.59 22.9287 167.059 22.9287C167.537 22.9287 167.964 23.0312 168.34 23.2363C168.716 23.4365 169.036 23.7197 169.3 24.0859C169.568 24.4473 169.771 24.8745 169.908 25.3677C170.049 25.856 170.12 26.3857 170.12 26.957V27.1255C170.12 27.6968 170.049 28.2266 169.908 28.7148C169.771 29.2031 169.568 29.6304 169.3 29.9966C169.036 30.3579 168.716 30.6411 168.34 30.8462C167.964 31.0464 167.54 31.1465 167.066 31.1465C166.592 31.1465 166.167 31.0464 165.792 30.8462C165.416 30.6411 165.093 30.3579 164.825 29.9966C164.561 29.6304 164.358 29.2031 164.217 28.7148C164.08 28.2266 164.012 27.6968 164.012 27.1255ZM165.308 26.957V27.1255C165.308 27.521 165.342 27.8945 165.411 28.2461C165.484 28.5928 165.594 28.9004 165.74 29.1689C165.887 29.4375 166.07 29.6499 166.29 29.8062C166.509 29.9575 166.768 30.0332 167.066 30.0332C167.364 30.0332 167.623 29.9575 167.842 29.8062C168.062 29.6499 168.245 29.4375 168.392 29.1689C168.538 28.9004 168.646 28.5928 168.714 28.2461C168.787 27.8945 168.824 27.521 168.824 27.1255V26.957C168.824 26.5664 168.787 26.1978 168.714 25.8511C168.641 25.4995 168.531 25.1895 168.384 24.9209C168.243 24.6475 168.06 24.4326 167.835 24.2764C167.615 24.1201 167.356 24.042 167.059 24.042C166.761 24.042 166.502 24.1201 166.282 24.2764C166.062 24.4326 165.879 24.6475 165.733 24.9209C165.591 25.1895 165.484 25.4995 165.411 25.8511C165.342 26.1978 165.308 26.5664 165.308 26.957ZM174.485 30.0405C174.744 30.0405 174.979 29.9893 175.188 29.8867C175.403 29.7793 175.579 29.6133 175.716 29.3887C175.853 29.1592 175.931 28.8613 175.95 28.4951H177.166C177.146 29.0225 177.012 29.4863 176.763 29.8867C176.519 30.2822 176.197 30.5923 175.796 30.8169C175.401 31.0366 174.964 31.1465 174.485 31.1465C173.973 31.1465 173.526 31.0635 173.145 30.8975C172.769 30.7314 172.457 30.4922 172.208 30.1797C171.963 29.8623 171.78 29.479 171.658 29.0298C171.536 28.5757 171.475 28.0605 171.475 27.4844V26.5908C171.475 26.0146 171.536 25.502 171.658 25.0527C171.78 24.5986 171.963 24.2153 172.208 23.9028C172.457 23.5854 172.769 23.3438 173.145 23.1777C173.526 23.0117 173.973 22.9287 174.485 22.9287C175.022 22.9287 175.486 23.0435 175.877 23.2729C176.272 23.4976 176.58 23.8247 176.8 24.2544C177.024 24.6792 177.146 25.1943 177.166 25.7998H175.95C175.931 25.4092 175.86 25.0845 175.738 24.8257C175.616 24.562 175.45 24.3667 175.24 24.2397C175.03 24.1079 174.778 24.042 174.485 24.042C174.144 24.042 173.86 24.103 173.636 24.2251C173.416 24.3423 173.243 24.5132 173.116 24.7378C172.989 24.9624 172.898 25.231 172.845 25.5435C172.796 25.856 172.771 26.2051 172.771 26.5908V27.4844C172.771 27.8701 172.796 28.2217 172.845 28.5391C172.898 28.8516 172.986 29.1201 173.108 29.3447C173.235 29.5693 173.411 29.7427 173.636 29.8647C173.86 29.9819 174.144 30.0405 174.485 30.0405ZM179.979 27.2207H181.37L179.415 31H178.023L179.979 27.2207ZM180.997 23.0752H183.838V31H182.549V24.1738H180.997C180.699 24.1738 180.455 24.2397 180.264 24.3716C180.074 24.4985 179.935 24.6646 179.847 24.8696C179.759 25.0747 179.715 25.2871 179.715 25.5068C179.715 25.7217 179.754 25.9292 179.832 26.1294C179.915 26.3247 180.042 26.4858 180.213 26.6128C180.389 26.7397 180.613 26.8032 180.887 26.8032H182.872V27.9165H180.887C180.496 27.9165 180.147 27.8555 179.839 27.7334C179.537 27.6113 179.278 27.4429 179.063 27.228C178.853 27.0083 178.692 26.752 178.58 26.459C178.472 26.1611 178.418 25.8389 178.418 25.4922C178.418 25.1455 178.475 24.8257 178.587 24.5327C178.704 24.2397 178.873 23.9834 179.092 23.7637C179.317 23.5439 179.588 23.3755 179.905 23.2583C180.223 23.1362 180.586 23.0752 180.997 23.0752ZM193.235 29.1982L195.352 23.0752H196.583L193.682 31H192.789L189.896 23.0752H191.126L193.235 29.1982ZM190.752 23.0752V31H189.463V23.0752H190.752ZM195.674 31V23.0752H196.971V31H195.674ZM198.772 27.4185V26.6641C198.772 26.0488 198.851 25.5093 199.007 25.0454C199.163 24.5767 199.38 24.186 199.659 23.8735C199.937 23.561 200.262 23.3267 200.633 23.1704C201.004 23.0093 201.402 22.9287 201.827 22.9287C202.261 22.9287 202.664 23.0093 203.035 23.1704C203.406 23.3267 203.731 23.561 204.009 23.8735C204.292 24.186 204.512 24.5767 204.668 25.0454C204.825 25.5093 204.903 26.0488 204.903 26.6641V27.4185C204.903 28.0337 204.825 28.5757 204.668 29.0444C204.512 29.5083 204.295 29.8965 204.017 30.209C203.738 30.5215 203.414 30.7559 203.042 30.9121C202.671 31.0684 202.271 31.1465 201.841 31.1465C201.412 31.1465 201.011 31.0684 200.64 30.9121C200.269 30.7559 199.942 30.5215 199.659 30.209C199.38 29.8965 199.163 29.5083 199.007 29.0444C198.851 28.5757 198.772 28.0337 198.772 27.4185ZM200.069 26.6641V27.4185C200.069 27.853 200.113 28.2339 200.201 28.561C200.289 28.8882 200.413 29.1616 200.574 29.3813C200.735 29.6011 200.923 29.7671 201.138 29.8794C201.353 29.9868 201.587 30.0405 201.841 30.0405C202.134 30.0405 202.391 29.9868 202.61 29.8794C202.835 29.7671 203.021 29.6011 203.167 29.3813C203.313 29.1616 203.423 28.8882 203.497 28.561C203.57 28.2339 203.606 27.853 203.606 27.4185V26.6641C203.606 26.2295 203.562 25.8511 203.475 25.5288C203.387 25.2017 203.262 24.9282 203.101 24.7085C202.94 24.4839 202.75 24.3179 202.53 24.2104C202.315 24.0981 202.081 24.042 201.827 24.042C201.578 24.042 201.346 24.0981 201.131 24.2104C200.916 24.3179 200.728 24.4839 200.567 24.7085C200.411 24.9282 200.289 25.2017 200.201 25.5288C200.113 25.8511 200.069 26.2295 200.069 26.6641ZM207.254 23.0752H208.55L208.455 26.0415C208.431 26.7935 208.357 27.4429 208.235 27.9897C208.113 28.5366 207.957 29.0029 207.767 29.3887C207.576 29.7695 207.361 30.0894 207.122 30.3481C206.883 30.6069 206.634 30.8242 206.375 31H205.745L205.774 29.894L206.031 29.8867C206.172 29.6963 206.307 29.501 206.434 29.3008C206.561 29.0957 206.675 28.854 206.778 28.5757C206.88 28.2925 206.963 27.9482 207.027 27.543C207.095 27.1328 207.139 26.6323 207.159 26.0415L207.254 23.0752ZM207.554 23.0752H211.678V31H210.381V24.3276H207.554V23.0752ZM205.496 29.8867H212.601V33.3364H211.304V31H206.792V33.3364H205.489L205.496 29.8867ZM216.922 31.1465C216.448 31.1465 216.021 31.0757 215.64 30.9341C215.259 30.7925 214.935 30.5776 214.666 30.2896C214.397 29.9966 214.192 29.6279 214.051 29.1836C213.909 28.7393 213.838 28.2144 213.838 27.6089V26.7153C213.838 26.0171 213.919 25.4263 214.08 24.9429C214.246 24.4595 214.468 24.0713 214.747 23.7783C215.025 23.4805 215.34 23.2656 215.691 23.1338C216.043 22.9971 216.404 22.9287 216.775 22.9287C217.273 22.9287 217.698 23.0093 218.05 23.1704C218.401 23.3315 218.687 23.5708 218.907 23.8882C219.126 24.2056 219.288 24.5962 219.39 25.0601C219.498 25.5239 219.551 26.0586 219.551 26.6641V27.4185H214.6V26.3125H218.255V26.1294C218.235 25.7192 218.179 25.3579 218.086 25.0454C217.999 24.7329 217.852 24.4888 217.647 24.313C217.442 24.1323 217.151 24.042 216.775 24.042C216.536 24.042 216.314 24.0835 216.109 24.1665C215.909 24.2446 215.735 24.3838 215.589 24.584C215.447 24.7793 215.335 25.0503 215.252 25.397C215.174 25.7437 215.135 26.1831 215.135 26.7153V27.6089C215.135 28.0337 215.174 28.3999 215.252 28.7075C215.335 29.0103 215.455 29.2617 215.611 29.4619C215.772 29.6572 215.967 29.8037 216.197 29.9014C216.431 29.9941 216.697 30.0405 216.995 30.0405C217.43 30.0405 217.789 29.9575 218.072 29.7915C218.355 29.6206 218.602 29.4033 218.812 29.1396L219.493 29.9526C219.351 30.1528 219.166 30.3457 218.936 30.5312C218.711 30.7119 218.433 30.8608 218.101 30.978C217.774 31.0903 217.381 31.1465 216.922 31.1465ZM225.542 23.0752V24.1958H222.386V23.0752H225.542ZM226.7 23.0752V31H225.411V23.0752H226.7ZM222.078 23.0752H223.375L223.191 26.8984C223.162 27.4893 223.113 28.0117 223.045 28.4658C222.981 28.915 222.891 29.3008 222.774 29.623C222.662 29.9453 222.52 30.209 222.349 30.4141C222.183 30.6143 221.983 30.7632 221.749 30.8608C221.519 30.9536 221.253 31 220.95 31H220.562V29.8062L220.818 29.7842C220.989 29.7695 221.136 29.7207 221.258 29.6377C221.385 29.5547 221.487 29.4326 221.565 29.2715C221.648 29.1055 221.714 28.8931 221.763 28.6343C221.817 28.3755 221.858 28.0679 221.888 27.7114C221.917 27.355 221.939 26.9399 221.954 26.4663L222.078 23.0752ZM229.864 25.7998H231.797C232.344 25.7998 232.803 25.9121 233.174 26.1367C233.545 26.3564 233.826 26.6616 234.017 27.0522C234.207 27.438 234.302 27.8774 234.302 28.3706C234.302 28.7368 234.249 29.0811 234.141 29.4033C234.034 29.7207 233.873 29.999 233.658 30.2383C233.448 30.4775 233.187 30.6655 232.874 30.8022C232.566 30.9341 232.208 31 231.797 31H228.897V23.0752H230.186V29.8867H231.797C232.1 29.8867 232.339 29.8159 232.515 29.6743C232.691 29.5327 232.815 29.3496 232.889 29.125C232.967 28.9004 233.006 28.666 233.006 28.4219C233.006 28.1826 232.967 27.9482 232.889 27.7188C232.815 27.4893 232.691 27.2988 232.515 27.1475C232.339 26.9912 232.1 26.9131 231.797 26.9131H229.864V25.7998ZM34.2705 42.5986V52.0469H32.9741V41.0752H34.1533L34.2705 42.5986ZM38.7017 44.6787V45.4185C38.7017 46.0435 38.6431 46.5903 38.5259 47.0591C38.4136 47.5229 38.2451 47.9111 38.0205 48.2236C37.8008 48.5312 37.5298 48.7632 37.2075 48.9194C36.8853 49.0708 36.5166 49.1465 36.1016 49.1465C35.6865 49.1465 35.3252 49.0684 35.0176 48.9121C34.7148 48.751 34.4585 48.519 34.2485 48.2163C34.0435 47.9136 33.8799 47.5498 33.7578 47.125C33.6406 46.6953 33.5601 46.2144 33.5161 45.6821V44.5542C33.5601 43.9927 33.6406 43.4897 33.7578 43.0454C33.875 42.5962 34.0361 42.2153 34.2412 41.9028C34.4512 41.5854 34.7075 41.3438 35.0103 41.1777C35.3179 41.0117 35.6768 40.9287 36.0869 40.9287C36.5117 40.9287 36.8853 41.002 37.2075 41.1484C37.5347 41.2949 37.8081 41.522 38.0278 41.8296C38.2524 42.1323 38.4209 42.5205 38.5332 42.9941C38.6455 43.4629 38.7017 44.0244 38.7017 44.6787ZM37.4053 45.4185V44.6787C37.4053 44.2393 37.3711 43.856 37.3027 43.5288C37.2393 43.2017 37.1367 42.9307 36.9951 42.7158C36.8535 42.501 36.6753 42.3398 36.4604 42.2324C36.2456 42.125 35.9868 42.0713 35.6841 42.0713C35.4253 42.0713 35.1958 42.125 34.9956 42.2324C34.8003 42.3398 34.6318 42.4863 34.4902 42.6719C34.3486 42.8525 34.2314 43.0601 34.1387 43.2944C34.0459 43.5239 33.9775 43.7632 33.9336 44.0122V46.2314C34.0166 46.5439 34.1265 46.8394 34.2632 47.1177C34.3999 47.3911 34.583 47.6133 34.8125 47.7842C35.0469 47.9551 35.3423 48.0405 35.6987 48.0405C35.9966 48.0405 36.2529 47.9868 36.4678 47.8794C36.6826 47.772 36.8584 47.6108 36.9951 47.396C37.1367 47.1763 37.2393 46.9028 37.3027 46.5757C37.3711 46.2437 37.4053 45.8579 37.4053 45.4185ZM40.1006 45.4185V44.6641C40.1006 44.0488 40.1787 43.5093 40.335 43.0454C40.4912 42.5767 40.7085 42.186 40.9868 41.8735C41.2651 41.561 41.5898 41.3267 41.9609 41.1704C42.332 41.0093 42.73 40.9287 43.1548 40.9287C43.5894 40.9287 43.9922 41.0093 44.3633 41.1704C44.7344 41.3267 45.0591 41.561 45.3374 41.8735C45.6206 42.186 45.8403 42.5767 45.9966 43.0454C46.1528 43.5093 46.231 44.0488 46.231 44.6641V45.4185C46.231 46.0337 46.1528 46.5757 45.9966 47.0444C45.8403 47.5083 45.623 47.8965 45.3447 48.209C45.0664 48.5215 44.7417 48.7559 44.3706 48.9121C43.9995 49.0684 43.5991 49.1465 43.1694 49.1465C42.7397 49.1465 42.3394 49.0684 41.9683 48.9121C41.5972 48.7559 41.27 48.5215 40.9868 48.209C40.7085 47.8965 40.4912 47.5083 40.335 47.0444C40.1787 46.5757 40.1006 46.0337 40.1006 45.4185ZM41.397 44.6641V45.4185C41.397 45.853 41.4409 46.2339 41.5288 46.561C41.6167 46.8882 41.7412 47.1616 41.9023 47.3813C42.0635 47.6011 42.2515 47.7671 42.4663 47.8794C42.6812 47.9868 42.9155 48.0405 43.1694 48.0405C43.4624 48.0405 43.7188 47.9868 43.9385 47.8794C44.1631 47.7671 44.3486 47.6011 44.4951 47.3813C44.6416 47.1616 44.7515 46.8882 44.8247 46.561C44.8979 46.2339 44.9346 45.853 44.9346 45.4185V44.6641C44.9346 44.2295 44.8906 43.8511 44.8027 43.5288C44.7148 43.2017 44.5903 42.9282 44.4292 42.7085C44.2681 42.4839 44.0776 42.3179 43.8579 42.2104C43.6431 42.0981 43.4087 42.042 43.1548 42.042C42.9058 42.042 42.6738 42.0981 42.459 42.2104C42.2441 42.3179 42.0562 42.4839 41.895 42.7085C41.7388 42.9282 41.6167 43.2017 41.5288 43.5288C41.4409 43.8511 41.397 44.2295 41.397 44.6641ZM52.1562 37.6255H53.2036C53.2036 38.104 53.1377 38.4849 53.0059 38.7681C52.8789 39.0464 52.708 39.2612 52.4932 39.4126C52.2783 39.564 52.0391 39.6787 51.7754 39.7568C51.5117 39.835 51.2432 39.9106 50.9697 39.9839C50.6279 40.0718 50.3081 40.2109 50.0103 40.4014C49.7124 40.5869 49.4561 40.8506 49.2412 41.1924C49.0312 41.5342 48.8774 41.9785 48.7798 42.5254C48.687 43.0723 48.6699 43.7485 48.7285 44.5542V45.228H47.6738V44.5542C47.6738 43.6509 47.7471 42.8623 47.8936 42.1885C48.04 41.5146 48.2476 40.9458 48.5161 40.4819C48.7847 40.0181 49.1021 39.6494 49.4683 39.376C49.8345 39.1025 50.2397 38.9146 50.6841 38.812C50.9673 38.7388 51.2188 38.6606 51.4385 38.5776C51.6631 38.4897 51.8389 38.3726 51.9658 38.2261C52.0928 38.0796 52.1562 37.8794 52.1562 37.6255ZM50.9185 41.5293C51.353 41.5293 51.7388 41.6196 52.0757 41.8003C52.4126 41.981 52.6982 42.2324 52.9326 42.5547C53.167 42.877 53.3452 43.2578 53.4673 43.6973C53.5894 44.1318 53.6504 44.6055 53.6504 45.1182V45.2793C53.6504 45.8311 53.5845 46.3438 53.4526 46.8174C53.3208 47.2861 53.1255 47.6963 52.8667 48.0479C52.6128 48.3945 52.3003 48.6655 51.9292 48.8608C51.5581 49.0562 51.1357 49.1538 50.6621 49.1538C50.1885 49.1538 49.7661 49.0562 49.395 48.8608C49.0288 48.6655 48.7163 48.3945 48.4575 48.0479C48.2036 47.6963 48.0083 47.2861 47.8716 46.8174C47.7397 46.3438 47.6738 45.8311 47.6738 45.2793V45.1182C47.6738 44.9961 47.6958 44.8765 47.7397 44.7593C47.7837 44.6421 47.835 44.5225 47.8936 44.4004C47.9521 44.2783 48.0059 44.1489 48.0547 44.0122C48.2061 43.5728 48.416 43.165 48.6846 42.7891C48.9531 42.4131 49.2729 42.1104 49.644 41.8809C50.02 41.6465 50.4448 41.5293 50.9185 41.5293ZM50.6548 42.6353C50.2593 42.6353 49.937 42.75 49.688 42.9795C49.4438 43.209 49.2632 43.5142 49.146 43.895C49.0288 44.271 48.9702 44.6787 48.9702 45.1182V45.2793C48.9702 45.6504 49.002 46.002 49.0654 46.334C49.1289 46.666 49.229 46.9614 49.3657 47.2202C49.5024 47.4741 49.6782 47.6743 49.8931 47.8208C50.1079 47.9673 50.3643 48.0405 50.6621 48.0405C50.96 48.0405 51.2139 47.9673 51.4238 47.8208C51.6387 47.6743 51.8145 47.4741 51.9512 47.2202C52.0879 46.9614 52.188 46.666 52.2515 46.334C52.3198 46.002 52.354 45.6504 52.354 45.2793V45.1182C52.354 44.7861 52.3198 44.4712 52.2515 44.1733C52.188 43.8755 52.0879 43.6118 51.9512 43.3823C51.8145 43.1528 51.6387 42.9722 51.4238 42.8403C51.209 42.7036 50.9526 42.6353 50.6548 42.6353ZM54.9102 45.4185V44.6641C54.9102 44.0488 54.9883 43.5093 55.1445 43.0454C55.3008 42.5767 55.5181 42.186 55.7964 41.8735C56.0747 41.561 56.3994 41.3267 56.7705 41.1704C57.1416 41.0093 57.5396 40.9287 57.9644 40.9287C58.3989 40.9287 58.8018 41.0093 59.1729 41.1704C59.5439 41.3267 59.8687 41.561 60.147 41.8735C60.4302 42.186 60.6499 42.5767 60.8062 43.0454C60.9624 43.5093 61.0405 44.0488 61.0405 44.6641V45.4185C61.0405 46.0337 60.9624 46.5757 60.8062 47.0444C60.6499 47.5083 60.4326 47.8965 60.1543 48.209C59.876 48.5215 59.5513 48.7559 59.1802 48.9121C58.8091 49.0684 58.4087 49.1465 57.979 49.1465C57.5493 49.1465 57.1489 49.0684 56.7778 48.9121C56.4067 48.7559 56.0796 48.5215 55.7964 48.209C55.5181 47.8965 55.3008 47.5083 55.1445 47.0444C54.9883 46.5757 54.9102 46.0337 54.9102 45.4185ZM56.2065 44.6641V45.4185C56.2065 45.853 56.2505 46.2339 56.3384 46.561C56.4263 46.8882 56.5508 47.1616 56.7119 47.3813C56.873 47.6011 57.061 47.7671 57.2759 47.8794C57.4907 47.9868 57.7251 48.0405 57.979 48.0405C58.272 48.0405 58.5283 47.9868 58.748 47.8794C58.9727 47.7671 59.1582 47.6011 59.3047 47.3813C59.4512 47.1616 59.561 46.8882 59.6343 46.561C59.7075 46.2339 59.7441 45.853 59.7441 45.4185V44.6641C59.7441 44.2295 59.7002 43.8511 59.6123 43.5288C59.5244 43.2017 59.3999 42.9282 59.2388 42.7085C59.0776 42.4839 58.8872 42.3179 58.6675 42.2104C58.4526 42.0981 58.2183 42.042 57.9644 42.042C57.7153 42.042 57.4834 42.0981 57.2686 42.2104C57.0537 42.3179 56.8657 42.4839 56.7046 42.7085C56.5483 42.9282 56.4263 43.2017 56.3384 43.5288C56.2505 43.8511 56.2065 44.2295 56.2065 44.6641ZM65.3984 41.0752V49H64.1021V41.0752H65.3984ZM67.5591 41.0752V42.1738H61.9707V41.0752H67.5591ZM72.7007 47.645V43.3457C72.7007 43.0332 72.6519 42.7817 72.5542 42.5913C72.4614 42.4009 72.3198 42.2617 72.1294 42.1738C71.9438 42.0859 71.7095 42.042 71.4263 42.042C71.1528 42.042 70.916 42.0981 70.7158 42.2104C70.5205 42.3228 70.3691 42.4717 70.2617 42.6572C70.1592 42.8428 70.1079 43.0479 70.1079 43.2725H68.8115C68.8115 42.9893 68.8726 42.7085 68.9946 42.4302C69.1216 42.1519 69.3022 41.9004 69.5366 41.6758C69.771 41.4463 70.0518 41.2656 70.3789 41.1338C70.7109 40.9971 71.082 40.9287 71.4922 40.9287C71.9805 40.9287 72.4126 41.0093 72.7886 41.1704C73.1646 41.3267 73.46 41.583 73.6748 41.9395C73.8896 42.2959 73.9971 42.7695 73.9971 43.3604V47.2715C73.9971 47.5352 74.0166 47.8159 74.0557 48.1138C74.0996 48.4116 74.1606 48.668 74.2388 48.8828V49H72.8984C72.835 48.8438 72.7861 48.6362 72.752 48.3774C72.7178 48.1138 72.7007 47.8696 72.7007 47.645ZM72.9058 44.1953L72.9204 45.1475H72.0195C71.7119 45.1475 71.4312 45.1816 71.1772 45.25C70.9282 45.3184 70.7134 45.4185 70.5327 45.5503C70.3521 45.6772 70.2129 45.8359 70.1152 46.0264C70.0225 46.2168 69.9761 46.4341 69.9761 46.6782C69.9761 46.9956 70.02 47.2495 70.1079 47.4399C70.1958 47.6255 70.3276 47.7598 70.5034 47.8428C70.6792 47.9258 70.9014 47.9673 71.1699 47.9673C71.4971 47.9673 71.7852 47.8916 72.0342 47.7402C72.2832 47.5889 72.4761 47.4058 72.6128 47.1909C72.7544 46.9761 72.8203 46.7759 72.8105 46.5903L73.0962 47.1982C73.0767 47.3887 73.0132 47.5962 72.9058 47.8208C72.8032 48.0405 72.6592 48.2529 72.4736 48.458C72.2881 48.6582 72.0684 48.8242 71.8145 48.9561C71.5654 49.083 71.2847 49.1465 70.9722 49.1465C70.5132 49.1465 70.1104 49.0586 69.7637 48.8828C69.4219 48.707 69.1558 48.4482 68.9653 48.1064C68.7749 47.7646 68.6797 47.3423 68.6797 46.8394C68.6797 46.4585 68.7456 46.1069 68.8774 45.7847C69.0093 45.4624 69.2046 45.1841 69.4634 44.9497C69.7222 44.7104 70.0469 44.5249 70.4375 44.3931C70.833 44.2612 71.2896 44.1953 71.8071 44.1953H72.9058ZM80.8599 46.854L83.731 41.0752H85.0273V49H83.731V43.2212L80.8599 49H79.5708V41.0752H80.8599V46.854ZM94.9517 41.0752V42.1958H91.7876V41.0752H94.9517ZM91.9561 41.0752V49H90.6597V41.0752H91.9561ZM96.1162 41.0752V49H94.8198V41.0752H96.1162ZM97.918 45.4185V44.6641C97.918 44.0488 97.9961 43.5093 98.1523 43.0454C98.3086 42.5767 98.5259 42.186 98.8042 41.8735C99.0825 41.561 99.4072 41.3267 99.7783 41.1704C100.149 41.0093 100.547 40.9287 100.972 40.9287C101.407 40.9287 101.81 41.0093 102.181 41.1704C102.552 41.3267 102.876 41.561 103.155 41.8735C103.438 42.186 103.658 42.5767 103.814 43.0454C103.97 43.5093 104.048 44.0488 104.048 44.6641V45.4185C104.048 46.0337 103.97 46.5757 103.814 47.0444C103.658 47.5083 103.44 47.8965 103.162 48.209C102.884 48.5215 102.559 48.7559 102.188 48.9121C101.817 49.0684 101.417 49.1465 100.987 49.1465C100.557 49.1465 100.157 49.0684 99.7856 48.9121C99.4146 48.7559 99.0874 48.5215 98.8042 48.209C98.5259 47.8965 98.3086 47.5083 98.1523 47.0444C97.9961 46.5757 97.918 46.0337 97.918 45.4185ZM99.2144 44.6641V45.4185C99.2144 45.853 99.2583 46.2339 99.3462 46.561C99.4341 46.8882 99.5586 47.1616 99.7197 47.3813C99.8809 47.6011 100.069 47.7671 100.284 47.8794C100.499 47.9868 100.733 48.0405 100.987 48.0405C101.28 48.0405 101.536 47.9868 101.756 47.8794C101.98 47.7671 102.166 47.6011 102.312 47.3813C102.459 47.1616 102.569 46.8882 102.642 46.561C102.715 46.2339 102.752 45.853 102.752 45.4185V44.6641C102.752 44.2295 102.708 43.8511 102.62 43.5288C102.532 43.2017 102.408 42.9282 102.247 42.7085C102.085 42.4839 101.895 42.3179 101.675 42.2104C101.46 42.0981 101.226 42.042 100.972 42.042C100.723 42.042 100.491 42.0981 100.276 42.2104C100.062 42.3179 99.8735 42.4839 99.7124 42.7085C99.5562 42.9282 99.4341 43.2017 99.3462 43.5288C99.2583 43.8511 99.2144 44.2295 99.2144 44.6641ZM106.399 41.0752H107.696L107.601 44.0415C107.576 44.7935 107.503 45.4429 107.381 45.9897C107.259 46.5366 107.103 47.0029 106.912 47.3887C106.722 47.7695 106.507 48.0894 106.268 48.3481C106.028 48.6069 105.779 48.8242 105.521 49H104.891L104.92 47.894L105.176 47.8867C105.318 47.6963 105.452 47.501 105.579 47.3008C105.706 47.0957 105.821 46.854 105.923 46.5757C106.026 46.2925 106.109 45.9482 106.172 45.543C106.241 45.1328 106.285 44.6323 106.304 44.0415L106.399 41.0752ZM106.7 41.0752H110.823V49H109.527V42.3276H106.7V41.0752ZM104.642 47.8867H111.746V51.3364H110.45V49H105.938V51.3364H104.634L104.642 47.8867ZM115.936 41.0752V49H114.639V41.0752H115.936ZM118.096 41.0752V42.1738H112.508V41.0752H118.096ZM122.667 45.5137H120.55L120.535 44.4297H122.234C122.571 44.4297 122.85 44.3882 123.069 44.3052C123.294 44.2222 123.462 44.0977 123.575 43.9316C123.687 43.7656 123.743 43.5605 123.743 43.3164C123.743 43.126 123.711 42.96 123.648 42.8184C123.584 42.6719 123.489 42.5522 123.362 42.4595C123.24 42.3618 123.086 42.291 122.901 42.2471C122.715 42.1982 122.498 42.1738 122.249 42.1738H120.879V49H119.59V41.0752H122.249C122.679 41.0752 123.064 41.1191 123.406 41.207C123.753 41.2949 124.046 41.4292 124.285 41.6099C124.529 41.7856 124.715 42.0103 124.842 42.2837C124.974 42.5571 125.04 42.8794 125.04 43.2505C125.04 43.4897 124.998 43.7168 124.915 43.9316C124.832 44.1465 124.708 44.3369 124.542 44.5029C124.38 44.6689 124.18 44.8057 123.941 44.9131C123.702 45.0156 123.426 45.0815 123.113 45.1108L122.667 45.5137ZM122.667 49H120.066L120.733 47.9014H122.667C122.964 47.9014 123.208 47.855 123.399 47.7622C123.589 47.6646 123.731 47.5278 123.824 47.3521C123.921 47.1714 123.97 46.9565 123.97 46.7075C123.97 46.4585 123.921 46.2461 123.824 46.0703C123.731 45.8896 123.589 45.7529 123.399 45.6602C123.208 45.5625 122.964 45.5137 122.667 45.5137H120.931L120.945 44.4297H123.091L123.545 44.8398C123.921 44.874 124.236 44.9814 124.49 45.1621C124.749 45.3428 124.942 45.5723 125.069 45.8506C125.201 46.124 125.267 46.4219 125.267 46.7441C125.267 47.1152 125.208 47.4424 125.091 47.7256C124.974 48.0088 124.803 48.2456 124.578 48.436C124.354 48.6216 124.08 48.7632 123.758 48.8608C123.436 48.9536 123.072 49 122.667 49ZM129.866 49.1465C129.393 49.1465 128.965 49.0757 128.584 48.9341C128.204 48.7925 127.879 48.5776 127.61 48.2896C127.342 47.9966 127.137 47.6279 126.995 47.1836C126.854 46.7393 126.783 46.2144 126.783 45.6089V44.7153C126.783 44.0171 126.863 43.4263 127.024 42.9429C127.19 42.4595 127.413 42.0713 127.691 41.7783C127.969 41.4805 128.284 41.2656 128.636 41.1338C128.987 40.9971 129.349 40.9287 129.72 40.9287C130.218 40.9287 130.643 41.0093 130.994 41.1704C131.346 41.3315 131.631 41.5708 131.851 41.8882C132.071 42.2056 132.232 42.5962 132.334 43.0601C132.442 43.5239 132.496 44.0586 132.496 44.6641V45.4185H127.544V44.3125H131.199V44.1294C131.18 43.7192 131.124 43.3579 131.031 43.0454C130.943 42.7329 130.796 42.4888 130.591 42.313C130.386 42.1323 130.096 42.042 129.72 42.042C129.48 42.042 129.258 42.0835 129.053 42.1665C128.853 42.2446 128.68 42.3838 128.533 42.584C128.392 42.7793 128.279 43.0503 128.196 43.397C128.118 43.7437 128.079 44.1831 128.079 44.7153V45.6089C128.079 46.0337 128.118 46.3999 128.196 46.7075C128.279 47.0103 128.399 47.2617 128.555 47.4619C128.716 47.6572 128.912 47.8037 129.141 47.9014C129.375 47.9941 129.642 48.0405 129.939 48.0405C130.374 48.0405 130.733 47.9575 131.016 47.7915C131.299 47.6206 131.546 47.4033 131.756 47.1396L132.437 47.9526C132.295 48.1528 132.11 48.3457 131.88 48.5312C131.656 48.7119 131.377 48.8608 131.045 48.978C130.718 49.0903 130.325 49.1465 129.866 49.1465ZM135.359 42.5986V52.0469H134.063V41.0752H135.242L135.359 42.5986ZM139.791 44.6787V45.4185C139.791 46.0435 139.732 46.5903 139.615 47.0591C139.502 47.5229 139.334 47.9111 139.109 48.2236C138.89 48.5312 138.619 48.7632 138.296 48.9194C137.974 49.0708 137.605 49.1465 137.19 49.1465C136.775 49.1465 136.414 49.0684 136.106 48.9121C135.804 48.751 135.547 48.519 135.337 48.2163C135.132 47.9136 134.969 47.5498 134.847 47.125C134.729 46.6953 134.649 46.2144 134.605 45.6821V44.5542C134.649 43.9927 134.729 43.4897 134.847 43.0454C134.964 42.5962 135.125 42.2153 135.33 41.9028C135.54 41.5854 135.796 41.3438 136.099 41.1777C136.407 41.0117 136.766 40.9287 137.176 40.9287C137.601 40.9287 137.974 41.002 138.296 41.1484C138.624 41.2949 138.897 41.522 139.117 41.8296C139.341 42.1323 139.51 42.5205 139.622 42.9941C139.734 43.4629 139.791 44.0244 139.791 44.6787ZM138.494 45.4185V44.6787C138.494 44.2393 138.46 43.856 138.392 43.5288C138.328 43.2017 138.226 42.9307 138.084 42.7158C137.942 42.501 137.764 42.3398 137.549 42.2324C137.334 42.125 137.076 42.0713 136.773 42.0713C136.514 42.0713 136.285 42.125 136.084 42.2324C135.889 42.3398 135.721 42.4863 135.579 42.6719C135.438 42.8525 135.32 43.0601 135.228 43.2944C135.135 43.5239 135.066 43.7632 135.022 44.0122V46.2314C135.105 46.5439 135.215 46.8394 135.352 47.1177C135.489 47.3911 135.672 47.6133 135.901 47.7842C136.136 47.9551 136.431 48.0405 136.788 48.0405C137.085 48.0405 137.342 47.9868 137.557 47.8794C137.771 47.772 137.947 47.6108 138.084 47.396C138.226 47.1763 138.328 46.9028 138.392 46.5757C138.46 46.2437 138.494 45.8579 138.494 45.4185ZM142.537 41.0752H143.833L143.738 44.0415C143.714 44.7935 143.641 45.4429 143.519 45.9897C143.396 46.5366 143.24 47.0029 143.05 47.3887C142.859 47.7695 142.645 48.0894 142.405 48.3481C142.166 48.6069 141.917 48.8242 141.658 49H141.028L141.058 47.894L141.314 47.8867C141.456 47.6963 141.59 47.501 141.717 47.3008C141.844 47.0957 141.958 46.854 142.061 46.5757C142.164 46.2925 142.247 45.9482 142.31 45.543C142.378 45.1328 142.422 44.6323 142.442 44.0415L142.537 41.0752ZM142.837 41.0752H146.961V49H145.665V42.3276H142.837V41.0752ZM140.779 47.8867H147.884V51.3364H146.587V49H142.076V51.3364H140.772L140.779 47.8867ZM150.777 46.854L153.648 41.0752H154.944V49H153.648V43.2212L150.777 49H149.488V41.0752H150.777V46.854ZM163.206 48.0405C163.465 48.0405 163.699 47.9893 163.909 47.8867C164.124 47.7793 164.3 47.6133 164.437 47.3887C164.573 47.1592 164.651 46.8613 164.671 46.4951H165.887C165.867 47.0225 165.733 47.4863 165.484 47.8867C165.24 48.2822 164.917 48.5923 164.517 48.8169C164.122 49.0366 163.685 49.1465 163.206 49.1465C162.693 49.1465 162.247 49.0635 161.866 48.8975C161.49 48.7314 161.177 48.4922 160.928 48.1797C160.684 47.8623 160.501 47.479 160.379 47.0298C160.257 46.5757 160.196 46.0605 160.196 45.4844V44.5908C160.196 44.0146 160.257 43.502 160.379 43.0527C160.501 42.5986 160.684 42.2153 160.928 41.9028C161.177 41.5854 161.49 41.3438 161.866 41.1777C162.247 41.0117 162.693 40.9287 163.206 40.9287C163.743 40.9287 164.207 41.0435 164.598 41.2729C164.993 41.4976 165.301 41.8247 165.521 42.2544C165.745 42.6792 165.867 43.1943 165.887 43.7998H164.671C164.651 43.4092 164.581 43.0845 164.458 42.8257C164.336 42.562 164.17 42.3667 163.96 42.2397C163.75 42.1079 163.499 42.042 163.206 42.042C162.864 42.042 162.581 42.103 162.356 42.2251C162.137 42.3423 161.963 42.5132 161.836 42.7378C161.709 42.9624 161.619 43.231 161.565 43.5435C161.517 43.856 161.492 44.2051 161.492 44.5908V45.4844C161.492 45.8701 161.517 46.2217 161.565 46.5391C161.619 46.8516 161.707 47.1201 161.829 47.3447C161.956 47.5693 162.132 47.7427 162.356 47.8647C162.581 47.9819 162.864 48.0405 163.206 48.0405ZM170.582 45.5137H168.465L168.45 44.4297H170.149C170.486 44.4297 170.765 44.3882 170.984 44.3052C171.209 44.2222 171.377 44.0977 171.49 43.9316C171.602 43.7656 171.658 43.5605 171.658 43.3164C171.658 43.126 171.626 42.96 171.563 42.8184C171.5 42.6719 171.404 42.5522 171.277 42.4595C171.155 42.3618 171.001 42.291 170.816 42.2471C170.63 42.1982 170.413 42.1738 170.164 42.1738H168.794V49H167.505V41.0752H170.164C170.594 41.0752 170.979 41.1191 171.321 41.207C171.668 41.2949 171.961 41.4292 172.2 41.6099C172.444 41.7856 172.63 42.0103 172.757 42.2837C172.889 42.5571 172.955 42.8794 172.955 43.2505C172.955 43.4897 172.913 43.7168 172.83 43.9316C172.747 44.1465 172.623 44.3369 172.457 44.5029C172.295 44.6689 172.095 44.8057 171.856 44.9131C171.617 45.0156 171.341 45.0815 171.028 45.1108L170.582 45.5137ZM170.582 49H167.981L168.648 47.9014H170.582C170.879 47.9014 171.124 47.855 171.314 47.7622C171.504 47.6646 171.646 47.5278 171.739 47.3521C171.836 47.1714 171.885 46.9565 171.885 46.7075C171.885 46.4585 171.836 46.2461 171.739 46.0703C171.646 45.8896 171.504 45.7529 171.314 45.6602C171.124 45.5625 170.879 45.5137 170.582 45.5137H168.846L168.86 44.4297H171.006L171.46 44.8398C171.836 44.874 172.151 44.9814 172.405 45.1621C172.664 45.3428 172.857 45.5723 172.984 45.8506C173.116 46.124 173.182 46.4219 173.182 46.7441C173.182 47.1152 173.123 47.4424 173.006 47.7256C172.889 48.0088 172.718 48.2456 172.493 48.436C172.269 48.6216 171.995 48.7632 171.673 48.8608C171.351 48.9536 170.987 49 170.582 49ZM174.676 45.4185V44.6641C174.676 44.0488 174.754 43.5093 174.91 43.0454C175.066 42.5767 175.284 42.186 175.562 41.8735C175.84 41.561 176.165 41.3267 176.536 41.1704C176.907 41.0093 177.305 40.9287 177.73 40.9287C178.165 40.9287 178.567 41.0093 178.938 41.1704C179.31 41.3267 179.634 41.561 179.913 41.8735C180.196 42.186 180.416 42.5767 180.572 43.0454C180.728 43.5093 180.806 44.0488 180.806 44.6641V45.4185C180.806 46.0337 180.728 46.5757 180.572 47.0444C180.416 47.5083 180.198 47.8965 179.92 48.209C179.642 48.5215 179.317 48.7559 178.946 48.9121C178.575 49.0684 178.174 49.1465 177.745 49.1465C177.315 49.1465 176.915 49.0684 176.543 48.9121C176.172 48.7559 175.845 48.5215 175.562 48.209C175.284 47.8965 175.066 47.5083 174.91 47.0444C174.754 46.5757 174.676 46.0337 174.676 45.4185ZM175.972 44.6641V45.4185C175.972 45.853 176.016 46.2339 176.104 46.561C176.192 46.8882 176.316 47.1616 176.478 47.3813C176.639 47.6011 176.827 47.7671 177.042 47.8794C177.256 47.9868 177.491 48.0405 177.745 48.0405C178.038 48.0405 178.294 47.9868 178.514 47.8794C178.738 47.7671 178.924 47.6011 179.07 47.3813C179.217 47.1616 179.327 46.8882 179.4 46.561C179.473 46.2339 179.51 45.853 179.51 45.4185V44.6641C179.51 44.2295 179.466 43.8511 179.378 43.5288C179.29 43.2017 179.166 42.9282 179.004 42.7085C178.843 42.4839 178.653 42.3179 178.433 42.2104C178.218 42.0981 177.984 42.042 177.73 42.042C177.481 42.042 177.249 42.0981 177.034 42.2104C176.819 42.3179 176.631 42.4839 176.47 42.7085C176.314 42.9282 176.192 43.2017 176.104 43.5288C176.016 43.8511 175.972 44.2295 175.972 44.6641ZM183.882 46.854L186.753 41.0752H188.05V49H186.753V43.2212L183.882 49H182.593V41.0752H183.882V46.854ZM186.409 38.2041H187.508C187.508 38.585 187.42 38.9243 187.244 39.2222C187.068 39.5151 186.817 39.7446 186.49 39.9106C186.163 40.0767 185.774 40.1597 185.325 40.1597C184.646 40.1597 184.109 39.979 183.714 39.6177C183.323 39.2515 183.128 38.7803 183.128 38.2041H184.227C184.227 38.4922 184.31 38.7461 184.476 38.9658C184.642 39.1855 184.925 39.2954 185.325 39.2954C185.716 39.2954 185.994 39.1855 186.16 38.9658C186.326 38.7461 186.409 38.4922 186.409 38.2041ZM196.758 45.5137H194.642L194.627 44.4297H196.326C196.663 44.4297 196.941 44.3882 197.161 44.3052C197.386 44.2222 197.554 44.0977 197.667 43.9316C197.779 43.7656 197.835 43.5605 197.835 43.3164C197.835 43.126 197.803 42.96 197.74 42.8184C197.676 42.6719 197.581 42.5522 197.454 42.4595C197.332 42.3618 197.178 42.291 196.993 42.2471C196.807 42.1982 196.59 42.1738 196.341 42.1738H194.971V49H193.682V41.0752H196.341C196.771 41.0752 197.156 41.1191 197.498 41.207C197.845 41.2949 198.138 41.4292 198.377 41.6099C198.621 41.7856 198.807 42.0103 198.934 42.2837C199.065 42.5571 199.131 42.8794 199.131 43.2505C199.131 43.4897 199.09 43.7168 199.007 43.9316C198.924 44.1465 198.799 44.3369 198.633 44.5029C198.472 44.6689 198.272 44.8057 198.033 44.9131C197.793 45.0156 197.518 45.0815 197.205 45.1108L196.758 45.5137ZM196.758 49H194.158L194.825 47.9014H196.758C197.056 47.9014 197.3 47.855 197.491 47.7622C197.681 47.6646 197.823 47.5278 197.916 47.3521C198.013 47.1714 198.062 46.9565 198.062 46.7075C198.062 46.4585 198.013 46.2461 197.916 46.0703C197.823 45.8896 197.681 45.7529 197.491 45.6602C197.3 45.5625 197.056 45.5137 196.758 45.5137H195.022L195.037 44.4297H197.183L197.637 44.8398C198.013 44.874 198.328 44.9814 198.582 45.1621C198.841 45.3428 199.034 45.5723 199.161 45.8506C199.292 46.124 199.358 46.4219 199.358 46.7441C199.358 47.1152 199.3 47.4424 199.183 47.7256C199.065 48.0088 198.895 48.2456 198.67 48.436C198.445 48.6216 198.172 48.7632 197.85 48.8608C197.527 48.9536 197.164 49 196.758 49ZM202.208 43.7998H204.141C204.688 43.7998 205.147 43.9121 205.518 44.1367C205.889 44.3564 206.17 44.6616 206.36 45.0522C206.551 45.438 206.646 45.8774 206.646 46.3706C206.646 46.7368 206.592 47.0811 206.485 47.4033C206.377 47.7207 206.216 47.999 206.001 48.2383C205.792 48.4775 205.53 48.6655 205.218 48.8022C204.91 48.9341 204.551 49 204.141 49H201.241V41.0752H202.53V47.8867H204.141C204.444 47.8867 204.683 47.8159 204.859 47.6743C205.035 47.5327 205.159 47.3496 205.232 47.125C205.311 46.9004 205.35 46.666 205.35 46.4219C205.35 46.1826 205.311 45.9482 205.232 45.7188C205.159 45.4893 205.035 45.2988 204.859 45.1475C204.683 44.9912 204.444 44.9131 204.141 44.9131H202.208V43.7998ZM209.063 41.0752V49H207.767V41.0752H209.063ZM215.589 37.6255H216.636C216.636 38.104 216.57 38.4849 216.438 38.7681C216.312 39.0464 216.141 39.2612 215.926 39.4126C215.711 39.564 215.472 39.6787 215.208 39.7568C214.944 39.835 214.676 39.9106 214.402 39.9839C214.061 40.0718 213.741 40.2109 213.443 40.4014C213.145 40.5869 212.889 40.8506 212.674 41.1924C212.464 41.5342 212.31 41.9785 212.212 42.5254C212.12 43.0723 212.103 43.7485 212.161 44.5542V45.228H211.106V44.5542C211.106 43.6509 211.18 42.8623 211.326 42.1885C211.473 41.5146 211.68 40.9458 211.949 40.4819C212.217 40.0181 212.535 39.6494 212.901 39.376C213.267 39.1025 213.672 38.9146 214.117 38.812C214.4 38.7388 214.651 38.6606 214.871 38.5776C215.096 38.4897 215.271 38.3726 215.398 38.2261C215.525 38.0796 215.589 37.8794 215.589 37.6255ZM214.351 41.5293C214.786 41.5293 215.171 41.6196 215.508 41.8003C215.845 41.981 216.131 42.2324 216.365 42.5547C216.6 42.877 216.778 43.2578 216.9 43.6973C217.022 44.1318 217.083 44.6055 217.083 45.1182V45.2793C217.083 45.8311 217.017 46.3438 216.885 46.8174C216.753 47.2861 216.558 47.6963 216.299 48.0479C216.045 48.3945 215.733 48.6655 215.362 48.8608C214.991 49.0562 214.568 49.1538 214.095 49.1538C213.621 49.1538 213.199 49.0562 212.828 48.8608C212.461 48.6655 212.149 48.3945 211.89 48.0479C211.636 47.6963 211.441 47.2861 211.304 46.8174C211.172 46.3438 211.106 45.8311 211.106 45.2793V45.1182C211.106 44.9961 211.128 44.8765 211.172 44.7593C211.216 44.6421 211.268 44.5225 211.326 44.4004C211.385 44.2783 211.438 44.1489 211.487 44.0122C211.639 43.5728 211.849 43.165 212.117 42.7891C212.386 42.4131 212.706 42.1104 213.077 41.8809C213.453 41.6465 213.877 41.5293 214.351 41.5293ZM214.087 42.6353C213.692 42.6353 213.37 42.75 213.121 42.9795C212.876 43.209 212.696 43.5142 212.579 43.895C212.461 44.271 212.403 44.6787 212.403 45.1182V45.2793C212.403 45.6504 212.435 46.002 212.498 46.334C212.562 46.666 212.662 46.9614 212.798 47.2202C212.935 47.4741 213.111 47.6743 213.326 47.8208C213.541 47.9673 213.797 48.0405 214.095 48.0405C214.393 48.0405 214.646 47.9673 214.856 47.8208C215.071 47.6743 215.247 47.4741 215.384 47.2202C215.521 46.9614 215.621 46.666 215.684 46.334C215.752 46.002 215.787 45.6504 215.787 45.2793V45.1182C215.787 44.7861 215.752 44.4712 215.684 44.1733C215.621 43.8755 215.521 43.6118 215.384 43.3823C215.247 43.1528 215.071 42.9722 214.856 42.8403C214.642 42.7036 214.385 42.6353 214.087 42.6353ZM218.343 45.4185V44.6641C218.343 44.0488 218.421 43.5093 218.577 43.0454C218.733 42.5767 218.951 42.186 219.229 41.8735C219.507 41.561 219.832 41.3267 220.203 41.1704C220.574 41.0093 220.972 40.9287 221.397 40.9287C221.832 40.9287 222.234 41.0093 222.605 41.1704C222.977 41.3267 223.301 41.561 223.58 41.8735C223.863 42.186 224.083 42.5767 224.239 43.0454C224.395 43.5093 224.473 44.0488 224.473 44.6641V45.4185C224.473 46.0337 224.395 46.5757 224.239 47.0444C224.083 47.5083 223.865 47.8965 223.587 48.209C223.309 48.5215 222.984 48.7559 222.613 48.9121C222.242 49.0684 221.841 49.1465 221.412 49.1465C220.982 49.1465 220.582 49.0684 220.21 48.9121C219.839 48.7559 219.512 48.5215 219.229 48.209C218.951 47.8965 218.733 47.5083 218.577 47.0444C218.421 46.5757 218.343 46.0337 218.343 45.4185ZM219.639 44.6641V45.4185C219.639 45.853 219.683 46.2339 219.771 46.561C219.859 46.8882 219.983 47.1616 220.145 47.3813C220.306 47.6011 220.494 47.7671 220.708 47.8794C220.923 47.9868 221.158 48.0405 221.412 48.0405C221.705 48.0405 221.961 47.9868 222.181 47.8794C222.405 47.7671 222.591 47.6011 222.737 47.3813C222.884 47.1616 222.994 46.8882 223.067 46.561C223.14 46.2339 223.177 45.853 223.177 45.4185V44.6641C223.177 44.2295 223.133 43.8511 223.045 43.5288C222.957 43.2017 222.833 42.9282 222.671 42.7085C222.51 42.4839 222.32 42.3179 222.1 42.2104C221.885 42.0981 221.651 42.042 221.397 42.042C221.148 42.042 220.916 42.0981 220.701 42.2104C220.486 42.3179 220.298 42.4839 220.137 42.7085C219.981 42.9282 219.859 43.2017 219.771 43.5288C219.683 43.8511 219.639 44.2295 219.639 44.6641ZM227.439 42.5986V52.0469H226.143V41.0752H227.322L227.439 42.5986ZM231.871 44.6787V45.4185C231.871 46.0435 231.812 46.5903 231.695 47.0591C231.583 47.5229 231.414 47.9111 231.189 48.2236C230.97 48.5312 230.699 48.7632 230.376 48.9194C230.054 49.0708 229.686 49.1465 229.271 49.1465C228.855 49.1465 228.494 49.0684 228.187 48.9121C227.884 48.751 227.627 48.519 227.417 48.2163C227.212 47.9136 227.049 47.5498 226.927 47.125C226.81 46.6953 226.729 46.2144 226.685 45.6821V44.5542C226.729 43.9927 226.81 43.4897 226.927 43.0454C227.044 42.5962 227.205 42.2153 227.41 41.9028C227.62 41.5854 227.876 41.3438 228.179 41.1777C228.487 41.0117 228.846 40.9287 229.256 40.9287C229.681 40.9287 230.054 41.002 230.376 41.1484C230.704 41.2949 230.977 41.522 231.197 41.8296C231.421 42.1323 231.59 42.5205 231.702 42.9941C231.814 43.4629 231.871 44.0244 231.871 44.6787ZM230.574 45.4185V44.6787C230.574 44.2393 230.54 43.856 230.472 43.5288C230.408 43.2017 230.306 42.9307 230.164 42.7158C230.022 42.501 229.844 42.3398 229.629 42.2324C229.415 42.125 229.156 42.0713 228.853 42.0713C228.594 42.0713 228.365 42.125 228.165 42.2324C227.969 42.3398 227.801 42.4863 227.659 42.6719C227.518 42.8525 227.4 43.0601 227.308 43.2944C227.215 43.5239 227.146 43.7632 227.103 44.0122V46.2314C227.186 46.5439 227.295 46.8394 227.432 47.1177C227.569 47.3911 227.752 47.6133 227.981 47.7842C228.216 47.9551 228.511 48.0405 228.868 48.0405C229.166 48.0405 229.422 47.9868 229.637 47.8794C229.852 47.772 230.027 47.6108 230.164 47.396C230.306 47.1763 230.408 46.9028 230.472 46.5757C230.54 46.2437 230.574 45.8579 230.574 45.4185Z" fill="black"/>
</svg>
