<svg width="253" height="70" viewBox="0 0 253 70" fill="none" xmlns="http://www.w3.org/2000/svg">
<rect x="2" y="2" width="249" height="66" rx="33" fill="#B9A692" stroke="black" stroke-width="4"/>
<path d="M40.0786 20.3359V31H38.731V21.4932H34.5635V31H33.2158V20.3359H40.0786ZM43.5869 24.5986V34.0469H42.2905V23.0752H43.4697L43.5869 24.5986ZM48.0181 26.6787V27.4185C48.0181 28.0435 47.9595 28.5903 47.8423 29.0591C47.73 29.5229 47.5615 29.9111 47.3369 30.2236C47.1172 30.5312 46.8462 30.7632 46.5239 30.9194C46.2017 31.0708 45.833 31.1465 45.418 31.1465C45.0029 31.1465 44.6416 31.0684 44.334 30.9121C44.0312 30.751 43.7749 30.519 43.5649 30.2163C43.3599 29.9136 43.1963 29.5498 43.0742 29.125C42.957 28.6953 42.8765 28.2144 42.8325 27.6821V26.5542C42.8765 25.9927 42.957 25.4897 43.0742 25.0454C43.1914 24.5962 43.3525 24.2153 43.5576 23.9028C43.7676 23.5854 44.0239 23.3438 44.3267 23.1777C44.6343 23.0117 44.9932 22.9287 45.4033 22.9287C45.8281 22.9287 46.2017 23.002 46.5239 23.1484C46.8511 23.2949 47.1245 23.522 47.3442 23.8296C47.5688 24.1323 47.7373 24.5205 47.8496 24.9941C47.9619 25.4629 48.0181 26.0244 48.0181 26.6787ZM46.7217 27.4185V26.6787C46.7217 26.2393 46.6875 25.856 46.6191 25.5288C46.5557 25.2017 46.4531 24.9307 46.3115 24.7158C46.1699 24.501 45.9917 24.3398 45.7769 24.2324C45.562 24.125 45.3032 24.0713 45.0005 24.0713C44.7417 24.0713 44.5122 24.125 44.312 24.2324C44.1167 24.3398 43.9482 24.4863 43.8066 24.6719C43.665 24.8525 43.5479 25.0601 43.4551 25.2944C43.3623 25.5239 43.2939 25.7632 43.25 26.0122V28.2314C43.333 28.5439 43.4429 28.8394 43.5796 29.1177C43.7163 29.3911 43.8994 29.6133 44.1289 29.7842C44.3633 29.9551 44.6587 30.0405 45.0151 30.0405C45.313 30.0405 45.5693 29.9868 45.7842 29.8794C45.999 29.772 46.1748 29.6108 46.3115 29.396C46.4531 29.1763 46.5557 28.9028 46.6191 28.5757C46.6875 28.2437 46.7217 27.8579 46.7217 27.4185ZM51.0942 28.854L53.9653 23.0752H55.2617V31H53.9653V25.2212L51.0942 31H49.8052V23.0752H51.0942V28.854ZM58.543 23.0752H59.8394L59.7441 26.0415C59.7197 26.7935 59.6465 27.4429 59.5244 27.9897C59.4023 28.5366 59.2461 29.0029 59.0557 29.3887C58.8652 29.7695 58.6504 30.0894 58.4111 30.3481C58.1719 30.6069 57.9229 30.8242 57.6641 31H57.0342L57.0635 29.894L57.3198 29.8867C57.4614 29.6963 57.5957 29.501 57.7227 29.3008C57.8496 29.0957 57.9644 28.854 58.0669 28.5757C58.1694 28.2925 58.2524 27.9482 58.3159 27.543C58.3843 27.1328 58.4282 26.6323 58.4478 26.0415L58.543 23.0752ZM58.8433 23.0752H62.9668V31H61.6704V24.3276H58.8433V23.0752ZM56.7852 29.8867H63.8896V33.3364H62.5933V31H58.0815V33.3364H56.7778L56.7852 29.8867ZM67.2148 30.1797L68.98 23.0752H70.3569L67.7422 32.2231C67.6787 32.4185 67.5933 32.6284 67.4858 32.853C67.3833 33.0825 67.2515 33.2998 67.0903 33.5049C66.9292 33.71 66.7363 33.876 66.5117 34.0029C66.2871 34.1348 66.0234 34.2007 65.7207 34.2007C65.6279 34.2007 65.5083 34.186 65.3618 34.1567C65.2202 34.1274 65.1177 34.103 65.0542 34.0835V32.9849C65.0835 32.9897 65.1299 32.9946 65.1934 32.9995C65.2568 33.0093 65.3032 33.0142 65.3325 33.0142C65.5864 33.0142 65.8013 32.9727 65.9771 32.8896C66.1577 32.8115 66.3115 32.6772 66.4385 32.4868C66.5654 32.3013 66.6729 32.0449 66.7607 31.7178L67.2148 30.1797ZM66.0723 23.0752L67.647 29.2275L67.9839 30.6558L67.061 31.1538L64.6587 23.0752H66.0723ZM75.5205 29.1982L77.6372 23.0752H78.8677L75.9673 31H75.0737L72.1807 23.0752H73.4111L75.5205 29.1982ZM73.0376 23.0752V31H71.7485V23.0752H73.0376ZM77.9595 31V23.0752H79.2559V31H77.9595ZM85.2104 29.645V25.3457C85.2104 25.0332 85.1616 24.7817 85.064 24.5913C84.9712 24.4009 84.8296 24.2617 84.6392 24.1738C84.4536 24.0859 84.2192 24.042 83.936 24.042C83.6626 24.042 83.4258 24.0981 83.2256 24.2104C83.0303 24.3228 82.8789 24.4717 82.7715 24.6572C82.6689 24.8428 82.6177 25.0479 82.6177 25.2725H81.3213C81.3213 24.9893 81.3823 24.7085 81.5044 24.4302C81.6313 24.1519 81.812 23.9004 82.0464 23.6758C82.2808 23.4463 82.5615 23.2656 82.8887 23.1338C83.2207 22.9971 83.5918 22.9287 84.002 22.9287C84.4902 22.9287 84.9224 23.0093 85.2983 23.1704C85.6743 23.3267 85.9697 23.583 86.1846 23.9395C86.3994 24.2959 86.5068 24.7695 86.5068 25.3604V29.2715C86.5068 29.5352 86.5264 29.8159 86.5654 30.1138C86.6094 30.4116 86.6704 30.668 86.7485 30.8828V31H85.4082C85.3447 30.8438 85.2959 30.6362 85.2617 30.3774C85.2275 30.1138 85.2104 29.8696 85.2104 29.645ZM85.4155 26.1953L85.4302 27.1475H84.5293C84.2217 27.1475 83.9409 27.1816 83.687 27.25C83.438 27.3184 83.2231 27.4185 83.0425 27.5503C82.8618 27.6772 82.7227 27.8359 82.625 28.0264C82.5322 28.2168 82.4858 28.4341 82.4858 28.6782C82.4858 28.9956 82.5298 29.2495 82.6177 29.4399C82.7056 29.6255 82.8374 29.7598 83.0132 29.8428C83.189 29.9258 83.4111 29.9673 83.6797 29.9673C84.0068 29.9673 84.2949 29.8916 84.5439 29.7402C84.793 29.5889 84.9858 29.4058 85.1226 29.1909C85.2642 28.9761 85.3301 28.7759 85.3203 28.5903L85.606 29.1982C85.5864 29.3887 85.5229 29.5962 85.4155 29.8208C85.313 30.0405 85.1689 30.2529 84.9834 30.458C84.7979 30.6582 84.5781 30.8242 84.3242 30.9561C84.0752 31.083 83.7944 31.1465 83.4819 31.1465C83.0229 31.1465 82.6201 31.0586 82.2734 30.8828C81.9316 30.707 81.6655 30.4482 81.4751 30.1064C81.2847 29.7646 81.1895 29.3423 81.1895 28.8394C81.1895 28.4585 81.2554 28.1069 81.3872 27.7847C81.519 27.4624 81.7144 27.1841 81.9731 26.9497C82.2319 26.7104 82.5566 26.5249 82.9473 26.3931C83.3428 26.2612 83.7993 26.1953 84.3169 26.1953H85.4155ZM89.9272 28.854L92.7983 23.0752H94.0947V31H92.7983V25.2212L89.9272 31H88.6382V23.0752H89.9272V28.854ZM92.4541 20.2041H93.5527C93.5527 20.585 93.4648 20.9243 93.2891 21.2222C93.1133 21.5151 92.8618 21.7446 92.5347 21.9106C92.2075 22.0767 91.8193 22.1597 91.3701 22.1597C90.6914 22.1597 90.1543 21.979 89.7588 21.6177C89.3682 21.2515 89.1729 20.7803 89.1729 20.2041H90.2715C90.2715 20.4922 90.3545 20.7461 90.5205 20.9658C90.6865 21.1855 90.9697 21.2954 91.3701 21.2954C91.7607 21.2954 92.0391 21.1855 92.2051 20.9658C92.3711 20.7461 92.4541 20.4922 92.4541 20.2041ZM101.016 28.854L103.887 23.0752H105.184V31H103.887V25.2212L101.016 31H99.7271V23.0752H101.016V28.854ZM111.146 29.1982L113.262 23.0752H114.493L111.592 31H110.699L107.806 23.0752H109.036L111.146 29.1982ZM108.663 23.0752V31H107.374V23.0752H108.663ZM113.584 31V23.0752H114.881V31H113.584ZM118.265 27.2207H119.656L117.701 31H116.309L118.265 27.2207ZM119.283 23.0752H122.125V31H120.835V24.1738H119.283C118.985 24.1738 118.741 24.2397 118.55 24.3716C118.36 24.4985 118.221 24.6646 118.133 24.8696C118.045 25.0747 118.001 25.2871 118.001 25.5068C118.001 25.7217 118.04 25.9292 118.118 26.1294C118.201 26.3247 118.328 26.4858 118.499 26.6128C118.675 26.7397 118.899 26.8032 119.173 26.8032H121.158V27.9165H119.173C118.782 27.9165 118.433 27.8555 118.125 27.7334C117.823 27.6113 117.564 27.4429 117.349 27.228C117.139 27.0083 116.978 26.752 116.866 26.459C116.758 26.1611 116.705 25.8389 116.705 25.4922C116.705 25.1455 116.761 24.8257 116.873 24.5327C116.99 24.2397 117.159 23.9834 117.378 23.7637C117.603 23.5439 117.874 23.3755 118.191 23.2583C118.509 23.1362 118.873 23.0752 119.283 23.0752ZM130.379 30.0405C130.638 30.0405 130.872 29.9893 131.082 29.8867C131.297 29.7793 131.473 29.6133 131.609 29.3887C131.746 29.1592 131.824 28.8613 131.844 28.4951H133.06C133.04 29.0225 132.906 29.4863 132.657 29.8867C132.413 30.2822 132.09 30.5923 131.69 30.8169C131.294 31.0366 130.857 31.1465 130.379 31.1465C129.866 31.1465 129.419 31.0635 129.039 30.8975C128.663 30.7314 128.35 30.4922 128.101 30.1797C127.857 29.8623 127.674 29.479 127.552 29.0298C127.43 28.5757 127.369 28.0605 127.369 27.4844V26.5908C127.369 26.0146 127.43 25.502 127.552 25.0527C127.674 24.5986 127.857 24.2153 128.101 23.9028C128.35 23.5854 128.663 23.3438 129.039 23.1777C129.419 23.0117 129.866 22.9287 130.379 22.9287C130.916 22.9287 131.38 23.0435 131.771 23.2729C132.166 23.4976 132.474 23.8247 132.693 24.2544C132.918 24.6792 133.04 25.1943 133.06 25.7998H131.844C131.824 25.4092 131.753 25.0845 131.631 24.8257C131.509 24.562 131.343 24.3667 131.133 24.2397C130.923 24.1079 130.672 24.042 130.379 24.042C130.037 24.042 129.754 24.103 129.529 24.2251C129.31 24.3423 129.136 24.5132 129.009 24.7378C128.882 24.9624 128.792 25.231 128.738 25.5435C128.689 25.856 128.665 26.2051 128.665 26.5908V27.4844C128.665 27.8701 128.689 28.2217 128.738 28.5391C128.792 28.8516 128.88 29.1201 129.002 29.3447C129.129 29.5693 129.305 29.7427 129.529 29.8647C129.754 29.9819 130.037 30.0405 130.379 30.0405ZM137.754 27.5137H135.638L135.623 26.4297H137.322C137.659 26.4297 137.938 26.3882 138.157 26.3052C138.382 26.2222 138.55 26.0977 138.663 25.9316C138.775 25.7656 138.831 25.5605 138.831 25.3164C138.831 25.126 138.799 24.96 138.736 24.8184C138.672 24.6719 138.577 24.5522 138.45 24.4595C138.328 24.3618 138.174 24.291 137.989 24.2471C137.803 24.1982 137.586 24.1738 137.337 24.1738H135.967V31H134.678V23.0752H137.337C137.767 23.0752 138.152 23.1191 138.494 23.207C138.841 23.2949 139.134 23.4292 139.373 23.6099C139.617 23.7856 139.803 24.0103 139.93 24.2837C140.062 24.5571 140.127 24.8794 140.127 25.2505C140.127 25.4897 140.086 25.7168 140.003 25.9316C139.92 26.1465 139.795 26.3369 139.629 26.5029C139.468 26.6689 139.268 26.8057 139.029 26.9131C138.79 27.0156 138.514 27.0815 138.201 27.1108L137.754 27.5137ZM137.754 31H135.154L135.821 29.9014H137.754C138.052 29.9014 138.296 29.855 138.487 29.7622C138.677 29.6646 138.819 29.5278 138.912 29.3521C139.009 29.1714 139.058 28.9565 139.058 28.7075C139.058 28.4585 139.009 28.2461 138.912 28.0703C138.819 27.8896 138.677 27.7529 138.487 27.6602C138.296 27.5625 138.052 27.5137 137.754 27.5137H136.019L136.033 26.4297H138.179L138.633 26.8398C139.009 26.874 139.324 26.9814 139.578 27.1621C139.837 27.3428 140.03 27.5723 140.157 27.8506C140.289 28.124 140.354 28.4219 140.354 28.7441C140.354 29.1152 140.296 29.4424 140.179 29.7256C140.062 30.0088 139.891 30.2456 139.666 30.436C139.441 30.6216 139.168 30.7632 138.846 30.8608C138.523 30.9536 138.16 31 137.754 31ZM141.849 27.4185V26.6641C141.849 26.0488 141.927 25.5093 142.083 25.0454C142.239 24.5767 142.457 24.186 142.735 23.8735C143.013 23.561 143.338 23.3267 143.709 23.1704C144.08 23.0093 144.478 22.9287 144.903 22.9287C145.337 22.9287 145.74 23.0093 146.111 23.1704C146.482 23.3267 146.807 23.561 147.085 23.8735C147.369 24.186 147.588 24.5767 147.745 25.0454C147.901 25.5093 147.979 26.0488 147.979 26.6641V27.4185C147.979 28.0337 147.901 28.5757 147.745 29.0444C147.588 29.5083 147.371 29.8965 147.093 30.209C146.814 30.5215 146.49 30.7559 146.119 30.9121C145.748 31.0684 145.347 31.1465 144.917 31.1465C144.488 31.1465 144.087 31.0684 143.716 30.9121C143.345 30.7559 143.018 30.5215 142.735 30.209C142.457 29.8965 142.239 29.5083 142.083 29.0444C141.927 28.5757 141.849 28.0337 141.849 27.4185ZM143.145 26.6641V27.4185C143.145 27.853 143.189 28.2339 143.277 28.561C143.365 28.8882 143.489 29.1616 143.65 29.3813C143.812 29.6011 144 29.7671 144.214 29.8794C144.429 29.9868 144.664 30.0405 144.917 30.0405C145.21 30.0405 145.467 29.9868 145.687 29.8794C145.911 29.7671 146.097 29.6011 146.243 29.3813C146.39 29.1616 146.5 28.8882 146.573 28.561C146.646 28.2339 146.683 27.853 146.683 27.4185V26.6641C146.683 26.2295 146.639 25.8511 146.551 25.5288C146.463 25.2017 146.338 24.9282 146.177 24.7085C146.016 24.4839 145.826 24.3179 145.606 24.2104C145.391 24.0981 145.157 24.042 144.903 24.042C144.654 24.042 144.422 24.0981 144.207 24.2104C143.992 24.3179 143.804 24.4839 143.643 24.7085C143.487 24.9282 143.365 25.2017 143.277 25.5288C143.189 25.8511 143.145 26.2295 143.145 26.6641ZM152.483 31.1465C152.01 31.1465 151.583 31.0757 151.202 30.9341C150.821 30.7925 150.496 30.5776 150.228 30.2896C149.959 29.9966 149.754 29.6279 149.612 29.1836C149.471 28.7393 149.4 28.2144 149.4 27.6089V26.7153C149.4 26.0171 149.48 25.4263 149.642 24.9429C149.808 24.4595 150.03 24.0713 150.308 23.7783C150.586 23.4805 150.901 23.2656 151.253 23.1338C151.604 22.9971 151.966 22.9287 152.337 22.9287C152.835 22.9287 153.26 23.0093 153.611 23.1704C153.963 23.3315 154.249 23.5708 154.468 23.8882C154.688 24.2056 154.849 24.5962 154.952 25.0601C155.059 25.5239 155.113 26.0586 155.113 26.6641V27.4185H150.162V26.3125H153.816V26.1294C153.797 25.7192 153.741 25.3579 153.648 25.0454C153.56 24.7329 153.414 24.4888 153.208 24.313C153.003 24.1323 152.713 24.042 152.337 24.042C152.098 24.042 151.875 24.0835 151.67 24.1665C151.47 24.2446 151.297 24.3838 151.15 24.584C151.009 24.7793 150.896 25.0503 150.813 25.397C150.735 25.7437 150.696 26.1831 150.696 26.7153V27.6089C150.696 28.0337 150.735 28.3999 150.813 28.7075C150.896 29.0103 151.016 29.2617 151.172 29.4619C151.333 29.6572 151.529 29.8037 151.758 29.9014C151.993 29.9941 152.259 30.0405 152.557 30.0405C152.991 30.0405 153.35 29.9575 153.633 29.7915C153.917 29.6206 154.163 29.4033 154.373 29.1396L155.054 29.9526C154.913 30.1528 154.727 30.3457 154.498 30.5312C154.273 30.7119 153.995 30.8608 153.663 30.978C153.335 31.0903 152.942 31.1465 152.483 31.1465ZM160.569 29.1982L162.686 23.0752H163.917L161.016 31H160.123L157.229 23.0752H158.46L160.569 29.1982ZM158.086 23.0752V31H156.797V23.0752H158.086ZM163.008 31V23.0752H164.305V31H163.008ZM168.216 30.1797L169.981 23.0752H171.358L168.743 32.2231C168.68 32.4185 168.594 32.6284 168.487 32.853C168.384 33.0825 168.252 33.2998 168.091 33.5049C167.93 33.71 167.737 33.876 167.513 34.0029C167.288 34.1348 167.024 34.2007 166.722 34.2007C166.629 34.2007 166.509 34.186 166.363 34.1567C166.221 34.1274 166.119 34.103 166.055 34.0835V32.9849C166.084 32.9897 166.131 32.9946 166.194 32.9995C166.258 33.0093 166.304 33.0142 166.333 33.0142C166.587 33.0142 166.802 32.9727 166.978 32.8896C167.159 32.8115 167.312 32.6772 167.439 32.4868C167.566 32.3013 167.674 32.0449 167.762 31.7178L168.216 30.1797ZM167.073 23.0752L168.648 29.2275L168.985 30.6558L168.062 31.1538L165.66 23.0752H167.073ZM177.371 24.5986V34.0469H176.075V23.0752H177.254L177.371 24.5986ZM181.802 26.6787V27.4185C181.802 28.0435 181.744 28.5903 181.626 29.0591C181.514 29.5229 181.346 29.9111 181.121 30.2236C180.901 30.5312 180.63 30.7632 180.308 30.9194C179.986 31.0708 179.617 31.1465 179.202 31.1465C178.787 31.1465 178.426 31.0684 178.118 30.9121C177.815 30.751 177.559 30.519 177.349 30.2163C177.144 29.9136 176.98 29.5498 176.858 29.125C176.741 28.6953 176.661 28.2144 176.617 27.6821V26.5542C176.661 25.9927 176.741 25.4897 176.858 25.0454C176.976 24.5962 177.137 24.2153 177.342 23.9028C177.552 23.5854 177.808 23.3438 178.111 23.1777C178.418 23.0117 178.777 22.9287 179.188 22.9287C179.612 22.9287 179.986 23.002 180.308 23.1484C180.635 23.2949 180.909 23.522 181.128 23.8296C181.353 24.1323 181.521 24.5205 181.634 24.9941C181.746 25.4629 181.802 26.0244 181.802 26.6787ZM180.506 27.4185V26.6787C180.506 26.2393 180.472 25.856 180.403 25.5288C180.34 25.2017 180.237 24.9307 180.096 24.7158C179.954 24.501 179.776 24.3398 179.561 24.2324C179.346 24.125 179.087 24.0713 178.785 24.0713C178.526 24.0713 178.296 24.125 178.096 24.2324C177.901 24.3398 177.732 24.4863 177.591 24.6719C177.449 24.8525 177.332 25.0601 177.239 25.2944C177.146 25.5239 177.078 25.7632 177.034 26.0122V28.2314C177.117 28.5439 177.227 28.8394 177.364 29.1177C177.5 29.3911 177.684 29.6133 177.913 29.7842C178.147 29.9551 178.443 30.0405 178.799 30.0405C179.097 30.0405 179.354 29.9868 179.568 29.8794C179.783 29.772 179.959 29.6108 180.096 29.396C180.237 29.1763 180.34 28.9028 180.403 28.5757C180.472 28.2437 180.506 27.8579 180.506 27.4185ZM183.201 27.4185V26.6641C183.201 26.0488 183.279 25.5093 183.436 25.0454C183.592 24.5767 183.809 24.186 184.087 23.8735C184.366 23.561 184.69 23.3267 185.062 23.1704C185.433 23.0093 185.831 22.9287 186.255 22.9287C186.69 22.9287 187.093 23.0093 187.464 23.1704C187.835 23.3267 188.16 23.561 188.438 23.8735C188.721 24.186 188.941 24.5767 189.097 25.0454C189.253 25.5093 189.332 26.0488 189.332 26.6641V27.4185C189.332 28.0337 189.253 28.5757 189.097 29.0444C188.941 29.5083 188.724 29.8965 188.445 30.209C188.167 30.5215 187.842 30.7559 187.471 30.9121C187.1 31.0684 186.7 31.1465 186.27 31.1465C185.84 31.1465 185.44 31.0684 185.069 30.9121C184.698 30.7559 184.371 30.5215 184.087 30.209C183.809 29.8965 183.592 29.5083 183.436 29.0444C183.279 28.5757 183.201 28.0337 183.201 27.4185ZM184.498 26.6641V27.4185C184.498 27.853 184.542 28.2339 184.629 28.561C184.717 28.8882 184.842 29.1616 185.003 29.3813C185.164 29.6011 185.352 29.7671 185.567 29.8794C185.782 29.9868 186.016 30.0405 186.27 30.0405C186.563 30.0405 186.819 29.9868 187.039 29.8794C187.264 29.7671 187.449 29.6011 187.596 29.3813C187.742 29.1616 187.852 28.8882 187.925 28.561C187.999 28.2339 188.035 27.853 188.035 27.4185V26.6641C188.035 26.2295 187.991 25.8511 187.903 25.5288C187.815 25.2017 187.691 24.9282 187.53 24.7085C187.369 24.4839 187.178 24.3179 186.958 24.2104C186.744 24.0981 186.509 24.042 186.255 24.042C186.006 24.042 185.774 24.0981 185.56 24.2104C185.345 24.3179 185.157 24.4839 184.996 24.7085C184.839 24.9282 184.717 25.2017 184.629 25.5288C184.542 25.8511 184.498 26.2295 184.498 26.6641ZM195.257 19.6255H196.304C196.304 20.104 196.238 20.4849 196.106 20.7681C195.979 21.0464 195.809 21.2612 195.594 21.4126C195.379 21.564 195.14 21.6787 194.876 21.7568C194.612 21.835 194.344 21.9106 194.07 21.9839C193.729 22.0718 193.409 22.2109 193.111 22.4014C192.813 22.5869 192.557 22.8506 192.342 23.1924C192.132 23.5342 191.978 23.9785 191.88 24.5254C191.788 25.0723 191.771 25.7485 191.829 26.5542V27.228H190.774V26.5542C190.774 25.6509 190.848 24.8623 190.994 24.1885C191.141 23.5146 191.348 22.9458 191.617 22.4819C191.885 22.0181 192.203 21.6494 192.569 21.376C192.935 21.1025 193.34 20.9146 193.785 20.812C194.068 20.7388 194.319 20.6606 194.539 20.5776C194.764 20.4897 194.939 20.3726 195.066 20.2261C195.193 20.0796 195.257 19.8794 195.257 19.6255ZM194.019 23.5293C194.454 23.5293 194.839 23.6196 195.176 23.8003C195.513 23.981 195.799 24.2324 196.033 24.5547C196.268 24.877 196.446 25.2578 196.568 25.6973C196.69 26.1318 196.751 26.6055 196.751 27.1182V27.2793C196.751 27.8311 196.685 28.3438 196.553 28.8174C196.421 29.2861 196.226 29.6963 195.967 30.0479C195.713 30.3945 195.401 30.6655 195.03 30.8608C194.659 31.0562 194.236 31.1538 193.763 31.1538C193.289 31.1538 192.867 31.0562 192.496 30.8608C192.129 30.6655 191.817 30.3945 191.558 30.0479C191.304 29.6963 191.109 29.2861 190.972 28.8174C190.84 28.3438 190.774 27.8311 190.774 27.2793V27.1182C190.774 26.9961 190.796 26.8765 190.84 26.7593C190.884 26.6421 190.936 26.5225 190.994 26.4004C191.053 26.2783 191.106 26.1489 191.155 26.0122C191.307 25.5728 191.517 25.165 191.785 24.7891C192.054 24.4131 192.374 24.1104 192.745 23.8809C193.121 23.6465 193.545 23.5293 194.019 23.5293ZM193.755 24.6353C193.36 24.6353 193.038 24.75 192.789 24.9795C192.544 25.209 192.364 25.5142 192.247 25.895C192.129 26.271 192.071 26.6787 192.071 27.1182V27.2793C192.071 27.6504 192.103 28.002 192.166 28.334C192.229 28.666 192.33 28.9614 192.466 29.2202C192.603 29.4741 192.779 29.6743 192.994 29.8208C193.208 29.9673 193.465 30.0405 193.763 30.0405C194.061 30.0405 194.314 29.9673 194.524 29.8208C194.739 29.6743 194.915 29.4741 195.052 29.2202C195.188 28.9614 195.289 28.666 195.352 28.334C195.42 28.002 195.455 27.6504 195.455 27.2793V27.1182C195.455 26.7861 195.42 26.4712 195.352 26.1733C195.289 25.8755 195.188 25.6118 195.052 25.3823C194.915 25.1528 194.739 24.9722 194.524 24.8403C194.31 24.7036 194.053 24.6353 193.755 24.6353ZM198.011 27.4185V26.6641C198.011 26.0488 198.089 25.5093 198.245 25.0454C198.401 24.5767 198.619 24.186 198.897 23.8735C199.175 23.561 199.5 23.3267 199.871 23.1704C200.242 23.0093 200.64 22.9287 201.065 22.9287C201.5 22.9287 201.902 23.0093 202.273 23.1704C202.645 23.3267 202.969 23.561 203.248 23.8735C203.531 24.186 203.75 24.5767 203.907 25.0454C204.063 25.5093 204.141 26.0488 204.141 26.6641V27.4185C204.141 28.0337 204.063 28.5757 203.907 29.0444C203.75 29.5083 203.533 29.8965 203.255 30.209C202.977 30.5215 202.652 30.7559 202.281 30.9121C201.91 31.0684 201.509 31.1465 201.08 31.1465C200.65 31.1465 200.25 31.0684 199.878 30.9121C199.507 30.7559 199.18 30.5215 198.897 30.209C198.619 29.8965 198.401 29.5083 198.245 29.0444C198.089 28.5757 198.011 28.0337 198.011 27.4185ZM199.307 26.6641V27.4185C199.307 27.853 199.351 28.2339 199.439 28.561C199.527 28.8882 199.651 29.1616 199.812 29.3813C199.974 29.6011 200.162 29.7671 200.376 29.8794C200.591 29.9868 200.826 30.0405 201.08 30.0405C201.373 30.0405 201.629 29.9868 201.849 29.8794C202.073 29.7671 202.259 29.6011 202.405 29.3813C202.552 29.1616 202.662 28.8882 202.735 28.561C202.808 28.2339 202.845 27.853 202.845 27.4185V26.6641C202.845 26.2295 202.801 25.8511 202.713 25.5288C202.625 25.2017 202.5 24.9282 202.339 24.7085C202.178 24.4839 201.988 24.3179 201.768 24.2104C201.553 24.0981 201.319 24.042 201.065 24.042C200.816 24.042 200.584 24.0981 200.369 24.2104C200.154 24.3179 199.966 24.4839 199.805 24.7085C199.649 24.9282 199.527 25.2017 199.439 25.5288C199.351 25.8511 199.307 26.2295 199.307 26.6641ZM208.499 23.0752V31H207.203V23.0752H208.499ZM210.66 23.0752V24.1738H205.071V23.0752H210.66ZM213.963 30.1797L215.728 23.0752H217.105L214.49 32.2231C214.427 32.4185 214.341 32.6284 214.234 32.853C214.131 33.0825 214 33.2998 213.838 33.5049C213.677 33.71 213.484 33.876 213.26 34.0029C213.035 34.1348 212.771 34.2007 212.469 34.2007C212.376 34.2007 212.256 34.186 212.11 34.1567C211.968 34.1274 211.866 34.103 211.802 34.0835V32.9849C211.832 32.9897 211.878 32.9946 211.941 32.9995C212.005 33.0093 212.051 33.0142 212.081 33.0142C212.334 33.0142 212.549 32.9727 212.725 32.8896C212.906 32.8115 213.06 32.6772 213.187 32.4868C213.313 32.3013 213.421 32.0449 213.509 31.7178L213.963 30.1797ZM212.82 23.0752L214.395 29.2275L214.732 30.6558L213.809 31.1538L211.407 23.0752H212.82ZM34.3804 46.854L37.2515 41.0752H38.5479V49H37.2515V43.2212L34.3804 49H33.0913V41.0752H34.3804V46.854ZM47.2563 45.5137H45.1396L45.125 44.4297H46.8242C47.1611 44.4297 47.4395 44.3882 47.6592 44.3052C47.8838 44.2222 48.0522 44.0977 48.1646 43.9316C48.2769 43.7656 48.333 43.5605 48.333 43.3164C48.333 43.126 48.3013 42.96 48.2378 42.8184C48.1743 42.6719 48.0791 42.5522 47.9521 42.4595C47.8301 42.3618 47.6763 42.291 47.4907 42.2471C47.3052 42.1982 47.0879 42.1738 46.8389 42.1738H45.4692V49H44.1802V41.0752H46.8389C47.2686 41.0752 47.6543 41.1191 47.9961 41.207C48.3428 41.2949 48.6357 41.4292 48.875 41.6099C49.1191 41.7856 49.3047 42.0103 49.4316 42.2837C49.5635 42.5571 49.6294 42.8794 49.6294 43.2505C49.6294 43.4897 49.5879 43.7168 49.5049 43.9316C49.4219 44.1465 49.2974 44.3369 49.1313 44.5029C48.9702 44.6689 48.77 44.8057 48.5308 44.9131C48.2915 45.0156 48.0156 45.0815 47.7031 45.1108L47.2563 45.5137ZM47.2563 49H44.6562L45.3228 47.9014H47.2563C47.5542 47.9014 47.7983 47.855 47.9888 47.7622C48.1792 47.6646 48.3208 47.5278 48.4136 47.3521C48.5112 47.1714 48.5601 46.9565 48.5601 46.7075C48.5601 46.4585 48.5112 46.2461 48.4136 46.0703C48.3208 45.8896 48.1792 45.7529 47.9888 45.6602C47.7983 45.5625 47.5542 45.5137 47.2563 45.5137H45.5205L45.5352 44.4297H47.6812L48.1353 44.8398C48.5112 44.874 48.8262 44.9814 49.0801 45.1621C49.3389 45.3428 49.5317 45.5723 49.6587 45.8506C49.7905 46.124 49.8564 46.4219 49.8564 46.7441C49.8564 47.1152 49.7979 47.4424 49.6807 47.7256C49.5635 48.0088 49.3926 48.2456 49.168 48.436C48.9434 48.6216 48.6699 48.7632 48.3477 48.8608C48.0254 48.9536 47.6616 49 47.2563 49ZM52.7056 43.7998H54.6392C55.186 43.7998 55.645 43.9121 56.0161 44.1367C56.3872 44.3564 56.668 44.6616 56.8584 45.0522C57.0488 45.438 57.144 45.8774 57.144 46.3706C57.144 46.7368 57.0903 47.0811 56.9829 47.4033C56.8755 47.7207 56.7144 47.999 56.4995 48.2383C56.2896 48.4775 56.0283 48.6655 55.7158 48.8022C55.4082 48.9341 55.0493 49 54.6392 49H51.7388V41.0752H53.0278V47.8867H54.6392C54.9419 47.8867 55.1812 47.8159 55.3569 47.6743C55.5327 47.5327 55.6572 47.3496 55.7305 47.125C55.8086 46.9004 55.8477 46.666 55.8477 46.4219C55.8477 46.1826 55.8086 45.9482 55.7305 45.7188C55.6572 45.4893 55.5327 45.2988 55.3569 45.1475C55.1812 44.9912 54.9419 44.9131 54.6392 44.9131H52.7056V43.7998ZM59.561 41.0752V49H58.2646V41.0752H59.561ZM66.0869 37.6255H67.1343C67.1343 38.104 67.0684 38.4849 66.9365 38.7681C66.8096 39.0464 66.6387 39.2612 66.4238 39.4126C66.209 39.564 65.9697 39.6787 65.7061 39.7568C65.4424 39.835 65.1738 39.9106 64.9004 39.9839C64.5586 40.0718 64.2388 40.2109 63.9409 40.4014C63.6431 40.5869 63.3867 40.8506 63.1719 41.1924C62.9619 41.5342 62.8081 41.9785 62.7104 42.5254C62.6177 43.0723 62.6006 43.7485 62.6592 44.5542V45.228H61.6045V44.5542C61.6045 43.6509 61.6777 42.8623 61.8242 42.1885C61.9707 41.5146 62.1782 40.9458 62.4468 40.4819C62.7153 40.0181 63.0327 39.6494 63.3989 39.376C63.7651 39.1025 64.1704 38.9146 64.6147 38.812C64.8979 38.7388 65.1494 38.6606 65.3691 38.5776C65.5938 38.4897 65.7695 38.3726 65.8965 38.2261C66.0234 38.0796 66.0869 37.8794 66.0869 37.6255ZM64.8491 41.5293C65.2837 41.5293 65.6694 41.6196 66.0063 41.8003C66.3433 41.981 66.6289 42.2324 66.8633 42.5547C67.0977 42.877 67.2759 43.2578 67.3979 43.6973C67.52 44.1318 67.5811 44.6055 67.5811 45.1182V45.2793C67.5811 45.8311 67.5151 46.3438 67.3833 46.8174C67.2515 47.2861 67.0562 47.6963 66.7974 48.0479C66.5435 48.3945 66.231 48.6655 65.8599 48.8608C65.4888 49.0562 65.0664 49.1538 64.5928 49.1538C64.1191 49.1538 63.6968 49.0562 63.3257 48.8608C62.9595 48.6655 62.647 48.3945 62.3882 48.0479C62.1343 47.6963 61.939 47.2861 61.8022 46.8174C61.6704 46.3438 61.6045 45.8311 61.6045 45.2793V45.1182C61.6045 44.9961 61.6265 44.8765 61.6704 44.7593C61.7144 44.6421 61.7656 44.5225 61.8242 44.4004C61.8828 44.2783 61.9365 44.1489 61.9854 44.0122C62.1367 43.5728 62.3467 43.165 62.6152 42.7891C62.8838 42.4131 63.2036 42.1104 63.5747 41.8809C63.9507 41.6465 64.3755 41.5293 64.8491 41.5293ZM64.5854 42.6353C64.1899 42.6353 63.8677 42.75 63.6187 42.9795C63.3745 43.209 63.1938 43.5142 63.0767 43.895C62.9595 44.271 62.9009 44.6787 62.9009 45.1182V45.2793C62.9009 45.6504 62.9326 46.002 62.9961 46.334C63.0596 46.666 63.1597 46.9614 63.2964 47.2202C63.4331 47.4741 63.6089 47.6743 63.8237 47.8208C64.0386 47.9673 64.2949 48.0405 64.5928 48.0405C64.8906 48.0405 65.1445 47.9673 65.3545 47.8208C65.5693 47.6743 65.7451 47.4741 65.8818 47.2202C66.0186 46.9614 66.1187 46.666 66.1821 46.334C66.2505 46.002 66.2847 45.6504 66.2847 45.2793V45.1182C66.2847 44.7861 66.2505 44.4712 66.1821 44.1733C66.1187 43.8755 66.0186 43.6118 65.8818 43.3823C65.7451 43.1528 65.5693 42.9722 65.3545 42.8403C65.1396 42.7036 64.8833 42.6353 64.5854 42.6353ZM71.9463 49.1465C71.4727 49.1465 71.0454 49.0757 70.6646 48.9341C70.2837 48.7925 69.959 48.5776 69.6904 48.2896C69.4219 47.9966 69.2168 47.6279 69.0752 47.1836C68.9336 46.7393 68.8628 46.2144 68.8628 45.6089V44.7153C68.8628 44.0171 68.9434 43.4263 69.1045 42.9429C69.2705 42.4595 69.4927 42.0713 69.771 41.7783C70.0493 41.4805 70.3643 41.2656 70.7158 41.1338C71.0674 40.9971 71.4287 40.9287 71.7998 40.9287C72.2979 40.9287 72.7227 41.0093 73.0742 41.1704C73.4258 41.3315 73.7114 41.5708 73.9312 41.8882C74.1509 42.2056 74.312 42.5962 74.4146 43.0601C74.522 43.5239 74.5757 44.0586 74.5757 44.6641V45.4185H69.6245V44.3125H73.2793V44.1294C73.2598 43.7192 73.2036 43.3579 73.1108 43.0454C73.0229 42.7329 72.8765 42.4888 72.6714 42.313C72.4663 42.1323 72.1758 42.042 71.7998 42.042C71.5605 42.042 71.3384 42.0835 71.1333 42.1665C70.9331 42.2446 70.7598 42.3838 70.6133 42.584C70.4717 42.7793 70.3594 43.0503 70.2764 43.397C70.1982 43.7437 70.1592 44.1831 70.1592 44.7153V45.6089C70.1592 46.0337 70.1982 46.3999 70.2764 46.7075C70.3594 47.0103 70.479 47.2617 70.6353 47.4619C70.7964 47.6572 70.9917 47.8037 71.2212 47.9014C71.4556 47.9941 71.7217 48.0405 72.0195 48.0405C72.4541 48.0405 72.813 47.9575 73.0962 47.7915C73.3794 47.6206 73.626 47.4033 73.8359 47.1396L74.5171 47.9526C74.3755 48.1528 74.1899 48.3457 73.9604 48.5312C73.7358 48.7119 73.4575 48.8608 73.1255 48.978C72.7983 49.0903 72.4053 49.1465 71.9463 49.1465ZM77.4395 42.5986V52.0469H76.1431V41.0752H77.3223L77.4395 42.5986ZM81.8706 44.6787V45.4185C81.8706 46.0435 81.812 46.5903 81.6948 47.0591C81.5825 47.5229 81.4141 47.9111 81.1895 48.2236C80.9697 48.5312 80.6987 48.7632 80.3765 48.9194C80.0542 49.0708 79.6855 49.1465 79.2705 49.1465C78.8555 49.1465 78.4941 49.0684 78.1865 48.9121C77.8838 48.751 77.6274 48.519 77.4175 48.2163C77.2124 47.9136 77.0488 47.5498 76.9268 47.125C76.8096 46.6953 76.729 46.2144 76.6851 45.6821V44.5542C76.729 43.9927 76.8096 43.4897 76.9268 43.0454C77.0439 42.5962 77.2051 42.2153 77.4102 41.9028C77.6201 41.5854 77.8765 41.3438 78.1792 41.1777C78.4868 41.0117 78.8457 40.9287 79.2559 40.9287C79.6807 40.9287 80.0542 41.002 80.3765 41.1484C80.7036 41.2949 80.9771 41.522 81.1968 41.8296C81.4214 42.1323 81.5898 42.5205 81.7021 42.9941C81.8145 43.4629 81.8706 44.0244 81.8706 44.6787ZM80.5742 45.4185V44.6787C80.5742 44.2393 80.54 43.856 80.4717 43.5288C80.4082 43.2017 80.3057 42.9307 80.1641 42.7158C80.0225 42.501 79.8442 42.3398 79.6294 42.2324C79.4146 42.125 79.1558 42.0713 78.853 42.0713C78.5942 42.0713 78.3647 42.125 78.1646 42.2324C77.9692 42.3398 77.8008 42.4863 77.6592 42.6719C77.5176 42.8525 77.4004 43.0601 77.3076 43.2944C77.2148 43.5239 77.1465 43.7632 77.1025 44.0122V46.2314C77.1855 46.5439 77.2954 46.8394 77.4321 47.1177C77.5688 47.3911 77.752 47.6133 77.9814 47.7842C78.2158 47.9551 78.5112 48.0405 78.8677 48.0405C79.1655 48.0405 79.4219 47.9868 79.6367 47.8794C79.8516 47.772 80.0273 47.6108 80.1641 47.396C80.3057 47.1763 80.4082 46.9028 80.4717 46.5757C80.54 46.2437 80.5742 45.8579 80.5742 45.4185ZM84.9468 46.854L87.8179 41.0752H89.1143V49H87.8179V43.2212L84.9468 49H83.6577V41.0752H84.9468V46.854ZM97.4639 49.1465C96.9902 49.1465 96.563 49.0757 96.1821 48.9341C95.8013 48.7925 95.4766 48.5776 95.208 48.2896C94.9395 47.9966 94.7344 47.6279 94.5928 47.1836C94.4512 46.7393 94.3804 46.2144 94.3804 45.6089V44.7153C94.3804 44.0171 94.4609 43.4263 94.6221 42.9429C94.7881 42.4595 95.0103 42.0713 95.2886 41.7783C95.5669 41.4805 95.8818 41.2656 96.2334 41.1338C96.585 40.9971 96.9463 40.9287 97.3174 40.9287C97.8154 40.9287 98.2402 41.0093 98.5918 41.1704C98.9434 41.3315 99.229 41.5708 99.4487 41.8882C99.6685 42.2056 99.8296 42.5962 99.9321 43.0601C100.04 43.5239 100.093 44.0586 100.093 44.6641V45.4185H95.1421V44.3125H98.7969V44.1294C98.7773 43.7192 98.7212 43.3579 98.6284 43.0454C98.5405 42.7329 98.394 42.4888 98.189 42.313C97.9839 42.1323 97.6934 42.042 97.3174 42.042C97.0781 42.042 96.856 42.0835 96.6509 42.1665C96.4507 42.2446 96.2773 42.3838 96.1309 42.584C95.9893 42.7793 95.877 43.0503 95.7939 43.397C95.7158 43.7437 95.6768 44.1831 95.6768 44.7153V45.6089C95.6768 46.0337 95.7158 46.3999 95.7939 46.7075C95.877 47.0103 95.9966 47.2617 96.1528 47.4619C96.314 47.6572 96.5093 47.8037 96.7388 47.9014C96.9731 47.9941 97.2393 48.0405 97.5371 48.0405C97.9717 48.0405 98.3306 47.9575 98.6138 47.7915C98.897 47.6206 99.1436 47.4033 99.3535 47.1396L100.035 47.9526C99.8931 48.1528 99.7075 48.3457 99.478 48.5312C99.2534 48.7119 98.9751 48.8608 98.6431 48.978C98.3159 49.0903 97.9229 49.1465 97.4639 49.1465ZM105.55 47.1982L107.667 41.0752H108.897L105.997 49H105.103L102.21 41.0752H103.44L105.55 47.1982ZM103.067 41.0752V49H101.778V41.0752H103.067ZM107.989 49V41.0752H109.285V49H107.989ZM113.196 48.1797L114.961 41.0752H116.338L113.724 50.2231C113.66 50.4185 113.575 50.6284 113.467 50.853C113.365 51.0825 113.233 51.2998 113.072 51.5049C112.911 51.71 112.718 51.876 112.493 52.0029C112.269 52.1348 112.005 52.2007 111.702 52.2007C111.609 52.2007 111.49 52.186 111.343 52.1567C111.202 52.1274 111.099 52.103 111.036 52.0835V50.9849C111.065 50.9897 111.111 50.9946 111.175 50.9995C111.238 51.0093 111.285 51.0142 111.314 51.0142C111.568 51.0142 111.783 50.9727 111.958 50.8896C112.139 50.8115 112.293 50.6772 112.42 50.4868C112.547 50.3013 112.654 50.0449 112.742 49.7178L113.196 48.1797ZM112.054 41.0752L113.628 47.2275L113.965 48.6558L113.042 49.1538L110.64 41.0752H112.054ZM122.469 41.0752V49H121.172V41.0752H122.469ZM126.827 41.0752L123.641 45.6162H122.037L121.832 44.4297H123.113L125.274 41.0752H126.827ZM125.391 49L123.069 45.4111L123.897 44.4297L127.017 49H125.391ZM132.144 47.645V43.3457C132.144 43.0332 132.095 42.7817 131.998 42.5913C131.905 42.4009 131.763 42.2617 131.573 42.1738C131.387 42.0859 131.153 42.042 130.87 42.042C130.596 42.042 130.359 42.0981 130.159 42.2104C129.964 42.3228 129.812 42.4717 129.705 42.6572C129.603 42.8428 129.551 43.0479 129.551 43.2725H128.255C128.255 42.9893 128.316 42.7085 128.438 42.4302C128.565 42.1519 128.746 41.9004 128.98 41.6758C129.214 41.4463 129.495 41.2656 129.822 41.1338C130.154 40.9971 130.525 40.9287 130.936 40.9287C131.424 40.9287 131.856 41.0093 132.232 41.1704C132.608 41.3267 132.903 41.583 133.118 41.9395C133.333 42.2959 133.44 42.7695 133.44 43.3604V47.2715C133.44 47.5352 133.46 47.8159 133.499 48.1138C133.543 48.4116 133.604 48.668 133.682 48.8828V49H132.342C132.278 48.8438 132.229 48.6362 132.195 48.3774C132.161 48.1138 132.144 47.8696 132.144 47.645ZM132.349 44.1953L132.364 45.1475H131.463C131.155 45.1475 130.875 45.1816 130.621 45.25C130.372 45.3184 130.157 45.4185 129.976 45.5503C129.795 45.6772 129.656 45.8359 129.559 46.0264C129.466 46.2168 129.419 46.4341 129.419 46.6782C129.419 46.9956 129.463 47.2495 129.551 47.4399C129.639 47.6255 129.771 47.7598 129.947 47.8428C130.123 47.9258 130.345 47.9673 130.613 47.9673C130.94 47.9673 131.229 47.8916 131.478 47.7402C131.727 47.5889 131.919 47.4058 132.056 47.1909C132.198 46.9761 132.264 46.7759 132.254 46.5903L132.54 47.1982C132.52 47.3887 132.457 47.5962 132.349 47.8208C132.247 48.0405 132.103 48.2529 131.917 48.458C131.731 48.6582 131.512 48.8242 131.258 48.9561C131.009 49.083 130.728 49.1465 130.416 49.1465C129.957 49.1465 129.554 49.0586 129.207 48.8828C128.865 48.707 128.599 48.4482 128.409 48.1064C128.218 47.7646 128.123 47.3423 128.123 46.8394C128.123 46.4585 128.189 46.1069 128.321 45.7847C128.453 45.4624 128.648 45.1841 128.907 44.9497C129.166 44.7104 129.49 44.5249 129.881 44.3931C130.276 44.2612 130.733 44.1953 131.25 44.1953H132.349ZM140.589 41.0752V49H139.292V41.0752H140.589ZM140.149 44.7153V45.8286C139.905 45.9312 139.666 46.0239 139.432 46.1069C139.197 46.1851 138.951 46.2485 138.692 46.2974C138.433 46.3413 138.145 46.3633 137.828 46.3633C137.315 46.3633 136.863 46.2559 136.473 46.041C136.087 45.8213 135.787 45.4917 135.572 45.0522C135.357 44.6079 135.25 44.0488 135.25 43.375V41.0605H136.546V43.375C136.546 43.8145 136.595 44.1709 136.692 44.4443C136.795 44.7178 136.941 44.9204 137.132 45.0522C137.327 45.1792 137.559 45.2427 137.828 45.2427C138.13 45.2427 138.409 45.2207 138.663 45.1768C138.917 45.1279 139.163 45.0645 139.402 44.9863C139.646 44.9082 139.896 44.8179 140.149 44.7153ZM145.496 49.1465C145.022 49.1465 144.595 49.0757 144.214 48.9341C143.833 48.7925 143.509 48.5776 143.24 48.2896C142.972 47.9966 142.767 47.6279 142.625 47.1836C142.483 46.7393 142.413 46.2144 142.413 45.6089V44.7153C142.413 44.0171 142.493 43.4263 142.654 42.9429C142.82 42.4595 143.042 42.0713 143.321 41.7783C143.599 41.4805 143.914 41.2656 144.266 41.1338C144.617 40.9971 144.979 40.9287 145.35 40.9287C145.848 40.9287 146.272 41.0093 146.624 41.1704C146.976 41.3315 147.261 41.5708 147.481 41.8882C147.701 42.2056 147.862 42.5962 147.964 43.0601C148.072 43.5239 148.125 44.0586 148.125 44.6641V45.4185H143.174V44.3125H146.829V44.1294C146.81 43.7192 146.753 43.3579 146.661 43.0454C146.573 42.7329 146.426 42.4888 146.221 42.313C146.016 42.1323 145.726 42.042 145.35 42.042C145.11 42.042 144.888 42.0835 144.683 42.1665C144.483 42.2446 144.31 42.3838 144.163 42.584C144.021 42.7793 143.909 43.0503 143.826 43.397C143.748 43.7437 143.709 44.1831 143.709 44.7153V45.6089C143.709 46.0337 143.748 46.3999 143.826 46.7075C143.909 47.0103 144.029 47.2617 144.185 47.4619C144.346 47.6572 144.542 47.8037 144.771 47.9014C145.005 47.9941 145.271 48.0405 145.569 48.0405C146.004 48.0405 146.363 47.9575 146.646 47.7915C146.929 47.6206 147.176 47.4033 147.386 47.1396L148.067 47.9526C147.925 48.1528 147.74 48.3457 147.51 48.5312C147.286 48.7119 147.007 48.8608 146.675 48.978C146.348 49.0903 145.955 49.1465 145.496 49.1465ZM152.439 48.0405C152.698 48.0405 152.933 47.9893 153.143 47.8867C153.357 47.7793 153.533 47.6133 153.67 47.3887C153.807 47.1592 153.885 46.8613 153.904 46.4951H155.12C155.101 47.0225 154.966 47.4863 154.717 47.8867C154.473 48.2822 154.151 48.5923 153.75 48.8169C153.355 49.0366 152.918 49.1465 152.439 49.1465C151.927 49.1465 151.48 49.0635 151.099 48.8975C150.723 48.7314 150.411 48.4922 150.162 48.1797C149.917 47.8623 149.734 47.479 149.612 47.0298C149.49 46.5757 149.429 46.0605 149.429 45.4844V44.5908C149.429 44.0146 149.49 43.502 149.612 43.0527C149.734 42.5986 149.917 42.2153 150.162 41.9028C150.411 41.5854 150.723 41.3438 151.099 41.1777C151.48 41.0117 151.927 40.9287 152.439 40.9287C152.977 40.9287 153.44 41.0435 153.831 41.2729C154.227 41.4976 154.534 41.8247 154.754 42.2544C154.979 42.6792 155.101 43.1943 155.12 43.7998H153.904C153.885 43.4092 153.814 43.0845 153.692 42.8257C153.57 42.562 153.404 42.3667 153.194 42.2397C152.984 42.1079 152.732 42.042 152.439 42.042C152.098 42.042 151.814 42.103 151.59 42.2251C151.37 42.3423 151.197 42.5132 151.07 42.7378C150.943 42.9624 150.853 43.231 150.799 43.5435C150.75 43.856 150.726 44.2051 150.726 44.5908V45.4844C150.726 45.8701 150.75 46.2217 150.799 46.5391C150.853 46.8516 150.94 47.1201 151.062 47.3447C151.189 47.5693 151.365 47.7427 151.59 47.8647C151.814 47.9819 152.098 48.0405 152.439 48.0405ZM159.471 41.0752V49H158.174V41.0752H159.471ZM161.631 41.0752V42.1738H156.043V41.0752H161.631ZM166.202 45.5137H164.085L164.07 44.4297H165.77C166.106 44.4297 166.385 44.3882 166.604 44.3052C166.829 44.2222 166.998 44.0977 167.11 43.9316C167.222 43.7656 167.278 43.5605 167.278 43.3164C167.278 43.126 167.247 42.96 167.183 42.8184C167.12 42.6719 167.024 42.5522 166.897 42.4595C166.775 42.3618 166.622 42.291 166.436 42.2471C166.25 42.1982 166.033 42.1738 165.784 42.1738H164.415V49H163.125V41.0752H165.784C166.214 41.0752 166.6 41.1191 166.941 41.207C167.288 41.2949 167.581 41.4292 167.82 41.6099C168.064 41.7856 168.25 42.0103 168.377 42.2837C168.509 42.5571 168.575 42.8794 168.575 43.2505C168.575 43.4897 168.533 43.7168 168.45 43.9316C168.367 44.1465 168.243 44.3369 168.077 44.5029C167.916 44.6689 167.715 44.8057 167.476 44.9131C167.237 45.0156 166.961 45.0815 166.648 45.1108L166.202 45.5137ZM166.202 49H163.602L164.268 47.9014H166.202C166.5 47.9014 166.744 47.855 166.934 47.7622C167.125 47.6646 167.266 47.5278 167.359 47.3521C167.457 47.1714 167.505 46.9565 167.505 46.7075C167.505 46.4585 167.457 46.2461 167.359 46.0703C167.266 45.8896 167.125 45.7529 166.934 45.6602C166.744 45.5625 166.5 45.5137 166.202 45.5137H164.466L164.48 44.4297H166.626L167.081 44.8398C167.457 44.874 167.771 44.9814 168.025 45.1621C168.284 45.3428 168.477 45.5723 168.604 45.8506C168.736 46.124 168.802 46.4219 168.802 46.7441C168.802 47.1152 168.743 47.4424 168.626 47.7256C168.509 48.0088 168.338 48.2456 168.113 48.436C167.889 48.6216 167.615 48.7632 167.293 48.8608C166.971 48.9536 166.607 49 166.202 49ZM174.449 47.645V43.3457C174.449 43.0332 174.4 42.7817 174.302 42.5913C174.209 42.4009 174.068 42.2617 173.877 42.1738C173.692 42.0859 173.458 42.042 173.174 42.042C172.901 42.042 172.664 42.0981 172.464 42.2104C172.269 42.3228 172.117 42.4717 172.01 42.6572C171.907 42.8428 171.856 43.0479 171.856 43.2725H170.56C170.56 42.9893 170.621 42.7085 170.743 42.4302C170.87 42.1519 171.05 41.9004 171.285 41.6758C171.519 41.4463 171.8 41.2656 172.127 41.1338C172.459 40.9971 172.83 40.9287 173.24 40.9287C173.729 40.9287 174.161 41.0093 174.537 41.1704C174.913 41.3267 175.208 41.583 175.423 41.9395C175.638 42.2959 175.745 42.7695 175.745 43.3604V47.2715C175.745 47.5352 175.765 47.8159 175.804 48.1138C175.848 48.4116 175.909 48.668 175.987 48.8828V49H174.646C174.583 48.8438 174.534 48.6362 174.5 48.3774C174.466 48.1138 174.449 47.8696 174.449 47.645ZM174.654 44.1953L174.668 45.1475H173.768C173.46 45.1475 173.179 45.1816 172.925 45.25C172.676 45.3184 172.461 45.4185 172.281 45.5503C172.1 45.6772 171.961 45.8359 171.863 46.0264C171.771 46.2168 171.724 46.4341 171.724 46.6782C171.724 46.9956 171.768 47.2495 171.856 47.4399C171.944 47.6255 172.076 47.7598 172.251 47.8428C172.427 47.9258 172.649 47.9673 172.918 47.9673C173.245 47.9673 173.533 47.8916 173.782 47.7402C174.031 47.5889 174.224 47.4058 174.361 47.1909C174.502 46.9761 174.568 46.7759 174.559 46.5903L174.844 47.1982C174.825 47.3887 174.761 47.5962 174.654 47.8208C174.551 48.0405 174.407 48.2529 174.222 48.458C174.036 48.6582 173.816 48.8242 173.562 48.9561C173.313 49.083 173.033 49.1465 172.72 49.1465C172.261 49.1465 171.858 49.0586 171.512 48.8828C171.17 48.707 170.904 48.4482 170.713 48.1064C170.523 47.7646 170.428 47.3423 170.428 46.8394C170.428 46.4585 170.494 46.1069 170.625 45.7847C170.757 45.4624 170.953 45.1841 171.211 44.9497C171.47 44.7104 171.795 44.5249 172.186 44.3931C172.581 44.2612 173.038 44.1953 173.555 44.1953H174.654Z" fill="black"/>
</svg>
