<svg width="224" height="70" viewBox="0 0 224 70" fill="none" xmlns="http://www.w3.org/2000/svg">
<rect x="2" y="2" width="220" height="66" rx="33" fill="#B9A692" stroke="black" stroke-width="4"/>
<path d="M40.0786 20.3359V31H38.731V21.4932H34.5635V31H33.2158V20.3359H40.0786ZM43.5869 24.5986V34.0469H42.2905V23.0752H43.4697L43.5869 24.5986ZM48.0181 26.6787V27.4185C48.0181 28.0435 47.9595 28.5903 47.8423 29.0591C47.73 29.5229 47.5615 29.9111 47.3369 30.2236C47.1172 30.5312 46.8462 30.7632 46.5239 30.9194C46.2017 31.0708 45.833 31.1465 45.418 31.1465C45.0029 31.1465 44.6416 31.0684 44.334 30.9121C44.0312 30.751 43.7749 30.519 43.5649 30.2163C43.3599 29.9136 43.1963 29.5498 43.0742 29.125C42.957 28.6953 42.8765 28.2144 42.8325 27.6821V26.5542C42.8765 25.9927 42.957 25.4897 43.0742 25.0454C43.1914 24.5962 43.3525 24.2153 43.5576 23.9028C43.7676 23.5854 44.0239 23.3438 44.3267 23.1777C44.6343 23.0117 44.9932 22.9287 45.4033 22.9287C45.8281 22.9287 46.2017 23.002 46.5239 23.1484C46.8511 23.2949 47.1245 23.522 47.3442 23.8296C47.5688 24.1323 47.7373 24.5205 47.8496 24.9941C47.9619 25.4629 48.0181 26.0244 48.0181 26.6787ZM46.7217 27.4185V26.6787C46.7217 26.2393 46.6875 25.856 46.6191 25.5288C46.5557 25.2017 46.4531 24.9307 46.3115 24.7158C46.1699 24.501 45.9917 24.3398 45.7769 24.2324C45.562 24.125 45.3032 24.0713 45.0005 24.0713C44.7417 24.0713 44.5122 24.125 44.312 24.2324C44.1167 24.3398 43.9482 24.4863 43.8066 24.6719C43.665 24.8525 43.5479 25.0601 43.4551 25.2944C43.3623 25.5239 43.2939 25.7632 43.25 26.0122V28.2314C43.333 28.5439 43.4429 28.8394 43.5796 29.1177C43.7163 29.3911 43.8994 29.6133 44.1289 29.7842C44.3633 29.9551 44.6587 30.0405 45.0151 30.0405C45.313 30.0405 45.5693 29.9868 45.7842 29.8794C45.999 29.772 46.1748 29.6108 46.3115 29.396C46.4531 29.1763 46.5557 28.9028 46.6191 28.5757C46.6875 28.2437 46.7217 27.8579 46.7217 27.4185ZM49.417 27.4185V26.6641C49.417 26.0488 49.4951 25.5093 49.6514 25.0454C49.8076 24.5767 50.0249 24.186 50.3032 23.8735C50.5815 23.561 50.9062 23.3267 51.2773 23.1704C51.6484 23.0093 52.0464 22.9287 52.4712 22.9287C52.9058 22.9287 53.3086 23.0093 53.6797 23.1704C54.0508 23.3267 54.3755 23.561 54.6538 23.8735C54.937 24.186 55.1567 24.5767 55.313 25.0454C55.4692 25.5093 55.5474 26.0488 55.5474 26.6641V27.4185C55.5474 28.0337 55.4692 28.5757 55.313 29.0444C55.1567 29.5083 54.9395 29.8965 54.6611 30.209C54.3828 30.5215 54.0581 30.7559 53.687 30.9121C53.3159 31.0684 52.9155 31.1465 52.4858 31.1465C52.0562 31.1465 51.6558 31.0684 51.2847 30.9121C50.9136 30.7559 50.5864 30.5215 50.3032 30.209C50.0249 29.8965 49.8076 29.5083 49.6514 29.0444C49.4951 28.5757 49.417 28.0337 49.417 27.4185ZM50.7134 26.6641V27.4185C50.7134 27.853 50.7573 28.2339 50.8452 28.561C50.9331 28.8882 51.0576 29.1616 51.2188 29.3813C51.3799 29.6011 51.5679 29.7671 51.7827 29.8794C51.9976 29.9868 52.2319 30.0405 52.4858 30.0405C52.7788 30.0405 53.0352 29.9868 53.2549 29.8794C53.4795 29.7671 53.665 29.6011 53.8115 29.3813C53.958 29.1616 54.0679 28.8882 54.1411 28.561C54.2144 28.2339 54.251 27.853 54.251 27.4185V26.6641C54.251 26.2295 54.207 25.8511 54.1191 25.5288C54.0312 25.2017 53.9067 24.9282 53.7456 24.7085C53.5845 24.4839 53.394 24.3179 53.1743 24.2104C52.9595 24.0981 52.7251 24.042 52.4712 24.042C52.2222 24.042 51.9902 24.0981 51.7754 24.2104C51.5605 24.3179 51.3726 24.4839 51.2114 24.7085C51.0552 24.9282 50.9331 25.2017 50.8452 25.5288C50.7573 25.8511 50.7134 26.2295 50.7134 26.6641ZM60.4106 27.5137H58.2939L58.2793 26.4297H59.9785C60.3154 26.4297 60.5938 26.3882 60.8135 26.3052C61.0381 26.2222 61.2065 26.0977 61.3188 25.9316C61.4312 25.7656 61.4873 25.5605 61.4873 25.3164C61.4873 25.126 61.4556 24.96 61.3921 24.8184C61.3286 24.6719 61.2334 24.5522 61.1064 24.4595C60.9844 24.3618 60.8306 24.291 60.645 24.2471C60.4595 24.1982 60.2422 24.1738 59.9932 24.1738H58.6235V31H57.3345V23.0752H59.9932C60.4229 23.0752 60.8086 23.1191 61.1504 23.207C61.4971 23.2949 61.79 23.4292 62.0293 23.6099C62.2734 23.7856 62.459 24.0103 62.5859 24.2837C62.7178 24.5571 62.7837 24.8794 62.7837 25.2505C62.7837 25.4897 62.7422 25.7168 62.6592 25.9316C62.5762 26.1465 62.4517 26.3369 62.2856 26.5029C62.1245 26.6689 61.9243 26.8057 61.6851 26.9131C61.4458 27.0156 61.1699 27.0815 60.8574 27.1108L60.4106 27.5137ZM60.4106 31H57.8105L58.4771 29.9014H60.4106C60.7085 29.9014 60.9526 29.855 61.1431 29.7622C61.3335 29.6646 61.4751 29.5278 61.5679 29.3521C61.6655 29.1714 61.7144 28.9565 61.7144 28.7075C61.7144 28.4585 61.6655 28.2461 61.5679 28.0703C61.4751 27.8896 61.3335 27.7529 61.1431 27.6602C60.9526 27.5625 60.7085 27.5137 60.4106 27.5137H58.6748L58.6895 26.4297H60.8354L61.2896 26.8398C61.6655 26.874 61.9805 26.9814 62.2344 27.1621C62.4932 27.3428 62.686 27.5723 62.813 27.8506C62.9448 28.124 63.0107 28.4219 63.0107 28.7441C63.0107 29.1152 62.9521 29.4424 62.835 29.7256C62.7178 30.0088 62.5469 30.2456 62.3223 30.436C62.0977 30.6216 61.8242 30.7632 61.502 30.8608C61.1797 30.9536 60.8159 31 60.4106 31ZM67.6104 31.1465C67.1367 31.1465 66.7095 31.0757 66.3286 30.9341C65.9478 30.7925 65.623 30.5776 65.3545 30.2896C65.0859 29.9966 64.8809 29.6279 64.7393 29.1836C64.5977 28.7393 64.5269 28.2144 64.5269 27.6089V26.7153C64.5269 26.0171 64.6074 25.4263 64.7686 24.9429C64.9346 24.4595 65.1567 24.0713 65.4351 23.7783C65.7134 23.4805 66.0283 23.2656 66.3799 23.1338C66.7314 22.9971 67.0928 22.9287 67.4639 22.9287C67.9619 22.9287 68.3867 23.0093 68.7383 23.1704C69.0898 23.3315 69.3755 23.5708 69.5952 23.8882C69.8149 24.2056 69.9761 24.5962 70.0786 25.0601C70.186 25.5239 70.2397 26.0586 70.2397 26.6641V27.4185H65.2886V26.3125H68.9434V26.1294C68.9238 25.7192 68.8677 25.3579 68.7749 25.0454C68.687 24.7329 68.5405 24.4888 68.3354 24.313C68.1304 24.1323 67.8398 24.042 67.4639 24.042C67.2246 24.042 67.0024 24.0835 66.7974 24.1665C66.5972 24.2446 66.4238 24.3838 66.2773 24.584C66.1357 24.7793 66.0234 25.0503 65.9404 25.397C65.8623 25.7437 65.8232 26.1831 65.8232 26.7153V27.6089C65.8232 28.0337 65.8623 28.3999 65.9404 28.7075C66.0234 29.0103 66.1431 29.2617 66.2993 29.4619C66.4604 29.6572 66.6558 29.8037 66.8853 29.9014C67.1196 29.9941 67.3857 30.0405 67.6836 30.0405C68.1182 30.0405 68.4771 29.9575 68.7603 29.7915C69.0435 29.6206 69.29 29.4033 69.5 29.1396L70.1812 29.9526C70.0396 30.1528 69.854 30.3457 69.6245 30.5312C69.3999 30.7119 69.1216 30.8608 68.7896 30.978C68.4624 31.0903 68.0693 31.1465 67.6104 31.1465ZM73.1035 24.5986V34.0469H71.8071V23.0752H72.9863L73.1035 24.5986ZM77.5347 26.6787V27.4185C77.5347 28.0435 77.4761 28.5903 77.3589 29.0591C77.2466 29.5229 77.0781 29.9111 76.8535 30.2236C76.6338 30.5312 76.3628 30.7632 76.0405 30.9194C75.7183 31.0708 75.3496 31.1465 74.9346 31.1465C74.5195 31.1465 74.1582 31.0684 73.8506 30.9121C73.5479 30.751 73.2915 30.519 73.0815 30.2163C72.8765 29.9136 72.7129 29.5498 72.5908 29.125C72.4736 28.6953 72.3931 28.2144 72.3491 27.6821V26.5542C72.3931 25.9927 72.4736 25.4897 72.5908 25.0454C72.708 24.5962 72.8691 24.2153 73.0742 23.9028C73.2842 23.5854 73.5405 23.3438 73.8433 23.1777C74.1509 23.0117 74.5098 22.9287 74.9199 22.9287C75.3447 22.9287 75.7183 23.002 76.0405 23.1484C76.3677 23.2949 76.6411 23.522 76.8608 23.8296C77.0854 24.1323 77.2539 24.5205 77.3662 24.9941C77.4785 25.4629 77.5347 26.0244 77.5347 26.6787ZM76.2383 27.4185V26.6787C76.2383 26.2393 76.2041 25.856 76.1357 25.5288C76.0723 25.2017 75.9697 24.9307 75.8281 24.7158C75.6865 24.501 75.5083 24.3398 75.2935 24.2324C75.0786 24.125 74.8198 24.0713 74.5171 24.0713C74.2583 24.0713 74.0288 24.125 73.8286 24.2324C73.6333 24.3398 73.4648 24.4863 73.3232 24.6719C73.1816 24.8525 73.0645 25.0601 72.9717 25.2944C72.8789 25.5239 72.8105 25.7632 72.7666 26.0122V28.2314C72.8496 28.5439 72.9595 28.8394 73.0962 29.1177C73.2329 29.3911 73.416 29.6133 73.6455 29.7842C73.8799 29.9551 74.1753 30.0405 74.5317 30.0405C74.8296 30.0405 75.0859 29.9868 75.3008 29.8794C75.5156 29.772 75.6914 29.6108 75.8281 29.396C75.9697 29.1763 76.0723 28.9028 76.1357 28.5757C76.2041 28.2437 76.2383 27.8579 76.2383 27.4185ZM80.2886 25.7998H82.2222C82.769 25.7998 83.228 25.9121 83.5991 26.1367C83.9702 26.3564 84.251 26.6616 84.4414 27.0522C84.6318 27.438 84.7271 27.8774 84.7271 28.3706C84.7271 28.7368 84.6733 29.0811 84.5659 29.4033C84.4585 29.7207 84.2974 29.999 84.0825 30.2383C83.8726 30.4775 83.6113 30.6655 83.2988 30.8022C82.9912 30.9341 82.6323 31 82.2222 31H79.3218V23.0752H80.6108V29.8867H82.2222C82.5249 29.8867 82.7642 29.8159 82.9399 29.6743C83.1157 29.5327 83.2402 29.3496 83.3135 29.125C83.3916 28.9004 83.4307 28.666 83.4307 28.4219C83.4307 28.1826 83.3916 27.9482 83.3135 27.7188C83.2402 27.4893 83.1157 27.2988 82.9399 27.1475C82.7642 26.9912 82.5249 26.9131 82.2222 26.9131H80.2886V25.7998ZM87.6714 29.3887V30.48C87.6714 30.9243 87.5591 31.3931 87.3345 31.8862C87.1099 32.3843 86.7949 32.7993 86.3896 33.1313L85.6206 32.5967C85.7769 32.3818 85.9087 32.1621 86.0161 31.9375C86.1235 31.7178 86.2041 31.4883 86.2578 31.249C86.3164 31.0146 86.3457 30.7656 86.3457 30.502V29.3887H87.6714ZM94.1899 28.854L97.061 23.0752H98.3574V31H97.061V25.2212L94.1899 31H92.9009V23.0752H94.1899V28.854ZM103.177 30.0405C103.436 30.0405 103.67 29.9893 103.88 29.8867C104.095 29.7793 104.271 29.6133 104.407 29.3887C104.544 29.1592 104.622 28.8613 104.642 28.4951H105.857C105.838 29.0225 105.704 29.4863 105.455 29.8867C105.21 30.2822 104.888 30.5923 104.488 30.8169C104.092 31.0366 103.655 31.1465 103.177 31.1465C102.664 31.1465 102.217 31.0635 101.836 30.8975C101.46 30.7314 101.148 30.4922 100.899 30.1797C100.655 29.8623 100.472 29.479 100.35 29.0298C100.228 28.5757 100.167 28.0605 100.167 27.4844V26.5908C100.167 26.0146 100.228 25.502 100.35 25.0527C100.472 24.5986 100.655 24.2153 100.899 23.9028C101.148 23.5854 101.46 23.3438 101.836 23.1777C102.217 23.0117 102.664 22.9287 103.177 22.9287C103.714 22.9287 104.178 23.0435 104.568 23.2729C104.964 23.4976 105.271 23.8247 105.491 24.2544C105.716 24.6792 105.838 25.1943 105.857 25.7998H104.642C104.622 25.4092 104.551 25.0845 104.429 24.8257C104.307 24.562 104.141 24.3667 103.931 24.2397C103.721 24.1079 103.47 24.042 103.177 24.042C102.835 24.042 102.552 24.103 102.327 24.2251C102.107 24.3423 101.934 24.5132 101.807 24.7378C101.68 24.9624 101.59 25.231 101.536 25.5435C101.487 25.856 101.463 26.2051 101.463 26.5908V27.4844C101.463 27.8701 101.487 28.2217 101.536 28.5391C101.59 28.8516 101.678 29.1201 101.8 29.3447C101.927 29.5693 102.103 29.7427 102.327 29.8647C102.552 29.9819 102.835 30.0405 103.177 30.0405ZM111.768 23.0752V24.1958H108.604V23.0752H111.768ZM108.772 23.0752V31H107.476V23.0752H108.772ZM112.933 23.0752V31H111.636V23.0752H112.933ZM116.089 25.7998H118.023C118.57 25.7998 119.029 25.9121 119.4 26.1367C119.771 26.3564 120.052 26.6616 120.242 27.0522C120.433 27.438 120.528 27.8774 120.528 28.3706C120.528 28.7368 120.474 29.0811 120.367 29.4033C120.259 29.7207 120.098 29.999 119.883 30.2383C119.673 30.4775 119.412 30.6655 119.1 30.8022C118.792 30.9341 118.433 31 118.023 31H115.123V23.0752H116.412V29.8867H118.023C118.326 29.8867 118.565 29.8159 118.741 29.6743C118.917 29.5327 119.041 29.3496 119.114 29.125C119.192 28.9004 119.231 28.666 119.231 28.4219C119.231 28.1826 119.192 27.9482 119.114 27.7188C119.041 27.4893 118.917 27.2988 118.741 27.1475C118.565 26.9912 118.326 26.9131 118.023 26.9131H116.089V25.7998ZM122.945 23.0752V31H121.648V23.0752H122.945ZM128.064 23.0752V31H126.768V23.0752H128.064ZM130.225 23.0752V24.1738H124.637V23.0752H130.225ZM132.686 25.7998H134.62C135.167 25.7998 135.625 25.9121 135.997 26.1367C136.368 26.3564 136.648 26.6616 136.839 27.0522C137.029 27.438 137.125 27.8774 137.125 28.3706C137.125 28.7368 137.071 29.0811 136.963 29.4033C136.856 29.7207 136.695 29.999 136.48 30.2383C136.27 30.4775 136.009 30.6655 135.696 30.8022C135.389 30.9341 135.03 31 134.62 31H131.719V23.0752H133.008V29.8867H134.62C134.922 29.8867 135.162 29.8159 135.337 29.6743C135.513 29.5327 135.638 29.3496 135.711 29.125C135.789 28.9004 135.828 28.666 135.828 28.4219C135.828 28.1826 135.789 27.9482 135.711 27.7188C135.638 27.4893 135.513 27.2988 135.337 27.1475C135.162 26.9912 134.922 26.9131 134.62 26.9131H132.686V25.7998ZM139.542 23.0752V31H138.245V23.0752H139.542ZM145.005 27.5137H142.889L142.874 26.4297H144.573C144.91 26.4297 145.188 26.3882 145.408 26.3052C145.633 26.2222 145.801 26.0977 145.914 25.9316C146.026 25.7656 146.082 25.5605 146.082 25.3164C146.082 25.126 146.05 24.96 145.987 24.8184C145.923 24.6719 145.828 24.5522 145.701 24.4595C145.579 24.3618 145.425 24.291 145.24 24.2471C145.054 24.1982 144.837 24.1738 144.588 24.1738H143.218V31H141.929V23.0752H144.588C145.018 23.0752 145.403 23.1191 145.745 23.207C146.092 23.2949 146.385 23.4292 146.624 23.6099C146.868 23.7856 147.054 24.0103 147.181 24.2837C147.312 24.5571 147.378 24.8794 147.378 25.2505C147.378 25.4897 147.337 25.7168 147.254 25.9316C147.171 26.1465 147.046 26.3369 146.88 26.5029C146.719 26.6689 146.519 26.8057 146.28 26.9131C146.041 27.0156 145.765 27.0815 145.452 27.1108L145.005 27.5137ZM145.005 31H142.405L143.072 29.9014H145.005C145.303 29.9014 145.547 29.855 145.738 29.7622C145.928 29.6646 146.07 29.5278 146.163 29.3521C146.26 29.1714 146.309 28.9565 146.309 28.7075C146.309 28.4585 146.26 28.2461 146.163 28.0703C146.07 27.8896 145.928 27.7529 145.738 27.6602C145.547 27.5625 145.303 27.5137 145.005 27.5137H143.27L143.284 26.4297H145.43L145.884 26.8398C146.26 26.874 146.575 26.9814 146.829 27.1621C147.088 27.3428 147.281 27.5723 147.408 27.8506C147.54 28.124 147.605 28.4219 147.605 28.7441C147.605 29.1152 147.547 29.4424 147.43 29.7256C147.312 30.0088 147.142 30.2456 146.917 30.436C146.692 30.6216 146.419 30.7632 146.097 30.8608C145.774 30.9536 145.411 31 145.005 31ZM153.252 29.645V25.3457C153.252 25.0332 153.204 24.7817 153.106 24.5913C153.013 24.4009 152.872 24.2617 152.681 24.1738C152.496 24.0859 152.261 24.042 151.978 24.042C151.705 24.042 151.468 24.0981 151.268 24.2104C151.072 24.3228 150.921 24.4717 150.813 24.6572C150.711 24.8428 150.66 25.0479 150.66 25.2725H149.363C149.363 24.9893 149.424 24.7085 149.546 24.4302C149.673 24.1519 149.854 23.9004 150.088 23.6758C150.323 23.4463 150.604 23.2656 150.931 23.1338C151.263 22.9971 151.634 22.9287 152.044 22.9287C152.532 22.9287 152.964 23.0093 153.34 23.1704C153.716 23.3267 154.012 23.583 154.227 23.9395C154.441 24.2959 154.549 24.7695 154.549 25.3604V29.2715C154.549 29.5352 154.568 29.8159 154.607 30.1138C154.651 30.4116 154.712 30.668 154.791 30.8828V31H153.45C153.387 30.8438 153.338 30.6362 153.304 30.3774C153.27 30.1138 153.252 29.8696 153.252 29.645ZM153.458 26.1953L153.472 27.1475H152.571C152.264 27.1475 151.983 27.1816 151.729 27.25C151.48 27.3184 151.265 27.4185 151.084 27.5503C150.904 27.6772 150.765 27.8359 150.667 28.0264C150.574 28.2168 150.528 28.4341 150.528 28.6782C150.528 28.9956 150.572 29.2495 150.66 29.4399C150.748 29.6255 150.879 29.7598 151.055 29.8428C151.231 29.9258 151.453 29.9673 151.722 29.9673C152.049 29.9673 152.337 29.8916 152.586 29.7402C152.835 29.5889 153.028 29.4058 153.165 29.1909C153.306 28.9761 153.372 28.7759 153.362 28.5903L153.648 29.1982C153.628 29.3887 153.565 29.5962 153.458 29.8208C153.355 30.0405 153.211 30.2529 153.025 30.458C152.84 30.6582 152.62 30.8242 152.366 30.9561C152.117 31.083 151.836 31.1465 151.524 31.1465C151.065 31.1465 150.662 31.0586 150.315 30.8828C149.974 30.707 149.708 30.4482 149.517 30.1064C149.327 29.7646 149.231 29.3423 149.231 28.8394C149.231 28.4585 149.297 28.1069 149.429 27.7847C149.561 27.4624 149.756 27.1841 150.015 26.9497C150.274 26.7104 150.599 26.5249 150.989 26.3931C151.385 26.2612 151.841 26.1953 152.359 26.1953H153.458ZM159.397 31.1465C158.924 31.1465 158.497 31.0757 158.116 30.9341C157.735 30.7925 157.41 30.5776 157.142 30.2896C156.873 29.9966 156.668 29.6279 156.526 29.1836C156.385 28.7393 156.314 28.2144 156.314 27.6089V26.7153C156.314 26.0171 156.395 25.4263 156.556 24.9429C156.722 24.4595 156.944 24.0713 157.222 23.7783C157.5 23.4805 157.815 23.2656 158.167 23.1338C158.519 22.9971 158.88 22.9287 159.251 22.9287C159.749 22.9287 160.174 23.0093 160.525 23.1704C160.877 23.3315 161.163 23.5708 161.382 23.8882C161.602 24.2056 161.763 24.5962 161.866 25.0601C161.973 25.5239 162.027 26.0586 162.027 26.6641V27.4185H157.076V26.3125H160.73V26.1294C160.711 25.7192 160.655 25.3579 160.562 25.0454C160.474 24.7329 160.328 24.4888 160.123 24.313C159.917 24.1323 159.627 24.042 159.251 24.042C159.012 24.042 158.79 24.0835 158.584 24.1665C158.384 24.2446 158.211 24.3838 158.064 24.584C157.923 24.7793 157.811 25.0503 157.728 25.397C157.649 25.7437 157.61 26.1831 157.61 26.7153V27.6089C157.61 28.0337 157.649 28.3999 157.728 28.7075C157.811 29.0103 157.93 29.2617 158.086 29.4619C158.248 29.6572 158.443 29.8037 158.672 29.9014C158.907 29.9941 159.173 30.0405 159.471 30.0405C159.905 30.0405 160.264 29.9575 160.547 29.7915C160.831 29.6206 161.077 29.4033 161.287 29.1396L161.968 29.9526C161.827 30.1528 161.641 30.3457 161.412 30.5312C161.187 30.7119 160.909 30.8608 160.577 30.978C160.25 31.0903 159.856 31.1465 159.397 31.1465ZM166.355 23.0752V31H165.059V23.0752H166.355ZM168.516 23.0752V24.1738H162.928V23.0752H168.516ZM177.759 23.0752V24.1958H174.603V23.0752H177.759ZM178.917 23.0752V31H177.627V23.0752H178.917ZM174.295 23.0752H175.591L175.408 26.8984C175.379 27.4893 175.33 28.0117 175.262 28.4658C175.198 28.915 175.108 29.3008 174.991 29.623C174.878 29.9453 174.737 30.209 174.566 30.4141C174.4 30.6143 174.2 30.7632 173.965 30.8608C173.736 30.9536 173.47 31 173.167 31H172.779V29.8062L173.035 29.7842C173.206 29.7695 173.353 29.7207 173.475 29.6377C173.602 29.5547 173.704 29.4326 173.782 29.2715C173.865 29.1055 173.931 28.8931 173.98 28.6343C174.034 28.3755 174.075 28.0679 174.104 27.7114C174.134 27.355 174.156 26.9399 174.17 26.4663L174.295 23.0752ZM182.403 28.854L185.274 23.0752H186.57V31H185.274V25.2212L182.403 31H181.114V23.0752H182.403V28.854ZM35.8232 41.0752V49H34.5269V41.0752H35.8232ZM37.9839 41.0752V42.1738H32.3955V41.0752H37.9839ZM42.5542 45.5137H40.4375L40.4229 44.4297H42.1221C42.459 44.4297 42.7373 44.3882 42.957 44.3052C43.1816 44.2222 43.3501 44.0977 43.4624 43.9316C43.5747 43.7656 43.6309 43.5605 43.6309 43.3164C43.6309 43.126 43.5991 42.96 43.5356 42.8184C43.4722 42.6719 43.377 42.5522 43.25 42.4595C43.1279 42.3618 42.9741 42.291 42.7886 42.2471C42.603 42.1982 42.3857 42.1738 42.1367 42.1738H40.7671V49H39.478V41.0752H42.1367C42.5664 41.0752 42.9521 41.1191 43.2939 41.207C43.6406 41.2949 43.9336 41.4292 44.1729 41.6099C44.417 41.7856 44.6025 42.0103 44.7295 42.2837C44.8613 42.5571 44.9272 42.8794 44.9272 43.2505C44.9272 43.4897 44.8857 43.7168 44.8027 43.9316C44.7197 44.1465 44.5952 44.3369 44.4292 44.5029C44.2681 44.6689 44.0679 44.8057 43.8286 44.9131C43.5894 45.0156 43.3135 45.0815 43.001 45.1108L42.5542 45.5137ZM42.5542 49H39.9541L40.6206 47.9014H42.5542C42.8521 47.9014 43.0962 47.855 43.2866 47.7622C43.4771 47.6646 43.6187 47.5278 43.7114 47.3521C43.8091 47.1714 43.8579 46.9565 43.8579 46.7075C43.8579 46.4585 43.8091 46.2461 43.7114 46.0703C43.6187 45.8896 43.4771 45.7529 43.2866 45.6602C43.0962 45.5625 42.8521 45.5137 42.5542 45.5137H40.8184L40.833 44.4297H42.979L43.4331 44.8398C43.8091 44.874 44.124 44.9814 44.3779 45.1621C44.6367 45.3428 44.8296 45.5723 44.9565 45.8506C45.0884 46.124 45.1543 46.4219 45.1543 46.7441C45.1543 47.1152 45.0957 47.4424 44.9785 47.7256C44.8613 48.0088 44.6904 48.2456 44.4658 48.436C44.2412 48.6216 43.9678 48.7632 43.6455 48.8608C43.3232 48.9536 42.9595 49 42.5542 49ZM46.6484 45.4185V44.6641C46.6484 44.0488 46.7266 43.5093 46.8828 43.0454C47.0391 42.5767 47.2563 42.186 47.5347 41.8735C47.813 41.561 48.1377 41.3267 48.5088 41.1704C48.8799 41.0093 49.2778 40.9287 49.7026 40.9287C50.1372 40.9287 50.54 41.0093 50.9111 41.1704C51.2822 41.3267 51.6069 41.561 51.8853 41.8735C52.1685 42.186 52.3882 42.5767 52.5444 43.0454C52.7007 43.5093 52.7788 44.0488 52.7788 44.6641V45.4185C52.7788 46.0337 52.7007 46.5757 52.5444 47.0444C52.3882 47.5083 52.1709 47.8965 51.8926 48.209C51.6143 48.5215 51.2896 48.7559 50.9185 48.9121C50.5474 49.0684 50.147 49.1465 49.7173 49.1465C49.2876 49.1465 48.8872 49.0684 48.5161 48.9121C48.145 48.7559 47.8179 48.5215 47.5347 48.209C47.2563 47.8965 47.0391 47.5083 46.8828 47.0444C46.7266 46.5757 46.6484 46.0337 46.6484 45.4185ZM47.9448 44.6641V45.4185C47.9448 45.853 47.9888 46.2339 48.0767 46.561C48.1646 46.8882 48.2891 47.1616 48.4502 47.3813C48.6113 47.6011 48.7993 47.7671 49.0142 47.8794C49.229 47.9868 49.4634 48.0405 49.7173 48.0405C50.0103 48.0405 50.2666 47.9868 50.4863 47.8794C50.7109 47.7671 50.8965 47.6011 51.043 47.3813C51.1895 47.1616 51.2993 46.8882 51.3726 46.561C51.4458 46.2339 51.4824 45.853 51.4824 45.4185V44.6641C51.4824 44.2295 51.4385 43.8511 51.3506 43.5288C51.2627 43.2017 51.1382 42.9282 50.9771 42.7085C50.8159 42.4839 50.6255 42.3179 50.4058 42.2104C50.1909 42.0981 49.9565 42.042 49.7026 42.042C49.4536 42.042 49.2217 42.0981 49.0068 42.2104C48.792 42.3179 48.604 42.4839 48.4429 42.7085C48.2866 42.9282 48.1646 43.2017 48.0767 43.5288C47.9888 43.8511 47.9448 44.2295 47.9448 44.6641ZM55.855 46.854L58.7261 41.0752H60.0225V49H58.7261V43.2212L55.855 49H54.5659V41.0752H55.855V46.854ZM58.3818 38.2041H59.4805C59.4805 38.585 59.3926 38.9243 59.2168 39.2222C59.041 39.5151 58.7896 39.7446 58.4624 39.9106C58.1353 40.0767 57.7471 40.1597 57.2979 40.1597C56.6191 40.1597 56.082 39.979 55.6865 39.6177C55.2959 39.2515 55.1006 38.7803 55.1006 38.2041H56.1992C56.1992 38.4922 56.2822 38.7461 56.4482 38.9658C56.6143 39.1855 56.8975 39.2954 57.2979 39.2954C57.6885 39.2954 57.9668 39.1855 58.1328 38.9658C58.2988 38.7461 58.3818 38.4922 58.3818 38.2041ZM66.834 42.5986V52.0469H65.5376V41.0752H66.7168L66.834 42.5986ZM71.2651 44.6787V45.4185C71.2651 46.0435 71.2065 46.5903 71.0894 47.0591C70.9771 47.5229 70.8086 47.9111 70.584 48.2236C70.3643 48.5312 70.0933 48.7632 69.771 48.9194C69.4487 49.0708 69.0801 49.1465 68.665 49.1465C68.25 49.1465 67.8887 49.0684 67.5811 48.9121C67.2783 48.751 67.022 48.519 66.812 48.2163C66.6069 47.9136 66.4434 47.5498 66.3213 47.125C66.2041 46.6953 66.1235 46.2144 66.0796 45.6821V44.5542C66.1235 43.9927 66.2041 43.4897 66.3213 43.0454C66.4385 42.5962 66.5996 42.2153 66.8047 41.9028C67.0146 41.5854 67.271 41.3438 67.5737 41.1777C67.8813 41.0117 68.2402 40.9287 68.6504 40.9287C69.0752 40.9287 69.4487 41.002 69.771 41.1484C70.0981 41.2949 70.3716 41.522 70.5913 41.8296C70.8159 42.1323 70.9844 42.5205 71.0967 42.9941C71.209 43.4629 71.2651 44.0244 71.2651 44.6787ZM69.9688 45.4185V44.6787C69.9688 44.2393 69.9346 43.856 69.8662 43.5288C69.8027 43.2017 69.7002 42.9307 69.5586 42.7158C69.417 42.501 69.2388 42.3398 69.0239 42.2324C68.8091 42.125 68.5503 42.0713 68.2476 42.0713C67.9888 42.0713 67.7593 42.125 67.5591 42.2324C67.3638 42.3398 67.1953 42.4863 67.0537 42.6719C66.9121 42.8525 66.7949 43.0601 66.7021 43.2944C66.6094 43.5239 66.541 43.7632 66.4971 44.0122V46.2314C66.5801 46.5439 66.6899 46.8394 66.8267 47.1177C66.9634 47.3911 67.1465 47.6133 67.376 47.7842C67.6104 47.9551 67.9058 48.0405 68.2622 48.0405C68.5601 48.0405 68.8164 47.9868 69.0312 47.8794C69.2461 47.772 69.4219 47.6108 69.5586 47.396C69.7002 47.1763 69.8027 46.9028 69.8662 46.5757C69.9346 46.2437 69.9688 45.8579 69.9688 45.4185ZM72.6641 45.4185V44.6641C72.6641 44.0488 72.7422 43.5093 72.8984 43.0454C73.0547 42.5767 73.272 42.186 73.5503 41.8735C73.8286 41.561 74.1533 41.3267 74.5244 41.1704C74.8955 41.0093 75.2935 40.9287 75.7183 40.9287C76.1528 40.9287 76.5557 41.0093 76.9268 41.1704C77.2979 41.3267 77.6226 41.561 77.9009 41.8735C78.1841 42.186 78.4038 42.5767 78.5601 43.0454C78.7163 43.5093 78.7944 44.0488 78.7944 44.6641V45.4185C78.7944 46.0337 78.7163 46.5757 78.5601 47.0444C78.4038 47.5083 78.1865 47.8965 77.9082 48.209C77.6299 48.5215 77.3052 48.7559 76.9341 48.9121C76.563 49.0684 76.1626 49.1465 75.7329 49.1465C75.3032 49.1465 74.9028 49.0684 74.5317 48.9121C74.1606 48.7559 73.8335 48.5215 73.5503 48.209C73.272 47.8965 73.0547 47.5083 72.8984 47.0444C72.7422 46.5757 72.6641 46.0337 72.6641 45.4185ZM73.9604 44.6641V45.4185C73.9604 45.853 74.0044 46.2339 74.0923 46.561C74.1802 46.8882 74.3047 47.1616 74.4658 47.3813C74.627 47.6011 74.8149 47.7671 75.0298 47.8794C75.2446 47.9868 75.479 48.0405 75.7329 48.0405C76.0259 48.0405 76.2822 47.9868 76.502 47.8794C76.7266 47.7671 76.9121 47.6011 77.0586 47.3813C77.2051 47.1616 77.3149 46.8882 77.3882 46.561C77.4614 46.2339 77.498 45.853 77.498 45.4185V44.6641C77.498 44.2295 77.4541 43.8511 77.3662 43.5288C77.2783 43.2017 77.1538 42.9282 76.9927 42.7085C76.8315 42.4839 76.6411 42.3179 76.4214 42.2104C76.2065 42.0981 75.9722 42.042 75.7183 42.042C75.4692 42.042 75.2373 42.0981 75.0225 42.2104C74.8076 42.3179 74.6196 42.4839 74.4585 42.7085C74.3022 42.9282 74.1802 43.2017 74.0923 43.5288C74.0044 43.8511 73.9604 44.2295 73.9604 44.6641ZM84.7197 37.6255H85.7671C85.7671 38.104 85.7012 38.4849 85.5693 38.7681C85.4424 39.0464 85.2715 39.2612 85.0566 39.4126C84.8418 39.564 84.6025 39.6787 84.3389 39.7568C84.0752 39.835 83.8066 39.9106 83.5332 39.9839C83.1914 40.0718 82.8716 40.2109 82.5737 40.4014C82.2759 40.5869 82.0195 40.8506 81.8047 41.1924C81.5947 41.5342 81.4409 41.9785 81.3433 42.5254C81.2505 43.0723 81.2334 43.7485 81.292 44.5542V45.228H80.2373V44.5542C80.2373 43.6509 80.3105 42.8623 80.457 42.1885C80.6035 41.5146 80.811 40.9458 81.0796 40.4819C81.3481 40.0181 81.6655 39.6494 82.0317 39.376C82.3979 39.1025 82.8032 38.9146 83.2476 38.812C83.5308 38.7388 83.7822 38.6606 84.002 38.5776C84.2266 38.4897 84.4023 38.3726 84.5293 38.2261C84.6562 38.0796 84.7197 37.8794 84.7197 37.6255ZM83.4819 41.5293C83.9165 41.5293 84.3022 41.6196 84.6392 41.8003C84.9761 41.981 85.2617 42.2324 85.4961 42.5547C85.7305 42.877 85.9087 43.2578 86.0308 43.6973C86.1528 44.1318 86.2139 44.6055 86.2139 45.1182V45.2793C86.2139 45.8311 86.1479 46.3438 86.0161 46.8174C85.8843 47.2861 85.689 47.6963 85.4302 48.0479C85.1763 48.3945 84.8638 48.6655 84.4927 48.8608C84.1216 49.0562 83.6992 49.1538 83.2256 49.1538C82.752 49.1538 82.3296 49.0562 81.9585 48.8608C81.5923 48.6655 81.2798 48.3945 81.021 48.0479C80.7671 47.6963 80.5718 47.2861 80.4351 46.8174C80.3032 46.3438 80.2373 45.8311 80.2373 45.2793V45.1182C80.2373 44.9961 80.2593 44.8765 80.3032 44.7593C80.3472 44.6421 80.3984 44.5225 80.457 44.4004C80.5156 44.2783 80.5693 44.1489 80.6182 44.0122C80.7695 43.5728 80.9795 43.165 81.248 42.7891C81.5166 42.4131 81.8364 42.1104 82.2075 41.8809C82.5835 41.6465 83.0083 41.5293 83.4819 41.5293ZM83.2183 42.6353C82.8228 42.6353 82.5005 42.75 82.2515 42.9795C82.0073 43.209 81.8267 43.5142 81.7095 43.895C81.5923 44.271 81.5337 44.6787 81.5337 45.1182V45.2793C81.5337 45.6504 81.5654 46.002 81.6289 46.334C81.6924 46.666 81.7925 46.9614 81.9292 47.2202C82.0659 47.4741 82.2417 47.6743 82.4565 47.8208C82.6714 47.9673 82.9277 48.0405 83.2256 48.0405C83.5234 48.0405 83.7773 47.9673 83.9873 47.8208C84.2021 47.6743 84.3779 47.4741 84.5146 47.2202C84.6514 46.9614 84.7515 46.666 84.8149 46.334C84.8833 46.002 84.9175 45.6504 84.9175 45.2793V45.1182C84.9175 44.7861 84.8833 44.4712 84.8149 44.1733C84.7515 43.8755 84.6514 43.6118 84.5146 43.3823C84.3779 43.1528 84.2021 42.9722 83.9873 42.8403C83.7725 42.7036 83.5161 42.6353 83.2183 42.6353ZM87.4736 45.4185V44.6641C87.4736 44.0488 87.5518 43.5093 87.708 43.0454C87.8643 42.5767 88.0815 42.186 88.3599 41.8735C88.6382 41.561 88.9629 41.3267 89.334 41.1704C89.7051 41.0093 90.103 40.9287 90.5278 40.9287C90.9624 40.9287 91.3652 41.0093 91.7363 41.1704C92.1074 41.3267 92.4321 41.561 92.7104 41.8735C92.9937 42.186 93.2134 42.5767 93.3696 43.0454C93.5259 43.5093 93.604 44.0488 93.604 44.6641V45.4185C93.604 46.0337 93.5259 46.5757 93.3696 47.0444C93.2134 47.5083 92.9961 47.8965 92.7178 48.209C92.4395 48.5215 92.1147 48.7559 91.7437 48.9121C91.3726 49.0684 90.9722 49.1465 90.5425 49.1465C90.1128 49.1465 89.7124 49.0684 89.3413 48.9121C88.9702 48.7559 88.6431 48.5215 88.3599 48.209C88.0815 47.8965 87.8643 47.5083 87.708 47.0444C87.5518 46.5757 87.4736 46.0337 87.4736 45.4185ZM88.77 44.6641V45.4185C88.77 45.853 88.814 46.2339 88.9019 46.561C88.9897 46.8882 89.1143 47.1616 89.2754 47.3813C89.4365 47.6011 89.6245 47.7671 89.8394 47.8794C90.0542 47.9868 90.2886 48.0405 90.5425 48.0405C90.8354 48.0405 91.0918 47.9868 91.3115 47.8794C91.5361 47.7671 91.7217 47.6011 91.8682 47.3813C92.0146 47.1616 92.1245 46.8882 92.1978 46.561C92.271 46.2339 92.3076 45.853 92.3076 45.4185V44.6641C92.3076 44.2295 92.2637 43.8511 92.1758 43.5288C92.0879 43.2017 91.9634 42.9282 91.8022 42.7085C91.6411 42.4839 91.4507 42.3179 91.231 42.2104C91.0161 42.0981 90.7817 42.042 90.5278 42.042C90.2788 42.042 90.0469 42.0981 89.832 42.2104C89.6172 42.3179 89.4292 42.4839 89.2681 42.7085C89.1118 42.9282 88.9897 43.2017 88.9019 43.5288C88.814 43.8511 88.77 44.2295 88.77 44.6641ZM97.9619 41.0752V49H96.6655V41.0752H97.9619ZM100.123 41.0752V42.1738H94.5342V41.0752H100.123ZM107.322 42.042C107.088 42.042 106.863 42.1079 106.648 42.2397C106.438 42.3716 106.268 42.5547 106.136 42.7891C106.004 43.0186 105.938 43.2847 105.938 43.5874H104.708C104.708 43.1138 104.83 42.6768 105.074 42.2764C105.323 41.8711 105.645 41.5464 106.041 41.3022C106.441 41.0532 106.868 40.9287 107.322 40.9287C107.796 40.9287 108.213 41.0337 108.575 41.2437C108.941 41.4536 109.249 41.7417 109.498 42.1079C109.747 42.4741 109.935 42.8965 110.062 43.375C110.188 43.8486 110.252 44.3516 110.252 44.8838V45.1914C110.252 45.7236 110.186 46.229 110.054 46.7075C109.927 47.1812 109.739 47.6035 109.49 47.9746C109.241 48.3408 108.934 48.6289 108.567 48.8389C108.206 49.0488 107.791 49.1538 107.322 49.1538C106.814 49.1538 106.363 49.0269 105.967 48.7729C105.572 48.519 105.262 48.1772 105.037 47.7476C104.817 47.313 104.708 46.8247 104.708 46.2827H105.938C105.938 46.6099 105.997 46.9077 106.114 47.1763C106.236 47.4399 106.402 47.6499 106.612 47.8062C106.822 47.9624 107.059 48.0405 107.322 48.0405C107.615 48.0405 107.864 47.9575 108.069 47.7915C108.279 47.6255 108.45 47.4058 108.582 47.1323C108.714 46.8589 108.809 46.5537 108.868 46.2168C108.931 45.875 108.963 45.5332 108.963 45.1914V44.8838C108.963 44.5371 108.931 44.1953 108.868 43.8584C108.809 43.5215 108.714 43.2163 108.582 42.9429C108.455 42.6694 108.287 42.4521 108.077 42.291C107.867 42.125 107.615 42.042 107.322 42.042ZM109.607 44.4077V45.5137H106.641V44.4077H109.607ZM115.921 47.1982L118.038 41.0752H119.268L116.368 49H115.474L112.581 41.0752H113.812L115.921 47.1982ZM113.438 41.0752V49H112.149V41.0752H113.438ZM118.36 49V41.0752H119.656V49H118.36ZM121.458 45.4185V44.6641C121.458 44.0488 121.536 43.5093 121.692 43.0454C121.849 42.5767 122.066 42.186 122.344 41.8735C122.623 41.561 122.947 41.3267 123.318 41.1704C123.689 41.0093 124.087 40.9287 124.512 40.9287C124.947 40.9287 125.35 41.0093 125.721 41.1704C126.092 41.3267 126.417 41.561 126.695 41.8735C126.978 42.186 127.198 42.5767 127.354 43.0454C127.51 43.5093 127.588 44.0488 127.588 44.6641V45.4185C127.588 46.0337 127.51 46.5757 127.354 47.0444C127.198 47.5083 126.98 47.8965 126.702 48.209C126.424 48.5215 126.099 48.7559 125.728 48.9121C125.357 49.0684 124.957 49.1465 124.527 49.1465C124.097 49.1465 123.697 49.0684 123.326 48.9121C122.955 48.7559 122.627 48.5215 122.344 48.209C122.066 47.8965 121.849 47.5083 121.692 47.0444C121.536 46.5757 121.458 46.0337 121.458 45.4185ZM122.754 44.6641V45.4185C122.754 45.853 122.798 46.2339 122.886 46.561C122.974 46.8882 123.099 47.1616 123.26 47.3813C123.421 47.6011 123.609 47.7671 123.824 47.8794C124.039 47.9868 124.273 48.0405 124.527 48.0405C124.82 48.0405 125.076 47.9868 125.296 47.8794C125.521 47.7671 125.706 47.6011 125.853 47.3813C125.999 47.1616 126.109 46.8882 126.182 46.561C126.255 46.2339 126.292 45.853 126.292 45.4185V44.6641C126.292 44.2295 126.248 43.8511 126.16 43.5288C126.072 43.2017 125.948 42.9282 125.787 42.7085C125.625 42.4839 125.435 42.3179 125.215 42.2104C125 42.0981 124.766 42.042 124.512 42.042C124.263 42.042 124.031 42.0981 123.816 42.2104C123.602 42.3179 123.414 42.4839 123.252 42.7085C123.096 42.9282 122.974 43.2017 122.886 43.5288C122.798 43.8511 122.754 44.2295 122.754 44.6641ZM129.375 49V41.0752H130.672V47.8867H133.536V41.0752H134.832V49H129.375ZM135.667 47.8867L135.535 51.3511H134.385V49H133.484V47.8867H135.667ZM138.531 46.854L141.402 41.0752H142.698V49H141.402V43.2212L138.531 49H137.242V41.0752H138.531V46.854ZM146.177 46.854L149.048 41.0752H150.345V49H149.048V43.2212L146.177 49H144.888V41.0752H146.177V46.854Z" fill="black"/>
</svg>
