<svg width="286" height="70" viewBox="0 0 286 70" fill="none" xmlns="http://www.w3.org/2000/svg">
<rect x="2" y="2" width="282" height="66" rx="33" fill="#B9A692" stroke="black" stroke-width="4"/>
<path d="M40.0786 20.3359V31H38.731V21.4932H34.5635V31H33.2158V20.3359H40.0786ZM43.5869 24.5986V34.0469H42.2905V23.0752H43.4697L43.5869 24.5986ZM48.0181 26.6787V27.4185C48.0181 28.0435 47.9595 28.5903 47.8423 29.0591C47.73 29.5229 47.5615 29.9111 47.3369 30.2236C47.1172 30.5312 46.8462 30.7632 46.5239 30.9194C46.2017 31.0708 45.833 31.1465 45.418 31.1465C45.0029 31.1465 44.6416 31.0684 44.334 30.9121C44.0312 30.751 43.7749 30.519 43.5649 30.2163C43.3599 29.9136 43.1963 29.5498 43.0742 29.125C42.957 28.6953 42.8765 28.2144 42.8325 27.6821V26.5542C42.8765 25.9927 42.957 25.4897 43.0742 25.0454C43.1914 24.5962 43.3525 24.2153 43.5576 23.9028C43.7676 23.5854 44.0239 23.3438 44.3267 23.1777C44.6343 23.0117 44.9932 22.9287 45.4033 22.9287C45.8281 22.9287 46.2017 23.002 46.5239 23.1484C46.8511 23.2949 47.1245 23.522 47.3442 23.8296C47.5688 24.1323 47.7373 24.5205 47.8496 24.9941C47.9619 25.4629 48.0181 26.0244 48.0181 26.6787ZM46.7217 27.4185V26.6787C46.7217 26.2393 46.6875 25.856 46.6191 25.5288C46.5557 25.2017 46.4531 24.9307 46.3115 24.7158C46.1699 24.501 45.9917 24.3398 45.7769 24.2324C45.562 24.125 45.3032 24.0713 45.0005 24.0713C44.7417 24.0713 44.5122 24.125 44.312 24.2324C44.1167 24.3398 43.9482 24.4863 43.8066 24.6719C43.665 24.8525 43.5479 25.0601 43.4551 25.2944C43.3623 25.5239 43.2939 25.7632 43.25 26.0122V28.2314C43.333 28.5439 43.4429 28.8394 43.5796 29.1177C43.7163 29.3911 43.8994 29.6133 44.1289 29.7842C44.3633 29.9551 44.6587 30.0405 45.0151 30.0405C45.313 30.0405 45.5693 29.9868 45.7842 29.8794C45.999 29.772 46.1748 29.6108 46.3115 29.396C46.4531 29.1763 46.5557 28.9028 46.6191 28.5757C46.6875 28.2437 46.7217 27.8579 46.7217 27.4185ZM49.417 27.4185V26.6641C49.417 26.0488 49.4951 25.5093 49.6514 25.0454C49.8076 24.5767 50.0249 24.186 50.3032 23.8735C50.5815 23.561 50.9062 23.3267 51.2773 23.1704C51.6484 23.0093 52.0464 22.9287 52.4712 22.9287C52.9058 22.9287 53.3086 23.0093 53.6797 23.1704C54.0508 23.3267 54.3755 23.561 54.6538 23.8735C54.937 24.186 55.1567 24.5767 55.313 25.0454C55.4692 25.5093 55.5474 26.0488 55.5474 26.6641V27.4185C55.5474 28.0337 55.4692 28.5757 55.313 29.0444C55.1567 29.5083 54.9395 29.8965 54.6611 30.209C54.3828 30.5215 54.0581 30.7559 53.687 30.9121C53.3159 31.0684 52.9155 31.1465 52.4858 31.1465C52.0562 31.1465 51.6558 31.0684 51.2847 30.9121C50.9136 30.7559 50.5864 30.5215 50.3032 30.209C50.0249 29.8965 49.8076 29.5083 49.6514 29.0444C49.4951 28.5757 49.417 28.0337 49.417 27.4185ZM50.7134 26.6641V27.4185C50.7134 27.853 50.7573 28.2339 50.8452 28.561C50.9331 28.8882 51.0576 29.1616 51.2188 29.3813C51.3799 29.6011 51.5679 29.7671 51.7827 29.8794C51.9976 29.9868 52.2319 30.0405 52.4858 30.0405C52.7788 30.0405 53.0352 29.9868 53.2549 29.8794C53.4795 29.7671 53.665 29.6011 53.8115 29.3813C53.958 29.1616 54.0679 28.8882 54.1411 28.561C54.2144 28.2339 54.251 27.853 54.251 27.4185V26.6641C54.251 26.2295 54.207 25.8511 54.1191 25.5288C54.0312 25.2017 53.9067 24.9282 53.7456 24.7085C53.5845 24.4839 53.394 24.3179 53.1743 24.2104C52.9595 24.0981 52.7251 24.042 52.4712 24.042C52.2222 24.042 51.9902 24.0981 51.7754 24.2104C51.5605 24.3179 51.3726 24.4839 51.2114 24.7085C51.0552 24.9282 50.9331 25.2017 50.8452 25.5288C50.7573 25.8511 50.7134 26.2295 50.7134 26.6641ZM59.9639 30.0405C60.2227 30.0405 60.457 29.9893 60.667 29.8867C60.8818 29.7793 61.0576 29.6133 61.1943 29.3887C61.3311 29.1592 61.4092 28.8613 61.4287 28.4951H62.6445C62.625 29.0225 62.4907 29.4863 62.2417 29.8867C61.9976 30.2822 61.6753 30.5923 61.2749 30.8169C60.8794 31.0366 60.4424 31.1465 59.9639 31.1465C59.4512 31.1465 59.0044 31.0635 58.6235 30.8975C58.2476 30.7314 57.9351 30.4922 57.686 30.1797C57.4419 29.8623 57.2588 29.479 57.1367 29.0298C57.0146 28.5757 56.9536 28.0605 56.9536 27.4844V26.5908C56.9536 26.0146 57.0146 25.502 57.1367 25.0527C57.2588 24.5986 57.4419 24.2153 57.686 23.9028C57.9351 23.5854 58.2476 23.3438 58.6235 23.1777C59.0044 23.0117 59.4512 22.9287 59.9639 22.9287C60.501 22.9287 60.9648 23.0435 61.3555 23.2729C61.751 23.4976 62.0586 23.8247 62.2783 24.2544C62.5029 24.6792 62.625 25.1943 62.6445 25.7998H61.4287C61.4092 25.4092 61.3384 25.0845 61.2163 24.8257C61.0942 24.562 60.9282 24.3667 60.7183 24.2397C60.5083 24.1079 60.2568 24.042 59.9639 24.042C59.6221 24.042 59.3389 24.103 59.1143 24.2251C58.8945 24.3423 58.7212 24.5132 58.5942 24.7378C58.4673 24.9624 58.377 25.231 58.3232 25.5435C58.2744 25.856 58.25 26.2051 58.25 26.5908V27.4844C58.25 27.8701 58.2744 28.2217 58.3232 28.5391C58.377 28.8516 58.4648 29.1201 58.5869 29.3447C58.7139 29.5693 58.8896 29.7427 59.1143 29.8647C59.3389 29.9819 59.6221 30.0405 59.9639 30.0405ZM65.5596 23.0752V31H64.2632V23.0752H65.5596ZM69.9175 23.0752L66.7314 27.6162H65.1274L64.9224 26.4297H66.2041L68.3647 23.0752H69.9175ZM68.4819 31L66.1602 27.4111L66.9878 26.4297L70.1079 31H68.4819ZM75.2349 29.645V25.3457C75.2349 25.0332 75.186 24.7817 75.0884 24.5913C74.9956 24.4009 74.854 24.2617 74.6636 24.1738C74.478 24.0859 74.2437 24.042 73.9604 24.042C73.687 24.042 73.4502 24.0981 73.25 24.2104C73.0547 24.3228 72.9033 24.4717 72.7959 24.6572C72.6934 24.8428 72.6421 25.0479 72.6421 25.2725H71.3457C71.3457 24.9893 71.4067 24.7085 71.5288 24.4302C71.6558 24.1519 71.8364 23.9004 72.0708 23.6758C72.3052 23.4463 72.5859 23.2656 72.9131 23.1338C73.2451 22.9971 73.6162 22.9287 74.0264 22.9287C74.5146 22.9287 74.9468 23.0093 75.3228 23.1704C75.6987 23.3267 75.9941 23.583 76.209 23.9395C76.4238 24.2959 76.5312 24.7695 76.5312 25.3604V29.2715C76.5312 29.5352 76.5508 29.8159 76.5898 30.1138C76.6338 30.4116 76.6948 30.668 76.7729 30.8828V31H75.4326C75.3691 30.8438 75.3203 30.6362 75.2861 30.3774C75.252 30.1138 75.2349 29.8696 75.2349 29.645ZM75.4399 26.1953L75.4546 27.1475H74.5537C74.2461 27.1475 73.9653 27.1816 73.7114 27.25C73.4624 27.3184 73.2476 27.4185 73.0669 27.5503C72.8862 27.6772 72.7471 27.8359 72.6494 28.0264C72.5566 28.2168 72.5103 28.4341 72.5103 28.6782C72.5103 28.9956 72.5542 29.2495 72.6421 29.4399C72.73 29.6255 72.8618 29.7598 73.0376 29.8428C73.2134 29.9258 73.4355 29.9673 73.7041 29.9673C74.0312 29.9673 74.3193 29.8916 74.5684 29.7402C74.8174 29.5889 75.0103 29.4058 75.147 29.1909C75.2886 28.9761 75.3545 28.7759 75.3447 28.5903L75.6304 29.1982C75.6108 29.3887 75.5474 29.5962 75.4399 29.8208C75.3374 30.0405 75.1934 30.2529 75.0078 30.458C74.8223 30.6582 74.6025 30.8242 74.3486 30.9561C74.0996 31.083 73.8188 31.1465 73.5063 31.1465C73.0474 31.1465 72.6445 31.0586 72.2979 30.8828C71.9561 30.707 71.6899 30.4482 71.4995 30.1064C71.3091 29.7646 71.2139 29.3423 71.2139 28.8394C71.2139 28.4585 71.2798 28.1069 71.4116 27.7847C71.5435 27.4624 71.7388 27.1841 71.9976 26.9497C72.2563 26.7104 72.5811 26.5249 72.9717 26.3931C73.3672 26.2612 73.8237 26.1953 74.3413 26.1953H75.4399ZM83.0571 26.5103V27.6089H79.6953V26.5103H83.0571ZM79.959 23.0752V31H78.6626V23.0752H79.959ZM84.1118 23.0752V31H82.8154V23.0752H84.1118ZM87.5835 28.854L90.4546 23.0752H91.751V31H90.4546V25.2212L87.5835 31H86.2944V23.0752H87.5835V28.854ZM95.1201 24.5986V34.0469H93.8237V23.0752H95.0029L95.1201 24.5986ZM99.5513 26.6787V27.4185C99.5513 28.0435 99.4927 28.5903 99.3755 29.0591C99.2632 29.5229 99.0947 29.9111 98.8701 30.2236C98.6504 30.5312 98.3794 30.7632 98.0571 30.9194C97.7349 31.0708 97.3662 31.1465 96.9512 31.1465C96.5361 31.1465 96.1748 31.0684 95.8672 30.9121C95.5645 30.751 95.3081 30.519 95.0981 30.2163C94.8931 29.9136 94.7295 29.5498 94.6074 29.125C94.4902 28.6953 94.4097 28.2144 94.3657 27.6821V26.5542C94.4097 25.9927 94.4902 25.4897 94.6074 25.0454C94.7246 24.5962 94.8857 24.2153 95.0908 23.9028C95.3008 23.5854 95.5571 23.3438 95.8599 23.1777C96.1675 23.0117 96.5264 22.9287 96.9365 22.9287C97.3613 22.9287 97.7349 23.002 98.0571 23.1484C98.3843 23.2949 98.6577 23.522 98.8774 23.8296C99.1021 24.1323 99.2705 24.5205 99.3828 24.9941C99.4951 25.4629 99.5513 26.0244 99.5513 26.6787ZM98.2549 27.4185V26.6787C98.2549 26.2393 98.2207 25.856 98.1523 25.5288C98.0889 25.2017 97.9863 24.9307 97.8447 24.7158C97.7031 24.501 97.5249 24.3398 97.3101 24.2324C97.0952 24.125 96.8364 24.0713 96.5337 24.0713C96.2749 24.0713 96.0454 24.125 95.8452 24.2324C95.6499 24.3398 95.4814 24.4863 95.3398 24.6719C95.1982 24.8525 95.0811 25.0601 94.9883 25.2944C94.8955 25.5239 94.8271 25.7632 94.7832 26.0122V28.2314C94.8662 28.5439 94.9761 28.8394 95.1128 29.1177C95.2495 29.3911 95.4326 29.6133 95.6621 29.7842C95.8965 29.9551 96.1919 30.0405 96.5483 30.0405C96.8462 30.0405 97.1025 29.9868 97.3174 29.8794C97.5322 29.772 97.708 29.6108 97.8447 29.396C97.9863 29.1763 98.0889 28.9028 98.1523 28.5757C98.2207 28.2437 98.2549 27.8579 98.2549 27.4185ZM102.972 30.1797L104.737 23.0752H106.114L103.499 32.2231C103.436 32.4185 103.35 32.6284 103.243 32.853C103.14 33.0825 103.008 33.2998 102.847 33.5049C102.686 33.71 102.493 33.876 102.269 34.0029C102.044 34.1348 101.78 34.2007 101.478 34.2007C101.385 34.2007 101.265 34.186 101.119 34.1567C100.977 34.1274 100.875 34.103 100.811 34.0835V32.9849C100.84 32.9897 100.887 32.9946 100.95 32.9995C101.014 33.0093 101.06 33.0142 101.089 33.0142C101.343 33.0142 101.558 32.9727 101.734 32.8896C101.915 32.8115 102.068 32.6772 102.195 32.4868C102.322 32.3013 102.43 32.0449 102.518 31.7178L102.972 30.1797ZM101.829 23.0752L103.404 29.2275L103.741 30.6558L102.818 31.1538L100.416 23.0752H101.829ZM108.794 28.854L111.666 23.0752H112.962V31H111.666V25.2212L108.794 31H107.505V23.0752H108.794V28.854ZM111.321 20.2041H112.42C112.42 20.585 112.332 20.9243 112.156 21.2222C111.98 21.5151 111.729 21.7446 111.402 21.9106C111.075 22.0767 110.687 22.1597 110.237 22.1597C109.559 22.1597 109.021 21.979 108.626 21.6177C108.235 21.2515 108.04 20.7803 108.04 20.2041H109.139C109.139 20.4922 109.222 20.7461 109.388 20.9658C109.554 21.1855 109.837 21.2954 110.237 21.2954C110.628 21.2954 110.906 21.1855 111.072 20.9658C111.238 20.7461 111.321 20.4922 111.321 20.2041ZM121.224 30.0405C121.482 30.0405 121.717 29.9893 121.927 29.8867C122.142 29.7793 122.317 29.6133 122.454 29.3887C122.591 29.1592 122.669 28.8613 122.688 28.4951H123.904C123.885 29.0225 123.75 29.4863 123.501 29.8867C123.257 30.2822 122.935 30.5923 122.535 30.8169C122.139 31.0366 121.702 31.1465 121.224 31.1465C120.711 31.1465 120.264 31.0635 119.883 30.8975C119.507 30.7314 119.195 30.4922 118.946 30.1797C118.702 29.8623 118.519 29.479 118.396 29.0298C118.274 28.5757 118.213 28.0605 118.213 27.4844V26.5908C118.213 26.0146 118.274 25.502 118.396 25.0527C118.519 24.5986 118.702 24.2153 118.946 23.9028C119.195 23.5854 119.507 23.3438 119.883 23.1777C120.264 23.0117 120.711 22.9287 121.224 22.9287C121.761 22.9287 122.225 23.0435 122.615 23.2729C123.011 23.4976 123.318 23.8247 123.538 24.2544C123.763 24.6792 123.885 25.1943 123.904 25.7998H122.688C122.669 25.4092 122.598 25.0845 122.476 24.8257C122.354 24.562 122.188 24.3667 121.978 24.2397C121.768 24.1079 121.517 24.042 121.224 24.042C120.882 24.042 120.599 24.103 120.374 24.2251C120.154 24.3423 119.981 24.5132 119.854 24.7378C119.727 24.9624 119.637 25.231 119.583 25.5435C119.534 25.856 119.51 26.2051 119.51 26.5908V27.4844C119.51 27.8701 119.534 28.2217 119.583 28.5391C119.637 28.8516 119.725 29.1201 119.847 29.3447C119.974 29.5693 120.149 29.7427 120.374 29.8647C120.599 29.9819 120.882 30.0405 121.224 30.0405ZM128.599 27.5137H126.482L126.468 26.4297H128.167C128.504 26.4297 128.782 26.3882 129.002 26.3052C129.227 26.2222 129.395 26.0977 129.507 25.9316C129.62 25.7656 129.676 25.5605 129.676 25.3164C129.676 25.126 129.644 24.96 129.581 24.8184C129.517 24.6719 129.422 24.5522 129.295 24.4595C129.173 24.3618 129.019 24.291 128.833 24.2471C128.648 24.1982 128.431 24.1738 128.182 24.1738H126.812V31H125.523V23.0752H128.182C128.611 23.0752 128.997 23.1191 129.339 23.207C129.686 23.2949 129.979 23.4292 130.218 23.6099C130.462 23.7856 130.647 24.0103 130.774 24.2837C130.906 24.5571 130.972 24.8794 130.972 25.2505C130.972 25.4897 130.931 25.7168 130.848 25.9316C130.765 26.1465 130.64 26.3369 130.474 26.5029C130.313 26.6689 130.113 26.8057 129.874 26.9131C129.634 27.0156 129.358 27.0815 129.046 27.1108L128.599 27.5137ZM128.599 31H125.999L126.666 29.9014H128.599C128.897 29.9014 129.141 29.855 129.332 29.7622C129.522 29.6646 129.664 29.5278 129.756 29.3521C129.854 29.1714 129.903 28.9565 129.903 28.7075C129.903 28.4585 129.854 28.2461 129.756 28.0703C129.664 27.8896 129.522 27.7529 129.332 27.6602C129.141 27.5625 128.897 27.5137 128.599 27.5137H126.863L126.878 26.4297H129.024L129.478 26.8398C129.854 26.874 130.169 26.9814 130.423 27.1621C130.682 27.3428 130.875 27.5723 131.001 27.8506C131.133 28.124 131.199 28.4219 131.199 28.7441C131.199 29.1152 131.141 29.4424 131.023 29.7256C130.906 30.0088 130.735 30.2456 130.511 30.436C130.286 30.6216 130.013 30.7632 129.69 30.8608C129.368 30.9536 129.004 31 128.599 31ZM132.693 27.4185V26.6641C132.693 26.0488 132.771 25.5093 132.928 25.0454C133.084 24.5767 133.301 24.186 133.58 23.8735C133.858 23.561 134.183 23.3267 134.554 23.1704C134.925 23.0093 135.323 22.9287 135.748 22.9287C136.182 22.9287 136.585 23.0093 136.956 23.1704C137.327 23.3267 137.652 23.561 137.93 23.8735C138.213 24.186 138.433 24.5767 138.589 25.0454C138.746 25.5093 138.824 26.0488 138.824 26.6641V27.4185C138.824 28.0337 138.746 28.5757 138.589 29.0444C138.433 29.5083 138.216 29.8965 137.938 30.209C137.659 30.5215 137.334 30.7559 136.963 30.9121C136.592 31.0684 136.192 31.1465 135.762 31.1465C135.333 31.1465 134.932 31.0684 134.561 30.9121C134.19 30.7559 133.863 30.5215 133.58 30.209C133.301 29.8965 133.084 29.5083 132.928 29.0444C132.771 28.5757 132.693 28.0337 132.693 27.4185ZM133.99 26.6641V27.4185C133.99 27.853 134.034 28.2339 134.122 28.561C134.209 28.8882 134.334 29.1616 134.495 29.3813C134.656 29.6011 134.844 29.7671 135.059 29.8794C135.274 29.9868 135.508 30.0405 135.762 30.0405C136.055 30.0405 136.312 29.9868 136.531 29.8794C136.756 29.7671 136.941 29.6011 137.088 29.3813C137.234 29.1616 137.344 28.8882 137.417 28.561C137.491 28.2339 137.527 27.853 137.527 27.4185V26.6641C137.527 26.2295 137.483 25.8511 137.396 25.5288C137.308 25.2017 137.183 24.9282 137.022 24.7085C136.861 24.4839 136.67 24.3179 136.451 24.2104C136.236 24.0981 136.001 24.042 135.748 24.042C135.499 24.042 135.267 24.0981 135.052 24.2104C134.837 24.3179 134.649 24.4839 134.488 24.7085C134.332 24.9282 134.209 25.2017 134.122 25.5288C134.034 25.8511 133.99 26.2295 133.99 26.6641ZM143.328 31.1465C142.854 31.1465 142.427 31.0757 142.046 30.9341C141.666 30.7925 141.341 30.5776 141.072 30.2896C140.804 29.9966 140.599 29.6279 140.457 29.1836C140.315 28.7393 140.245 28.2144 140.245 27.6089V26.7153C140.245 26.0171 140.325 25.4263 140.486 24.9429C140.652 24.4595 140.875 24.0713 141.153 23.7783C141.431 23.4805 141.746 23.2656 142.098 23.1338C142.449 22.9971 142.811 22.9287 143.182 22.9287C143.68 22.9287 144.104 23.0093 144.456 23.1704C144.808 23.3315 145.093 23.5708 145.313 23.8882C145.533 24.2056 145.694 24.5962 145.796 25.0601C145.904 25.5239 145.958 26.0586 145.958 26.6641V27.4185H141.006V26.3125H144.661V26.1294C144.642 25.7192 144.585 25.3579 144.493 25.0454C144.405 24.7329 144.258 24.4888 144.053 24.313C143.848 24.1323 143.558 24.042 143.182 24.042C142.942 24.042 142.72 24.0835 142.515 24.1665C142.315 24.2446 142.142 24.3838 141.995 24.584C141.854 24.7793 141.741 25.0503 141.658 25.397C141.58 25.7437 141.541 26.1831 141.541 26.7153V27.6089C141.541 28.0337 141.58 28.3999 141.658 28.7075C141.741 29.0103 141.861 29.2617 142.017 29.4619C142.178 29.6572 142.374 29.8037 142.603 29.9014C142.837 29.9941 143.104 30.0405 143.401 30.0405C143.836 30.0405 144.195 29.9575 144.478 29.7915C144.761 29.6206 145.008 29.4033 145.218 29.1396L145.899 29.9526C145.757 30.1528 145.572 30.3457 145.342 30.5312C145.118 30.7119 144.839 30.8608 144.507 30.978C144.18 31.0903 143.787 31.1465 143.328 31.1465ZM151.883 23.0752V24.1958H148.924V31H147.627V23.0752H151.883ZM152.688 27.4185V26.6641C152.688 26.0488 152.767 25.5093 152.923 25.0454C153.079 24.5767 153.296 24.186 153.575 23.8735C153.853 23.561 154.178 23.3267 154.549 23.1704C154.92 23.0093 155.318 22.9287 155.743 22.9287C156.177 22.9287 156.58 23.0093 156.951 23.1704C157.322 23.3267 157.647 23.561 157.925 23.8735C158.208 24.186 158.428 24.5767 158.584 25.0454C158.741 25.5093 158.819 26.0488 158.819 26.6641V27.4185C158.819 28.0337 158.741 28.5757 158.584 29.0444C158.428 29.5083 158.211 29.8965 157.933 30.209C157.654 30.5215 157.33 30.7559 156.958 30.9121C156.587 31.0684 156.187 31.1465 155.757 31.1465C155.328 31.1465 154.927 31.0684 154.556 30.9121C154.185 30.7559 153.858 30.5215 153.575 30.209C153.296 29.8965 153.079 29.5083 152.923 29.0444C152.767 28.5757 152.688 28.0337 152.688 27.4185ZM153.985 26.6641V27.4185C153.985 27.853 154.029 28.2339 154.117 28.561C154.205 28.8882 154.329 29.1616 154.49 29.3813C154.651 29.6011 154.839 29.7671 155.054 29.8794C155.269 29.9868 155.503 30.0405 155.757 30.0405C156.05 30.0405 156.307 29.9868 156.526 29.8794C156.751 29.7671 156.937 29.6011 157.083 29.3813C157.229 29.1616 157.339 28.8882 157.413 28.561C157.486 28.2339 157.522 27.853 157.522 27.4185V26.6641C157.522 26.2295 157.479 25.8511 157.391 25.5288C157.303 25.2017 157.178 24.9282 157.017 24.7085C156.856 24.4839 156.666 24.3179 156.446 24.2104C156.231 24.0981 155.997 24.042 155.743 24.042C155.494 24.042 155.262 24.0981 155.047 24.2104C154.832 24.3179 154.644 24.4839 154.483 24.7085C154.327 24.9282 154.205 25.2017 154.117 25.5288C154.029 25.8511 153.985 26.2295 153.985 26.6641ZM165.228 24.5986V34.0469H163.931V23.0752H165.11L165.228 24.5986ZM169.659 26.6787V27.4185C169.659 28.0435 169.6 28.5903 169.483 29.0591C169.371 29.5229 169.202 29.9111 168.978 30.2236C168.758 30.5312 168.487 30.7632 168.165 30.9194C167.842 31.0708 167.474 31.1465 167.059 31.1465C166.644 31.1465 166.282 31.0684 165.975 30.9121C165.672 30.751 165.416 30.519 165.206 30.2163C165 29.9136 164.837 29.5498 164.715 29.125C164.598 28.6953 164.517 28.2144 164.473 27.6821V26.5542C164.517 25.9927 164.598 25.4897 164.715 25.0454C164.832 24.5962 164.993 24.2153 165.198 23.9028C165.408 23.5854 165.665 23.3438 165.967 23.1777C166.275 23.0117 166.634 22.9287 167.044 22.9287C167.469 22.9287 167.842 23.002 168.165 23.1484C168.492 23.2949 168.765 23.522 168.985 23.8296C169.209 24.1323 169.378 24.5205 169.49 24.9941C169.603 25.4629 169.659 26.0244 169.659 26.6787ZM168.362 27.4185V26.6787C168.362 26.2393 168.328 25.856 168.26 25.5288C168.196 25.2017 168.094 24.9307 167.952 24.7158C167.811 24.501 167.632 24.3398 167.417 24.2324C167.203 24.125 166.944 24.0713 166.641 24.0713C166.382 24.0713 166.153 24.125 165.953 24.2324C165.757 24.3398 165.589 24.4863 165.447 24.6719C165.306 24.8525 165.188 25.0601 165.096 25.2944C165.003 25.5239 164.935 25.7632 164.891 26.0122V28.2314C164.974 28.5439 165.083 28.8394 165.22 29.1177C165.357 29.3911 165.54 29.6133 165.77 29.7842C166.004 29.9551 166.299 30.0405 166.656 30.0405C166.954 30.0405 167.21 29.9868 167.425 29.8794C167.64 29.772 167.815 29.6108 167.952 29.396C168.094 29.1763 168.196 28.9028 168.26 28.5757C168.328 28.2437 168.362 27.8579 168.362 27.4185ZM171.058 27.4185V26.6641C171.058 26.0488 171.136 25.5093 171.292 25.0454C171.448 24.5767 171.666 24.186 171.944 23.8735C172.222 23.561 172.547 23.3267 172.918 23.1704C173.289 23.0093 173.687 22.9287 174.112 22.9287C174.546 22.9287 174.949 23.0093 175.32 23.1704C175.691 23.3267 176.016 23.561 176.294 23.8735C176.578 24.186 176.797 24.5767 176.954 25.0454C177.11 25.5093 177.188 26.0488 177.188 26.6641V27.4185C177.188 28.0337 177.11 28.5757 176.954 29.0444C176.797 29.5083 176.58 29.8965 176.302 30.209C176.023 30.5215 175.699 30.7559 175.328 30.9121C174.957 31.0684 174.556 31.1465 174.126 31.1465C173.697 31.1465 173.296 31.0684 172.925 30.9121C172.554 30.7559 172.227 30.5215 171.944 30.209C171.666 29.8965 171.448 29.5083 171.292 29.0444C171.136 28.5757 171.058 28.0337 171.058 27.4185ZM172.354 26.6641V27.4185C172.354 27.853 172.398 28.2339 172.486 28.561C172.574 28.8882 172.698 29.1616 172.859 29.3813C173.021 29.6011 173.208 29.7671 173.423 29.8794C173.638 29.9868 173.873 30.0405 174.126 30.0405C174.419 30.0405 174.676 29.9868 174.896 29.8794C175.12 29.7671 175.306 29.6011 175.452 29.3813C175.599 29.1616 175.708 28.8882 175.782 28.561C175.855 28.2339 175.892 27.853 175.892 27.4185V26.6641C175.892 26.2295 175.848 25.8511 175.76 25.5288C175.672 25.2017 175.547 24.9282 175.386 24.7085C175.225 24.4839 175.035 24.3179 174.815 24.2104C174.6 24.0981 174.366 24.042 174.112 24.042C173.863 24.042 173.631 24.0981 173.416 24.2104C173.201 24.3179 173.013 24.4839 172.852 24.7085C172.696 24.9282 172.574 25.2017 172.486 25.5288C172.398 25.8511 172.354 26.2295 172.354 26.6641ZM183.113 19.6255H184.161C184.161 20.104 184.095 20.4849 183.963 20.7681C183.836 21.0464 183.665 21.2612 183.45 21.4126C183.235 21.564 182.996 21.6787 182.732 21.7568C182.469 21.835 182.2 21.9106 181.927 21.9839C181.585 22.0718 181.265 22.2109 180.967 22.4014C180.669 22.5869 180.413 22.8506 180.198 23.1924C179.988 23.5342 179.834 23.9785 179.737 24.5254C179.644 25.0723 179.627 25.7485 179.686 26.5542V27.228H178.631V26.5542C178.631 25.6509 178.704 24.8623 178.851 24.1885C178.997 23.5146 179.205 22.9458 179.473 22.4819C179.742 22.0181 180.059 21.6494 180.425 21.376C180.792 21.1025 181.197 20.9146 181.641 20.812C181.924 20.7388 182.176 20.6606 182.396 20.5776C182.62 20.4897 182.796 20.3726 182.923 20.2261C183.05 20.0796 183.113 19.8794 183.113 19.6255ZM181.875 23.5293C182.31 23.5293 182.696 23.6196 183.033 23.8003C183.37 23.981 183.655 24.2324 183.89 24.5547C184.124 24.877 184.302 25.2578 184.424 25.6973C184.546 26.1318 184.607 26.6055 184.607 27.1182V27.2793C184.607 27.8311 184.542 28.3438 184.41 28.8174C184.278 29.2861 184.083 29.6963 183.824 30.0479C183.57 30.3945 183.257 30.6655 182.886 30.8608C182.515 31.0562 182.093 31.1538 181.619 31.1538C181.146 31.1538 180.723 31.0562 180.352 30.8608C179.986 30.6655 179.673 30.3945 179.415 30.0479C179.161 29.6963 178.965 29.2861 178.829 28.8174C178.697 28.3438 178.631 27.8311 178.631 27.2793V27.1182C178.631 26.9961 178.653 26.8765 178.697 26.7593C178.741 26.6421 178.792 26.5225 178.851 26.4004C178.909 26.2783 178.963 26.1489 179.012 26.0122C179.163 25.5728 179.373 25.165 179.642 24.7891C179.91 24.4131 180.23 24.1104 180.601 23.8809C180.977 23.6465 181.402 23.5293 181.875 23.5293ZM181.612 24.6353C181.216 24.6353 180.894 24.75 180.645 24.9795C180.401 25.209 180.22 25.5142 180.103 25.895C179.986 26.271 179.927 26.6787 179.927 27.1182V27.2793C179.927 27.6504 179.959 28.002 180.022 28.334C180.086 28.666 180.186 28.9614 180.323 29.2202C180.459 29.4741 180.635 29.6743 180.85 29.8208C181.065 29.9673 181.321 30.0405 181.619 30.0405C181.917 30.0405 182.171 29.9673 182.381 29.8208C182.596 29.6743 182.771 29.4741 182.908 29.2202C183.045 28.9614 183.145 28.666 183.208 28.334C183.277 28.002 183.311 27.6504 183.311 27.2793V27.1182C183.311 26.7861 183.277 26.4712 183.208 26.1733C183.145 25.8755 183.045 25.6118 182.908 25.3823C182.771 25.1528 182.596 24.9722 182.381 24.8403C182.166 24.7036 181.91 24.6353 181.612 24.6353ZM185.867 27.4185V26.6641C185.867 26.0488 185.945 25.5093 186.102 25.0454C186.258 24.5767 186.475 24.186 186.753 23.8735C187.032 23.561 187.356 23.3267 187.728 23.1704C188.099 23.0093 188.497 22.9287 188.921 22.9287C189.356 22.9287 189.759 23.0093 190.13 23.1704C190.501 23.3267 190.826 23.561 191.104 23.8735C191.387 24.186 191.607 24.5767 191.763 25.0454C191.919 25.5093 191.998 26.0488 191.998 26.6641V27.4185C191.998 28.0337 191.919 28.5757 191.763 29.0444C191.607 29.5083 191.39 29.8965 191.111 30.209C190.833 30.5215 190.508 30.7559 190.137 30.9121C189.766 31.0684 189.366 31.1465 188.936 31.1465C188.506 31.1465 188.106 31.0684 187.735 30.9121C187.364 30.7559 187.037 30.5215 186.753 30.209C186.475 29.8965 186.258 29.5083 186.102 29.0444C185.945 28.5757 185.867 28.0337 185.867 27.4185ZM187.164 26.6641V27.4185C187.164 27.853 187.208 28.2339 187.295 28.561C187.383 28.8882 187.508 29.1616 187.669 29.3813C187.83 29.6011 188.018 29.7671 188.233 29.8794C188.448 29.9868 188.682 30.0405 188.936 30.0405C189.229 30.0405 189.485 29.9868 189.705 29.8794C189.93 29.7671 190.115 29.6011 190.262 29.3813C190.408 29.1616 190.518 28.8882 190.591 28.561C190.665 28.2339 190.701 27.853 190.701 27.4185V26.6641C190.701 26.2295 190.657 25.8511 190.569 25.5288C190.481 25.2017 190.357 24.9282 190.196 24.7085C190.035 24.4839 189.844 24.3179 189.625 24.2104C189.41 24.0981 189.175 24.042 188.921 24.042C188.672 24.042 188.44 24.0981 188.226 24.2104C188.011 24.3179 187.823 24.4839 187.662 24.7085C187.505 24.9282 187.383 25.2017 187.295 25.5288C187.208 25.8511 187.164 26.2295 187.164 26.6641ZM196.355 23.0752V31H195.059V23.0752H196.355ZM198.516 23.0752V24.1738H192.928V23.0752H198.516ZM203.658 29.645V25.3457C203.658 25.0332 203.609 24.7817 203.511 24.5913C203.418 24.4009 203.277 24.2617 203.086 24.1738C202.901 24.0859 202.667 24.042 202.383 24.042C202.11 24.042 201.873 24.0981 201.673 24.2104C201.478 24.3228 201.326 24.4717 201.219 24.6572C201.116 24.8428 201.065 25.0479 201.065 25.2725H199.769C199.769 24.9893 199.83 24.7085 199.952 24.4302C200.079 24.1519 200.259 23.9004 200.494 23.6758C200.728 23.4463 201.009 23.2656 201.336 23.1338C201.668 22.9971 202.039 22.9287 202.449 22.9287C202.938 22.9287 203.37 23.0093 203.746 23.1704C204.122 23.3267 204.417 23.583 204.632 23.9395C204.847 24.2959 204.954 24.7695 204.954 25.3604V29.2715C204.954 29.5352 204.974 29.8159 205.013 30.1138C205.057 30.4116 205.118 30.668 205.196 30.8828V31H203.855C203.792 30.8438 203.743 30.6362 203.709 30.3774C203.675 30.1138 203.658 29.8696 203.658 29.645ZM203.863 26.1953L203.877 27.1475H202.977C202.669 27.1475 202.388 27.1816 202.134 27.25C201.885 27.3184 201.67 27.4185 201.49 27.5503C201.309 27.6772 201.17 27.8359 201.072 28.0264C200.979 28.2168 200.933 28.4341 200.933 28.6782C200.933 28.9956 200.977 29.2495 201.065 29.4399C201.153 29.6255 201.285 29.7598 201.46 29.8428C201.636 29.9258 201.858 29.9673 202.127 29.9673C202.454 29.9673 202.742 29.8916 202.991 29.7402C203.24 29.5889 203.433 29.4058 203.57 29.1909C203.711 28.9761 203.777 28.7759 203.768 28.5903L204.053 29.1982C204.034 29.3887 203.97 29.5962 203.863 29.8208C203.76 30.0405 203.616 30.2529 203.431 30.458C203.245 30.6582 203.025 30.8242 202.771 30.9561C202.522 31.083 202.242 31.1465 201.929 31.1465C201.47 31.1465 201.067 31.0586 200.721 30.8828C200.379 30.707 200.113 30.4482 199.922 30.1064C199.732 29.7646 199.637 29.3423 199.637 28.8394C199.637 28.4585 199.703 28.1069 199.834 27.7847C199.966 27.4624 200.162 27.1841 200.42 26.9497C200.679 26.7104 201.004 26.5249 201.395 26.3931C201.79 26.2612 202.247 26.1953 202.764 26.1953H203.863ZM208.257 29.3887V30.48C208.257 30.9243 208.145 31.3931 207.92 31.8862C207.696 32.3843 207.381 32.7993 206.976 33.1313L206.207 32.5967C206.363 32.3818 206.495 32.1621 206.602 31.9375C206.709 31.7178 206.79 31.4883 206.844 31.249C206.902 31.0146 206.932 30.7656 206.932 30.502V29.3887H208.257ZM218.504 23.0752V31H217.208V23.0752H218.504ZM218.064 26.7153V27.8286C217.82 27.9312 217.581 28.0239 217.347 28.1069C217.112 28.1851 216.866 28.2485 216.607 28.2974C216.348 28.3413 216.06 28.3633 215.743 28.3633C215.23 28.3633 214.778 28.2559 214.388 28.041C214.002 27.8213 213.702 27.4917 213.487 27.0522C213.272 26.6079 213.165 26.0488 213.165 25.375V23.0605H214.461V25.375C214.461 25.8145 214.51 26.1709 214.607 26.4443C214.71 26.7178 214.856 26.9204 215.047 27.0522C215.242 27.1792 215.474 27.2427 215.743 27.2427C216.045 27.2427 216.324 27.2207 216.578 27.1768C216.832 27.1279 217.078 27.0645 217.317 26.9863C217.562 26.9082 217.811 26.8179 218.064 26.7153ZM223.426 23.0752V31H222.129V23.0752H223.426ZM225.586 23.0752V24.1738H219.998V23.0752H225.586ZM226.385 27.4185V26.6641C226.385 26.0488 226.463 25.5093 226.619 25.0454C226.775 24.5767 226.993 24.186 227.271 23.8735C227.549 23.561 227.874 23.3267 228.245 23.1704C228.616 23.0093 229.014 22.9287 229.439 22.9287C229.874 22.9287 230.276 23.0093 230.647 23.1704C231.019 23.3267 231.343 23.561 231.622 23.8735C231.905 24.186 232.125 24.5767 232.281 25.0454C232.437 25.5093 232.515 26.0488 232.515 26.6641V27.4185C232.515 28.0337 232.437 28.5757 232.281 29.0444C232.125 29.5083 231.907 29.8965 231.629 30.209C231.351 30.5215 231.026 30.7559 230.655 30.9121C230.284 31.0684 229.883 31.1465 229.454 31.1465C229.024 31.1465 228.624 31.0684 228.252 30.9121C227.881 30.7559 227.554 30.5215 227.271 30.209C226.993 29.8965 226.775 29.5083 226.619 29.0444C226.463 28.5757 226.385 28.0337 226.385 27.4185ZM227.681 26.6641V27.4185C227.681 27.853 227.725 28.2339 227.813 28.561C227.901 28.8882 228.025 29.1616 228.187 29.3813C228.348 29.6011 228.536 29.7671 228.75 29.8794C228.965 29.9868 229.2 30.0405 229.454 30.0405C229.747 30.0405 230.003 29.9868 230.223 29.8794C230.447 29.7671 230.633 29.6011 230.779 29.3813C230.926 29.1616 231.036 28.8882 231.109 28.561C231.182 28.2339 231.219 27.853 231.219 27.4185V26.6641C231.219 26.2295 231.175 25.8511 231.087 25.5288C230.999 25.2017 230.875 24.9282 230.713 24.7085C230.552 24.4839 230.362 24.3179 230.142 24.2104C229.927 24.0981 229.693 24.042 229.439 24.042C229.19 24.042 228.958 24.0981 228.743 24.2104C228.528 24.3179 228.34 24.4839 228.179 24.7085C228.023 24.9282 227.901 25.2017 227.813 25.5288C227.725 25.8511 227.681 26.2295 227.681 26.6641ZM238.44 19.6255H239.488C239.488 20.104 239.422 20.4849 239.29 20.7681C239.163 21.0464 238.992 21.2612 238.777 21.4126C238.562 21.564 238.323 21.6787 238.06 21.7568C237.796 21.835 237.527 21.9106 237.254 21.9839C236.912 22.0718 236.592 22.2109 236.294 22.4014C235.997 22.5869 235.74 22.8506 235.525 23.1924C235.315 23.5342 235.162 23.9785 235.064 24.5254C234.971 25.0723 234.954 25.7485 235.013 26.5542V27.228H233.958V26.5542C233.958 25.6509 234.031 24.8623 234.178 24.1885C234.324 23.5146 234.532 22.9458 234.8 22.4819C235.069 22.0181 235.386 21.6494 235.752 21.376C236.119 21.1025 236.524 20.9146 236.968 20.812C237.251 20.7388 237.503 20.6606 237.723 20.5776C237.947 20.4897 238.123 20.3726 238.25 20.2261C238.377 20.0796 238.44 19.8794 238.44 19.6255ZM237.203 23.5293C237.637 23.5293 238.023 23.6196 238.36 23.8003C238.697 23.981 238.982 24.2324 239.217 24.5547C239.451 24.877 239.629 25.2578 239.751 25.6973C239.874 26.1318 239.935 26.6055 239.935 27.1182V27.2793C239.935 27.8311 239.869 28.3438 239.737 28.8174C239.605 29.2861 239.41 29.6963 239.151 30.0479C238.897 30.3945 238.584 30.6655 238.213 30.8608C237.842 31.0562 237.42 31.1538 236.946 31.1538C236.473 31.1538 236.05 31.0562 235.679 30.8608C235.313 30.6655 235 30.3945 234.742 30.0479C234.488 29.6963 234.292 29.2861 234.156 28.8174C234.024 28.3438 233.958 27.8311 233.958 27.2793V27.1182C233.958 26.9961 233.98 26.8765 234.024 26.7593C234.068 26.6421 234.119 26.5225 234.178 26.4004C234.236 26.2783 234.29 26.1489 234.339 26.0122C234.49 25.5728 234.7 25.165 234.969 24.7891C235.237 24.4131 235.557 24.1104 235.928 23.8809C236.304 23.6465 236.729 23.5293 237.203 23.5293ZM236.939 24.6353C236.543 24.6353 236.221 24.75 235.972 24.9795C235.728 25.209 235.547 25.5142 235.43 25.895C235.313 26.271 235.254 26.6787 235.254 27.1182V27.2793C235.254 27.6504 235.286 28.002 235.35 28.334C235.413 28.666 235.513 28.9614 235.65 29.2202C235.787 29.4741 235.962 29.6743 236.177 29.8208C236.392 29.9673 236.648 30.0405 236.946 30.0405C237.244 30.0405 237.498 29.9673 237.708 29.8208C237.923 29.6743 238.099 29.4741 238.235 29.2202C238.372 28.9614 238.472 28.666 238.536 28.334C238.604 28.002 238.638 27.6504 238.638 27.2793V27.1182C238.638 26.7861 238.604 26.4712 238.536 26.1733C238.472 25.8755 238.372 25.6118 238.235 25.3823C238.099 25.1528 237.923 24.9722 237.708 24.8403C237.493 24.7036 237.237 24.6353 236.939 24.6353ZM242.549 25.7998H244.483C245.03 25.7998 245.489 25.9121 245.86 26.1367C246.231 26.3564 246.512 26.6616 246.702 27.0522C246.893 27.438 246.988 27.8774 246.988 28.3706C246.988 28.7368 246.934 29.0811 246.827 29.4033C246.719 29.7207 246.558 29.999 246.343 30.2383C246.133 30.4775 245.872 30.6655 245.56 30.8022C245.252 30.9341 244.893 31 244.483 31H241.583V23.0752H242.872V29.8867H244.483C244.786 29.8867 245.025 29.8159 245.201 29.6743C245.376 29.5327 245.501 29.3496 245.574 29.125C245.652 28.9004 245.691 28.666 245.691 28.4219C245.691 28.1826 245.652 27.9482 245.574 27.7188C245.501 27.4893 245.376 27.2988 245.201 27.1475C245.025 26.9912 244.786 26.9131 244.483 26.9131H242.549V25.7998ZM249.405 23.0752V31H248.108V23.0752H249.405ZM34.8125 48.1797L36.5776 41.0752H37.9546L35.3398 50.2231C35.2764 50.4185 35.1909 50.6284 35.0835 50.853C34.981 51.0825 34.8491 51.2998 34.688 51.5049C34.5269 51.71 34.334 51.876 34.1094 52.0029C33.8848 52.1348 33.6211 52.2007 33.3184 52.2007C33.2256 52.2007 33.106 52.186 32.9595 52.1567C32.8179 52.1274 32.7153 52.103 32.6519 52.0835V50.9849C32.6812 50.9897 32.7275 50.9946 32.791 50.9995C32.8545 51.0093 32.9009 51.0142 32.9302 51.0142C33.1841 51.0142 33.3989 50.9727 33.5747 50.8896C33.7554 50.8115 33.9092 50.6772 34.0361 50.4868C34.1631 50.3013 34.2705 50.0449 34.3584 49.7178L34.8125 48.1797ZM33.6699 41.0752L35.2446 47.2275L35.5815 48.6558L34.6587 49.1538L32.2563 41.0752H33.6699ZM43.4844 37.6255H44.5317C44.5317 38.104 44.4658 38.4849 44.334 38.7681C44.207 39.0464 44.0361 39.2612 43.8213 39.4126C43.6064 39.564 43.3672 39.6787 43.1035 39.7568C42.8398 39.835 42.5713 39.9106 42.2979 39.9839C41.9561 40.0718 41.6362 40.2109 41.3384 40.4014C41.0405 40.5869 40.7842 40.8506 40.5693 41.1924C40.3594 41.5342 40.2056 41.9785 40.1079 42.5254C40.0151 43.0723 39.998 43.7485 40.0566 44.5542V45.228H39.002V44.5542C39.002 43.6509 39.0752 42.8623 39.2217 42.1885C39.3682 41.5146 39.5757 40.9458 39.8442 40.4819C40.1128 40.0181 40.4302 39.6494 40.7964 39.376C41.1626 39.1025 41.5679 38.9146 42.0122 38.812C42.2954 38.7388 42.5469 38.6606 42.7666 38.5776C42.9912 38.4897 43.167 38.3726 43.2939 38.2261C43.4209 38.0796 43.4844 37.8794 43.4844 37.6255ZM42.2466 41.5293C42.6812 41.5293 43.0669 41.6196 43.4038 41.8003C43.7407 41.981 44.0264 42.2324 44.2607 42.5547C44.4951 42.877 44.6733 43.2578 44.7954 43.6973C44.9175 44.1318 44.9785 44.6055 44.9785 45.1182V45.2793C44.9785 45.8311 44.9126 46.3438 44.7808 46.8174C44.6489 47.2861 44.4536 47.6963 44.1948 48.0479C43.9409 48.3945 43.6284 48.6655 43.2573 48.8608C42.8862 49.0562 42.4639 49.1538 41.9902 49.1538C41.5166 49.1538 41.0942 49.0562 40.7231 48.8608C40.3569 48.6655 40.0444 48.3945 39.7856 48.0479C39.5317 47.6963 39.3364 47.2861 39.1997 46.8174C39.0679 46.3438 39.002 45.8311 39.002 45.2793V45.1182C39.002 44.9961 39.0239 44.8765 39.0679 44.7593C39.1118 44.6421 39.1631 44.5225 39.2217 44.4004C39.2803 44.2783 39.334 44.1489 39.3828 44.0122C39.5342 43.5728 39.7441 43.165 40.0127 42.7891C40.2812 42.4131 40.6011 42.1104 40.9722 41.8809C41.3481 41.6465 41.7729 41.5293 42.2466 41.5293ZM41.9829 42.6353C41.5874 42.6353 41.2651 42.75 41.0161 42.9795C40.772 43.209 40.5913 43.5142 40.4741 43.895C40.3569 44.271 40.2983 44.6787 40.2983 45.1182V45.2793C40.2983 45.6504 40.3301 46.002 40.3936 46.334C40.457 46.666 40.5571 46.9614 40.6938 47.2202C40.8306 47.4741 41.0063 47.6743 41.2212 47.8208C41.436 47.9673 41.6924 48.0405 41.9902 48.0405C42.2881 48.0405 42.542 47.9673 42.752 47.8208C42.9668 47.6743 43.1426 47.4741 43.2793 47.2202C43.416 46.9614 43.5161 46.666 43.5796 46.334C43.6479 46.002 43.6821 45.6504 43.6821 45.2793V45.1182C43.6821 44.7861 43.6479 44.4712 43.5796 44.1733C43.5161 43.8755 43.416 43.6118 43.2793 43.3823C43.1426 43.1528 42.9668 42.9722 42.752 42.8403C42.5371 42.7036 42.2808 42.6353 41.9829 42.6353ZM49.3438 49.1465C48.8701 49.1465 48.4429 49.0757 48.062 48.9341C47.6812 48.7925 47.3564 48.5776 47.0879 48.2896C46.8193 47.9966 46.6143 47.6279 46.4727 47.1836C46.3311 46.7393 46.2603 46.2144 46.2603 45.6089V44.7153C46.2603 44.0171 46.3408 43.4263 46.502 42.9429C46.668 42.4595 46.8901 42.0713 47.1685 41.7783C47.4468 41.4805 47.7617 41.2656 48.1133 41.1338C48.4648 40.9971 48.8262 40.9287 49.1973 40.9287C49.6953 40.9287 50.1201 41.0093 50.4717 41.1704C50.8232 41.3315 51.1089 41.5708 51.3286 41.8882C51.5483 42.2056 51.7095 42.5962 51.812 43.0601C51.9194 43.5239 51.9731 44.0586 51.9731 44.6641V45.4185H47.022V44.3125H50.6768V44.1294C50.6572 43.7192 50.6011 43.3579 50.5083 43.0454C50.4204 42.7329 50.2739 42.4888 50.0688 42.313C49.8638 42.1323 49.5732 42.042 49.1973 42.042C48.958 42.042 48.7358 42.0835 48.5308 42.1665C48.3306 42.2446 48.1572 42.3838 48.0107 42.584C47.8691 42.7793 47.7568 43.0503 47.6738 43.397C47.5957 43.7437 47.5566 44.1831 47.5566 44.7153V45.6089C47.5566 46.0337 47.5957 46.3999 47.6738 46.7075C47.7568 47.0103 47.8765 47.2617 48.0327 47.4619C48.1938 47.6572 48.3892 47.8037 48.6187 47.9014C48.853 47.9941 49.1191 48.0405 49.417 48.0405C49.8516 48.0405 50.2104 47.9575 50.4937 47.7915C50.7769 47.6206 51.0234 47.4033 51.2334 47.1396L51.9146 47.9526C51.7729 48.1528 51.5874 48.3457 51.3579 48.5312C51.1333 48.7119 50.855 48.8608 50.5229 48.978C50.1958 49.0903 49.8027 49.1465 49.3438 49.1465ZM54.749 41.0752H56.0454L55.9502 44.0415C55.9258 44.7935 55.8525 45.4429 55.7305 45.9897C55.6084 46.5366 55.4521 47.0029 55.2617 47.3887C55.0713 47.7695 54.8564 48.0894 54.6172 48.3481C54.3779 48.6069 54.1289 48.8242 53.8701 49H53.2402L53.2695 47.894L53.5259 47.8867C53.6675 47.6963 53.8018 47.501 53.9287 47.3008C54.0557 47.0957 54.1704 46.854 54.2729 46.5757C54.3755 46.2925 54.4585 45.9482 54.522 45.543C54.5903 45.1328 54.6343 44.6323 54.6538 44.0415L54.749 41.0752ZM55.0493 41.0752H59.1729V49H57.8765V42.3276H55.0493V41.0752ZM52.9912 47.8867H60.0957V51.3364H58.7993V49H54.2876V51.3364H52.9839L52.9912 47.8867ZM62.9888 46.854L65.8599 41.0752H67.1562V49H65.8599V43.2212L62.9888 49H61.6997V41.0752H62.9888V46.854ZM72.0781 41.0752V49H70.7817V41.0752H72.0781ZM74.2388 41.0752V42.1738H68.6504V41.0752H74.2388ZM76.6997 43.7998H78.6333C79.1802 43.7998 79.6392 43.9121 80.0103 44.1367C80.3813 44.3564 80.6621 44.6616 80.8525 45.0522C81.043 45.438 81.1382 45.8774 81.1382 46.3706C81.1382 46.7368 81.0845 47.0811 80.9771 47.4033C80.8696 47.7207 80.7085 47.999 80.4937 48.2383C80.2837 48.4775 80.0225 48.6655 79.71 48.8022C79.4023 48.9341 79.0435 49 78.6333 49H75.7329V41.0752H77.022V47.8867H78.6333C78.936 47.8867 79.1753 47.8159 79.3511 47.6743C79.5269 47.5327 79.6514 47.3496 79.7246 47.125C79.8027 46.9004 79.8418 46.666 79.8418 46.4219C79.8418 46.1826 79.8027 45.9482 79.7246 45.7188C79.6514 45.4893 79.5269 45.2988 79.3511 45.1475C79.1753 44.9912 78.936 44.9131 78.6333 44.9131H76.6997V43.7998ZM85.54 48.0405C85.7988 48.0405 86.0332 47.9893 86.2432 47.8867C86.458 47.7793 86.6338 47.6133 86.7705 47.3887C86.9072 47.1592 86.9854 46.8613 87.0049 46.4951H88.2207C88.2012 47.0225 88.0669 47.4863 87.8179 47.8867C87.5737 48.2822 87.2515 48.5923 86.8511 48.8169C86.4556 49.0366 86.0186 49.1465 85.54 49.1465C85.0273 49.1465 84.5806 49.0635 84.1997 48.8975C83.8237 48.7314 83.5112 48.4922 83.2622 48.1797C83.0181 47.8623 82.835 47.479 82.7129 47.0298C82.5908 46.5757 82.5298 46.0605 82.5298 45.4844V44.5908C82.5298 44.0146 82.5908 43.502 82.7129 43.0527C82.835 42.5986 83.0181 42.2153 83.2622 41.9028C83.5112 41.5854 83.8237 41.3438 84.1997 41.1777C84.5806 41.0117 85.0273 40.9287 85.54 40.9287C86.0771 40.9287 86.541 41.0435 86.9316 41.2729C87.3271 41.4976 87.6348 41.8247 87.8545 42.2544C88.0791 42.6792 88.2012 43.1943 88.2207 43.7998H87.0049C86.9854 43.4092 86.9146 43.0845 86.7925 42.8257C86.6704 42.562 86.5044 42.3667 86.2944 42.2397C86.0845 42.1079 85.833 42.042 85.54 42.042C85.1982 42.042 84.915 42.103 84.6904 42.2251C84.4707 42.3423 84.2974 42.5132 84.1704 42.7378C84.0435 42.9624 83.9531 43.231 83.8994 43.5435C83.8506 43.856 83.8262 44.2051 83.8262 44.5908V45.4844C83.8262 45.8701 83.8506 46.2217 83.8994 46.5391C83.9531 46.8516 84.041 47.1201 84.1631 47.3447C84.29 47.5693 84.4658 47.7427 84.6904 47.8647C84.915 47.9819 85.1982 48.0405 85.54 48.0405ZM91.0332 45.2207H92.4248L90.4692 49H89.0776L91.0332 45.2207ZM92.0513 41.0752H94.8931V49H93.604V42.1738H92.0513C91.7534 42.1738 91.5093 42.2397 91.3188 42.3716C91.1284 42.4985 90.9893 42.6646 90.9014 42.8696C90.8135 43.0747 90.7695 43.2871 90.7695 43.5068C90.7695 43.7217 90.8086 43.9292 90.8867 44.1294C90.9697 44.3247 91.0967 44.4858 91.2676 44.6128C91.4434 44.7397 91.668 44.8032 91.9414 44.8032H93.9263V45.9165H91.9414C91.5508 45.9165 91.2017 45.8555 90.894 45.7334C90.5913 45.6113 90.3325 45.4429 90.1177 45.228C89.9077 45.0083 89.7466 44.752 89.6343 44.459C89.5269 44.1611 89.4731 43.8389 89.4731 43.4922C89.4731 43.1455 89.5293 42.8257 89.6416 42.5327C89.7588 42.2397 89.9272 41.9834 90.147 41.7637C90.3716 41.5439 90.6426 41.3755 90.96 41.2583C91.2773 41.1362 91.6411 41.0752 92.0513 41.0752ZM103.594 45.5137H101.478L101.463 44.4297H103.162C103.499 44.4297 103.777 44.3882 103.997 44.3052C104.222 44.2222 104.39 44.0977 104.502 43.9316C104.615 43.7656 104.671 43.5605 104.671 43.3164C104.671 43.126 104.639 42.96 104.576 42.8184C104.512 42.6719 104.417 42.5522 104.29 42.4595C104.168 42.3618 104.014 42.291 103.829 42.2471C103.643 42.1982 103.426 42.1738 103.177 42.1738H101.807V49H100.518V41.0752H103.177C103.606 41.0752 103.992 41.1191 104.334 41.207C104.681 41.2949 104.974 41.4292 105.213 41.6099C105.457 41.7856 105.643 42.0103 105.77 42.2837C105.901 42.5571 105.967 42.8794 105.967 43.2505C105.967 43.4897 105.926 43.7168 105.843 43.9316C105.76 44.1465 105.635 44.3369 105.469 44.5029C105.308 44.6689 105.108 44.8057 104.869 44.9131C104.629 45.0156 104.354 45.0815 104.041 45.1108L103.594 45.5137ZM103.594 49H100.994L101.661 47.9014H103.594C103.892 47.9014 104.136 47.855 104.327 47.7622C104.517 47.6646 104.659 47.5278 104.751 47.3521C104.849 47.1714 104.898 46.9565 104.898 46.7075C104.898 46.4585 104.849 46.2461 104.751 46.0703C104.659 45.8896 104.517 45.7529 104.327 45.6602C104.136 45.5625 103.892 45.5137 103.594 45.5137H101.858L101.873 44.4297H104.019L104.473 44.8398C104.849 44.874 105.164 44.9814 105.418 45.1621C105.677 45.3428 105.87 45.5723 105.997 45.8506C106.128 46.124 106.194 46.4219 106.194 46.7441C106.194 47.1152 106.136 47.4424 106.019 47.7256C105.901 48.0088 105.73 48.2456 105.506 48.436C105.281 48.6216 105.008 48.7632 104.686 48.8608C104.363 48.9536 104 49 103.594 49ZM111.131 45.4185V44.6641C111.131 44.0488 111.209 43.5093 111.365 43.0454C111.521 42.5767 111.739 42.186 112.017 41.8735C112.295 41.561 112.62 41.3267 112.991 41.1704C113.362 41.0093 113.76 40.9287 114.185 40.9287C114.62 40.9287 115.022 41.0093 115.394 41.1704C115.765 41.3267 116.089 41.561 116.368 41.8735C116.651 42.186 116.871 42.5767 117.027 43.0454C117.183 43.5093 117.261 44.0488 117.261 44.6641V45.4185C117.261 46.0337 117.183 46.5757 117.027 47.0444C116.871 47.5083 116.653 47.8965 116.375 48.209C116.097 48.5215 115.772 48.7559 115.401 48.9121C115.03 49.0684 114.629 49.1465 114.2 49.1465C113.77 49.1465 113.37 49.0684 112.999 48.9121C112.627 48.7559 112.3 48.5215 112.017 48.209C111.739 47.8965 111.521 47.5083 111.365 47.0444C111.209 46.5757 111.131 46.0337 111.131 45.4185ZM112.427 44.6641V45.4185C112.427 45.853 112.471 46.2339 112.559 46.561C112.647 46.8882 112.771 47.1616 112.933 47.3813C113.094 47.6011 113.282 47.7671 113.497 47.8794C113.711 47.9868 113.946 48.0405 114.2 48.0405C114.493 48.0405 114.749 47.9868 114.969 47.8794C115.193 47.7671 115.379 47.6011 115.525 47.3813C115.672 47.1616 115.782 46.8882 115.855 46.561C115.928 46.2339 115.965 45.853 115.965 45.4185V44.6641C115.965 44.2295 115.921 43.8511 115.833 43.5288C115.745 43.2017 115.621 42.9282 115.459 42.7085C115.298 42.4839 115.108 42.3179 114.888 42.2104C114.673 42.0981 114.439 42.042 114.185 42.042C113.936 42.042 113.704 42.0981 113.489 42.2104C113.274 42.3179 113.086 42.4839 112.925 42.7085C112.769 42.9282 112.647 43.2017 112.559 43.5288C112.471 43.8511 112.427 44.2295 112.427 44.6641ZM121.619 41.0752V49H120.323V41.0752H121.619ZM123.78 41.0752V42.1738H118.191V41.0752H123.78ZM127.317 48.0405C127.576 48.0405 127.811 47.9893 128.021 47.8867C128.235 47.7793 128.411 47.6133 128.548 47.3887C128.685 47.1592 128.763 46.8613 128.782 46.4951H129.998C129.979 47.0225 129.844 47.4863 129.595 47.8867C129.351 48.2822 129.029 48.5923 128.628 48.8169C128.233 49.0366 127.796 49.1465 127.317 49.1465C126.805 49.1465 126.358 49.0635 125.977 48.8975C125.601 48.7314 125.289 48.4922 125.04 48.1797C124.795 47.8623 124.612 47.479 124.49 47.0298C124.368 46.5757 124.307 46.0605 124.307 45.4844V44.5908C124.307 44.0146 124.368 43.502 124.49 43.0527C124.612 42.5986 124.795 42.2153 125.04 41.9028C125.289 41.5854 125.601 41.3438 125.977 41.1777C126.358 41.0117 126.805 40.9287 127.317 40.9287C127.854 40.9287 128.318 41.0435 128.709 41.2729C129.104 41.4976 129.412 41.8247 129.632 42.2544C129.856 42.6792 129.979 43.1943 129.998 43.7998H128.782C128.763 43.4092 128.692 43.0845 128.57 42.8257C128.448 42.562 128.282 42.3667 128.072 42.2397C127.862 42.1079 127.61 42.042 127.317 42.042C126.976 42.042 126.692 42.103 126.468 42.2251C126.248 42.3423 126.075 42.5132 125.948 42.7378C125.821 42.9624 125.73 43.231 125.677 43.5435C125.628 43.856 125.604 44.2051 125.604 44.5908V45.4844C125.604 45.8701 125.628 46.2217 125.677 46.5391C125.73 46.8516 125.818 47.1201 125.94 47.3447C126.067 47.5693 126.243 47.7427 126.468 47.8647C126.692 47.9819 126.976 48.0405 127.317 48.0405ZM133.338 48.1797L135.103 41.0752H136.48L133.865 50.2231C133.802 50.4185 133.716 50.6284 133.609 50.853C133.506 51.0825 133.375 51.2998 133.213 51.5049C133.052 51.71 132.859 51.876 132.635 52.0029C132.41 52.1348 132.146 52.2007 131.844 52.2007C131.751 52.2007 131.631 52.186 131.485 52.1567C131.343 52.1274 131.241 52.103 131.177 52.0835V50.9849C131.207 50.9897 131.253 50.9946 131.316 50.9995C131.38 51.0093 131.426 51.0142 131.456 51.0142C131.709 51.0142 131.924 50.9727 132.1 50.8896C132.281 50.8115 132.435 50.6772 132.562 50.4868C132.688 50.3013 132.796 50.0449 132.884 49.7178L133.338 48.1797ZM132.195 41.0752L133.77 47.2275L134.107 48.6558L133.184 49.1538L130.782 41.0752H132.195ZM140.604 41.0752V49H139.307V41.0752H140.604ZM142.764 41.0752V42.1738H137.176V41.0752H142.764ZM146.302 48.0405C146.561 48.0405 146.795 47.9893 147.005 47.8867C147.22 47.7793 147.396 47.6133 147.532 47.3887C147.669 47.1592 147.747 46.8613 147.767 46.4951H148.982C148.963 47.0225 148.829 47.4863 148.58 47.8867C148.335 48.2822 148.013 48.5923 147.613 48.8169C147.217 49.0366 146.78 49.1465 146.302 49.1465C145.789 49.1465 145.342 49.0635 144.961 48.8975C144.585 48.7314 144.273 48.4922 144.024 48.1797C143.78 47.8623 143.597 47.479 143.475 47.0298C143.353 46.5757 143.292 46.0605 143.292 45.4844V44.5908C143.292 44.0146 143.353 43.502 143.475 43.0527C143.597 42.5986 143.78 42.2153 144.024 41.9028C144.273 41.5854 144.585 41.3438 144.961 41.1777C145.342 41.0117 145.789 40.9287 146.302 40.9287C146.839 40.9287 147.303 41.0435 147.693 41.2729C148.089 41.4976 148.396 41.8247 148.616 42.2544C148.841 42.6792 148.963 43.1943 148.982 43.7998H147.767C147.747 43.4092 147.676 43.0845 147.554 42.8257C147.432 42.562 147.266 42.3667 147.056 42.2397C146.846 42.1079 146.595 42.042 146.302 42.042C145.96 42.042 145.677 42.103 145.452 42.2251C145.232 42.3423 145.059 42.5132 144.932 42.7378C144.805 42.9624 144.715 43.231 144.661 43.5435C144.612 43.856 144.588 44.2051 144.588 44.5908V45.4844C144.588 45.8701 144.612 46.2217 144.661 46.5391C144.715 46.8516 144.803 47.1201 144.925 47.3447C145.052 47.5693 145.228 47.7427 145.452 47.8647C145.677 47.9819 145.96 48.0405 146.302 48.0405ZM153.333 41.0752V49H152.037V41.0752H153.333ZM155.494 41.0752V42.1738H149.905V41.0752H155.494ZM160.064 45.5137H157.947L157.933 44.4297H159.632C159.969 44.4297 160.247 44.3882 160.467 44.3052C160.691 44.2222 160.86 44.0977 160.972 43.9316C161.084 43.7656 161.141 43.5605 161.141 43.3164C161.141 43.126 161.109 42.96 161.045 42.8184C160.982 42.6719 160.887 42.5522 160.76 42.4595C160.638 42.3618 160.484 42.291 160.298 42.2471C160.113 42.1982 159.896 42.1738 159.646 42.1738H158.277V49H156.988V41.0752H159.646C160.076 41.0752 160.462 41.1191 160.804 41.207C161.15 41.2949 161.443 41.4292 161.683 41.6099C161.927 41.7856 162.112 42.0103 162.239 42.2837C162.371 42.5571 162.437 42.8794 162.437 43.2505C162.437 43.4897 162.396 43.7168 162.312 43.9316C162.229 44.1465 162.105 44.3369 161.939 44.5029C161.778 44.6689 161.578 44.8057 161.338 44.9131C161.099 45.0156 160.823 45.0815 160.511 45.1108L160.064 45.5137ZM160.064 49H157.464L158.13 47.9014H160.064C160.362 47.9014 160.606 47.855 160.796 47.7622C160.987 47.6646 161.128 47.5278 161.221 47.3521C161.319 47.1714 161.368 46.9565 161.368 46.7075C161.368 46.4585 161.319 46.2461 161.221 46.0703C161.128 45.8896 160.987 45.7529 160.796 45.6602C160.606 45.5625 160.362 45.5137 160.064 45.5137H158.328L158.343 44.4297H160.489L160.943 44.8398C161.319 44.874 161.634 44.9814 161.888 45.1621C162.146 45.3428 162.339 45.5723 162.466 45.8506C162.598 46.124 162.664 46.4219 162.664 46.7441C162.664 47.1152 162.605 47.4424 162.488 47.7256C162.371 48.0088 162.2 48.2456 161.976 48.436C161.751 48.6216 161.478 48.7632 161.155 48.8608C160.833 48.9536 160.469 49 160.064 49ZM165.835 46.854L168.707 41.0752H170.003V49H168.707V43.2212L165.835 49H164.546V41.0752H165.835V46.854ZM173.482 46.854L176.353 41.0752H177.649V49H176.353V43.2212L173.482 49H172.193V41.0752H173.482V46.854ZM187.42 37.6255H188.467C188.467 38.104 188.401 38.4849 188.27 38.7681C188.143 39.0464 187.972 39.2612 187.757 39.4126C187.542 39.564 187.303 39.6787 187.039 39.7568C186.775 39.835 186.507 39.9106 186.233 39.9839C185.892 40.0718 185.572 40.2109 185.274 40.4014C184.976 40.5869 184.72 40.8506 184.505 41.1924C184.295 41.5342 184.141 41.9785 184.043 42.5254C183.951 43.0723 183.934 43.7485 183.992 44.5542V45.228H182.938V44.5542C182.938 43.6509 183.011 42.8623 183.157 42.1885C183.304 41.5146 183.511 40.9458 183.78 40.4819C184.048 40.0181 184.366 39.6494 184.732 39.376C185.098 39.1025 185.503 38.9146 185.948 38.812C186.231 38.7388 186.482 38.6606 186.702 38.5776C186.927 38.4897 187.103 38.3726 187.229 38.2261C187.356 38.0796 187.42 37.8794 187.42 37.6255ZM186.182 41.5293C186.617 41.5293 187.002 41.6196 187.339 41.8003C187.676 41.981 187.962 42.2324 188.196 42.5547C188.431 42.877 188.609 43.2578 188.731 43.6973C188.853 44.1318 188.914 44.6055 188.914 45.1182V45.2793C188.914 45.8311 188.848 46.3438 188.716 46.8174C188.584 47.2861 188.389 47.6963 188.13 48.0479C187.876 48.3945 187.564 48.6655 187.193 48.8608C186.822 49.0562 186.399 49.1538 185.926 49.1538C185.452 49.1538 185.03 49.0562 184.659 48.8608C184.292 48.6655 183.98 48.3945 183.721 48.0479C183.467 47.6963 183.272 47.2861 183.135 46.8174C183.003 46.3438 182.938 45.8311 182.938 45.2793V45.1182C182.938 44.9961 182.959 44.8765 183.003 44.7593C183.047 44.6421 183.099 44.5225 183.157 44.4004C183.216 44.2783 183.27 44.1489 183.318 44.0122C183.47 43.5728 183.68 43.165 183.948 42.7891C184.217 42.4131 184.537 42.1104 184.908 41.8809C185.284 41.6465 185.708 41.5293 186.182 41.5293ZM185.918 42.6353C185.523 42.6353 185.201 42.75 184.952 42.9795C184.708 43.209 184.527 43.5142 184.41 43.895C184.292 44.271 184.234 44.6787 184.234 45.1182V45.2793C184.234 45.6504 184.266 46.002 184.329 46.334C184.393 46.666 184.493 46.9614 184.629 47.2202C184.766 47.4741 184.942 47.6743 185.157 47.8208C185.372 47.9673 185.628 48.0405 185.926 48.0405C186.224 48.0405 186.478 47.9673 186.688 47.8208C186.902 47.6743 187.078 47.4741 187.215 47.2202C187.352 46.9614 187.452 46.666 187.515 46.334C187.583 46.002 187.618 45.6504 187.618 45.2793V45.1182C187.618 44.7861 187.583 44.4712 187.515 44.1733C187.452 43.8755 187.352 43.6118 187.215 43.3823C187.078 43.1528 186.902 42.9722 186.688 42.8403C186.473 42.7036 186.216 42.6353 185.918 42.6353ZM194.327 47.645V43.3457C194.327 43.0332 194.278 42.7817 194.18 42.5913C194.087 42.4009 193.946 42.2617 193.755 42.1738C193.57 42.0859 193.335 42.042 193.052 42.042C192.779 42.042 192.542 42.0981 192.342 42.2104C192.146 42.3228 191.995 42.4717 191.888 42.6572C191.785 42.8428 191.734 43.0479 191.734 43.2725H190.438C190.438 42.9893 190.499 42.7085 190.621 42.4302C190.748 42.1519 190.928 41.9004 191.163 41.6758C191.397 41.4463 191.678 41.2656 192.005 41.1338C192.337 40.9971 192.708 40.9287 193.118 40.9287C193.606 40.9287 194.039 41.0093 194.415 41.1704C194.791 41.3267 195.086 41.583 195.301 41.9395C195.516 42.2959 195.623 42.7695 195.623 43.3604V47.2715C195.623 47.5352 195.643 47.8159 195.682 48.1138C195.726 48.4116 195.787 48.668 195.865 48.8828V49H194.524C194.461 48.8438 194.412 48.6362 194.378 48.3774C194.344 48.1138 194.327 47.8696 194.327 47.645ZM194.532 44.1953L194.546 45.1475H193.646C193.338 45.1475 193.057 45.1816 192.803 45.25C192.554 45.3184 192.339 45.4185 192.159 45.5503C191.978 45.6772 191.839 45.8359 191.741 46.0264C191.648 46.2168 191.602 46.4341 191.602 46.6782C191.602 46.9956 191.646 47.2495 191.734 47.4399C191.822 47.6255 191.954 47.7598 192.129 47.8428C192.305 47.9258 192.527 47.9673 192.796 47.9673C193.123 47.9673 193.411 47.8916 193.66 47.7402C193.909 47.5889 194.102 47.4058 194.239 47.1909C194.38 46.9761 194.446 46.7759 194.437 46.5903L194.722 47.1982C194.703 47.3887 194.639 47.5962 194.532 47.8208C194.429 48.0405 194.285 48.2529 194.1 48.458C193.914 48.6582 193.694 48.8242 193.44 48.9561C193.191 49.083 192.911 49.1465 192.598 49.1465C192.139 49.1465 191.736 49.0586 191.39 48.8828C191.048 48.707 190.782 48.4482 190.591 48.1064C190.401 47.7646 190.306 47.3423 190.306 46.8394C190.306 46.4585 190.372 46.1069 190.503 45.7847C190.635 45.4624 190.831 45.1841 191.089 44.9497C191.348 44.7104 191.673 44.5249 192.063 44.3931C192.459 44.2612 192.916 44.1953 193.433 44.1953H194.532ZM201.995 41.0752V42.1958H199.036V49H197.74V41.0752H201.995ZM202.801 45.4185V44.6641C202.801 44.0488 202.879 43.5093 203.035 43.0454C203.191 42.5767 203.409 42.186 203.687 41.8735C203.965 41.561 204.29 41.3267 204.661 41.1704C205.032 41.0093 205.43 40.9287 205.855 40.9287C206.29 40.9287 206.692 41.0093 207.063 41.1704C207.435 41.3267 207.759 41.561 208.038 41.8735C208.321 42.186 208.541 42.5767 208.697 43.0454C208.853 43.5093 208.931 44.0488 208.931 44.6641V45.4185C208.931 46.0337 208.853 46.5757 208.697 47.0444C208.541 47.5083 208.323 47.8965 208.045 48.209C207.767 48.5215 207.442 48.7559 207.071 48.9121C206.7 49.0684 206.299 49.1465 205.87 49.1465C205.44 49.1465 205.04 49.0684 204.668 48.9121C204.297 48.7559 203.97 48.5215 203.687 48.209C203.409 47.8965 203.191 47.5083 203.035 47.0444C202.879 46.5757 202.801 46.0337 202.801 45.4185ZM204.097 44.6641V45.4185C204.097 45.853 204.141 46.2339 204.229 46.561C204.317 46.8882 204.441 47.1616 204.603 47.3813C204.764 47.6011 204.952 47.7671 205.167 47.8794C205.381 47.9868 205.616 48.0405 205.87 48.0405C206.163 48.0405 206.419 47.9868 206.639 47.8794C206.863 47.7671 207.049 47.6011 207.195 47.3813C207.342 47.1616 207.452 46.8882 207.525 46.561C207.598 46.2339 207.635 45.853 207.635 45.4185V44.6641C207.635 44.2295 207.591 43.8511 207.503 43.5288C207.415 43.2017 207.291 42.9282 207.129 42.7085C206.968 42.4839 206.778 42.3179 206.558 42.2104C206.343 42.0981 206.109 42.042 205.855 42.042C205.606 42.042 205.374 42.0981 205.159 42.2104C204.944 42.3179 204.756 42.4839 204.595 42.7085C204.439 42.9282 204.317 43.2017 204.229 43.5288C204.141 43.8511 204.097 44.2295 204.097 44.6641ZM213.794 45.5137H211.678L211.663 44.4297H213.362C213.699 44.4297 213.978 44.3882 214.197 44.3052C214.422 44.2222 214.59 44.0977 214.703 43.9316C214.815 43.7656 214.871 43.5605 214.871 43.3164C214.871 43.126 214.839 42.96 214.776 42.8184C214.712 42.6719 214.617 42.5522 214.49 42.4595C214.368 42.3618 214.214 42.291 214.029 42.2471C213.843 42.1982 213.626 42.1738 213.377 42.1738H212.007V49H210.718V41.0752H213.377C213.807 41.0752 214.192 41.1191 214.534 41.207C214.881 41.2949 215.174 41.4292 215.413 41.6099C215.657 41.7856 215.843 42.0103 215.97 42.2837C216.102 42.5571 216.167 42.8794 216.167 43.2505C216.167 43.4897 216.126 43.7168 216.043 43.9316C215.96 44.1465 215.835 44.3369 215.669 44.5029C215.508 44.6689 215.308 44.8057 215.069 44.9131C214.83 45.0156 214.554 45.0815 214.241 45.1108L213.794 45.5137ZM213.794 49H211.194L211.861 47.9014H213.794C214.092 47.9014 214.336 47.855 214.527 47.7622C214.717 47.6646 214.859 47.5278 214.952 47.3521C215.049 47.1714 215.098 46.9565 215.098 46.7075C215.098 46.4585 215.049 46.2461 214.952 46.0703C214.859 45.8896 214.717 45.7529 214.527 45.6602C214.336 45.5625 214.092 45.5137 213.794 45.5137H212.059L212.073 44.4297H214.219L214.673 44.8398C215.049 44.874 215.364 44.9814 215.618 45.1621C215.877 45.3428 216.07 45.5723 216.197 45.8506C216.329 46.124 216.395 46.4219 216.395 46.7441C216.395 47.1152 216.336 47.4424 216.219 47.7256C216.102 48.0088 215.931 48.2456 215.706 48.436C215.481 48.6216 215.208 48.7632 214.886 48.8608C214.563 48.9536 214.2 49 213.794 49Z" fill="black"/>
</svg>
