<svg width="70" height="70" viewBox="0 0 70 70" fill="none" xmlns="http://www.w3.org/2000/svg">
<circle cx="35" cy="35" r="33" fill="#B9A692" stroke="black" stroke-width="4"/>
<path d="M36.4766 41.0625H30.4219C30.4382 39.5977 30.5358 38.3281 30.7148 37.2539C30.8939 36.1634 31.2113 35.1868 31.667 34.3242C32.1227 33.4616 32.7412 32.6152 33.5225 31.7852C34.1084 31.1178 34.6292 30.4831 35.085 29.8809C35.5407 29.2624 35.9069 28.6357 36.1836 28.001C36.4603 27.3499 36.5986 26.6338 36.5986 25.8525C36.5986 24.9248 36.4928 24.1598 36.2812 23.5576C36.0859 22.9554 35.793 22.4997 35.4023 22.1904C35.0117 21.8812 34.5153 21.7266 33.9131 21.7266C33.4899 21.7266 33.0667 21.873 32.6436 22.166C32.2204 22.459 31.8623 22.9066 31.5693 23.5088C31.2764 24.111 31.1299 24.9004 31.1299 25.877H24.2451C24.2777 23.6146 24.7171 21.751 25.5635 20.2861C26.4098 18.8213 27.5573 17.7389 29.0059 17.0391C30.4707 16.3229 32.1064 15.9648 33.9131 15.9648C35.915 15.9648 37.624 16.3392 39.04 17.0879C40.4723 17.8203 41.571 18.9027 42.3359 20.335C43.1009 21.751 43.4834 23.4844 43.4834 25.5352C43.4834 26.9512 43.2311 28.2044 42.7266 29.2949C42.2383 30.3854 41.6035 31.4027 40.8223 32.3467C40.0573 33.2744 39.2354 34.2428 38.3564 35.252C37.624 36.082 37.1357 36.9447 36.8916 37.8398C36.6475 38.735 36.5091 39.8092 36.4766 41.0625ZM29.8115 48.5576C29.8115 47.4997 30.1452 46.6126 30.8125 45.8965C31.4961 45.1641 32.4157 44.7979 33.5713 44.7979C34.7106 44.7979 35.6139 45.1641 36.2812 45.8965C36.9486 46.6126 37.2822 47.4997 37.2822 48.5576C37.2822 49.5993 36.9486 50.4863 36.2812 51.2188C35.6139 51.9349 34.7106 52.293 33.5713 52.293C32.4157 52.293 31.4961 51.9349 30.8125 51.2188C30.1452 50.4863 29.8115 49.5993 29.8115 48.5576Z" fill="black"/>
</svg>
