<svg width="248" height="121" viewBox="0 0 248 121" fill="none" xmlns="http://www.w3.org/2000/svg">
<path d="M19.0884 28.5222L14.2726 28.041L12.5423 48.2009L5.47161 47.4944L9.4082 1.62988L16.4789 2.33636L14.9018 20.7112L19.7176 21.1924L21.2947 2.81754L28.3654 3.52402L24.4288 49.3885L17.3581 48.6821L19.0884 28.5222Z" fill="#FCED9C"/>
<path d="M36.1623 50.9257L34.7797 50.7876C29.1474 50.2249 26.3924 46.9002 26.8789 41.2325L27.6671 32.0504L34.682 32.7512L33.9944 40.7619C33.8143 42.8594 34.4108 44.033 36.0314 44.1949C37.72 44.3636 38.4381 43.3213 38.6823 40.4763L38.7723 39.4276C39.0529 36.1586 38.8362 34.9554 36.5556 31.4306L32.5317 25.3123C29.857 21.1854 29.2269 18.1405 29.6186 13.5774L29.7459 12.0935C30.2698 5.99069 33.6409 3.46933 39.2165 4.02638L40.5311 4.15771C46.3561 4.73967 48.3939 7.49759 47.9285 12.9198L47.283 20.4396L40.4607 19.758L41.0267 13.1643C41.1589 11.6246 40.9421 10.4214 39.2536 10.2527C37.565 10.084 37.101 11.0954 36.9162 13.2487L36.8424 14.1078C36.6202 16.6962 36.9972 18.1629 39.1176 21.4242L43.1357 27.6095C45.982 32.001 46.7781 34.4436 46.3338 39.6204L46.2064 41.1042C45.6402 47.833 42.3613 51.5451 36.1623 50.9257Z" fill="#FCED9C"/>
<path d="M67.0924 7.12735L66.5197 13.7905L57.4836 12.8889L56.4495 24.9206L63.5331 25.6273L62.9345 32.5918L55.8508 31.8851L54.7112 45.1444L64.122 46.0834L63.5234 53.0479L47.029 51.4022L50.9727 5.51904L67.0924 7.12735Z" fill="#FCED9C"/>
<path d="M82.9812 46.1275L77.852 45.6147L76.1715 54.1542L69.8534 53.5226L79.4825 8.23637L87.8614 9.07403L89.9967 55.5364L83.1804 54.8549L82.9812 46.1275ZM82.8101 39.2029L82.3849 22.0603L79.1188 38.8339L82.8101 39.2029Z" fill="#FCED9C"/>
<path d="M97.9011 56.1877L90.8316 55.4812L94.7676 9.61865L106.222 10.7632C110.912 11.2319 113.122 13.4443 112.683 18.5538L111.985 26.6866C111.657 30.5131 109.718 31.8046 108.412 32.2367C109.917 33.0734 111.319 34.4512 111.054 37.5414L109.673 53.6285C109.514 55.4804 109.814 56.3767 110.073 57.089L110.046 57.4013L103.033 56.7005C102.758 56.178 102.453 55.3374 102.665 52.8719L103.85 39.0607C104.024 37.0303 103.725 36.1227 101.471 35.8974L99.658 35.7163L97.9011 56.1877ZM100.218 29.19L102.099 29.3779C104.036 29.5715 104.776 28.4078 104.951 26.3662L105.502 19.9515C105.671 17.9769 105.313 16.951 103.184 16.7381L101.303 16.5502L100.218 29.19Z" fill="#FCED9C"/>
<path d="M126.704 19.4035L123.339 58.6078L116.325 57.907L119.69 18.7027L113.741 18.1083L114.312 11.4478L133.225 13.3374L132.653 19.9979L126.704 19.4035Z" fill="#FCED9C"/>
<path d="M145.969 52.0225L140.84 51.5097L139.16 60.0493L132.842 59.4176L142.471 14.1314L150.85 14.969L152.986 61.4202L146.17 60.7388L145.969 52.0225ZM145.798 45.0979L145.373 27.9553L142.107 44.7289L145.798 45.0979Z" fill="#FCED9C"/>
<path d="M164.135 16.1512L168.097 41.3584L170.209 16.7581L176.657 17.4023L172.72 63.2672L166.963 62.692L162.463 35.6307L160.198 62.0161L153.807 61.3776L157.744 15.5127L164.135 16.1512Z" fill="#FCED9C"/>
<path d="M178.961 17.4985L189.795 18.5809C195.869 19.1878 197.459 22.7674 196.994 28.1896L194.597 56.1152C194.115 61.7271 191.683 65.0287 185.858 64.4467L175.024 63.3643L178.961 17.4985ZM182.678 57.4113L184.367 57.58C186.498 57.7929 187.216 56.7506 187.428 54.2738L189.644 28.4569C189.872 25.8015 189.259 24.8176 187.503 24.6421L185.497 24.4417L182.667 57.4102L182.678 57.4113Z" fill="#FCED9C"/>
<path d="M4.96875 50.0347L15.7966 51.1137C21.8674 51.7187 23.4556 55.2981 22.989 60.7211L20.5855 88.6502C20.1025 94.2628 17.6707 97.5655 11.849 96.9853L1.0212 95.9063L4.96875 50.0347ZM8.66104 89.9603L10.3486 90.1284C12.478 90.3406 13.196 89.298 13.4082 86.8321L15.6321 60.9895C15.8606 58.3339 15.2485 57.35 13.4929 57.1751L11.4882 56.9753L8.64971 89.9591L8.66104 89.9603Z" fill="#FCED9C"/>
<path d="M42.057 53.6004L41.4828 60.2643L32.4523 59.3655L31.4154 71.3985L38.4946 72.103L37.8945 79.0683L30.8153 78.3638L29.6726 91.6246L39.0775 92.5606L38.4774 99.5259L21.9933 97.8854L25.9473 51.9971L42.057 53.6004Z" fill="#FCED9C"/>
<path d="M49.4081 101.001L48.0262 100.863C42.3971 100.302 39.6558 96.979 40.1436 91.3106L40.9339 82.1273L47.9449 82.826L47.2554 90.8376C47.0749 92.9354 47.6708 94.1089 49.2904 94.2703C50.978 94.4385 51.696 93.3959 51.9409 90.5505L52.0312 89.5017C52.3125 86.2323 52.0962 85.0291 49.8178 81.5046L45.7977 75.387C43.1256 71.2606 42.4967 68.2156 42.8894 63.6518L43.0171 62.1678C43.5424 56.0642 46.9123 53.5415 52.4849 54.0968L53.7987 54.2277C59.6205 54.8079 61.6564 57.5654 61.1898 62.9884L60.5426 70.5091L53.7241 69.8296L54.2916 63.235C54.4241 61.6952 54.2078 60.4919 52.5202 60.3238C50.8326 60.1556 50.3685 61.1672 50.1832 63.3208L50.1093 64.18C49.8865 66.7687 50.2629 68.2355 52.3812 71.4964L56.3955 77.681C59.239 82.0721 60.0341 84.5146 59.5885 89.6921L59.4608 91.1761C58.8941 97.8946 55.6149 101.619 49.4081 101.001Z" fill="#FCED9C"/>
<path d="M67.4679 102.244L60.291 101.539L64.2988 55.5815L71.4757 56.287L67.4679 102.244Z" fill="#FCED9C"/>
<path d="M76.375 103.631C72.2399 103.219 69.9247 99.3196 70.3329 94.577L72.8013 65.8987C73.2422 60.7767 75.6556 56.234 82.351 56.9011L83.7331 57.0388C91.3121 57.7939 91.7647 62.7573 91.2979 68.1805L90.8945 72.8672L84.0066 72.1809L84.4522 67.0032C84.627 64.9723 84.2246 63.8067 82.4686 63.6318C80.9619 63.4817 80.1871 64.5187 80.0113 66.5607L77.7023 93.3867C77.517 95.5404 78.2933 96.7432 79.732 96.8866C81.5447 97.0672 82.4669 95.9098 82.6148 94.1913L83.6032 82.7088L80.4084 82.3905L81.0135 75.3604L90.9036 76.3458L88.5044 104.221L84.494 103.821C84.4471 103.569 84.0889 101.226 83.6915 99.2056C83.0605 100.696 80.3731 104.041 76.8045 103.685L76.374 103.642L76.375 103.631Z" fill="#FCED9C"/>
<path d="M100.966 59.0575L104.919 84.2659L107.036 59.6624L113.48 60.3046L109.533 106.175L103.78 105.602L99.2891 78.5394L97.0183 104.928L90.6309 104.292L94.5781 58.4209L100.966 59.0575Z" fill="#FCED9C"/>
<path d="M127.556 108.315L126.174 108.177C120.545 107.616 117.793 104.292 118.28 98.6236L119.071 89.4403L126.082 90.139L125.392 98.1506C125.212 100.248 125.807 101.422 127.427 101.583C129.115 101.751 129.833 100.709 130.078 97.8635L130.168 96.8147C130.449 93.5453 130.233 92.342 127.955 88.8176L123.934 82.6999C121.262 78.5735 120.633 75.5286 121.026 70.9648L121.154 69.4808C121.679 63.3772 125.049 60.8545 130.622 61.4098L131.935 61.5407C137.757 62.1209 139.793 64.8784 139.326 70.3013L138.679 77.822L131.861 77.1426L132.428 70.548C132.561 69.0082 132.345 67.8049 130.657 67.6368C128.969 67.4686 128.505 68.4802 128.32 70.6338L128.246 71.493C128.023 74.0817 128.4 75.5485 130.518 78.8094L134.532 84.994C137.376 89.385 138.171 91.8276 137.725 97.0051L137.598 98.4891C137.042 105.209 133.752 108.932 127.556 108.315Z" fill="#FCED9C"/>
<path d="M150.818 100.618L151.736 89.9496L158.681 90.6415L157.768 101.243C157.344 106.175 155.282 111.012 148.462 110.332L146.898 110.176C139.761 109.465 138.632 104.254 139.031 99.6234L141.44 71.6365C141.843 66.9497 144.292 62.6581 150.682 63.2947L152.314 63.4572C160.074 64.2304 160.523 69.3735 160.136 73.8706L159.43 82.0725L152.485 81.3806L153.18 73.3014C153.35 71.3263 152.818 70.2153 151.061 70.0403C149.305 69.8653 148.79 70.8044 148.615 72.8466L146.269 100.097C146.094 102.128 146.689 103.313 148.253 103.468C149.929 103.635 150.658 102.47 150.818 100.618Z" fill="#FCED9C"/>
<path d="M172.535 91.7157L167.711 91.2349L165.976 111.397L158.909 110.693L162.857 64.8115L169.924 65.5158L168.343 83.893L173.167 84.3738L174.749 65.9966L181.815 66.7009L177.868 112.571L170.801 111.867L172.535 91.7157Z" fill="#FCED9C"/>
<path d="M200.217 104.35C199.664 110.766 197.102 114.922 190.273 114.242L189.084 114.123C182.323 113.449 180.321 108.838 180.873 102.422L183.069 76.9042C183.616 70.5553 186.411 66.6025 193.048 67.2639L194.237 67.3824C201.123 68.0687 202.947 72.4819 202.407 78.7638L200.205 104.349L200.217 104.35ZM195.254 77.7358C195.461 75.3257 194.741 74.1398 193.121 73.9784C191.309 73.7978 190.518 74.9006 190.316 77.2437L188.045 103.632C187.875 105.607 188.309 107.204 190.302 107.402C192.182 107.59 192.813 106.099 192.983 104.124L195.254 77.7358Z" fill="#FCED9C"/>
<path d="M221.504 106.342C220.952 112.758 218.389 116.914 211.56 116.234L210.371 116.115C203.61 115.441 201.608 110.83 202.16 104.415L204.356 78.8963C204.903 72.5475 207.699 68.5947 214.335 69.2561L215.524 69.3746C222.41 70.0608 224.234 74.4741 223.694 80.756L221.492 106.341L221.504 106.342ZM216.529 79.7269C216.737 77.3168 216.016 76.1309 214.386 75.9683C212.574 75.7878 211.782 76.8905 211.58 79.2337L209.31 105.622C209.14 107.597 209.573 109.193 211.567 109.392C213.447 109.579 214.077 108.089 214.247 106.114L216.518 79.7258L216.529 79.7269Z" fill="#FCED9C"/>
<path d="M233.798 71.4917L230.453 110.297L239.115 111.158L238.503 118.247L222.758 116.681L226.715 70.7871L233.798 71.4917Z" fill="#FCED9C"/>
</svg>
