<svg width="181" height="72" viewBox="0 0 181 72" fill="none" xmlns="http://www.w3.org/2000/svg">
<path d="M8.91829 19.7616H5.30823V34.9962H0.0078125V0.336914H5.30823V14.2225H8.91829V0.336914H14.2187V34.9962H8.91829V19.7616Z" fill="white"/>
<path d="M23.283 35.3674H22.2467C18.0251 35.3674 15.7656 33.0827 15.7656 28.7998V21.8612H21.0236V27.9146C21.0236 29.4996 21.5417 30.3342 22.7564 30.3342C24.0221 30.3342 24.4892 29.4996 24.4892 27.3497V26.5572C24.4892 24.087 24.2514 23.2017 22.3317 20.7315L18.951 16.4486C16.7 13.5568 16.0374 11.3226 16.0374 7.87442V6.75312C16.0374 2.14144 18.3819 0 22.561 0H23.5464C27.9124 0 29.6028 1.9138 29.6028 6.0112V11.6936H24.4892V6.71096C24.4892 5.5475 24.2514 4.66226 22.9857 4.66226C21.7201 4.66226 21.4398 5.45476 21.4398 7.08192V7.73109C21.4398 9.68705 21.8135 10.7578 23.5973 13.0425L26.9781 17.376C29.3734 20.4533 30.1209 22.2237 30.1209 26.1356V27.257C30.1294 32.3408 27.9294 35.3674 23.283 35.3674Z" fill="white"/>
<path d="M43.6947 0.336914V5.37013H36.9332V14.4586H42.2336V19.7194H36.9332V29.7353H43.975V34.9962H31.6328V0.336914H43.6947Z" fill="white"/>
<path d="M58.2947 28.4795H54.4468L53.7418 35.0049H49.002L53.2746 0.345703H59.5603L64.1132 35.0049H58.9997L58.2947 28.4795ZM57.7256 23.3029L56.3155 10.488L54.9564 23.3029H57.7256Z" fill="white"/>
<path d="M70.2653 34.9962H64.9648V0.336914H73.5525C77.0691 0.336914 78.853 1.82918 78.853 5.69051V11.8366C78.853 14.7284 77.4939 15.8413 76.551 16.2628C77.7232 16.7771 78.853 17.7045 78.853 20.0398V32.1971C78.853 33.5966 79.1333 34.2458 79.3711 34.7601V34.9962H74.1132C73.8753 34.6252 73.595 34.0182 73.595 32.155V21.7176C73.595 20.1831 73.3147 19.5255 71.6243 19.5255H70.2653V34.9962ZM70.2653 14.5935H71.6753C73.1278 14.5935 73.6035 13.6661 73.6035 12.1232V7.27551C73.6035 5.78325 73.2722 5.04133 71.6753 5.04133H70.2653V14.5935Z" fill="white"/>
<path d="M89.5553 5.37013V34.9962H84.2974V5.37013H79.8379V0.336914H94.0148V5.37013H89.5553Z" fill="white"/>
<path d="M106.228 28.4795H102.38L101.675 35.0049H96.9355L101.208 0.345703H107.494L112.047 34.9965H106.933L106.228 28.4795ZM105.659 23.3029L104.249 10.488L102.89 23.3029H105.659Z" fill="white"/>
<path d="M117.679 0.336914L122.232 18.9269V0.336914H127.066V34.9962H122.751L117.679 15.0572V34.9962H112.889V0.336914H117.679Z" fill="white"/>
<path d="M129.035 0.336914H137.156C141.709 0.336914 143.119 2.89989 143.119 6.99729V28.0997C143.119 32.3404 141.522 34.9962 137.156 34.9962H129.035V0.336914ZM134.344 29.9629H135.61C137.207 29.9629 137.674 29.1283 137.674 27.2566V7.74763C137.674 5.74109 137.156 5.04976 135.839 5.04976H134.336V29.9629H134.344Z" fill="white"/>
<path d="M0 36.7998H8.12051C12.6734 36.7998 14.0835 39.3628 14.0835 43.4602V64.5626C14.0835 68.8033 12.4866 71.459 8.12051 71.459H0V36.7998ZM5.30042 66.4343H6.56607C8.16299 66.4343 8.63017 65.5996 8.63017 63.7364V44.2105C8.63017 42.204 8.11202 41.5127 6.79541 41.5127H5.29193V66.4343H5.30042Z" fill="white"/>
<path d="M28.0208 36.7998V41.833H21.2594V50.9215H26.5598V56.1823H21.2594V66.1982H28.3011V71.459H15.959V36.7998H28.0208Z" fill="white"/>
<path d="M36.7453 71.8386H35.709C31.4873 71.8386 29.2363 69.5539 29.2363 65.271V58.3324H34.4943V64.3858C34.4943 65.9708 35.0124 66.8054 36.2271 66.8054C37.4928 66.8054 37.9599 65.9708 37.9599 63.8209V63.0284C37.9599 60.5581 37.7221 59.6729 35.8024 57.2027L32.4217 52.9198C30.1707 50.028 29.5082 47.7938 29.5082 44.3456V43.2243C29.5082 38.6126 31.8526 36.4712 36.0317 36.4712H37.0171C41.3831 36.4712 43.0735 38.385 43.0735 42.4824V48.1648H37.9599V43.1822C37.9599 42.0187 37.7221 41.1335 36.4564 41.1335C35.1908 41.1335 34.9105 41.926 34.9105 43.5531V44.2023C34.9105 46.1582 35.2842 47.229 37.068 49.5137L40.4488 53.8472C42.8441 56.9244 43.5916 58.6949 43.5916 62.6068V63.7281C43.6001 68.8035 41.4001 71.8386 36.7453 71.8386Z" fill="white"/>
<path d="M50.4039 71.459H45.1035V36.7998H50.4039V71.459Z" fill="white"/>
<path d="M57.3113 71.9312C54.2109 71.9312 52.2402 69.1828 52.2402 65.5997V43.9324C52.2402 40.0626 53.7437 36.4795 58.7638 36.4795H59.8001C65.4828 36.4795 66.1368 40.1638 66.1368 44.2612V47.8021H60.9723V43.8902C60.9723 42.3558 60.5986 41.5127 59.282 41.5127C58.1522 41.5127 57.6426 42.3474 57.6426 43.8902V64.158C57.6426 65.7851 58.2966 66.6282 59.3754 66.6282C60.7345 66.6282 61.3461 65.6924 61.3461 64.3941V55.7187H58.9507V50.4073H66.3662V71.4675H63.3592C63.3083 71.2821 62.892 69.5537 62.4673 68.0699C62.0936 69.2334 60.3098 71.9397 57.6341 71.9397H57.3113V71.9312Z" fill="white"/>
<path d="M72.9822 36.7998L77.5351 55.3898V36.7998H82.3683V71.459H78.0532L72.9822 51.5201V71.459H68.1914V36.7998H72.9822Z" fill="white"/>
<path d="M96.2147 71.8386H95.1784C90.9567 71.8386 88.6973 69.5539 88.6973 65.271V58.3324H93.9552V64.3858C93.9552 65.9708 94.4734 66.8054 95.6881 66.8054C96.9537 66.8054 97.4209 65.9708 97.4209 63.8209V63.0284C97.4209 60.5581 97.183 59.6729 95.2633 57.2027L91.8826 52.9198C89.6316 50.028 88.9691 47.7938 88.9691 44.3456V43.2243C88.9691 38.6126 91.3135 36.4712 95.4927 36.4712H96.478C100.844 36.4712 102.534 38.385 102.534 42.4824V48.1648H97.4209V43.1822C97.4209 42.0187 97.183 41.1335 95.9174 41.1335C94.6517 41.1335 94.3714 41.926 94.3714 43.5531V44.2023C94.3714 46.1582 94.7452 47.229 96.529 49.5137L99.9097 53.8472C102.305 56.9244 103.053 58.6949 103.053 62.6068V63.7281C103.07 68.8035 100.861 71.8386 96.2147 71.8386Z" fill="white"/>
<path d="M113.253 64.4278V56.3679H118.46V64.3772C118.46 68.1036 117.237 71.8806 112.124 71.8806H110.951C105.6 71.8806 104.428 68.0615 104.428 64.5627V43.4181C104.428 39.8771 105.974 36.4795 110.764 36.4795H111.988C117.806 36.4795 118.469 40.2987 118.469 43.6963V49.893H113.262V43.789C113.262 42.2968 112.795 41.5043 111.478 41.5043C110.161 41.5043 109.839 42.2462 109.839 43.789V64.3772C109.839 65.9116 110.357 66.7547 111.529 66.7547C112.786 66.7547 113.253 65.8273 113.253 64.4278Z" fill="white"/>
<path d="M129.069 56.2329H125.451V71.4675H120.15V36.7998H125.451V50.6854H129.069V36.7998H134.37V71.4591H129.069V56.2329Z" fill="white"/>
<path d="M150.705 63.728C150.705 68.5758 149.066 71.8806 143.944 71.8806H143.052C137.981 71.8806 136.197 68.5758 136.197 63.728V44.4467C136.197 39.6495 138.024 36.4795 143.001 36.4795H143.893C149.058 36.4795 150.697 39.6495 150.697 44.3961V63.728H150.705ZM145.312 44.16C145.312 42.3389 144.7 41.5043 143.485 41.5043C142.126 41.5043 141.608 42.3895 141.608 44.16V64.099C141.608 65.5912 142.033 66.7547 143.528 66.7547C144.938 66.7547 145.312 65.5912 145.312 64.099V44.16Z" fill="white"/>
<path d="M166.905 63.728C166.905 68.5758 165.265 71.8806 160.143 71.8806H159.251C154.18 71.8806 152.396 68.5758 152.396 63.728V44.4467C152.396 39.6495 154.223 36.4795 159.2 36.4795H160.092C165.257 36.4795 166.896 39.6495 166.896 44.3961V63.728H166.905ZM161.502 44.16C161.502 42.3389 160.891 41.5043 159.668 41.5043C158.308 41.5043 157.79 42.3895 157.79 44.16V64.099C157.79 65.5912 158.215 66.7547 159.71 66.7547C161.12 66.7547 161.494 65.5912 161.494 64.099V44.16H161.502Z" fill="white"/>
<path d="M174.039 36.7998V66.1055H180.52V71.459H168.738V36.7998H174.039Z" fill="white"/>
</svg>
