<svg width="104" height="40" viewBox="0 0 104 40" fill="none" xmlns="http://www.w3.org/2000/svg">
<path d="M15.9558 2.0715C21.0961 3.32211 23.8362 5.10111 29.1183 5.27388C35.2239 5.47358 38.3334 2.1524 44.4417 2.0715C50.9638 1.98511 54.3251 5.10214 60.8456 5.27388C68.3855 5.47246 72.3866 1.41734 79.9016 2.0715C84.8704 2.50401 92.8526 2.31041 96.9079 5.27388C105.962 11.8904 102.027 28.9049 92.2783 34.3955C89.9634 35.6992 89.2064 36.1029 87.0699 36.2904C83.5977 36.5951 82.4402 36.9974 79.9016 36.9974C72.3344 36.9974 68.4114 33.1724 60.8456 33.3948C54.295 33.5873 50.9941 36.8891 44.4417 36.9974C38.3758 37.0977 35.1828 34.2317 29.1183 34.3955C23.884 34.5368 20.8622 35.1342 15.9558 36.9974L8.09768 34.3955C8.09768 34.3955 4.65295 31.5011 3.38278 28.9915C1.74678 25.759 2.035 23.4214 2.0076 19.7847L2.00754 19.7767C1.97872 15.9514 1.96116 13.6204 3.38278 10.0774C4.4137 7.50822 7.11541 4.07299 7.11541 4.07299L15.9558 2.0715Z" fill="#A259FF"/>
<path d="M15.9558 2.0715C21.0961 3.32211 23.8362 5.10111 29.1183 5.27388C35.2239 5.47358 38.3334 2.1524 44.4417 2.0715C50.9638 1.98511 54.3251 5.10214 60.8456 5.27388C68.3855 5.47246 72.3866 1.41734 79.9016 2.0715C84.8704 2.50401 92.8526 2.31041 96.9079 5.27388C105.962 11.8904 102.027 28.9049 92.2783 34.3955C89.9634 35.6992 89.2064 36.1029 87.0699 36.2904C83.5977 36.5951 82.4402 36.9974 79.9016 36.9974C72.3344 36.9974 68.4114 33.1724 60.8456 33.3948C54.295 33.5873 50.9941 36.8891 44.4417 36.9974C38.3758 37.0977 35.1829 34.2317 29.1183 34.3955C23.884 34.5368 20.8622 35.1342 15.9558 36.9974M15.9558 2.0715C17.6053 8.98892 20.2261 12.6662 20.1796 19.7847C20.1343 26.7134 17.6053 30.2754 15.9558 36.9974M15.9558 2.0715C12.5034 2.85313 7.11541 4.07299 7.11541 4.07299M15.9558 36.9974C12.887 35.9813 8.09768 34.3955 8.09768 34.3955M7.11541 4.07299C7.11541 4.07299 12.2823 13.3088 12.3214 19.7847C12.3574 25.7328 8.09768 34.3955 8.09768 34.3955M7.11541 4.07299C7.11541 4.07299 4.4137 7.50822 3.38278 10.0774C1.96018 13.6228 1.97875 15.9546 2.0076 19.7847C2.035 23.4214 1.74678 25.759 3.38278 28.9915C4.65295 31.5011 8.09768 34.3955 8.09768 34.3955" stroke="black" stroke-width="4"/>
</svg>
