<svg width="100" height="49" viewBox="0 0 100 49" fill="none" xmlns="http://www.w3.org/2000/svg">
<circle cx="26.5" cy="7.5" r="7" fill="black" stroke="black"/>
<circle cx="73.5" cy="7.5" r="7" fill="black" stroke="black"/>
<path d="M77.1385 34.4344C78.6644 40.813 88.1505 48 88.1505 48C88.1505 48 97.7361 40.8297 98.8971 34.4344C99.4338 31.4779 97.8757 27.1682 94.1208 27.0028C90.7536 26.8545 88.1505 32.547 88.1505 32.547C88.1505 32.547 85.6485 26.98 82.3128 27.0028C78.4739 27.0291 76.4313 31.4779 77.1385 34.4344Z" fill="#FF4242" stroke="black"/>
<path d="M1.13854 34.4344C2.66436 40.813 12.1505 48 12.1505 48C12.1505 48 21.7361 40.8297 22.8971 34.4344C23.4338 31.4779 21.8757 27.1682 18.1208 27.0028C14.7536 26.8545 12.1505 32.547 12.1505 32.547C12.1505 32.547 9.6485 26.98 6.31283 27.0028C2.47393 27.0291 0.431324 31.4779 1.13854 34.4344Z" fill="#FF4242" stroke="black"/>
</svg>
