<svg width="79" height="76" viewBox="0 0 79 76" fill="none" xmlns="http://www.w3.org/2000/svg">
<path d="M54.8642 17.1431L50.5562 14.7937C49.6186 14.2824 49.0235 13.3111 48.9938 12.2435L48.9037 9.01233C48.8632 7.55893 47.7863 6.34379 46.3483 6.12888L40.9783 5.32633C39.6797 5.13225 38.4058 5.80522 37.8341 6.98728L36.0274 10.7234C35.6546 11.4942 34.9701 12.0691 34.1464 12.3031L30.3852 13.3716C29.4378 13.6408 28.4186 13.4277 27.6583 12.8016L24.3225 10.0546C23.2693 9.18724 21.7635 9.13983 20.6578 9.9392L16.6397 12.8441C15.4401 13.7113 15.0524 15.3239 15.7266 16.6417L17.0707 19.2689C17.5727 20.2501 17.4963 21.4275 16.8717 22.3355L14.1784 26.251C13.7101 26.9318 12.9816 27.3893 12.1649 27.5156L8.34096 28.1066C7.04292 28.3073 6.02632 29.329 5.83218 30.628L5.12917 35.3319C4.92012 36.7307 5.71638 38.0854 7.04015 38.5833L10.8722 40.0245C11.852 40.393 12.5689 41.2456 12.7637 42.2742L13.5483 46.4167C13.7298 47.3751 13.4341 48.362 12.7553 49.0626L10.6213 51.2649C9.55607 52.3644 9.48951 54.0896 10.4669 55.2679L13.8893 59.3936C14.7479 60.4287 16.1904 60.7659 17.4188 60.2188L20.8846 58.6752C21.7485 58.2905 22.7433 58.3356 23.5688 58.797L27.5817 61.0399C28.3692 61.48 28.9168 62.2511 29.0728 63.1395L29.7938 67.2437C30.0172 68.515 31.0286 69.501 32.3052 69.6917L36.9562 70.3869C38.3 70.5877 39.611 69.8603 40.1518 68.6139L41.6519 65.1565C42.0366 64.2697 42.8251 63.6227 43.7699 63.4184L48.2117 62.4579C49.102 62.2654 50.0315 62.4878 50.7383 63.0625L54.0548 65.7591C55.0981 66.6073 56.5783 66.6578 57.677 65.8826L61.9405 62.8742C63.1138 62.0463 63.5359 60.5031 62.9473 59.1933L61.3128 55.5562C60.8757 54.5836 60.9877 53.4521 61.607 52.5841L63.761 49.565C64.2828 48.8336 65.105 48.3746 66.0014 48.3142L70.203 48.0311C71.6093 47.9363 72.76 46.8753 72.9683 45.4813L73.6626 40.8359C73.8616 39.5041 73.1489 38.2029 71.9195 37.6535L67.8458 35.8331C67.0263 35.4669 66.4138 34.753 66.1765 33.8874L64.9781 29.5164C64.6925 28.4745 64.9891 27.3595 65.7547 26.5972L67.7845 24.5762C68.9009 23.4647 68.9674 21.6791 67.9368 20.4876L64.3712 16.3655C63.476 15.3307 61.9941 15.0326 60.7685 15.6409L57.6343 17.1965C56.7575 17.6317 55.7235 17.6118 54.8642 17.1431Z" fill="#9C8878" stroke="black" stroke-width="2" stroke-linejoin="round"/>
<path d="M54.2034 40.2121C53.0394 48.0007 45.4658 53.4007 37.2062 52.1663C28.9467 50.9319 23.2829 43.5535 24.4469 35.7649C25.6109 27.9763 33.1845 22.5762 41.4441 23.8106C49.7037 25.045 55.3674 32.4234 54.2034 40.2121Z" fill="#35355D" stroke="black" stroke-width="2"/>
</svg>
