<svg width="141" height="140" viewBox="0 0 141 140" fill="none" xmlns="http://www.w3.org/2000/svg">
<path d="M103.131 46.9705L98.5252 41.7162C97.3571 40.3837 96.9816 38.5324 97.5381 36.8501L98.992 32.4549C99.7559 30.1455 98.747 27.6214 96.6016 26.4749L89.9513 22.9208C88.0082 21.8823 85.6143 22.2381 84.0572 23.7969L79.7468 28.1119C78.7417 29.1181 77.3556 29.6487 75.9355 29.5708L70.4225 29.2684C68.7418 29.1762 67.2202 28.2445 66.374 26.7894L63.3899 21.6577C62.2215 19.6484 59.8225 18.7093 57.6004 19.3913L50.8372 21.4673C48.5289 22.1758 47.0567 24.4327 47.3385 26.8307L47.8387 31.0871C48.0479 32.8675 47.2879 34.6238 45.8467 35.69L40.0987 39.9429C38.9873 40.7652 37.5852 41.0906 36.2253 40.8419L30.8715 39.8628C28.733 39.4717 26.5869 40.5072 25.5622 42.4245L22.2392 48.6425C21.1334 50.7116 21.6149 53.2713 23.3968 54.7971L27.709 58.4896C29.0381 59.6277 29.6756 61.3778 29.3898 63.1041L28.3589 69.331C28.0997 70.8962 27.1132 72.2456 25.7003 72.9672L21.7196 75.0004C19.4944 76.1369 18.4498 78.7416 19.2731 81.1007L21.801 88.3438C22.5563 90.5079 24.6862 91.8813 26.9691 91.6762L32.1029 91.2151C33.7125 91.0705 35.2927 91.7127 36.345 92.9392L40.6139 97.9147C41.5917 99.0544 42.0056 100.573 41.7411 102.051L40.6646 108.067C40.2829 110.2 41.3186 112.337 43.2297 113.358L48.9283 116.403C50.9371 117.477 53.4175 117.057 54.9612 115.383L58.6775 111.351C59.7665 110.17 61.3568 109.584 62.952 109.776L69.3805 110.551C70.9264 110.737 72.2973 111.633 73.0886 112.974L76.0837 118.051C77.2479 120.024 79.6043 120.953 81.8021 120.306L88.9816 118.193C91.2285 117.531 92.715 115.398 92.5583 113.061L92.1619 107.153C92.0459 105.423 92.8342 103.756 94.2451 102.749L98.7235 99.5511C99.9498 98.6754 101.506 98.3995 102.958 98.8001L108.635 100.366C110.889 100.987 113.272 99.9642 114.374 97.9023L117.65 91.7728C118.701 89.8057 118.322 87.3802 116.721 85.8272L112.191 81.4323C111.113 80.387 110.562 78.9129 110.69 77.4172L111.27 70.6367C111.42 68.8855 112.478 67.3417 114.057 66.5702L117.769 64.757C120.08 63.628 121.158 60.9298 120.26 58.5194L117.544 51.2262C116.73 49.0408 114.514 47.7082 112.202 48.0146L107.548 48.6313C105.89 48.8509 104.233 48.2276 103.131 46.9705Z" fill="#786A5E" stroke="black" stroke-width="4" stroke-linejoin="round"/>
<path d="M89.6781 80.6175C83.9566 91.3233 70.4603 95.3319 59.5044 89.4767C48.5484 83.6215 44.3815 70.1733 50.103 59.4675C55.8245 48.7616 69.3208 44.7531 80.2767 50.6082C91.2327 56.4634 95.3996 69.9116 89.6781 80.6175Z" fill="#35355D" stroke="black" stroke-width="4"/>
</svg>
