<svg width="78" height="79" viewBox="0 0 78 79" fill="none" xmlns="http://www.w3.org/2000/svg">
<path d="M54.3224 17.4891L50.1296 15.1033C49.2095 14.5798 48.6335 13.6102 48.6137 12.5519L48.5472 8.98657C48.5199 7.52243 47.4395 6.29196 45.9911 6.07551L40.7664 5.29467C39.4512 5.09809 38.1634 5.79091 37.6027 6.99682L35.7261 11.0327C35.3676 11.8037 34.6988 12.3864 33.8859 12.6358L30.2152 13.7622C29.2274 14.0653 28.1532 13.8388 27.3719 13.1627L24.2267 10.4408C23.1511 9.50996 21.5696 9.46247 20.4401 10.3271L16.3478 13.4596C15.22 14.3229 14.8522 15.8587 15.4664 17.1392L16.932 20.1949C17.3869 21.1433 17.3119 22.2606 16.7343 23.1397L13.9207 27.4218C13.4639 28.1171 12.7388 28.5914 11.9188 28.7316L8.10427 29.3834C6.8269 29.6016 5.83406 30.6154 5.64251 31.8971L4.86452 37.1027C4.65739 38.4886 5.43736 39.8334 6.74325 40.3417L10.5285 41.8153C11.5091 42.1971 12.2181 43.0647 12.3967 44.1018L13.1761 48.6282C13.3341 49.5455 13.0573 50.4841 12.427 51.1689L10.0602 53.7407C9.06436 54.8227 8.9996 56.467 9.90722 57.6239L13.3296 61.9865C14.1958 63.0906 15.7117 63.4468 16.9789 62.8439L20.2694 61.2783C21.165 60.8522 22.2133 60.8963 23.07 61.3961L26.9634 63.6675C27.7404 64.1208 28.2729 64.8989 28.4143 65.7873L29.1148 70.1895C29.3205 71.4817 30.34 72.4916 31.6341 72.685L36.1386 73.3583C37.4971 73.5613 38.8199 72.8158 39.3498 71.5485L40.9229 67.7865C41.2937 66.8997 42.067 66.2442 43.0025 66.0238L47.3464 65.0001C48.2769 64.7809 49.2562 65.0182 49.9831 65.6392L53.1149 68.3145C54.1811 69.2254 55.7362 69.276 56.8595 68.4365L61.1885 65.2009C62.292 64.3762 62.6919 62.9059 62.1583 61.6358L60.43 57.5224C60.0361 56.585 60.1439 55.5119 60.7162 54.6715L62.9832 51.3431C63.4949 50.5918 64.3197 50.113 65.2259 50.0413L69.3857 49.7119C70.7777 49.6017 71.9096 48.5457 72.116 47.1647L72.8849 42.0196C73.0816 40.7037 72.3881 39.4156 71.1814 38.8552L67.1461 36.9813C66.3269 36.6009 65.7227 35.8717 65.5012 34.996L64.2978 30.2383C64.0449 29.2385 64.3233 28.1789 65.035 27.4325L67.3159 25.0403C68.3609 23.9443 68.4253 22.2415 67.4661 21.0697L63.9011 16.7147C62.9966 15.6099 61.4388 15.2956 60.1767 15.9633L57.209 17.5334C56.3025 18.013 55.2138 17.9963 54.3224 17.4891Z" fill="#9C8878" stroke="black" stroke-width="2" stroke-linejoin="round"/>
<path d="M53.5464 41.6639C52.3158 49.8977 44.712 55.5686 36.5798 54.3533C28.4476 53.1379 22.8342 45.4916 24.0647 37.2578C25.2953 29.0239 32.899 23.353 41.0312 24.5684C49.1634 25.7838 54.7769 33.43 53.5464 41.6639Z" fill="#35355D" stroke="black" stroke-width="2"/>
</svg>
