<svg width="88" height="85" viewBox="0 0 88 85" fill="none" xmlns="http://www.w3.org/2000/svg">
<path d="M60.7418 16.9984L54.949 14.3057C53.9819 13.8561 53.3262 12.927 53.2267 11.8652L52.7914 7.22176C52.6555 5.7723 51.4986 4.62959 50.0476 4.51162L42.8168 3.92374C41.5051 3.8171 40.2771 4.57778 39.7883 5.79966L37.7018 11.0156C37.3841 11.8097 36.7426 12.4305 35.9384 12.7219L31.1014 14.4746C30.1676 14.8129 29.1268 14.6672 28.3219 14.0853L23.6261 10.691C22.5122 9.88588 20.9937 9.94061 19.9407 10.8239L14.7341 15.1912C13.608 16.1357 13.3321 17.7569 14.0822 19.0208L16.312 22.7778C16.87 23.7179 16.8724 24.8872 16.3182 25.8296L13.1473 31.2221C12.7279 31.9354 12.0325 32.4438 11.2256 32.627L6.14068 33.7817C4.86276 34.0719 3.92107 35.158 3.81488 36.4641L3.2824 43.0136C3.16797 44.421 4.05055 45.7177 5.40186 46.1275L10.7462 47.7483C11.749 48.0525 12.5204 48.8578 12.7812 49.8727L14.1875 55.347C14.4283 56.2842 14.2023 57.2799 13.5805 58.0213L10.7 61.4559C9.723 62.6208 9.77188 64.3323 10.8137 65.4395L15.8046 70.7437C16.7331 71.7304 18.2077 71.9723 19.4028 71.334L23.9475 68.9068C24.7886 68.4575 25.7933 68.4349 26.6538 68.8459L32.0275 71.4125C32.8412 71.8012 33.4369 72.5352 33.6497 73.4115L34.9814 78.8942C35.2868 80.1515 36.3639 81.0714 37.6536 81.1762L43.9811 81.6906C45.338 81.801 46.599 80.9838 47.0527 79.7003L48.7929 74.7774C49.1148 73.8668 49.8554 73.1668 50.7827 72.8968L56.4511 71.2463C57.3331 70.9895 58.2841 71.1509 59.032 71.6844L63.6787 74.9991C64.7815 75.7857 66.2746 75.7358 67.3223 74.8773L72.7951 70.3928C73.8979 69.4892 74.2124 67.9342 73.5473 66.673L70.9485 61.7447C70.4552 60.8093 70.4909 59.6831 71.0425 58.7808L73.6614 54.4962C74.131 53.7279 74.9208 53.2112 75.8128 53.0887L81.4315 52.3168C82.8257 52.1253 83.8993 50.9905 84.0134 49.5878L84.541 43.0977C84.6499 41.7583 83.8548 40.5099 82.595 40.0422L77.0192 37.9721C76.1767 37.6593 75.5188 36.9853 75.2265 36.1355L73.271 30.4511C72.9224 29.4376 73.1409 28.3152 73.8442 27.5065L76.666 24.2618C77.6928 23.0811 77.6397 21.3096 76.5442 20.1925L71.3513 14.8975C70.3861 13.9133 68.8743 13.7136 67.6866 14.4133L63.5292 16.8627C62.6789 17.3636 61.6367 17.4144 60.7418 16.9984Z" fill="#C1AA97" stroke="black" stroke-width="2" stroke-linejoin="round"/>
<path d="M61.7124 44.3895C60.9417 53.8692 52.3381 60.9659 42.4263 60.1601C32.5146 59.3542 25.1703 50.961 25.9411 41.4812C26.7118 32.0014 35.3154 24.9048 45.2271 25.7106C55.1389 26.5164 62.4831 34.9097 61.7124 44.3895Z" fill="#35355D" stroke="black" stroke-width="2"/>
</svg>
