<svg width="131" height="130" viewBox="0 0 131 130" fill="none" xmlns="http://www.w3.org/2000/svg">
<path d="M90.261 23.6371L82.029 19.7999C80.4299 19.0545 79.342 17.5216 79.1663 15.7661L78.475 8.86204C78.2319 6.43352 76.271 4.53541 73.8358 4.37145L63.7716 3.6938C61.5602 3.5449 59.5146 4.86972 58.746 6.94868L55.8188 14.8663C55.3274 16.1955 54.295 17.2538 52.9784 17.7779L46.2233 20.4671C44.6234 21.104 42.8083 20.8728 41.4192 19.8552L34.9772 15.1361C33.0647 13.7351 30.4311 13.8698 28.6715 15.4586L21.3475 22.0721C19.5907 23.6584 19.1869 26.2593 20.3802 28.3036L23.7109 34.0096C24.5946 35.5236 24.6209 37.3899 23.7801 38.9281L19.1881 47.33C18.5231 48.5467 17.3827 49.4326 16.0394 49.7761L8.88375 51.606C6.79128 52.1411 5.27892 53.9593 5.13382 56.1142L4.46032 66.117C4.30341 68.4473 5.7807 70.5758 8.01869 71.2439L15.5015 73.4779C17.1821 73.9796 18.4769 75.3252 18.9137 77.0239L21.0663 85.3963C21.4525 86.8987 21.1196 88.4952 20.165 89.718L15.9907 95.0655C14.4826 96.9973 14.5971 99.7376 16.2611 101.537L23.4438 109.304C25.0318 111.021 27.598 111.408 29.6217 110.235L35.7176 106.703C37.1479 105.874 38.8953 105.805 40.386 106.52L48.0238 110.181C49.3758 110.83 50.3656 112.05 50.7204 113.507L52.7223 121.725C53.2384 123.844 55.0684 125.384 57.2444 125.531L65.9737 126.118C68.2579 126.272 70.3547 124.855 71.0638 122.678L73.4824 115.254C73.9786 113.731 75.1746 112.537 76.699 112.045L84.6881 109.463C86.2042 108.973 87.863 109.235 89.1544 110.169L95.5484 114.79C97.4427 116.159 100.033 116.033 101.785 114.487L109.509 107.672C111.231 106.153 111.697 103.656 110.639 101.618L106.717 94.0643C105.936 92.5603 105.97 90.7632 106.807 89.2898L110.571 82.6684C111.319 81.3512 112.625 80.4444 114.12 80.2029L121.992 78.9313C124.289 78.5602 126.027 76.6532 126.183 74.3312L126.85 64.4302C126.999 62.2178 125.673 60.1715 123.593 59.4037L115.665 56.4774C114.253 55.9561 113.151 54.8263 112.665 53.4016L109.694 44.6966C109.139 43.0699 109.459 41.2721 110.54 39.9361L114.616 34.8998C116.204 32.9382 116.081 30.1007 114.33 28.2838L106.87 20.5459C105.218 18.8327 102.588 18.521 100.581 19.8006L95.0621 23.3209C93.621 24.24 91.8102 24.3593 90.261 23.6371Z" fill="#9C8878" stroke="black" stroke-width="4" stroke-linejoin="round"/>
<path d="M91.9957 66.8794C90.9998 81.6706 78.3235 92.8292 63.72 91.8459C49.1164 90.8626 38.0505 78.1054 39.0464 63.3142C40.0423 48.523 52.7186 37.3645 67.3221 38.3477C81.9257 39.331 92.9916 52.0882 91.9957 66.8794Z" fill="#35355D" stroke="black" stroke-width="4"/>
</svg>
