<svg width="130" height="124" viewBox="0 0 130 124" fill="none" xmlns="http://www.w3.org/2000/svg">
<path d="M89.6126 22.7735L81.2733 19.0679C79.6467 18.3451 78.527 16.812 78.3334 15.0426L77.6534 8.82858C77.3898 6.41969 75.4367 4.54657 73.0189 4.38378L62.8193 3.69701C60.6358 3.54999 58.6105 4.83997 57.8205 6.8808L55.0022 14.1617C54.487 15.4926 53.4277 16.5399 52.091 17.0399L45.2478 19.5995C43.7103 20.1746 41.9884 19.9584 40.6408 19.021L33.9493 14.3661C32.0826 13.0676 29.5747 13.1922 27.8459 14.6694L20.698 20.7772C18.8224 22.3799 18.3961 25.111 19.694 27.2091L22.7265 32.1108C23.6929 33.6729 23.725 35.6391 22.81 37.2318L18.4136 44.8855C17.7275 46.0797 16.5792 46.9381 15.2396 47.2581L8.1381 48.9545C6.00891 49.4631 4.45814 51.2976 4.31107 53.4818L3.70562 62.4738C3.54727 64.8256 5.05298 66.9686 7.31925 67.6169L14.7915 69.7543C16.469 70.2341 17.775 71.5536 18.2376 73.236L20.329 80.8428C20.76 82.4104 20.4019 84.0897 19.3689 85.3452L15.5844 89.9448C13.9632 91.9151 14.0857 94.7899 15.8684 96.6152L22.945 103.861C24.511 105.464 26.9528 105.83 28.9196 104.755L35.2366 101.303C36.6197 100.547 38.2783 100.488 39.7119 101.143L47.4724 104.688C48.8399 105.313 49.8537 106.52 50.233 107.974L52.2111 115.562C52.7538 117.644 54.5671 119.145 56.7135 119.29L65.5912 119.888C67.8505 120.04 69.9301 118.654 70.6601 116.511L72.9688 109.732C73.4882 108.207 74.7107 107.025 76.2526 106.558L84.3341 104.111C85.787 103.671 87.3613 103.915 88.6129 104.774L95.2479 109.328C97.0956 110.596 99.5614 110.48 101.282 109.044L108.842 102.733C110.68 101.199 111.172 98.5781 110.018 96.4818L106.355 89.8321C105.497 88.2755 105.531 86.3807 106.442 84.8551L110.019 78.8692C110.787 77.5838 112.091 76.7103 113.572 76.4888L121.433 75.3135C123.756 74.9661 125.524 73.0482 125.682 70.7043L126.281 61.8107C126.432 59.5715 125.072 57.5062 122.956 56.7596L115.053 53.9721C113.642 53.4744 112.528 52.3712 112.017 50.9653L109.132 43.0297C108.517 41.3375 108.859 39.4451 110.028 38.0755L113.683 33.7925C115.387 31.7953 115.257 28.8201 113.384 26.98L106.032 19.7575C104.405 18.1593 101.903 17.8644 99.9494 19.0404L94.2214 22.4881C92.8237 23.3295 91.1034 23.436 89.6126 22.7735Z" fill="#9C8878" stroke="black" stroke-width="4" stroke-linejoin="round"/>
<path d="M91.3912 63.7625C90.457 77.6373 77.8956 88.243 63.1555 87.2505C48.4154 86.258 37.3892 74.0642 38.3234 60.1893C39.2576 46.3145 51.819 35.7089 66.5591 36.7013C81.2992 37.6938 92.3254 49.8877 91.3912 63.7625Z" fill="#35355D" stroke="black" stroke-width="4"/>
</svg>
