<svg width="148" height="148" viewBox="0 0 148 148" fill="none" xmlns="http://www.w3.org/2000/svg">
<path d="M100.137 23.5645L89.1983 19.3347C87.5528 18.6984 86.3644 17.2421 86.0711 15.5024L84.4976 6.16879C84.0918 3.76209 82.0078 2 79.5671 2H66.2248C64.0083 2 62.0564 3.45925 61.4291 5.58515L58.3054 16.1731C57.9044 17.5323 56.9454 18.6575 55.667 19.269L47.1126 23.3601C45.5591 24.1031 43.7326 23.9943 42.2782 23.0723L33.2761 17.3653C31.2737 16.0959 28.6552 16.4072 27.0063 18.1107L17.8853 27.5338C16.239 29.2346 16.011 31.8568 17.3389 33.8162L22.4105 41.3C23.3939 42.7512 23.5455 44.6115 22.81 46.2028L17.6901 57.2797C17.1084 58.5383 16.0301 59.4989 14.7129 59.9319L5.4386 62.9805C3.3868 63.655 2 65.5706 2 67.7305V80.9366C2 83.2722 3.61694 85.2966 5.89476 85.8129L16.0835 88.1222C17.794 88.5099 19.1764 89.7655 19.7262 91.431L23.224 102.025C23.7103 103.498 23.4854 105.114 22.6151 106.398L17.4443 114.028C16.0694 116.057 16.3677 118.783 18.1488 120.467L28.3049 130.066C30.0047 131.673 32.5911 131.886 34.5314 130.58L42.424 125.268C43.7953 124.345 45.5342 124.159 47.0695 124.772L57.1938 128.813C58.5863 129.369 59.6558 130.521 60.1077 131.95L63.4448 142.507C64.1021 144.586 66.0314 146 68.2123 146H79.9018C82.191 146 84.1879 144.445 84.7492 142.226L87.2936 132.164C87.6864 130.611 88.7996 129.34 90.2874 128.746L100.343 124.732C101.823 124.142 103.495 124.292 104.846 125.136L113.742 130.696C115.724 131.935 118.299 131.635 119.944 129.974L129.503 120.323C131.119 118.692 131.416 116.17 130.224 114.208L124.385 104.602C123.505 103.154 123.418 101.358 124.155 99.832L128.462 90.9052C129.121 89.5407 130.362 88.5483 131.838 88.2068L142.127 85.8262C144.394 85.3016 146 83.2821 146 80.9549V67.8507C146 65.6333 144.54 63.6808 142.412 63.0544L131.786 59.9251C130.342 59.4999 129.166 58.4467 128.586 57.0579L124.039 46.1866C123.376 44.6008 123.574 42.7856 124.563 41.3799L129.71 34.0668C131.162 32.0029 130.849 29.1801 128.979 27.485L118.444 17.9332C116.681 16.3348 114.035 16.2005 112.119 17.612L104.906 22.9264C103.53 23.9403 101.732 24.1809 100.137 23.5645Z" fill="#C1AA97" stroke="black" stroke-width="4" stroke-linejoin="round"/>
<path d="M105.509 74.1735C105.509 91.8674 91.3071 106.178 73.8286 106.178C56.3502 106.178 42.1484 91.8674 42.1484 74.1735C42.1484 56.4796 56.3502 42.1687 73.8286 42.1687C91.3071 42.1687 105.509 56.4796 105.509 74.1735Z" fill="#35355D" stroke="black" stroke-width="4"/>
</svg>
