<svg width="88" height="89" viewBox="0 0 88 89" fill="none" xmlns="http://www.w3.org/2000/svg">
<path d="M60.643 17.5058L54.8918 14.727C53.9387 14.2665 53.2988 13.3378 53.208 12.2832L52.774 7.24282C52.6484 5.78382 51.4878 4.62871 50.0282 4.51004L42.8458 3.9261C41.5203 3.81833 40.282 4.5961 39.8036 5.83696L37.6501 11.422C37.3442 12.2154 36.7161 12.8417 35.9218 13.1452L31.1144 14.9821C30.1492 15.3509 29.0622 15.197 28.2373 14.5749L23.6553 11.1194C22.5196 10.2629 20.9385 10.3218 19.8695 11.2604L14.5557 15.9264C13.4885 16.8635 13.2246 18.4205 13.9235 19.6568L16.2986 23.859C16.8162 24.7747 16.8164 25.8945 16.2992 26.8104L13.016 32.6241C12.6069 33.3485 11.9154 33.8705 11.1066 34.0654L5.97939 35.301C4.71958 35.6046 3.7971 36.6828 3.69209 37.9744L3.11327 45.0938C2.99971 46.4906 3.86825 47.7799 5.20534 48.1994L10.5682 49.8819C11.5723 50.1969 12.3379 51.015 12.5857 52.0378L14.0171 57.9443C14.2363 58.8489 14.0233 59.8039 13.4404 60.5296L10.3512 64.3756C9.43036 65.5221 9.4762 67.167 10.4595 68.2603L15.5088 73.8751C16.4472 74.9185 17.9836 75.172 19.2075 74.4853L23.6572 71.9886C24.5222 71.5033 25.5711 71.4768 26.4595 71.918L31.783 74.5615C32.5887 74.9616 33.1723 75.7022 33.373 76.5791L34.7122 82.4294C35.0042 83.7049 36.0893 84.644 37.3935 84.7501L43.6645 85.2599C45.0336 85.3712 46.3034 84.5385 46.7469 83.2385L48.554 77.9421C48.8644 77.0323 49.5919 76.3264 50.5106 76.0436L56.1486 74.3078C57.0623 74.0265 58.0553 74.1975 58.8223 74.7683L63.3593 78.1444C64.4843 78.9816 66.0393 78.9277 67.1036 78.0146L72.6777 73.2324C73.7233 72.3354 74.0235 70.8416 73.4058 69.6103L70.6819 64.1805C70.2259 63.2717 70.2613 62.1938 70.776 61.3169L73.5007 56.6738C73.9608 55.8898 74.7516 55.3567 75.6509 55.2242L81.2913 54.3933C82.6727 54.1899 83.7311 53.0602 83.8442 51.6685L84.4181 44.61C84.5259 43.2839 83.7474 42.0452 82.5058 41.5672L76.9051 39.4109C76.0622 39.0864 75.4104 38.3993 75.1306 37.5406L73.137 31.4216C72.8176 30.4411 73.0241 29.3652 73.684 28.5727L76.7305 24.914C77.6994 23.7504 77.6493 22.0471 76.6136 20.9424L71.3606 15.3398C70.384 14.2982 68.8086 14.0893 67.5942 14.8403L63.5261 17.3561C62.6538 17.8955 61.5664 17.952 60.643 17.5058Z" fill="#C1AA97" stroke="black" stroke-width="2" stroke-linejoin="round"/>
<path d="M61.5677 46.1791C60.7556 56.1669 52.082 63.5954 42.213 62.7931C32.344 61.9907 24.9843 53.2586 25.7963 43.2708C26.6083 33.2831 35.282 25.8545 45.151 26.6569C55.0199 27.4593 62.3797 36.1913 61.5677 46.1791Z" fill="#35355D" stroke="black" stroke-width="2"/>
</svg>
