<svg width="142" height="142" viewBox="0 0 142 142" fill="none" xmlns="http://www.w3.org/2000/svg">
<path d="M104.646 47.0526L100.132 41.8111C98.9805 40.4744 98.6188 38.6298 99.1801 36.9573L100.73 32.3391C101.506 30.0253 100.499 27.4889 98.3465 26.3385L91.7993 22.8396C89.8445 21.7948 87.4352 22.1618 85.88 23.7411L81.4484 28.2415C80.4541 29.2512 79.078 29.7916 77.6623 29.7283L72.2066 29.4842C70.4863 29.4072 68.9267 28.4504 68.0785 26.9517L65.2228 21.9054C64.0552 19.8421 61.599 18.8824 59.3418 19.6076L52.4755 21.8138C50.2219 22.5378 48.7848 24.743 49.0324 27.097L49.5151 31.6876C49.6985 33.4311 48.9553 35.1432 47.5566 36.2L41.6326 40.6757C40.5263 41.5115 39.1226 41.8504 37.7568 41.6114L32.3968 40.6736C30.2693 40.3014 28.1433 41.3372 27.1253 43.2421L23.6266 49.7888C22.5257 51.8487 22.9976 54.3963 24.7632 55.9252L29.0348 59.6244C30.3607 60.7726 30.988 62.5315 30.688 64.2595L29.5607 70.7516C29.2953 72.28 28.3355 73.5986 26.9628 74.321L22.7213 76.5529C20.5525 77.6942 19.5305 80.2393 20.3079 82.5636L22.7822 89.9617C23.524 92.1798 25.7045 93.5872 28.0313 93.3499L33.0313 92.84C34.6759 92.6723 36.297 93.3283 37.3622 94.5923L41.5384 99.5485C42.5046 100.695 42.9052 102.215 42.6299 103.688L41.4694 109.902C41.069 112.045 42.1043 114.201 44.0278 115.229L49.6224 118.219C51.6414 119.298 54.1354 118.868 55.6765 117.175L59.5175 112.956C60.5959 111.771 62.1767 111.175 63.7689 111.353L70.1362 112.063C71.7197 112.239 73.1243 113.16 73.9179 114.541L76.7876 119.537C77.9517 121.564 80.3646 122.514 82.5979 121.825L89.874 119.579C92.0679 118.902 93.5187 116.817 93.3917 114.525L93.0446 108.256C92.951 106.564 93.7207 104.94 95.0896 103.941L99.7246 100.558C100.948 99.6653 102.511 99.3753 103.974 99.7698L109.629 101.295C111.876 101.901 114.244 100.877 115.341 98.8242L118.792 92.3674C119.837 90.4118 119.469 88.0013 117.888 86.4463L113.397 82.0278C112.323 80.9721 111.783 79.4891 111.925 77.9905L112.595 70.9399C112.758 69.2288 113.788 67.7211 115.323 66.9477L119.309 64.939C121.563 63.8033 122.617 61.1661 121.767 58.7897L119.104 51.3449C118.303 49.1042 116.033 47.7389 113.678 48.0808L109.153 48.7377C107.462 48.9832 105.762 48.3477 104.646 47.0526Z" fill="#786A5E" stroke="black" stroke-width="4" stroke-linejoin="round"/>
<path d="M90.846 81.4329C84.965 92.4371 71.382 96.6093 60.5238 90.8064C49.6657 85.0035 45.5866 71.3922 51.4676 60.388C57.3485 49.3837 70.9316 45.2115 81.7897 51.0144C92.6479 56.8173 96.727 70.4286 90.846 81.4329Z" fill="#35355D" stroke="black" stroke-width="4"/>
</svg>
