<svg width="81" height="81" viewBox="0 0 81 81" fill="none" xmlns="http://www.w3.org/2000/svg">
<path d="M60.4396 28.955L58.3064 26.0285C57.6828 25.1731 57.5562 24.0525 57.9732 23.0795L58.9255 20.8576C59.5024 19.5116 59.0232 17.9458 57.7919 17.1532L54.5941 15.0948C53.4758 14.375 52.0172 14.4773 51.0103 15.3461L48.5347 17.4826C47.8909 18.0381 47.0417 18.2943 46.1982 18.1876L43.3862 17.8319C42.3612 17.7022 41.475 17.0542 41.0407 16.1167L39.803 13.4452C39.205 12.1544 37.7828 11.4611 36.3977 11.7851L32.8163 12.6227C31.4334 12.9461 30.4668 14.195 30.5004 15.6148L30.5544 17.897C30.5793 18.9486 30.0516 19.9363 29.1638 20.5003L25.8471 22.6071C25.1449 23.0531 24.2889 23.1876 23.4838 22.9782L20.784 22.2764C19.5298 21.9503 18.208 22.4664 17.5066 23.5561L15.4403 26.7662C14.6818 27.9445 14.8401 29.491 15.8216 30.4912L17.8268 32.5345C18.5639 33.2856 18.8535 34.368 18.59 35.3868L17.726 38.728C17.493 39.6291 16.855 40.371 15.9989 40.7363L13.8015 41.6738C12.449 42.2509 11.7141 43.7233 12.066 45.151L13.0235 49.0361C13.3593 50.3987 14.5948 51.3464 15.9978 51.3176L18.5192 51.2659C19.5108 51.2456 20.4484 51.7167 21.0239 52.5244L22.9984 55.2955C23.5204 56.0281 23.6861 56.9563 23.4498 57.8243L22.591 60.9793C22.2473 62.2419 22.7616 63.5815 23.8619 64.2898L26.5678 66.0316C27.7227 66.775 29.2351 66.6391 30.239 65.7016L32.3655 63.7159C33.0681 63.0599 34.0424 62.7802 34.9859 62.9638L38.282 63.6051C39.2204 63.7876 40.0156 64.4065 40.4231 65.2713L41.6746 67.9281C42.2723 69.1967 43.6691 69.8821 45.0382 69.5784L48.8576 68.7313C50.2026 68.433 51.1715 67.257 51.207 65.8799L51.2902 62.6599C51.3164 61.6435 51.8557 60.7095 52.7229 60.1786L55.2677 58.6209C56.043 58.1463 56.9917 58.0489 57.8473 58.3559L60.6681 59.3683C61.9824 59.8399 63.4482 59.3425 64.204 58.1684L66.2372 55.0097C66.9574 53.891 66.8546 52.4316 65.9849 51.4248L63.8571 48.9617C63.2666 48.2781 63.0156 47.365 63.1736 46.4757L63.8265 42.801C64.0069 41.7856 64.6962 40.9341 65.6518 40.5462L67.6769 39.724C69.08 39.1545 69.8386 37.6286 69.4458 36.1661L68.3953 32.2552C68.0249 30.8763 66.734 29.9494 65.309 30.0394L63.0529 30.1818C62.0293 30.2464 61.0437 29.7837 60.4396 28.955Z" fill="#786A5E" stroke="black" stroke-width="2" stroke-linejoin="round"/>
<path d="M51.3758 47.5999C47.5756 53.5036 39.7657 55.2258 33.9379 51.4745C28.1101 47.7232 26.4438 39.9011 30.244 33.9974C34.0442 28.0937 41.8541 26.3715 47.6819 30.1228C53.5097 33.8742 55.176 41.6962 51.3758 47.5999Z" fill="#35355D" stroke="black" stroke-width="2"/>
</svg>
