<svg width="149" height="142" viewBox="0 0 149 142" fill="none" xmlns="http://www.w3.org/2000/svg">
<path d="M100.485 22.7004L89.4484 18.6214C87.7813 18.0053 86.5665 16.5504 86.2577 14.8L84.7287 6.13147C84.3073 3.742 82.2311 2 79.8047 2H66.328C64.1347 2 62.1974 3.42948 61.5505 5.52527L58.476 15.4853C58.0556 16.8475 57.0737 17.9654 55.7771 18.558L47.1293 22.511C45.6238 23.1991 43.8753 23.0976 42.4596 22.2398L33.2396 16.6531C31.2805 15.466 28.7653 15.7621 27.1354 17.3715L18.115 26.2786C16.372 27.9997 16.1325 30.7301 17.5493 32.7284L22.342 39.4877C23.3958 40.9741 23.5577 42.9162 22.7645 44.5565L17.756 54.9133C17.1556 56.1548 16.0691 57.0932 14.7534 57.5066L5.5013 60.4135C3.41763 61.0681 2 62.9995 2 65.1836V77.4294C2 79.7829 3.64126 81.8177 5.9414 82.316L16.1333 84.5239C17.8402 84.8937 19.2305 86.1273 19.8007 87.7781L23.2116 97.6524C23.7381 99.1767 23.4971 100.861 22.5643 102.177L17.662 109.091C16.1964 111.158 16.5088 113.995 18.389 115.693L28.4465 124.779C30.1222 126.293 32.6044 126.496 34.5035 125.274L42.5969 120.067C43.9335 119.207 45.5994 119.034 47.0844 119.601L57.3187 123.505C58.7229 124.041 59.8117 125.18 60.2836 126.607L63.5715 136.548C64.2486 138.596 66.1621 139.978 68.3186 139.978H80.1508C82.4197 139.978 84.4042 138.451 84.9845 136.257L87.4786 126.831C87.8904 125.274 89.0261 124.012 90.5301 123.438L100.684 119.564C102.115 119.018 103.717 119.158 105.031 119.943L114.136 125.382C116.075 126.54 118.548 126.256 120.173 124.688L129.642 115.55C131.352 113.9 131.664 111.275 130.389 109.27L124.803 100.485C123.857 98.9974 123.764 97.1219 124.558 95.5485L128.755 87.2361C129.431 85.8965 130.673 84.9315 132.139 84.6074L142.441 82.3291C144.731 81.8227 146.361 79.7925 146.361 77.4471V65.3005C146.361 63.0608 144.872 61.0943 142.716 60.4875L132.101 57.4999C130.659 57.0941 129.475 56.0633 128.875 54.6911L124.434 44.5418C123.718 42.9054 123.93 41.0113 124.989 39.5729L129.842 32.9821C131.388 30.8822 131.06 27.9466 129.09 26.2388L118.653 17.1952C116.917 15.6906 114.378 15.563 112.5 16.8858L105.097 22.0985C103.753 23.0455 102.028 23.2705 100.485 22.7004Z" fill="#C1AA97" stroke="black" stroke-width="4" stroke-linejoin="round"/>
<path d="M105.774 71.1553C105.774 87.9792 91.6198 101.738 74.0088 101.738C56.3979 101.738 42.2441 87.9792 42.2441 71.1553C42.2441 54.3315 56.3979 40.5725 74.0088 40.5725C91.6198 40.5725 105.774 54.3315 105.774 71.1553Z" fill="#35355D" stroke="black" stroke-width="4"/>
</svg>
