<svg width="81" height="81" viewBox="0 0 81 81" fill="none" xmlns="http://www.w3.org/2000/svg">
<path d="M59.8925 29.1135L57.6841 26.1387C57.0503 25.285 56.9158 24.1597 57.3304 23.1806L58.236 21.0422C58.8051 19.6982 58.3245 18.1397 57.0972 17.3497L53.7989 15.2266C52.6874 14.5111 51.2385 14.6075 50.2315 15.464L47.801 17.5312C47.151 18.0841 46.2963 18.3339 45.4509 18.2183L42.5717 17.8246C41.5711 17.6877 40.7064 17.0566 40.2711 16.1452L38.9475 13.3739C38.3464 12.1154 36.9574 11.4372 35.5954 11.737L32.0281 12.5224C30.6132 12.8338 29.6231 14.1119 29.675 15.5597L29.7513 17.6879C29.7899 18.7628 29.25 19.7761 28.3363 20.3437L25.0959 22.3567C24.3913 22.7944 23.5369 22.9208 22.7358 22.706L20.0049 21.9736C18.745 21.6358 17.4113 22.1507 16.7053 23.2475L14.7256 26.3229C13.9638 27.5065 14.1272 29.0606 15.1187 30.0598L17.175 32.1319C17.9145 32.8771 18.2106 33.9548 17.9557 34.9732L17.1466 38.207C16.9155 39.1304 16.2599 39.8894 15.3799 40.2523L13.309 41.1062C11.923 41.6777 11.1716 43.1846 11.5493 44.6354L12.5527 48.4899C12.8991 49.8207 14.1061 50.7456 15.4813 50.734L18.1213 50.7116C19.0909 50.7034 20.0047 51.1643 20.5743 51.949L22.6223 54.7697C23.1517 55.4988 23.3253 56.4272 23.0953 57.2983L22.2794 60.3877C21.9475 61.6448 22.463 62.9726 23.5562 63.6763L26.3591 65.4805C27.5082 66.2201 29.0119 66.0898 30.0165 65.1634L32.0942 63.2475C32.8029 62.594 33.7825 62.3209 34.727 62.5134L38.0951 63.1999C39.0105 63.3865 39.7868 63.9889 40.1948 64.8294L41.5307 67.5814C42.131 68.8181 43.495 69.4885 44.8409 69.2084L48.6508 68.4154C50.0266 68.1291 51.0193 66.926 51.0392 65.5208L51.0825 62.4629C51.0972 61.4228 51.6496 60.4645 52.5424 59.9306L55.0195 58.4492C55.7954 57.9851 56.7393 57.8958 57.5886 58.206L60.4587 59.2544C61.7762 59.7357 63.2514 59.2398 64.0106 58.0603L65.9576 55.0355C66.6819 53.9103 66.5734 52.4413 65.6915 51.4348L63.515 48.9507C62.9215 48.2732 62.6637 47.3649 62.813 46.4766L63.412 42.9109C63.5868 41.871 64.2947 40.9991 65.2766 40.6146L67.1678 39.8739C68.6048 39.3111 69.3804 37.7498 68.9607 36.2647L67.8635 32.3817C67.483 31.0352 66.2222 30.1305 64.8248 30.2013L62.4531 30.3214C61.4513 30.3722 60.4904 29.9189 59.8925 29.1135Z" fill="#786A5E" stroke="black" stroke-width="2" stroke-linejoin="round"/>
<path d="M51.0011 47.4694C47.2771 53.2547 39.4711 54.8965 33.5553 51.0885C27.6394 47.2805 25.9016 39.4953 29.6255 33.71C33.3495 27.9247 41.1555 26.2829 47.0714 30.0909C52.9872 33.8989 54.7251 41.6841 51.0011 47.4694Z" fill="#35355D" stroke="black" stroke-width="2"/>
</svg>
