<svg width="791" height="428" viewBox="0 0 791 428" fill="none" xmlns="http://www.w3.org/2000/svg">
<ellipse cx="18.0925" cy="74.7246" rx="18.0925" ry="18.8145" fill="#A259FF"/>
<ellipse cx="87.5241" cy="19.0254" rx="18.0925" ry="18.8145" fill="#A259FF"/>
<ellipse cx="286.919" cy="74.7246" rx="18.0925" ry="18.8145" fill="#A259FF"/>
<ellipse cx="149.28" cy="74.7246" rx="18.0925" ry="18.8145" fill="#A259FF"/>
<ellipse cx="212.723" cy="18.8145" rx="18.0925" ry="18.8145" fill="#A259FF"/>
<ellipse cx="355.739" cy="18.8145" rx="18.0925" ry="18.8145" fill="#A259FF"/>
<ellipse cx="424.559" cy="74.7246" rx="18.0925" ry="18.8145" fill="#A259FF"/>
<ellipse cx="18.0925" cy="183.191" rx="18.0925" ry="18.8145" fill="#A259FF"/>
<ellipse cx="87.5241" cy="127.492" rx="18.0925" ry="18.8145" fill="#A259FF"/>
<ellipse cx="286.919" cy="183.191" rx="18.0925" ry="18.8145" fill="#A259FF"/>
<ellipse cx="149.28" cy="183.191" rx="18.0925" ry="18.8145" fill="#A259FF"/>
<ellipse cx="212.723" cy="127.281" rx="18.0925" ry="18.8145" fill="#A259FF"/>
<ellipse cx="355.739" cy="127.281" rx="18.0925" ry="18.8145" fill="#A259FF"/>
<ellipse cx="424.559" cy="183.191" rx="18.0925" ry="18.8145" fill="#A259FF"/>
<ellipse cx="18.0925" cy="296.131" rx="18.0925" ry="18.8145" fill="#A259FF"/>
<ellipse cx="87.5241" cy="240.432" rx="18.0925" ry="18.8145" fill="#A259FF"/>
<ellipse cx="286.919" cy="296.131" rx="18.0925" ry="18.8145" fill="#A259FF"/>
<ellipse cx="149.28" cy="296.131" rx="18.0925" ry="18.8145" fill="#A259FF"/>
<ellipse cx="212.723" cy="240.221" rx="18.0925" ry="18.8145" fill="#A259FF"/>
<ellipse cx="355.739" cy="240.221" rx="18.0925" ry="18.8145" fill="#A259FF"/>
<ellipse cx="424.559" cy="296.131" rx="18.0925" ry="18.8145" fill="#A259FF"/>
<ellipse cx="18.0925" cy="406.836" rx="18.0925" ry="18.8145" fill="#A259FF"/>
<ellipse cx="87.5241" cy="351.137" rx="18.0925" ry="18.8145" fill="#A259FF"/>
<ellipse cx="286.919" cy="406.836" rx="18.0925" ry="18.8145" fill="#A259FF"/>
<ellipse cx="149.28" cy="406.836" rx="18.0925" ry="18.8145" fill="#A259FF"/>
<ellipse cx="212.723" cy="350.926" rx="18.0925" ry="18.8145" fill="#A259FF"/>
<ellipse cx="355.739" cy="350.926" rx="18.0925" ry="18.8145" fill="#A259FF"/>
<ellipse cx="411.092" cy="406.814" rx="18.0925" ry="18.8145" fill="#A259FF"/>
<ellipse cx="715.459" cy="23.0925" rx="18.0925" ry="18.8145" transform="rotate(90 715.459 23.0925)" fill="#A259FF"/>
<ellipse cx="771.158" cy="92.5241" rx="18.0925" ry="18.8145" transform="rotate(90 771.158 92.5241)" fill="#A259FF"/>
<ellipse cx="715.459" cy="291.919" rx="18.0925" ry="18.8145" transform="rotate(90 715.459 291.919)" fill="#A259FF"/>
<ellipse cx="715.459" cy="154.28" rx="18.0925" ry="18.8145" transform="rotate(90 715.459 154.28)" fill="#A259FF"/>
<ellipse cx="771.369" cy="217.723" rx="18.0925" ry="18.8145" transform="rotate(90 771.369 217.723)" fill="#A259FF"/>
<ellipse cx="771.369" cy="360.739" rx="18.0925" ry="18.8145" transform="rotate(90 771.369 360.739)" fill="#A259FF"/>
<ellipse cx="722.814" cy="409.092" rx="18.0925" ry="18.8145" transform="rotate(90 722.814 409.092)" fill="#A259FF"/>
<ellipse cx="602.519" cy="23.0925" rx="18.0925" ry="18.8145" transform="rotate(90 602.519 23.0925)" fill="#A259FF"/>
<ellipse cx="658.219" cy="92.5241" rx="18.0925" ry="18.8145" transform="rotate(90 658.219 92.5241)" fill="#A259FF"/>
<ellipse cx="614.816" cy="281.092" rx="18.0925" ry="18.8145" transform="rotate(90 614.816 281.092)" fill="#A259FF"/>
<ellipse cx="602.519" cy="154.28" rx="18.0925" ry="18.8145" transform="rotate(90 602.519 154.28)" fill="#A259FF"/>
<ellipse cx="658.432" cy="217.723" rx="18.0925" ry="18.8145" transform="rotate(90 658.432 217.723)" fill="#A259FF"/>
<ellipse cx="676.814" cy="361.092" rx="18.0925" ry="18.8145" transform="rotate(90 676.814 361.092)" fill="#A259FF"/>
<ellipse cx="576.816" cy="356.092" rx="18.0925" ry="18.8145" transform="rotate(90 576.816 356.092)" fill="#A259FF"/>
<ellipse cx="621.814" cy="408.092" rx="18.0925" ry="18.8145" transform="rotate(90 621.814 408.092)" fill="#A259FF"/>
<ellipse cx="491.816" cy="23.0925" rx="18.0925" ry="18.8145" transform="rotate(90 491.816 23.0925)" fill="#A259FF"/>
<ellipse cx="547.516" cy="92.5241" rx="18.0925" ry="18.8145" transform="rotate(90 547.516 92.5241)" fill="#A259FF"/>
<ellipse cx="483.814" cy="247.092" rx="18.0925" ry="18.8145" transform="rotate(90 483.814 247.092)" fill="#A259FF"/>
<ellipse cx="491.816" cy="154.28" rx="18.0925" ry="18.8145" transform="rotate(90 491.816 154.28)" fill="#A259FF"/>
<ellipse cx="547.727" cy="217.723" rx="18.0925" ry="18.8145" transform="rotate(90 547.727 217.723)" fill="#A259FF"/>
<ellipse cx="538.814" cy="313.092" rx="18.0925" ry="18.8145" transform="rotate(90 538.814 313.092)" fill="#A259FF"/>
<ellipse cx="510.814" cy="408.092" rx="18.0925" ry="18.8145" transform="rotate(90 510.814 408.092)" fill="#A259FF"/>
<ellipse cx="464.814" cy="353.092" rx="18.0925" ry="18.8145" transform="rotate(90 464.814 353.092)" fill="#A259FF"/>
</svg>
