<svg width="737" height="415" viewBox="0 0 737 415" fill="none" xmlns="http://www.w3.org/2000/svg">
<path d="M133 32.5L84.25 60.6458V4.35417L133 32.5Z" fill="#A259FF"/>
<path d="M325.5 192L297.354 143.25H353.646L325.5 192Z" fill="#A259FF"/>
<path d="M165 249.5L213.75 277.646V221.354L165 249.5Z" fill="#A259FF"/>
<path d="M65 97.5L16.25 125.646V69.3542L65 97.5Z" fill="#A259FF"/>
<path d="M37.5 288L65.6458 336.75H9.35417L37.5 288Z" fill="#A259FF"/>
<path d="M260.5 124L232.354 75.25H288.646L260.5 124Z" fill="#A259FF"/>
<path d="M233 314.5L281.75 342.646V286.354L233 314.5Z" fill="#A259FF"/>
<path d="M325.5 68L297.354 19.25H353.646L325.5 68Z" fill="#A259FF"/>
<path d="M289 249.5L337.75 277.646V221.354L289 249.5Z" fill="#A259FF"/>
<path d="M102.5 344L130.646 392.75H74.3542L102.5 344Z" fill="#A259FF"/>
<path d="M195.5 68L167.354 19.25H223.646L195.5 68Z" fill="#A259FF"/>
<path d="M289 379.5L337.75 407.646V351.354L289 379.5Z" fill="#A259FF"/>
<path d="M133 162.5L84.25 190.646V134.354L133 162.5Z" fill="#A259FF"/>
<path d="M102.5 220L130.646 268.75H74.3542L102.5 220Z" fill="#A259FF"/>
<path d="M195.5 192L167.354 143.25H223.646L195.5 192Z" fill="#A259FF"/>
<path d="M165 379.5L213.75 407.646V351.354L165 379.5Z" fill="#A259FF"/>
<path d="M572 35.5L523.25 63.6458V7.35417L572 35.5Z" fill="#A259FF"/>
<path d="M411.5 223L439.646 271.75H383.354L411.5 223Z" fill="#A259FF"/>
<path d="M604 252.5L652.75 280.646V224.354L604 252.5Z" fill="#A259FF"/>
<path d="M504 100.5L455.25 128.646V72.3542L504 100.5Z" fill="#A259FF"/>
<path d="M476.5 291L504.646 339.75H448.354L476.5 291Z" fill="#A259FF"/>
<path d="M699.5 127L671.354 78.25H727.646L699.5 127Z" fill="#A259FF"/>
<path d="M672 317.5L720.75 345.646V289.354L672 317.5Z" fill="#A259FF"/>
<path d="M448 35.5L399.25 63.6458V7.35417L448 35.5Z" fill="#A259FF"/>
<path d="M411.5 347L439.646 395.75H383.354L411.5 347Z" fill="#A259FF"/>
<path d="M448 165.5L399.25 193.646V137.354L448 165.5Z" fill="#A259FF"/>
<path d="M541.5 347L569.646 395.75H513.354L541.5 347Z" fill="#A259FF"/>
<path d="M634.5 71L606.354 22.25H662.646L634.5 71Z" fill="#A259FF"/>
<path d="M572 165.5L523.25 193.646V137.354L572 165.5Z" fill="#A259FF"/>
<path d="M541.5 223L569.646 271.75H513.354L541.5 223Z" fill="#A259FF"/>
<path d="M634.5 195L606.354 146.25H662.646L634.5 195Z" fill="#A259FF"/>
<path d="M604 382.5L652.75 410.646V354.354L604 382.5Z" fill="#A259FF"/>
</svg>
