<svg width="314" height="314" viewBox="0 0 314 314" fill="none" xmlns="http://www.w3.org/2000/svg">
<path d="M216.218 49.5645L186.659 38.1347C185.013 37.4984 183.825 36.0421 183.532 34.3024L178.789 6.16879C178.383 3.76209 176.299 2 173.858 2H135.953C133.736 2 131.784 3.45925 131.157 5.58515L122.487 34.9731C122.086 36.3323 121.127 37.4575 119.848 38.069L96.2391 49.3601C94.6856 50.1031 92.8591 49.9943 91.4047 49.0723L65.3668 32.5653C63.3644 31.2959 60.7459 31.6072 59.097 33.3107L32.9402 60.3338C31.2939 62.0346 31.0658 64.6567 32.3938 66.6162L47.7661 89.3C48.7495 90.7512 48.9011 92.6115 48.1656 94.2028L34.7259 123.28C34.1442 124.538 33.0659 125.499 31.7487 125.932L5.4386 134.581C3.3868 135.255 2 137.171 2 139.33V176.537C2 178.872 3.61695 180.897 5.89477 181.413L35.4964 188.122C37.2069 188.51 38.5892 189.765 39.1391 191.431L48.5796 220.025C49.0659 221.498 48.841 223.114 47.9708 224.398L32.4992 247.228C31.1243 249.257 31.4226 251.983 33.2037 253.667L61.9803 280.866C63.6801 282.473 66.2665 282.686 68.2068 281.38L91.5505 265.668C92.9218 264.745 94.6607 264.559 96.196 265.172L123.356 276.013C124.749 276.569 125.818 277.721 126.27 279.15L135.55 308.507C136.207 310.586 138.136 312 140.317 312H174.193C176.482 312 178.479 310.445 179.04 308.226L186.339 279.364C186.732 277.811 187.845 276.54 189.333 275.946L216.424 265.132C217.904 264.542 219.576 264.692 220.928 265.536L246.462 281.496C248.444 282.735 251.02 282.435 252.665 280.774L279.656 253.523C281.272 251.892 281.569 249.37 280.376 247.408L263.841 220.202C262.961 218.754 262.874 216.958 263.611 215.432L275.445 190.905C276.104 189.541 277.345 188.548 278.822 188.207L308.127 181.426C310.394 180.902 312 178.882 312 176.555V139.451C312 137.233 310.54 135.281 308.412 134.654L278.769 125.925C277.325 125.5 276.15 124.447 275.569 123.058L263.495 94.1866C262.832 92.6008 263.03 90.7856 264.019 89.3799L279.863 66.8668C281.315 64.8029 281.002 61.9801 279.132 60.2849L249.183 33.1332C247.42 31.5348 244.775 31.4005 242.859 32.812L220.987 48.9264C219.611 49.9403 217.813 50.1809 216.218 49.5645Z" fill="#C1AA97" stroke="black" stroke-width="4" stroke-linejoin="round"/>
<path d="M227.137 157.374C227.137 196.717 195.552 228.578 156.631 228.578C117.71 228.578 86.125 196.717 86.125 157.374C86.125 118.03 117.71 86.1687 156.631 86.1687C195.552 86.1687 227.137 118.03 227.137 157.374Z" fill="#1C1C32" stroke="black" stroke-width="4"/>
</svg>
