<svg width="264" height="361" viewBox="0 0 264 361" fill="none" xmlns="http://www.w3.org/2000/svg">
<rect x="87.7441" y="3.5" width="87.3943" height="82.9103" rx="1.5" fill="#D9D9D9" stroke="black"/>
<path d="M75.959 32.9873C75.959 32.7112 76.1828 32.4873 76.459 32.4873H87.2481C87.5243 32.4873 87.7481 32.7112 87.7481 32.9873V63.0258C87.7481 63.3019 87.5243 63.5258 87.2481 63.5258H76.459C76.1828 63.5258 75.959 63.3019 75.959 63.0258V32.9873Z" fill="#BDBDBD" stroke="black"/>
<path d="M68.107 99.4944C68.5019 99.5264 68.8264 99.5536 69.0645 99.5739V121.5H42.3346L42.0783 99.5767C42.3158 99.5564 42.6385 99.5293 43.0305 99.4975C43.9134 99.4259 45.1475 99.3303 46.5522 99.2348C49.3649 99.0434 52.8499 98.8529 55.5687 98.8525C58.2876 98.8522 61.7725 99.0419 64.5852 99.2326C65.99 99.3278 67.2241 99.423 68.107 99.4944Z" fill="#D9D9D9" stroke="black"/>
<mask id="path-4-inside-1_290_70" fill="white">
<path d="M219.02 33.7084C217.389 33.4192 215.827 34.5118 215.766 36.17C215.66 39.035 216.075 41.9044 216.998 44.6264C218.242 48.2963 220.369 51.5773 223.178 54.1595C225.987 56.7416 229.385 58.5398 233.051 59.3842C236.718 60.2285 240.531 60.0912 244.132 58.9852C247.733 57.8792 251.002 55.841 253.631 53.063C256.26 50.285 258.162 46.859 259.157 43.1085C260.152 39.3579 260.208 35.4065 259.319 31.6275C258.671 28.8747 257.537 26.2795 255.984 23.969C255.033 22.5548 253.068 22.4752 251.851 23.6403L251.062 24.3954C249.898 25.5092 249.866 27.3477 250.706 28.7432C251.556 30.1546 252.187 31.7024 252.57 33.3306C253.179 35.9217 253.141 38.6309 252.459 41.2025C251.777 43.7741 250.473 46.1232 248.67 48.0279C246.867 49.9326 244.626 51.3302 242.157 52.0885C239.688 52.8469 237.073 52.941 234.559 52.3621C232.045 51.7831 229.715 50.5502 227.789 48.7797C225.863 47.0092 224.405 44.7596 223.552 42.2433C223.021 40.6761 222.735 39.0377 222.7 37.3897C222.665 35.7297 221.591 34.1639 219.96 33.8748L219.02 33.7084Z"/>
</mask>
<path d="M219.02 33.7084C217.389 33.4192 215.827 34.5118 215.766 36.17C215.66 39.035 216.075 41.9044 216.998 44.6264C218.242 48.2963 220.369 51.5773 223.178 54.1595C225.987 56.7416 229.385 58.5398 233.051 59.3842C236.718 60.2285 240.531 60.0912 244.132 58.9852C247.733 57.8792 251.002 55.841 253.631 53.063C256.26 50.285 258.162 46.859 259.157 43.1085C260.152 39.3579 260.208 35.4065 259.319 31.6275C258.671 28.8747 257.537 26.2795 255.984 23.969C255.033 22.5548 253.068 22.4752 251.851 23.6403L251.062 24.3954C249.898 25.5092 249.866 27.3477 250.706 28.7432C251.556 30.1546 252.187 31.7024 252.57 33.3306C253.179 35.9217 253.141 38.6309 252.459 41.2025C251.777 43.7741 250.473 46.1232 248.67 48.0279C246.867 49.9326 244.626 51.3302 242.157 52.0885C239.688 52.8469 237.073 52.941 234.559 52.3621C232.045 51.7831 229.715 50.5502 227.789 48.7797C225.863 47.0092 224.405 44.7596 223.552 42.2433C223.021 40.6761 222.735 39.0377 222.7 37.3897C222.665 35.7297 221.591 34.1639 219.96 33.8748L219.02 33.7084Z" fill="#D9D9D9" stroke="black" stroke-width="2" mask="url(#path-4-inside-1_290_70)"/>
<mask id="path-5-inside-2_290_70" fill="white">
<path d="M17.4516 193.691C16.2516 194.833 14.3684 194.765 13.437 193.385C11.8586 191.048 10.711 188.418 10.0624 185.627C9.18329 181.846 9.24946 177.895 10.2546 174.147C11.2598 170.399 13.1708 166.979 15.8071 164.208C18.4435 161.438 21.7182 159.409 25.3221 158.313C28.9259 157.218 32.74 157.091 36.4042 157.946C40.0683 158.801 43.4615 160.609 46.2635 163.199C49.0655 165.789 51.1837 169.076 52.4181 172.75C53.3276 175.456 53.7352 178.307 53.6294 181.152C53.5666 182.84 52.0141 183.959 50.408 183.67L49.3691 183.483C47.7693 183.194 46.7308 181.612 46.6956 179.931C46.6613 178.296 46.3804 176.67 45.8575 175.114C45.0111 172.595 43.5587 170.342 41.6375 168.566C39.7163 166.79 37.3897 165.55 34.8774 164.964C32.3651 164.378 29.7499 164.464 27.2789 165.216C24.8079 165.967 22.5626 167.358 20.7549 169.258C18.9473 171.157 17.637 173.502 16.9478 176.072C16.2586 178.642 16.2133 181.351 16.816 183.944C17.1881 185.544 17.7996 187.068 18.6231 188.462C19.4716 189.897 19.4199 191.817 18.2199 192.959L17.4516 193.691Z"/>
</mask>
<path d="M17.4516 193.691C16.2516 194.833 14.3684 194.765 13.437 193.385C11.8586 191.048 10.711 188.418 10.0624 185.627C9.18329 181.846 9.24946 177.895 10.2546 174.147C11.2598 170.399 13.1708 166.979 15.8071 164.208C18.4435 161.438 21.7182 159.409 25.3221 158.313C28.9259 157.218 32.74 157.091 36.4042 157.946C40.0683 158.801 43.4615 160.609 46.2635 163.199C49.0655 165.789 51.1837 169.076 52.4181 172.75C53.3276 175.456 53.7352 178.307 53.6294 181.152C53.5666 182.84 52.0141 183.959 50.408 183.67L49.3691 183.483C47.7693 183.194 46.7308 181.612 46.6956 179.931C46.6613 178.296 46.3804 176.67 45.8575 175.114C45.0111 172.595 43.5587 170.342 41.6375 168.566C39.7163 166.79 37.3897 165.55 34.8774 164.964C32.3651 164.378 29.7499 164.464 27.2789 165.216C24.8079 165.967 22.5626 167.358 20.7549 169.258C18.9473 171.157 17.637 173.502 16.9478 176.072C16.2586 178.642 16.2133 181.351 16.816 183.944C17.1881 185.544 17.7996 187.068 18.6231 188.462C19.4716 189.897 19.4199 191.817 18.2199 192.959L17.4516 193.691Z" fill="#D9D9D9" stroke="black" stroke-width="2" mask="url(#path-5-inside-2_290_70)"/>
<rect x="113.5" y="219.5" width="39" height="106" fill="#D9D9D9" stroke="black"/>
<path d="M177.672 324.5L152.633 219.5H187.569L216.345 324.5H177.672Z" fill="#D9D9D9" stroke="black"/>
<path d="M48.9765 324.769L79.3765 219H112.867L87.695 324.769H48.9765Z" fill="#D9D9D9" stroke="black"/>
<mask id="path-9-inside-3_290_70" fill="white">
<path d="M44 328C44 326.343 45.3431 325 47 325H88C89.6569 325 91 326.343 91 328V353H44V328Z"/>
</mask>
<path d="M44 328C44 326.343 45.3431 325 47 325H88C89.6569 325 91 326.343 91 328V353H44V328Z" fill="#D9D9D9"/>
<path d="M43 328C43 325.791 44.7909 324 47 324H88C90.2091 324 92 325.791 92 328H90C90 326.895 89.1046 326 88 326H47C45.8954 326 45 326.895 45 328H43ZM91 353H44H91ZM43 353V328C43 325.791 44.7909 324 47 324V326C45.8954 326 45 326.895 45 328V353H43ZM88 324C90.2091 324 92 325.791 92 328V353H90V328C90 326.895 89.1046 326 88 326V324Z" fill="black" mask="url(#path-9-inside-3_290_70)"/>
<path d="M107.92 328.27C107.92 326.889 109.039 325.77 110.42 325.77H155.983C157.364 325.77 158.483 326.889 158.483 328.27V355.282H107.92V328.27Z" fill="#D9D9D9" stroke="black"/>
<mask id="path-12-inside-4_290_70" fill="white">
<path d="M174 328C174 326.343 175.343 325 177 325H218C219.657 325 221 326.343 221 328V353H174V328Z"/>
</mask>
<path d="M174 328C174 326.343 175.343 325 177 325H218C219.657 325 221 326.343 221 328V353H174V328Z" fill="#D9D9D9"/>
<path d="M173 328C173 325.791 174.791 324 177 324H218C220.209 324 222 325.791 222 328H220C220 326.895 219.105 326 218 326H177C175.895 326 175 326.895 175 328H173ZM221 353H174H221ZM173 353V328C173 325.791 174.791 324 177 324V326C175.895 326 175 326.895 175 328V353H173ZM218 324C220.209 324 222 325.791 222 328V353H220V328C220 326.895 219.105 326 218 326V324Z" fill="black" mask="url(#path-12-inside-4_290_70)"/>
<rect x="41.5" y="353.5" width="52" height="5" rx="1.5" fill="#D9D9D9" stroke="black"/>
<rect x="103.5" y="354.757" width="59.4028" height="5.10256" rx="1.5" fill="#D9D9D9" stroke="black"/>
<rect x="171.5" y="353.5" width="52" height="5" rx="1.5" fill="#D9D9D9" stroke="black"/>
<path d="M38.1259 158.994C37.9733 158.962 37.795 158.926 37.5944 158.887C36.8842 158.748 35.8924 158.572 34.7654 158.42C32.527 158.12 29.6975 157.91 27.484 158.328C25.0476 158.787 22.2218 160.219 20.039 161.506C18.94 162.153 17.9896 162.773 17.3138 163.231C17.212 163.299 17.1163 163.365 17.0273 163.426V128.275H38.1259V158.994Z" fill="#D9D9D9" stroke="black"/>
<path d="M55.395 118.786C55.1972 118.874 54.9638 118.979 54.7003 119.1C53.8248 119.503 52.6165 120.082 51.2846 120.789C48.6351 122.195 45.4442 124.133 43.4339 126.217C41.7858 127.925 40.2853 130.657 39.2078 132.919C38.6654 134.058 38.2234 135.092 37.9169 135.842C37.7969 136.136 37.6976 136.386 37.621 136.582L17.2026 127.833C17.2141 127.808 17.226 127.782 17.2384 127.756C17.4064 127.396 17.6534 126.873 17.9687 126.227C18.5996 124.933 19.5033 123.144 20.5946 121.16C22.7833 117.181 25.7036 112.463 28.6722 109.384C30.893 107.081 34.1724 104.627 36.9167 102.738C38.2851 101.796 39.5132 101 40.3992 100.439C40.7752 100.201 41.0895 100.005 41.3264 99.8593L44.8044 109.201L44.8489 109.321L44.9428 109.405L55.395 118.786Z" fill="#D9D9D9" stroke="black"/>
<path d="M222.939 99.0594C223.322 98.9968 223.632 98.9446 223.849 98.9074L233.009 116.42C232.738 116.54 232.36 116.705 231.895 116.903C230.894 117.329 229.49 117.91 227.882 118.525C224.657 119.76 220.644 121.122 217.409 121.677C213.942 122.272 209.415 122.274 205.731 122.123C203.894 122.048 202.276 121.935 201.118 121.841C200.538 121.794 200.074 121.752 199.755 121.722C199.74 121.72 199.726 121.719 199.711 121.717V99.8358C199.904 99.8539 200.144 99.8758 200.422 99.9005C201.208 99.9699 202.306 100.061 203.557 100.146C206.052 100.316 209.171 100.466 211.619 100.378C214.107 100.288 217.259 99.9035 219.778 99.5438C221.04 99.3636 222.147 99.189 222.939 99.0594Z" fill="#D9D9D9" stroke="black"/>
<path d="M233.998 116.151L217.273 102.874C217.454 102.738 217.676 102.57 217.931 102.374C218.669 101.807 219.688 101.003 220.813 100.054C223.055 98.1638 225.749 95.6712 227.463 93.3204C229.116 91.0546 230.66 87.8227 231.783 85.1837C232.347 83.8592 232.81 82.6743 233.131 81.8204C233.26 81.4762 233.367 81.1856 233.448 80.9611L250.834 89.4918C250.83 89.5169 250.826 89.5433 250.821 89.5708C250.773 89.8649 250.7 90.2922 250.601 90.8228C250.403 91.8842 250.102 93.3568 249.688 95.0004C248.856 98.3033 247.583 102.237 245.814 104.93C244.036 107.635 241.024 110.487 238.426 112.681C237.133 113.773 235.952 114.693 235.094 115.34C234.665 115.664 234.318 115.919 234.078 116.093C234.05 116.113 234.023 116.132 233.998 116.151Z" fill="#D9D9D9" stroke="black"/>
<path d="M249.442 56.482L250.855 88.6789L230.15 87.9081L231.228 58.5933C231.335 58.625 231.453 58.6597 231.583 58.6969C232.193 58.8724 233.047 59.1024 234.021 59.3201C235.953 59.7521 238.414 60.1499 240.382 59.9462C242.465 59.7305 244.924 58.7442 246.828 57.8386C247.787 57.3822 248.62 56.9391 249.213 56.61C249.294 56.5651 249.37 56.5224 249.442 56.482Z" fill="#D9D9D9" stroke="black"/>
<path d="M175.127 33C175.127 32.7239 175.351 32.5 175.627 32.5H188.321C188.598 32.5 188.821 32.7239 188.821 33V63C188.821 63.2761 188.598 63.5 188.321 63.5H175.627C175.351 63.5 175.127 63.2761 175.127 63L175.127 33Z" fill="#BDBDBD" stroke="black"/>
<rect x="105.422" y="69.1025" width="54.9831" height="9.67949" rx="1.5" fill="white" stroke="black"/>
<path d="M109.822 64C109.822 63.7239 110.046 63.5 110.322 63.5H121.581C121.858 63.5 122.081 63.7239 122.081 64V68.5C122.081 68.7761 121.858 69 121.581 69H110.322C110.046 69 109.822 68.7761 109.822 68.5V64Z" fill="white" stroke="black"/>
<path d="M143.707 64C143.707 63.7239 143.931 63.5 144.207 63.5H155.466C155.742 63.5 155.966 63.7239 155.966 64V68.5C155.966 68.7761 155.742 69 155.466 69H144.207C143.931 69 143.707 68.7761 143.707 68.5V64Z" fill="white" stroke="black"/>
<rect x="109.5" y="86.5" width="44" height="9" fill="#9A9A9A" stroke="black"/>
<rect x="67.1191" y="95.0386" width="131.591" height="124.103" rx="1.5" fill="#D9D9D9" stroke="black"/>
<circle cx="132.669" cy="31.5841" r="22.5" transform="rotate(-14.2982 132.669 31.5841)" fill="white" stroke="black"/>
<path d="M129.982 50.0292C130.079 49.867 130.186 49.6796 130.299 49.4704C130.712 48.7028 131.203 47.6282 131.496 46.4177C131.789 45.2084 131.892 43.8355 131.497 42.4907C131.098 41.1333 130.205 39.8487 128.584 38.8123C125.319 36.7241 122.127 37.559 119.821 38.8547C118.668 39.5027 117.718 40.2744 117.057 40.8815C116.819 41.1001 116.617 41.2983 116.457 41.463C114.407 38.1134 113.482 34.1819 113.831 30.2601C114.199 26.1264 115.961 22.254 118.821 19.2898C121.682 16.3257 125.468 14.4494 129.547 13.9747C133.627 13.5 137.752 14.4557 141.233 16.6819C144.714 18.9081 147.341 22.2701 148.674 26.2058C150.007 30.1416 149.965 34.4126 148.557 38.3052C147.148 42.1977 144.457 45.476 140.934 47.592C137.636 49.5726 133.796 50.4227 129.982 50.0292Z" fill="black" stroke="black"/>
<path d="M136.993 21.053C138.188 22.0391 139.031 23.1885 139.442 24.2285C139.86 25.2865 139.794 26.1147 139.394 26.6093C138.994 27.104 138.204 27.3346 137.094 27.1328C136.004 26.9344 134.72 26.3299 133.525 25.3438C132.329 24.3578 131.486 23.2084 131.076 22.1683C130.658 21.1103 130.724 20.2822 131.123 19.7875C131.523 19.2929 132.313 19.0622 133.423 19.2641C134.514 19.4625 135.797 20.067 136.993 21.053Z" fill="#D9D9D9" stroke="black"/>
</svg>
