<svg width="237" height="397" viewBox="0 0 237 397" fill="none" xmlns="http://www.w3.org/2000/svg">
<rect x="53.8047" y="38.5967" width="111.792" height="115.507" rx="20.5" fill="#DAEBF3" stroke="black"/>
<path d="M181.776 206.478C181.77 206.483 181.764 206.488 181.759 206.492H167.641H167.605L167.57 206.497L162.162 207.279L161.733 207.341V207.774V261.02C161.733 268.476 155.689 274.52 148.233 274.52H82.3687C74.9129 274.52 68.8688 268.476 68.8688 261.02V207.774V207.346L68.4457 207.28L63.4241 206.498L63.3925 206.493L63.3605 206.492L48.8889 206.107C48.8301 206.044 48.7543 205.962 48.6654 205.864C48.4409 205.616 48.1336 205.266 47.8029 204.857C47.1325 204.029 46.4004 203.002 46.0423 202.114C45.2886 200.244 44.9454 198.482 45.0918 196.821C45.2376 195.168 45.8715 193.583 47.1234 192.062C47.9235 191.091 48.9318 191.032 50.2304 191.062C50.3182 191.064 50.4075 191.066 50.4981 191.069C51.6944 191.102 53.1221 191.141 54.3786 190.188C55.6153 189.251 56.6233 187.597 57.3086 186.24C57.6565 185.551 57.9313 184.918 58.1191 184.458C58.2132 184.227 58.2856 184.039 58.3349 183.908C58.3595 183.843 58.3783 183.791 58.3911 183.756L58.4058 183.715L58.4097 183.704L58.4108 183.701L58.4111 183.7L58.4112 183.7C58.4113 183.7 58.4113 183.7 57.9393 183.534L58.4114 183.7L58.4142 183.691L61.3913 174.651H169.924C169.929 174.674 169.933 174.698 169.937 174.722C169.995 175.035 170.082 175.486 170.203 176.039C170.443 177.146 170.814 178.667 171.338 180.325C172.378 183.612 174.053 187.541 176.581 189.774C177.576 190.652 178.576 191.08 179.487 191.469C179.551 191.496 179.613 191.523 179.676 191.55C180.638 191.964 181.507 192.371 182.342 193.26C184.805 195.884 186.424 198.14 185.695 201.41C185.431 202.592 184.455 203.876 183.474 204.905C182.993 205.409 182.53 205.834 182.186 206.132C182.015 206.282 181.874 206.399 181.776 206.478Z" fill="#DAEBF3" stroke="black"/>
<path d="M199.197 272.468L167.671 207.692L181.248 207.692L213.267 268.45L199.197 272.468Z" fill="#5A6E75" stroke="black"/>
<path d="M34.8852 271.419L66.4106 206.643L52.8341 206.643L20.8154 267.401L34.8852 271.419Z" fill="#5A6E75" stroke="black"/>
<mask id="path-5-inside-1_261_2380" fill="white">
<path d="M196.11 292.228C195.02 288.673 195.072 284.859 196.259 281.336C197.445 277.813 199.706 274.761 202.714 272.62C205.723 270.479 209.325 269.359 213.003 269.422C216.68 269.484 220.243 270.725 223.179 272.967C226.115 275.209 228.273 278.335 229.343 281.897C230.412 285.459 230.338 289.272 229.13 292.788C227.923 296.304 225.645 299.342 222.624 301.465C219.603 303.588 215.994 304.686 212.317 304.601L212.534 294.945C214.192 294.983 215.819 294.488 217.182 293.531C218.545 292.573 219.572 291.203 220.117 289.617C220.661 288.031 220.695 286.312 220.212 284.705C219.73 283.099 218.757 281.689 217.432 280.678C216.108 279.667 214.501 279.107 212.843 279.079C211.184 279.051 209.56 279.556 208.203 280.521C206.846 281.487 205.826 282.863 205.291 284.452C204.756 286.042 204.732 287.761 205.224 289.365L196.11 292.228Z"/>
</mask>
<path d="M196.11 292.228C195.02 288.673 195.072 284.859 196.259 281.336C197.445 277.813 199.706 274.761 202.714 272.62C205.723 270.479 209.325 269.359 213.003 269.422C216.68 269.484 220.243 270.725 223.179 272.967C226.115 275.209 228.273 278.335 229.343 281.897C230.412 285.459 230.338 289.272 229.13 292.788C227.923 296.304 225.645 299.342 222.624 301.465C219.603 303.588 215.994 304.686 212.317 304.601L212.534 294.945C214.192 294.983 215.819 294.488 217.182 293.531C218.545 292.573 219.572 291.203 220.117 289.617C220.661 288.031 220.695 286.312 220.212 284.705C219.73 283.099 218.757 281.689 217.432 280.678C216.108 279.667 214.501 279.107 212.843 279.079C211.184 279.051 209.56 279.556 208.203 280.521C206.846 281.487 205.826 282.863 205.291 284.452C204.756 286.042 204.732 287.761 205.224 289.365L196.11 292.228Z" fill="#DAEBF3" stroke="black" stroke-width="2" mask="url(#path-5-inside-1_261_2380)"/>
<mask id="path-6-inside-2_261_2380" fill="white">
<path d="M40.8115 293.01C41.9018 289.455 41.8498 285.642 40.6632 282.118C39.4765 278.595 37.2162 275.543 34.2075 273.402C31.1988 271.261 27.5967 270.142 23.9194 270.204C20.242 270.266 16.679 271.508 13.7428 273.749C10.8066 275.991 8.64861 279.118 7.57919 282.679C6.50976 286.241 6.58405 290.054 7.79138 293.57C8.9987 297.086 11.2768 300.124 14.298 302.247C17.3193 304.37 20.9279 305.468 24.6048 305.384L24.3883 295.728C22.73 295.766 21.1025 295.27 19.7399 294.313C18.3773 293.356 17.3498 291.985 16.8053 290.4C16.2608 288.814 16.2273 287.094 16.7096 285.488C17.1919 283.881 18.1652 282.471 19.4895 281.46C20.8137 280.449 22.4207 279.889 24.0792 279.861C25.7377 279.833 27.3623 280.338 28.7193 281.304C30.0762 282.269 31.0956 283.646 31.6308 285.235C32.166 286.824 32.1894 288.544 31.6977 290.147L40.8115 293.01Z"/>
</mask>
<path d="M40.8115 293.01C41.9018 289.455 41.8498 285.642 40.6632 282.118C39.4765 278.595 37.2162 275.543 34.2075 273.402C31.1988 271.261 27.5967 270.142 23.9194 270.204C20.242 270.266 16.679 271.508 13.7428 273.749C10.8066 275.991 8.64861 279.118 7.57919 282.679C6.50976 286.241 6.58405 290.054 7.79138 293.57C8.9987 297.086 11.2768 300.124 14.298 302.247C17.3193 304.37 20.9279 305.468 24.6048 305.384L24.3883 295.728C22.73 295.766 21.1025 295.27 19.7399 294.313C18.3773 293.356 17.3498 291.985 16.8053 290.4C16.2608 288.814 16.2273 287.094 16.7096 285.488C17.1919 283.881 18.1652 282.471 19.4895 281.46C20.8137 280.449 22.4207 279.889 24.0792 279.861C25.7377 279.833 27.3623 280.338 28.7193 281.304C30.0762 282.269 31.0956 283.646 31.6308 285.235C32.166 286.824 32.1894 288.544 31.6977 290.147L40.8115 293.01Z" fill="#DAEBF3" stroke="black" stroke-width="2" mask="url(#path-6-inside-2_261_2380)"/>
<path d="M131.332 275.02H144.465L146.397 310.206C146.397 310.206 151.454 315.142 150.646 318.807C149.925 322.075 144.465 324.672 144.465 324.672V352.43H131.332V275.02Z" fill="#5A6E75" stroke="black"/>
<path d="M102.062 275.02H88.9292L86.9978 310.206C86.9978 310.206 81.9402 315.142 82.7488 318.807C83.4697 322.075 88.9292 324.672 88.9292 324.672V352.43H102.062V275.02Z" fill="#5A6E75" stroke="black"/>
<path d="M120.359 353.712H164.993L152.883 386.269L152.756 386.613L153.044 386.838L165.419 396.5H127.525L124.877 375.824L124.875 375.806L124.871 375.788L120.359 353.712Z" fill="#DAEBF3" stroke="black"/>
<path d="M112.18 352.931H67.5457L79.6557 385.488L79.7833 385.831L79.4948 386.057L67.1203 395.718H105.014L107.662 375.043L107.664 375.025L107.668 375.006L112.18 352.931Z" fill="#DAEBF3" stroke="black"/>
<rect x="104.793" y="155.104" width="15.2235" height="18.5481" fill="#5A6E75" stroke="black"/>
<path d="M160.964 50.2165C160.964 51.0257 160.318 51.6713 159.533 51.6713C158.748 51.6713 158.102 51.0257 158.102 50.2165C158.102 49.4074 158.748 48.7617 159.533 48.7617C160.318 48.7617 160.964 49.4074 160.964 50.2165Z" fill="black" stroke="black"/>
<path d="M60.5307 63.5085C60.5307 64.3177 59.8842 64.9633 59.0993 64.9633C58.3145 64.9633 57.668 64.3177 57.668 63.5085C57.668 62.6993 58.3145 62.0537 59.0993 62.0537C59.8842 62.0537 60.5307 62.6993 60.5307 63.5085Z" fill="black" stroke="black"/>
<path d="M62.0776 80.7116C62.0776 81.5208 61.4311 82.1665 60.6462 82.1665C59.8614 82.1665 59.2148 81.5208 59.2148 80.7116C59.2148 79.9025 59.8614 79.2568 60.6462 79.2568C61.4311 79.2568 62.0776 79.9025 62.0776 80.7116Z" fill="black" stroke="black"/>
<path d="M60.5307 52.5622C60.5307 53.3714 59.8842 54.017 59.0993 54.017C58.3145 54.017 57.668 53.3714 57.668 52.5622C57.668 51.7531 58.3145 51.1074 59.0993 51.1074C59.8842 51.1074 60.5307 51.7531 60.5307 52.5622Z" fill="black" stroke="black"/>
<path d="M160.964 61.1628C160.964 61.972 160.318 62.6176 159.533 62.6176C158.748 62.6176 158.102 61.972 158.102 61.1628C158.102 60.3536 158.748 59.708 159.533 59.708C160.318 59.708 160.964 60.3536 160.964 61.1628Z" fill="black" stroke="black"/>
<path d="M160.964 75.238C160.964 76.0472 160.318 76.6928 159.533 76.6928C158.748 76.6928 158.102 76.0472 158.102 75.238C158.102 74.4288 158.748 73.7832 159.533 73.7832C160.318 73.7832 160.964 74.4288 160.964 75.238Z" fill="black" stroke="black"/>
<path d="M52.5117 68.2002H166.097" stroke="black"/>
<path d="M158.356 108.947C158.356 117.261 151.699 123.991 143.499 123.991C135.298 123.991 128.641 117.261 128.641 108.947C128.641 100.632 135.298 93.9023 143.499 93.9023C151.699 93.9023 158.356 100.632 158.356 108.947Z" fill="white" stroke="black"/>
<path d="M140.335 120.87C140.373 120.831 140.411 120.789 140.451 120.746C140.85 120.312 141.354 119.686 141.752 118.936C142.149 118.186 142.454 117.286 142.419 116.313C142.383 115.327 142 114.312 141.097 113.348C139.273 111.399 137 111.419 135.266 111.885C134.398 112.118 133.645 112.466 133.111 112.754C132.998 112.814 132.895 112.872 132.802 112.926C132.104 110.517 132.173 107.939 133.009 105.564C133.915 102.99 135.666 100.808 137.97 99.3843C140.274 97.9602 142.992 97.3795 145.668 97.7395C148.344 98.0995 150.817 99.3782 152.674 101.362C154.531 103.346 155.658 105.915 155.869 108.639C156.079 111.363 155.359 114.078 153.829 116.329C152.299 118.581 150.052 120.233 147.464 121.009C145.125 121.71 142.634 121.658 140.335 120.87Z" fill="black" stroke="black"/>
<path d="M148.174 105.057C148.641 105.953 148.85 106.85 148.832 107.562C148.813 108.294 148.568 108.709 148.272 108.867C147.975 109.025 147.498 108.995 146.892 108.597C146.301 108.209 145.689 107.528 145.222 106.631C144.756 105.735 144.546 104.838 144.564 104.126C144.583 103.395 144.828 102.98 145.125 102.822C145.421 102.663 145.898 102.693 146.504 103.091C147.095 103.479 147.708 104.161 148.174 105.057Z" fill="#D9D9D9" stroke="black"/>
<path d="M93.5674 109.235C93.5674 117.549 86.9096 124.279 78.7095 124.279C70.5093 124.279 63.8516 117.549 63.8516 109.235C63.8516 100.92 70.5093 94.1904 78.7095 94.1904C86.9096 94.1904 93.5674 100.92 93.5674 109.235Z" fill="white" stroke="black"/>
<path d="M76.2177 120.088C76.2554 120.048 76.2942 120.007 76.334 119.964C76.7332 119.529 77.2371 118.904 77.635 118.154C78.0322 117.404 78.3371 116.504 78.3019 115.531C78.2662 114.545 77.8824 113.53 76.9802 112.565C75.1561 110.616 72.883 110.637 71.1487 111.103C70.2811 111.336 69.5278 111.684 68.9934 111.972C68.8811 112.032 68.778 112.09 68.6851 112.144C67.9868 109.734 68.056 107.157 68.892 104.782C69.7979 102.208 71.5492 100.026 73.8532 98.6021C76.1572 97.1779 78.8745 96.5973 81.5507 96.9573C84.227 97.3172 86.7001 98.596 88.5568 100.58C90.4135 102.564 91.5412 105.132 91.7514 107.857C91.9616 110.581 91.2417 113.296 89.7119 115.547C88.1822 117.799 85.9353 119.451 83.3468 120.227C81.0073 120.928 78.5169 120.876 76.2177 120.088Z" fill="black" stroke="black"/>
<path d="M83.9085 104.852C84.375 105.748 84.5841 106.645 84.5662 107.357C84.5478 108.088 84.3025 108.504 84.0059 108.662C83.7093 108.82 83.2323 108.79 82.626 108.392C82.0358 108.004 81.423 107.322 80.9564 106.426C80.4899 105.53 80.2808 104.633 80.2987 103.921C80.3171 103.19 80.5624 102.775 80.859 102.616C81.1556 102.458 81.6326 102.488 82.2389 102.886C82.8291 103.274 83.4419 103.956 83.9085 104.852Z" fill="#D9D9D9" stroke="black"/>
<path d="M110.957 122.873C112.166 122.873 113.376 122.873 114.585 122.873C115.469 122.873 116.483 122.73 117.325 123.059C117.814 123.249 118.271 123.538 118.606 123.953C118.819 124.218 118.949 124.635 119.056 124.959" stroke="black" stroke-linecap="round"/>
<mask id="path-26-inside-3_261_2380" fill="white">
<path fill-rule="evenodd" clip-rule="evenodd" d="M166 128.969C170.247 128.968 177.202 126.232 176.815 119.976C182.609 117.24 183.768 116.619 183.768 110.984C183.768 106.686 181.837 103.165 177.202 101.992C177.202 96.9098 171.567 93.0003 166 93V128.969Z"/>
</mask>
<path fill-rule="evenodd" clip-rule="evenodd" d="M166 128.969C170.247 128.968 177.202 126.232 176.815 119.976C182.609 117.24 183.768 116.619 183.768 110.984C183.768 106.686 181.837 103.165 177.202 101.992C177.202 96.9098 171.567 93.0003 166 93V128.969Z" fill="#5A6E75"/>
<path d="M176.815 119.976L176.388 119.072L175.775 119.362L175.817 120.038L176.815 119.976ZM166 128.969H165V129.969L166 129.969L166 128.969ZM177.202 101.992H176.202V102.771L176.956 102.962L177.202 101.992ZM166 93L166 92L165 91.9999V93H166ZM175.817 120.038C175.982 122.713 174.606 124.655 172.594 125.983C170.552 127.331 167.948 127.968 166 127.969L166 129.969C168.299 129.968 171.295 129.237 173.696 127.653C176.126 126.049 178.034 123.495 177.813 119.915L175.817 120.038ZM182.768 110.984C182.768 113.784 182.464 115.017 181.7 115.922C181.3 116.396 180.725 116.838 179.848 117.342C178.966 117.849 177.847 118.383 176.388 119.072L177.242 120.881C178.681 120.201 179.879 119.631 180.845 119.076C181.814 118.518 182.615 117.94 183.229 117.212C184.493 115.713 184.768 113.819 184.768 110.984H182.768ZM176.956 102.962C179.061 103.494 180.485 104.536 181.396 105.878C182.318 107.235 182.768 108.979 182.768 110.984H184.768C184.768 108.692 184.253 106.526 183.05 104.754C181.837 102.968 179.977 101.663 177.447 101.023L176.956 102.962ZM166 94C168.562 94.0001 171.149 94.9043 173.08 96.3841C175.011 97.8639 176.202 99.8444 176.202 101.992H178.202C178.202 99.0576 176.574 96.5421 174.297 94.7966C172.018 93.0509 169.005 92.0002 166 92L166 94ZM165 93V128.969H167V93H165Z" fill="black" mask="url(#path-26-inside-3_261_2380)"/>
<mask id="path-28-inside-4_261_2380" fill="white">
<path fill-rule="evenodd" clip-rule="evenodd" d="M53.7695 128.969C49.5227 128.968 42.568 126.232 42.9542 119.976C37.1601 117.24 36.0011 116.619 36.0011 110.984C36.0011 106.686 37.9327 103.165 42.568 101.992C42.568 96.9098 48.2029 93.0003 53.7695 93V128.969Z"/>
</mask>
<path fill-rule="evenodd" clip-rule="evenodd" d="M53.7695 128.969C49.5227 128.968 42.568 126.232 42.9542 119.976C37.1601 117.24 36.0011 116.619 36.0011 110.984C36.0011 106.686 37.9327 103.165 42.568 101.992C42.568 96.9098 48.2029 93.0003 53.7695 93V128.969Z" fill="#5A6E75"/>
<path d="M42.9542 119.976L43.3813 119.072L43.9941 119.362L43.9523 120.038L42.9542 119.976ZM53.7695 128.969H54.7695V129.969L53.7695 129.969L53.7695 128.969ZM42.568 101.992H43.568V102.771L42.8133 102.962L42.568 101.992ZM53.7695 93L53.7695 92L54.7695 91.9999V93H53.7695ZM43.9523 120.038C43.7872 122.713 45.1631 124.655 47.1753 125.983C49.2172 127.331 51.822 127.968 53.7696 127.969L53.7695 129.969C51.4703 129.968 48.4743 129.237 46.0736 127.653C43.6433 126.049 41.735 123.495 41.9561 119.915L43.9523 120.038ZM37.0011 110.984C37.0011 113.784 37.3055 115.017 38.0691 115.922C38.4691 116.396 39.0446 116.838 39.922 117.342C40.8034 117.849 41.9227 118.383 43.3813 119.072L42.5271 120.881C41.0887 120.201 39.8903 119.631 38.9248 119.076C37.9553 118.518 37.1547 117.94 36.5406 117.212C35.2762 115.713 35.0011 113.819 35.0011 110.984H37.0011ZM42.8133 102.962C40.7085 103.494 39.2848 104.536 38.3735 105.878C37.4519 107.235 37.0011 108.979 37.0011 110.984H35.0011C35.0011 108.692 35.516 106.526 36.719 104.754C37.9324 102.968 39.7921 101.663 42.3227 101.023L42.8133 102.962ZM53.7696 94C51.2075 94.0001 48.6206 94.9043 46.6895 96.3841C44.7583 97.8639 43.568 99.8444 43.568 101.992H41.568C41.568 99.0576 43.1951 96.5421 45.473 94.7966C47.7511 93.0509 50.765 92.0002 53.7695 92L53.7696 94ZM54.7695 93V128.969H52.7695V93H54.7695Z" fill="black" mask="url(#path-28-inside-4_261_2380)"/>
<mask id="path-30-inside-5_261_2380" fill="white">
<path fill-rule="evenodd" clip-rule="evenodd" d="M83.4363 38.0967C83.4363 38.0965 83.4363 38.0964 83.4363 38.0963C83.4363 33.0506 87.4922 24.7866 96.7628 25.2456C100.819 18.3614 101.739 16.9844 110.089 16.9844C116.459 16.9844 121.677 19.2793 123.416 24.7866C130.948 24.7866 136.742 31.4822 136.742 38.0963C136.742 38.0964 136.742 38.0965 136.742 38.0967H83.4363Z"/>
</mask>
<path fill-rule="evenodd" clip-rule="evenodd" d="M83.4363 38.0967C83.4363 38.0965 83.4363 38.0964 83.4363 38.0963C83.4363 33.0506 87.4922 24.7866 96.7628 25.2456C100.819 18.3614 101.739 16.9844 110.089 16.9844C116.459 16.9844 121.677 19.2793 123.416 24.7866C130.948 24.7866 136.742 31.4822 136.742 38.0963C136.742 38.0964 136.742 38.0965 136.742 38.0967H83.4363Z" fill="#5A6E75"/>
<path d="M83.4363 38.0967V39.0967H82.4363V38.0967H83.4363ZM96.7628 25.2456L97.6244 25.7532L97.3174 26.2743L96.7133 26.2443L96.7628 25.2456ZM123.416 24.7866V25.7866H122.683L122.462 25.0876L123.416 24.7866ZM136.742 38.0967H137.742V39.0967H136.742V38.0967ZM84.4363 38.0963C84.4363 38.0963 84.4363 38.0963 84.4363 38.0963C84.4363 38.0963 84.4363 38.0963 84.4363 38.0963C84.4363 38.0963 84.4363 38.0963 84.4363 38.0963C84.4363 38.0963 84.4363 38.0963 84.4363 38.0963C84.4363 38.0963 84.4363 38.0963 84.4363 38.0963C84.4363 38.0963 84.4363 38.0963 84.4363 38.0963C84.4363 38.0963 84.4363 38.0963 84.4363 38.0963C84.4363 38.0963 84.4363 38.0963 84.4363 38.0963C84.4363 38.0963 84.4363 38.0963 84.4363 38.0963C84.4363 38.0963 84.4363 38.0963 84.4363 38.0963C84.4363 38.0963 84.4363 38.0963 84.4363 38.0963C84.4363 38.0963 84.4363 38.0963 84.4363 38.0963C84.4363 38.0963 84.4363 38.0963 84.4363 38.0963C84.4363 38.0963 84.4363 38.0963 84.4363 38.0963C84.4363 38.0963 84.4363 38.0963 84.4363 38.0963C84.4363 38.0963 84.4363 38.0963 84.4363 38.0963C84.4363 38.0963 84.4363 38.0963 84.4363 38.0963C84.4363 38.0963 84.4363 38.0963 84.4363 38.0963C84.4363 38.0963 84.4363 38.0963 84.4363 38.0963C84.4363 38.0963 84.4363 38.0963 84.4363 38.0963C84.4363 38.0963 84.4363 38.0963 84.4363 38.0963C84.4363 38.0963 84.4363 38.0963 84.4363 38.0963C84.4363 38.0963 84.4363 38.0963 84.4363 38.0963C84.4363 38.0963 84.4363 38.0963 84.4363 38.0963C84.4363 38.0963 84.4363 38.0963 84.4363 38.0963C84.4363 38.0963 84.4363 38.0963 84.4363 38.0963C84.4363 38.0963 84.4363 38.0963 84.4363 38.0963C84.4363 38.0963 84.4363 38.0963 84.4363 38.0963C84.4363 38.0963 84.4363 38.0963 84.4363 38.0963C84.4363 38.0963 84.4363 38.0963 84.4363 38.0963C84.4363 38.0963 84.4363 38.0963 84.4363 38.0963C84.4363 38.0963 84.4363 38.0963 84.4363 38.0963C84.4363 38.0963 84.4363 38.0963 84.4363 38.0963C84.4363 38.0963 84.4363 38.0963 84.4363 38.0963C84.4363 38.0963 84.4363 38.0963 84.4363 38.0963C84.4363 38.0963 84.4363 38.0963 84.4363 38.0963C84.4363 38.0963 84.4363 38.0963 84.4363 38.0963C84.4363 38.0963 84.4363 38.0963 84.4363 38.0963C84.4363 38.0963 84.4363 38.0963 84.4363 38.0963C84.4363 38.0963 84.4363 38.0963 84.4363 38.0963C84.4363 38.0963 84.4363 38.0963 84.4363 38.0963C84.4363 38.0963 84.4363 38.0963 84.4363 38.0963C84.4363 38.0963 84.4363 38.0963 84.4363 38.0963C84.4363 38.0963 84.4363 38.0963 84.4363 38.0963C84.4363 38.0963 84.4363 38.0963 84.4363 38.0963C84.4363 38.0963 84.4363 38.0963 84.4363 38.0963C84.4363 38.0963 84.4363 38.0963 84.4363 38.0963C84.4363 38.0963 84.4363 38.0963 84.4363 38.0963C84.4363 38.0963 84.4363 38.0963 84.4363 38.0963C84.4363 38.0963 84.4363 38.0963 84.4363 38.0963C84.4363 38.0963 84.4363 38.0963 84.4363 38.0963C84.4363 38.0963 84.4363 38.0963 84.4363 38.0963C84.4363 38.0963 84.4363 38.0963 84.4363 38.0963C84.4363 38.0963 84.4363 38.0963 84.4363 38.0963C84.4363 38.0963 84.4363 38.0963 84.4363 38.0963C84.4363 38.0963 84.4363 38.0963 84.4363 38.0963C84.4363 38.0963 84.4363 38.0963 84.4363 38.0963C84.4363 38.0963 84.4363 38.0963 84.4363 38.0963C84.4363 38.0963 84.4363 38.0963 84.4363 38.0963C84.4363 38.0963 84.4363 38.0963 84.4363 38.0963C84.4363 38.0963 84.4363 38.0963 84.4363 38.0963C84.4363 38.0963 84.4363 38.0963 84.4363 38.0963C84.4363 38.0963 84.4363 38.0963 84.4363 38.0963C84.4363 38.0963 84.4363 38.0963 84.4363 38.0963C84.4363 38.0963 84.4363 38.0963 84.4363 38.0963C84.4363 38.0963 84.4363 38.0963 84.4363 38.0963C84.4363 38.0963 84.4363 38.0963 84.4363 38.0963C84.4363 38.0963 84.4363 38.0963 84.4363 38.0963C84.4363 38.0963 84.4363 38.0963 84.4363 38.0963C84.4363 38.0963 84.4363 38.0963 84.4363 38.0963C84.4363 38.0963 84.4363 38.0963 84.4363 38.0963C84.4363 38.0963 84.4363 38.0963 84.4363 38.0963C84.4363 38.0963 84.4363 38.0963 84.4363 38.0963C84.4363 38.0963 84.4363 38.0963 84.4363 38.0963C84.4363 38.0963 84.4363 38.0963 84.4363 38.0963C84.4363 38.0963 84.4363 38.0963 84.4363 38.0963C84.4363 38.0963 84.4363 38.0963 84.4363 38.0963C84.4363 38.0963 84.4363 38.0963 84.4363 38.0963C84.4363 38.0963 84.4363 38.0963 84.4363 38.0963C84.4363 38.0963 84.4363 38.0963 84.4363 38.0963C84.4363 38.0963 84.4363 38.0963 84.4363 38.0963C84.4363 38.0963 84.4363 38.0963 84.4363 38.0963C84.4363 38.0963 84.4363 38.0963 84.4363 38.0963C84.4363 38.0963 84.4363 38.0963 84.4363 38.0963C84.4363 38.0963 84.4363 38.0963 84.4363 38.0963C84.4363 38.0963 84.4363 38.0963 84.4363 38.0963C84.4363 38.0963 84.4363 38.0963 84.4363 38.0963C84.4363 38.0963 84.4363 38.0963 84.4363 38.0963C84.4363 38.0963 84.4363 38.0963 84.4363 38.0963C84.4363 38.0963 84.4363 38.0963 84.4363 38.0963C84.4363 38.0963 84.4363 38.0963 84.4363 38.0963C84.4363 38.0963 84.4363 38.0963 84.4363 38.0963C84.4363 38.0963 84.4363 38.0963 84.4363 38.0963C84.4363 38.0963 84.4363 38.0963 84.4363 38.0963C84.4363 38.0963 84.4363 38.0963 84.4363 38.0963C84.4363 38.0963 84.4363 38.0963 84.4363 38.0963C84.4363 38.0963 84.4363 38.0963 84.4363 38.0963C84.4363 38.0963 84.4363 38.0963 84.4363 38.0963C84.4363 38.0963 84.4363 38.0963 84.4363 38.0963C84.4363 38.0963 84.4363 38.0963 84.4363 38.0963C84.4363 38.0963 84.4363 38.0963 84.4363 38.0963C84.4363 38.0963 84.4363 38.0963 84.4363 38.0963C84.4363 38.0963 84.4363 38.0963 84.4363 38.0963C84.4363 38.0963 84.4363 38.0964 84.4363 38.0964C84.4363 38.0964 84.4363 38.0964 84.4363 38.0964C84.4363 38.0964 84.4363 38.0964 84.4363 38.0964C84.4363 38.0964 84.4363 38.0964 84.4363 38.0964C84.4363 38.0964 84.4363 38.0964 84.4363 38.0964C84.4363 38.0964 84.4363 38.0964 84.4363 38.0964C84.4363 38.0964 84.4363 38.0964 84.4363 38.0964C84.4363 38.0964 84.4363 38.0964 84.4363 38.0964C84.4363 38.0964 84.4363 38.0964 84.4363 38.0964C84.4363 38.0964 84.4363 38.0964 84.4363 38.0964C84.4363 38.0964 84.4363 38.0964 84.4363 38.0964C84.4363 38.0964 84.4363 38.0964 84.4363 38.0964C84.4363 38.0964 84.4363 38.0964 84.4363 38.0964C84.4363 38.0964 84.4363 38.0964 84.4363 38.0964C84.4363 38.0964 84.4363 38.0964 84.4363 38.0964C84.4363 38.0964 84.4363 38.0964 84.4363 38.0964C84.4363 38.0964 84.4363 38.0964 84.4363 38.0964C84.4363 38.0964 84.4363 38.0964 84.4363 38.0964C84.4363 38.0964 84.4363 38.0964 84.4363 38.0964C84.4363 38.0964 84.4363 38.0964 84.4363 38.0964C84.4363 38.0964 84.4363 38.0964 84.4363 38.0964C84.4363 38.0964 84.4363 38.0964 84.4363 38.0964C84.4363 38.0964 84.4363 38.0964 84.4363 38.0964C84.4363 38.0964 84.4363 38.0964 84.4363 38.0964C84.4363 38.0964 84.4363 38.0964 84.4363 38.0964C84.4363 38.0964 84.4363 38.0964 84.4363 38.0964C84.4363 38.0964 84.4363 38.0964 84.4363 38.0964C84.4363 38.0964 84.4363 38.0964 84.4363 38.0964C84.4363 38.0964 84.4363 38.0964 84.4363 38.0964C84.4363 38.0964 84.4363 38.0964 84.4363 38.0964C84.4363 38.0964 84.4363 38.0964 84.4363 38.0964C84.4363 38.0964 84.4363 38.0964 84.4363 38.0964C84.4363 38.0964 84.4363 38.0964 84.4363 38.0964C84.4363 38.0964 84.4363 38.0964 84.4363 38.0964C84.4363 38.0964 84.4363 38.0964 84.4363 38.0964C84.4363 38.0964 84.4363 38.0964 84.4363 38.0964C84.4363 38.0964 84.4363 38.0964 84.4363 38.0964C84.4363 38.0964 84.4363 38.0964 84.4363 38.0964C84.4363 38.0964 84.4363 38.0964 84.4363 38.0964C84.4363 38.0964 84.4363 38.0964 84.4363 38.0964C84.4363 38.0964 84.4363 38.0964 84.4363 38.0964C84.4363 38.0964 84.4363 38.0964 84.4363 38.0964C84.4363 38.0964 84.4363 38.0964 84.4363 38.0964C84.4363 38.0964 84.4363 38.0964 84.4363 38.0964C84.4363 38.0964 84.4363 38.0964 84.4363 38.0964C84.4363 38.0964 84.4363 38.0964 84.4363 38.0964C84.4363 38.0964 84.4363 38.0964 84.4363 38.0964C84.4363 38.0964 84.4363 38.0964 84.4363 38.0964C84.4363 38.0964 84.4363 38.0964 84.4363 38.0964C84.4363 38.0964 84.4363 38.0964 84.4363 38.0964C84.4363 38.0964 84.4363 38.0964 84.4363 38.0964C84.4363 38.0964 84.4363 38.0964 84.4363 38.0964C84.4363 38.0964 84.4363 38.0964 84.4363 38.0964C84.4363 38.0964 84.4363 38.0964 84.4363 38.0964C84.4363 38.0964 84.4363 38.0964 84.4363 38.0964C84.4363 38.0964 84.4363 38.0964 84.4363 38.0964C84.4363 38.0964 84.4363 38.0964 84.4363 38.0964C84.4363 38.0964 84.4363 38.0964 84.4363 38.0964C84.4363 38.0964 84.4363 38.0964 84.4363 38.0964C84.4363 38.0964 84.4363 38.0964 84.4363 38.0964C84.4363 38.0964 84.4363 38.0964 84.4363 38.0964C84.4363 38.0964 84.4363 38.0964 84.4363 38.0964C84.4363 38.0964 84.4363 38.0964 84.4363 38.0964C84.4363 38.0964 84.4363 38.0964 84.4363 38.0964C84.4363 38.0964 84.4363 38.0964 84.4363 38.0964C84.4363 38.0964 84.4363 38.0964 84.4363 38.0964C84.4363 38.0964 84.4363 38.0964 84.4363 38.0964C84.4363 38.0964 84.4363 38.0964 84.4363 38.0964C84.4363 38.0964 84.4363 38.0964 84.4363 38.0964C84.4363 38.0964 84.4363 38.0964 84.4363 38.0964C84.4363 38.0964 84.4363 38.0964 84.4363 38.0964C84.4363 38.0964 84.4363 38.0964 84.4363 38.0964C84.4363 38.0964 84.4363 38.0964 84.4363 38.0964C84.4363 38.0964 84.4363 38.0964 84.4363 38.0964C84.4363 38.0964 84.4363 38.0964 84.4363 38.0964C84.4363 38.0964 84.4363 38.0964 84.4363 38.0964C84.4363 38.0964 84.4363 38.0964 84.4363 38.0964C84.4363 38.0964 84.4363 38.0964 84.4363 38.0964C84.4363 38.0964 84.4363 38.0964 84.4363 38.0964C84.4363 38.0964 84.4363 38.0964 84.4363 38.0964C84.4363 38.0964 84.4363 38.0964 84.4363 38.0964C84.4363 38.0964 84.4363 38.0964 84.4363 38.0964C84.4363 38.0964 84.4363 38.0964 84.4363 38.0964C84.4363 38.0964 84.4363 38.0964 84.4363 38.0964C84.4363 38.0964 84.4363 38.0964 84.4363 38.0964C84.4363 38.0964 84.4363 38.0964 84.4363 38.0964C84.4363 38.0964 84.4363 38.0964 84.4363 38.0964C84.4363 38.0964 84.4363 38.0964 84.4363 38.0964C84.4363 38.0964 84.4363 38.0964 84.4363 38.0964C84.4363 38.0964 84.4363 38.0964 84.4363 38.0964C84.4363 38.0964 84.4363 38.0964 84.4363 38.0964C84.4363 38.0964 84.4363 38.0964 84.4363 38.0964C84.4363 38.0964 84.4363 38.0964 84.4363 38.0964C84.4363 38.0964 84.4363 38.0964 84.4363 38.0964C84.4363 38.0964 84.4363 38.0964 84.4363 38.0964C84.4363 38.0964 84.4363 38.0964 84.4363 38.0964C84.4363 38.0964 84.4363 38.0964 84.4363 38.0964C84.4363 38.0964 84.4363 38.0964 84.4363 38.0964C84.4363 38.0964 84.4363 38.0964 84.4363 38.0964C84.4363 38.0964 84.4363 38.0964 84.4363 38.0964C84.4363 38.0964 84.4363 38.0964 84.4363 38.0964C84.4363 38.0964 84.4363 38.0964 84.4363 38.0964C84.4363 38.0964 84.4363 38.0964 84.4363 38.0964C84.4363 38.0964 84.4363 38.0964 84.4363 38.0964C84.4363 38.0964 84.4363 38.0964 84.4363 38.0964C84.4363 38.0964 84.4363 38.0964 84.4363 38.0964C84.4363 38.0964 84.4363 38.0964 84.4363 38.0964C84.4363 38.0964 84.4363 38.0964 84.4363 38.0964C84.4363 38.0964 84.4363 38.0964 84.4363 38.0964C84.4363 38.0964 84.4363 38.0964 84.4363 38.0964C84.4363 38.0964 84.4363 38.0964 84.4363 38.0964C84.4363 38.0964 84.4363 38.0964 84.4363 38.0964C84.4363 38.0964 84.4363 38.0964 84.4363 38.0964C84.4363 38.0964 84.4363 38.0964 84.4363 38.0964C84.4363 38.0964 84.4363 38.0964 84.4363 38.0964C84.4363 38.0964 84.4363 38.0964 84.4363 38.0964C84.4363 38.0964 84.4363 38.0964 84.4363 38.0964C84.4363 38.0964 84.4363 38.0964 84.4363 38.0964C84.4363 38.0964 84.4363 38.0964 84.4363 38.0964C84.4363 38.0964 84.4363 38.0964 84.4363 38.0964C84.4363 38.0964 84.4363 38.0964 84.4363 38.0964C84.4363 38.0964 84.4363 38.0964 84.4363 38.0964C84.4363 38.0964 84.4363 38.0964 84.4363 38.0964C84.4363 38.0964 84.4363 38.0964 84.4363 38.0964C84.4363 38.0964 84.4363 38.0965 84.4363 38.0965C84.4363 38.0965 84.4363 38.0965 84.4363 38.0965C84.4363 38.0965 84.4363 38.0965 84.4363 38.0965C84.4363 38.0965 84.4363 38.0965 84.4363 38.0965C84.4363 38.0965 84.4363 38.0965 84.4363 38.0965C84.4363 38.0965 84.4363 38.0965 84.4363 38.0965C84.4363 38.0965 84.4363 38.0965 84.4363 38.0965C84.4363 38.0965 84.4363 38.0965 84.4363 38.0965C84.4363 38.0965 84.4363 38.0965 84.4363 38.0965C84.4363 38.0965 84.4363 38.0965 84.4363 38.0965C84.4363 38.0965 84.4363 38.0965 84.4363 38.0965C84.4363 38.0965 84.4363 38.0965 84.4363 38.0965C84.4363 38.0965 84.4363 38.0965 84.4363 38.0965C84.4363 38.0965 84.4363 38.0965 84.4363 38.0965C84.4363 38.0965 84.4363 38.0965 84.4363 38.0965C84.4363 38.0965 84.4363 38.0965 84.4363 38.0965C84.4363 38.0965 84.4363 38.0965 84.4363 38.0965C84.4363 38.0965 84.4363 38.0965 84.4363 38.0965C84.4363 38.0965 84.4363 38.0965 84.4363 38.0965C84.4363 38.0965 84.4363 38.0965 84.4363 38.0965C84.4363 38.0965 84.4363 38.0965 84.4363 38.0965C84.4363 38.0965 84.4363 38.0965 84.4363 38.0965C84.4363 38.0965 84.4363 38.0965 84.4363 38.0965C84.4363 38.0965 84.4363 38.0965 84.4363 38.0965C84.4363 38.0965 84.4363 38.0965 84.4363 38.0965C84.4363 38.0965 84.4363 38.0965 84.4363 38.0965C84.4363 38.0965 84.4363 38.0965 84.4363 38.0965C84.4363 38.0965 84.4363 38.0965 84.4363 38.0965C84.4363 38.0965 84.4363 38.0965 84.4363 38.0965C84.4363 38.0965 84.4363 38.0965 84.4363 38.0965C84.4363 38.0965 84.4363 38.0965 84.4363 38.0965C84.4363 38.0965 84.4363 38.0965 84.4363 38.0965C84.4363 38.0965 84.4363 38.0965 84.4363 38.0965C84.4363 38.0965 84.4363 38.0965 84.4363 38.0965C84.4363 38.0965 84.4363 38.0965 84.4363 38.0965C84.4363 38.0965 84.4363 38.0965 84.4363 38.0965C84.4363 38.0965 84.4363 38.0965 84.4363 38.0965C84.4363 38.0965 84.4363 38.0965 84.4363 38.0965C84.4363 38.0965 84.4363 38.0965 84.4363 38.0965C84.4363 38.0965 84.4363 38.0965 84.4363 38.0965C84.4363 38.0965 84.4363 38.0965 84.4363 38.0965C84.4363 38.0965 84.4363 38.0965 84.4363 38.0965C84.4363 38.0965 84.4363 38.0965 84.4363 38.0965C84.4363 38.0965 84.4363 38.0965 84.4363 38.0965C84.4363 38.0965 84.4363 38.0965 84.4363 38.0965C84.4363 38.0965 84.4363 38.0965 84.4363 38.0965C84.4363 38.0965 84.4363 38.0965 84.4363 38.0965C84.4363 38.0965 84.4363 38.0965 84.4363 38.0965C84.4363 38.0965 84.4363 38.0965 84.4363 38.0965C84.4363 38.0965 84.4363 38.0965 84.4363 38.0965C84.4363 38.0965 84.4363 38.0965 84.4363 38.0965C84.4363 38.0965 84.4363 38.0965 84.4363 38.0965C84.4363 38.0965 84.4363 38.0965 84.4363 38.0965C84.4363 38.0965 84.4363 38.0965 84.4363 38.0965C84.4363 38.0965 84.4363 38.0965 84.4363 38.0965C84.4363 38.0965 84.4363 38.0965 84.4363 38.0965C84.4363 38.0965 84.4363 38.0965 84.4363 38.0965C84.4363 38.0965 84.4363 38.0965 84.4363 38.0965C84.4363 38.0965 84.4363 38.0965 84.4363 38.0965C84.4363 38.0965 84.4363 38.0965 84.4363 38.0965C84.4363 38.0965 84.4363 38.0965 84.4363 38.0965C84.4363 38.0965 84.4363 38.0965 84.4363 38.0965C84.4363 38.0965 84.4363 38.0965 84.4363 38.0965C84.4363 38.0965 84.4363 38.0965 84.4363 38.0965C84.4363 38.0965 84.4363 38.0965 84.4363 38.0965C84.4363 38.0965 84.4363 38.0965 84.4363 38.0965C84.4363 38.0965 84.4363 38.0965 84.4363 38.0965C84.4363 38.0965 84.4363 38.0965 84.4363 38.0965C84.4363 38.0965 84.4363 38.0965 84.4363 38.0965C84.4363 38.0965 84.4363 38.0965 84.4363 38.0965C84.4363 38.0965 84.4363 38.0965 84.4363 38.0965C84.4363 38.0965 84.4363 38.0965 84.4363 38.0965C84.4363 38.0965 84.4363 38.0965 84.4363 38.0965C84.4363 38.0965 84.4363 38.0965 84.4363 38.0965C84.4363 38.0965 84.4363 38.0965 84.4363 38.0965C84.4363 38.0965 84.4363 38.0965 84.4363 38.0965C84.4363 38.0965 84.4363 38.0965 84.4363 38.0965C84.4363 38.0965 84.4363 38.0965 84.4363 38.0965C84.4363 38.0965 84.4363 38.0965 84.4363 38.0965C84.4363 38.0965 84.4363 38.0965 84.4363 38.0965C84.4363 38.0965 84.4363 38.0965 84.4363 38.0965C84.4363 38.0965 84.4363 38.0965 84.4363 38.0965C84.4363 38.0965 84.4363 38.0965 84.4363 38.0965C84.4363 38.0965 84.4363 38.0965 84.4363 38.0965C84.4363 38.0965 84.4363 38.0965 84.4363 38.0965C84.4363 38.0965 84.4363 38.0965 84.4363 38.0965C84.4363 38.0965 84.4363 38.0965 84.4363 38.0965C84.4363 38.0965 84.4363 38.0965 84.4363 38.0965C84.4363 38.0965 84.4363 38.0965 84.4363 38.0965C84.4363 38.0965 84.4363 38.0965 84.4363 38.0965C84.4363 38.0965 84.4363 38.0965 84.4363 38.0965C84.4363 38.0965 84.4363 38.0965 84.4363 38.0965C84.4363 38.0965 84.4363 38.0965 84.4363 38.0965C84.4363 38.0965 84.4363 38.0965 84.4363 38.0965C84.4363 38.0965 84.4363 38.0965 84.4363 38.0965C84.4363 38.0965 84.4363 38.0965 84.4363 38.0965C84.4363 38.0965 84.4363 38.0965 84.4363 38.0965C84.4363 38.0965 84.4363 38.0965 84.4363 38.0965C84.4363 38.0965 84.4363 38.0965 84.4363 38.0965C84.4363 38.0965 84.4363 38.0965 84.4363 38.0965C84.4363 38.0965 84.4363 38.0965 84.4363 38.0965C84.4363 38.0965 84.4363 38.0965 84.4363 38.0965C84.4363 38.0965 84.4363 38.0965 84.4363 38.0965C84.4363 38.0965 84.4363 38.0965 84.4363 38.0965C84.4363 38.0965 84.4363 38.0965 84.4363 38.0965C84.4363 38.0965 84.4363 38.0965 84.4363 38.0965C84.4363 38.0965 84.4363 38.0965 84.4363 38.0965C84.4363 38.0965 84.4363 38.0965 84.4363 38.0965C84.4363 38.0965 84.4363 38.0965 84.4363 38.0965C84.4363 38.0965 84.4363 38.0965 84.4363 38.0965C84.4363 38.0965 84.4363 38.0965 84.4363 38.0965C84.4363 38.0965 84.4363 38.0965 84.4363 38.0965C84.4363 38.0965 84.4363 38.0965 84.4363 38.0965C84.4363 38.0965 84.4363 38.0965 84.4363 38.0965C84.4363 38.0965 84.4363 38.0965 84.4363 38.0965C84.4363 38.0965 84.4363 38.0965 84.4363 38.0965C84.4363 38.0965 84.4363 38.0965 84.4363 38.0965C84.4363 38.0965 84.4363 38.0965 84.4363 38.0965C84.4363 38.0965 84.4363 38.0965 84.4363 38.0965C84.4363 38.0965 84.4363 38.0965 84.4363 38.0965C84.4363 38.0965 84.4363 38.0965 84.4363 38.0965C84.4363 38.0965 84.4363 38.0965 84.4363 38.0965C84.4363 38.0965 84.4363 38.0965 84.4363 38.0965C84.4363 38.0965 84.4363 38.0965 84.4363 38.0965C84.4363 38.0965 84.4363 38.0966 84.4363 38.0966C84.4363 38.0966 84.4363 38.0966 84.4363 38.0966C84.4363 38.0966 84.4363 38.0966 84.4363 38.0966C84.4363 38.0966 84.4363 38.0966 84.4363 38.0966C84.4363 38.0966 84.4363 38.0966 84.4363 38.0966C84.4363 38.0966 84.4363 38.0966 84.4363 38.0966C84.4363 38.0966 84.4363 38.0966 84.4363 38.0966C84.4363 38.0966 84.4363 38.0966 84.4363 38.0966C84.4363 38.0966 84.4363 38.0966 84.4363 38.0966C84.4363 38.0966 84.4363 38.0966 84.4363 38.0966C84.4363 38.0966 84.4363 38.0966 84.4363 38.0966C84.4363 38.0966 84.4363 38.0966 84.4363 38.0966C84.4363 38.0966 84.4363 38.0966 84.4363 38.0966C84.4363 38.0966 84.4363 38.0966 84.4363 38.0966C84.4363 38.0966 84.4363 38.0966 84.4363 38.0966C84.4363 38.0966 84.4363 38.0966 84.4363 38.0966C84.4363 38.0966 84.4363 38.0966 84.4363 38.0966C84.4363 38.0966 84.4363 38.0966 84.4363 38.0966C84.4363 38.0966 84.4363 38.0966 84.4363 38.0966C84.4363 38.0966 84.4363 38.0966 84.4363 38.0966C84.4363 38.0966 84.4363 38.0966 84.4363 38.0966C84.4363 38.0966 84.4363 38.0966 84.4363 38.0966C84.4363 38.0966 84.4363 38.0966 84.4363 38.0966C84.4363 38.0966 84.4363 38.0966 84.4363 38.0966C84.4363 38.0966 84.4363 38.0966 84.4363 38.0966C84.4363 38.0966 84.4363 38.0966 84.4363 38.0966C84.4363 38.0966 84.4363 38.0966 84.4363 38.0966C84.4363 38.0966 84.4363 38.0966 84.4363 38.0966C84.4363 38.0966 84.4363 38.0966 84.4363 38.0966C84.4363 38.0966 84.4363 38.0966 84.4363 38.0966C84.4363 38.0966 84.4363 38.0966 84.4363 38.0966C84.4363 38.0966 84.4363 38.0966 84.4363 38.0966C84.4363 38.0966 84.4363 38.0966 84.4363 38.0966C84.4363 38.0966 84.4363 38.0966 84.4363 38.0966C84.4363 38.0966 84.4363 38.0966 84.4363 38.0966C84.4363 38.0966 84.4363 38.0966 84.4363 38.0966C84.4363 38.0966 84.4363 38.0966 84.4363 38.0966C84.4363 38.0966 84.4363 38.0966 84.4363 38.0966C84.4363 38.0966 84.4363 38.0966 84.4363 38.0966C84.4363 38.0966 84.4363 38.0966 84.4363 38.0966C84.4363 38.0966 84.4363 38.0966 84.4363 38.0966C84.4363 38.0966 84.4363 38.0966 84.4363 38.0966C84.4363 38.0966 84.4363 38.0966 84.4363 38.0966C84.4363 38.0966 84.4363 38.0966 84.4363 38.0966C84.4363 38.0966 84.4363 38.0966 84.4363 38.0966C84.4363 38.0966 84.4363 38.0966 84.4363 38.0966C84.4363 38.0966 84.4363 38.0966 84.4363 38.0966C84.4363 38.0966 84.4363 38.0966 84.4363 38.0966C84.4363 38.0966 84.4363 38.0966 84.4363 38.0966C84.4363 38.0966 84.4363 38.0966 84.4363 38.0966C84.4363 38.0966 84.4363 38.0966 84.4363 38.0966C84.4363 38.0966 84.4363 38.0966 84.4363 38.0966C84.4363 38.0966 84.4363 38.0966 84.4363 38.0966C84.4363 38.0966 84.4363 38.0966 84.4363 38.0966C84.4363 38.0966 84.4363 38.0966 84.4363 38.0966C84.4363 38.0966 84.4363 38.0966 84.4363 38.0966C84.4363 38.0966 84.4363 38.0966 84.4363 38.0966C84.4363 38.0966 84.4363 38.0966 84.4363 38.0966C84.4363 38.0966 84.4363 38.0966 84.4363 38.0966C84.4363 38.0966 84.4363 38.0966 84.4363 38.0966C84.4363 38.0966 84.4363 38.0966 84.4363 38.0966C84.4363 38.0966 84.4363 38.0966 84.4363 38.0966C84.4363 38.0966 84.4363 38.0966 84.4363 38.0966C84.4363 38.0966 84.4363 38.0966 84.4363 38.0966C84.4363 38.0966 84.4363 38.0966 84.4363 38.0966C84.4363 38.0966 84.4363 38.0966 84.4363 38.0966C84.4363 38.0966 84.4363 38.0966 84.4363 38.0966C84.4363 38.0966 84.4363 38.0966 84.4363 38.0966C84.4363 38.0966 84.4363 38.0966 84.4363 38.0966C84.4363 38.0966 84.4363 38.0966 84.4363 38.0966C84.4363 38.0966 84.4363 38.0966 84.4363 38.0966C84.4363 38.0966 84.4363 38.0966 84.4363 38.0966C84.4363 38.0966 84.4363 38.0966 84.4363 38.0966C84.4363 38.0966 84.4363 38.0966 84.4363 38.0966C84.4363 38.0966 84.4363 38.0966 84.4363 38.0966C84.4363 38.0966 84.4363 38.0966 84.4363 38.0966C84.4363 38.0966 84.4363 38.0966 84.4363 38.0966C84.4363 38.0966 84.4363 38.0966 84.4363 38.0966C84.4363 38.0966 84.4363 38.0966 84.4363 38.0966C84.4363 38.0966 84.4363 38.0966 84.4363 38.0966C84.4363 38.0966 84.4363 38.0966 84.4363 38.0966C84.4363 38.0966 84.4363 38.0966 84.4363 38.0966C84.4363 38.0966 84.4363 38.0966 84.4363 38.0966C84.4363 38.0966 84.4363 38.0966 84.4363 38.0966C84.4363 38.0966 84.4363 38.0966 84.4363 38.0966C84.4363 38.0966 84.4363 38.0966 84.4363 38.0966C84.4363 38.0966 84.4363 38.0966 84.4363 38.0966C84.4363 38.0966 84.4363 38.0966 84.4363 38.0966C84.4363 38.0966 84.4363 38.0966 84.4363 38.0966C84.4363 38.0966 84.4363 38.0966 84.4363 38.0966C84.4363 38.0966 84.4363 38.0966 84.4363 38.0966C84.4363 38.0966 84.4363 38.0966 84.4363 38.0966C84.4363 38.0966 84.4363 38.0966 84.4363 38.0966C84.4363 38.0966 84.4363 38.0966 84.4363 38.0966C84.4363 38.0966 84.4363 38.0966 84.4363 38.0966C84.4363 38.0966 84.4363 38.0966 84.4363 38.0966C84.4363 38.0966 84.4363 38.0966 84.4363 38.0966C84.4363 38.0966 84.4363 38.0966 84.4363 38.0966C84.4363 38.0966 84.4363 38.0966 84.4363 38.0966C84.4363 38.0966 84.4363 38.0966 84.4363 38.0966C84.4363 38.0966 84.4363 38.0966 84.4363 38.0966C84.4363 38.0966 84.4363 38.0966 84.4363 38.0966C84.4363 38.0966 84.4363 38.0966 84.4363 38.0966C84.4363 38.0966 84.4363 38.0966 84.4363 38.0966C84.4363 38.0966 84.4363 38.0966 84.4363 38.0966C84.4363 38.0966 84.4363 38.0966 84.4363 38.0966C84.4363 38.0966 84.4363 38.0966 84.4363 38.0966C84.4363 38.0966 84.4363 38.0966 84.4363 38.0966C84.4363 38.0966 84.4363 38.0966 84.4363 38.0966C84.4363 38.0966 84.4363 38.0966 84.4363 38.0966C84.4363 38.0966 84.4363 38.0966 84.4363 38.0966C84.4363 38.0966 84.4363 38.0966 84.4363 38.0966C84.4363 38.0966 84.4363 38.0966 84.4363 38.0966C84.4363 38.0966 84.4363 38.0966 84.4363 38.0966C84.4363 38.0966 84.4363 38.0966 84.4363 38.0966C84.4363 38.0966 84.4363 38.0966 84.4363 38.0966C84.4363 38.0966 84.4363 38.0966 84.4363 38.0966C84.4363 38.0966 84.4363 38.0966 84.4363 38.0966C84.4363 38.0966 84.4363 38.0966 84.4363 38.0966C84.4363 38.0966 84.4363 38.0966 84.4363 38.0966C84.4363 38.0966 84.4363 38.0966 84.4363 38.0966C84.4363 38.0966 84.4363 38.0966 84.4363 38.0966C84.4363 38.0966 84.4363 38.0966 84.4363 38.0966C84.4363 38.0966 84.4363 38.0966 84.4363 38.0966C84.4363 38.0967 84.4363 38.0967 84.4363 38.0967C84.4363 38.0967 84.4363 38.0967 84.4363 38.0967C84.4363 38.0967 84.4363 38.0967 84.4363 38.0967C84.4363 38.0967 84.4363 38.0967 84.4363 38.0967C84.4363 38.0967 84.4363 38.0967 84.4363 38.0967C84.4363 38.0967 84.4363 38.0967 84.4363 38.0967C84.4363 38.0967 84.4363 38.0967 84.4363 38.0967C84.4363 38.0967 84.4363 38.0967 84.4363 38.0967C84.4363 38.0967 84.4363 38.0967 84.4363 38.0967C84.4363 38.0967 84.4363 38.0967 84.4363 38.0967C84.4363 38.0967 84.4363 38.0967 84.4363 38.0967C84.4363 38.0967 84.4363 38.0967 84.4363 38.0967C84.4363 38.0967 84.4363 38.0967 84.4363 38.0967C84.4363 38.0967 84.4363 38.0967 84.4363 38.0967C84.4363 38.0967 84.4363 38.0967 84.4363 38.0967C84.4363 38.0967 84.4363 38.0967 84.4363 38.0967C84.4363 38.0967 84.4363 38.0967 84.4363 38.0967C84.4363 38.0967 84.4363 38.0967 84.4363 38.0967C84.4363 38.0967 84.4363 38.0967 84.4363 38.0967C84.4363 38.0967 84.4363 38.0967 84.4363 38.0967C84.4363 38.0967 84.4363 38.0967 84.4363 38.0967C84.4363 38.0967 84.4363 38.0967 84.4363 38.0967C84.4363 38.0967 84.4363 38.0967 84.4363 38.0967C84.4363 38.0967 84.4363 38.0967 84.4363 38.0967C84.4363 38.0967 84.4363 38.0967 84.4363 38.0967C84.4363 38.0967 84.4363 38.0967 84.4363 38.0967C84.4363 38.0967 84.4363 38.0967 84.4363 38.0967C84.4363 38.0967 84.4363 38.0967 84.4363 38.0967C84.4363 38.0967 84.4363 38.0967 84.4363 38.0967C84.4363 38.0967 84.4363 38.0967 84.4363 38.0967C84.4363 38.0967 84.4363 38.0967 84.4363 38.0967C84.4363 38.0967 84.4363 38.0967 84.4363 38.0967C84.4363 38.0967 84.4363 38.0967 84.4363 38.0967C84.4363 38.0967 84.4363 38.0967 84.4363 38.0967C84.4363 38.0967 84.4363 38.0967 84.4363 38.0967C84.4363 38.0967 84.4363 38.0967 84.4363 38.0967C84.4363 38.0967 84.4363 38.0967 84.4363 38.0967H82.4363C82.4363 38.0967 82.4363 38.0967 82.4363 38.0967C82.4363 38.0967 82.4363 38.0967 82.4363 38.0967C82.4363 38.0967 82.4363 38.0967 82.4363 38.0967C82.4363 38.0967 82.4363 38.0967 82.4363 38.0967C82.4363 38.0967 82.4363 38.0967 82.4363 38.0967C82.4363 38.0967 82.4363 38.0967 82.4363 38.0967C82.4363 38.0967 82.4363 38.0967 82.4363 38.0967C82.4363 38.0967 82.4363 38.0967 82.4363 38.0967C82.4363 38.0967 82.4363 38.0967 82.4363 38.0967C82.4363 38.0967 82.4363 38.0967 82.4363 38.0967C82.4363 38.0967 82.4363 38.0967 82.4363 38.0967C82.4363 38.0967 82.4363 38.0967 82.4363 38.0967C82.4363 38.0967 82.4363 38.0967 82.4363 38.0967C82.4363 38.0967 82.4363 38.0967 82.4363 38.0967C82.4363 38.0967 82.4363 38.0967 82.4363 38.0967C82.4363 38.0967 82.4363 38.0967 82.4363 38.0967C82.4363 38.0967 82.4363 38.0967 82.4363 38.0967C82.4363 38.0967 82.4363 38.0967 82.4363 38.0967C82.4363 38.0967 82.4363 38.0967 82.4363 38.0967C82.4363 38.0967 82.4363 38.0967 82.4363 38.0967C82.4363 38.0967 82.4363 38.0967 82.4363 38.0967C82.4363 38.0967 82.4363 38.0967 82.4363 38.0967C82.4363 38.0967 82.4363 38.0967 82.4363 38.0967C82.4363 38.0967 82.4363 38.0967 82.4363 38.0967C82.4363 38.0967 82.4363 38.0967 82.4363 38.0967C82.4363 38.0967 82.4363 38.0967 82.4363 38.0967C82.4363 38.0967 82.4363 38.0967 82.4363 38.0967C82.4363 38.0967 82.4363 38.0967 82.4363 38.0967C82.4363 38.0967 82.4363 38.0967 82.4363 38.0967C82.4363 38.0967 82.4363 38.0967 82.4363 38.0967C82.4363 38.0967 82.4363 38.0967 82.4363 38.0967C82.4363 38.0967 82.4363 38.0967 82.4363 38.0967C82.4363 38.0967 82.4363 38.0967 82.4363 38.0967C82.4363 38.0967 82.4363 38.0967 82.4363 38.0967C82.4363 38.0967 82.4363 38.0967 82.4363 38.0967C82.4363 38.0967 82.4363 38.0967 82.4363 38.0967C82.4363 38.0967 82.4363 38.0967 82.4363 38.0966C82.4363 38.0966 82.4363 38.0966 82.4363 38.0966C82.4363 38.0966 82.4363 38.0966 82.4363 38.0966C82.4363 38.0966 82.4363 38.0966 82.4363 38.0966C82.4363 38.0966 82.4363 38.0966 82.4363 38.0966C82.4363 38.0966 82.4363 38.0966 82.4363 38.0966C82.4363 38.0966 82.4363 38.0966 82.4363 38.0966C82.4363 38.0966 82.4363 38.0966 82.4363 38.0966C82.4363 38.0966 82.4363 38.0966 82.4363 38.0966C82.4363 38.0966 82.4363 38.0966 82.4363 38.0966C82.4363 38.0966 82.4363 38.0966 82.4363 38.0966C82.4363 38.0966 82.4363 38.0966 82.4363 38.0966C82.4363 38.0966 82.4363 38.0966 82.4363 38.0966C82.4363 38.0966 82.4363 38.0966 82.4363 38.0966C82.4363 38.0966 82.4363 38.0966 82.4363 38.0966C82.4363 38.0966 82.4363 38.0966 82.4363 38.0966C82.4363 38.0966 82.4363 38.0966 82.4363 38.0966C82.4363 38.0966 82.4363 38.0966 82.4363 38.0966C82.4363 38.0966 82.4363 38.0966 82.4363 38.0966C82.4363 38.0966 82.4363 38.0966 82.4363 38.0966C82.4363 38.0966 82.4363 38.0966 82.4363 38.0966C82.4363 38.0966 82.4363 38.0966 82.4363 38.0966C82.4363 38.0966 82.4363 38.0966 82.4363 38.0966C82.4363 38.0966 82.4363 38.0966 82.4363 38.0966C82.4363 38.0966 82.4363 38.0966 82.4363 38.0966C82.4363 38.0966 82.4363 38.0966 82.4363 38.0966C82.4363 38.0966 82.4363 38.0966 82.4363 38.0966C82.4363 38.0966 82.4363 38.0966 82.4363 38.0966C82.4363 38.0966 82.4363 38.0966 82.4363 38.0966C82.4363 38.0966 82.4363 38.0966 82.4363 38.0966C82.4363 38.0966 82.4363 38.0966 82.4363 38.0966C82.4363 38.0966 82.4363 38.0966 82.4363 38.0966C82.4363 38.0966 82.4363 38.0966 82.4363 38.0966C82.4363 38.0966 82.4363 38.0966 82.4363 38.0966C82.4363 38.0966 82.4363 38.0966 82.4363 38.0966C82.4363 38.0966 82.4363 38.0966 82.4363 38.0966C82.4363 38.0966 82.4363 38.0966 82.4363 38.0966C82.4363 38.0966 82.4363 38.0966 82.4363 38.0966C82.4363 38.0966 82.4363 38.0966 82.4363 38.0966C82.4363 38.0966 82.4363 38.0966 82.4363 38.0966C82.4363 38.0966 82.4363 38.0966 82.4363 38.0966C82.4363 38.0966 82.4363 38.0966 82.4363 38.0966C82.4363 38.0966 82.4363 38.0966 82.4363 38.0966C82.4363 38.0966 82.4363 38.0966 82.4363 38.0966C82.4363 38.0966 82.4363 38.0966 82.4363 38.0966C82.4363 38.0966 82.4363 38.0966 82.4363 38.0966C82.4363 38.0966 82.4363 38.0966 82.4363 38.0966C82.4363 38.0966 82.4363 38.0966 82.4363 38.0966C82.4363 38.0966 82.4363 38.0966 82.4363 38.0966C82.4363 38.0966 82.4363 38.0966 82.4363 38.0966C82.4363 38.0966 82.4363 38.0966 82.4363 38.0966C82.4363 38.0966 82.4363 38.0966 82.4363 38.0966C82.4363 38.0966 82.4363 38.0966 82.4363 38.0966C82.4363 38.0966 82.4363 38.0966 82.4363 38.0966C82.4363 38.0966 82.4363 38.0966 82.4363 38.0966C82.4363 38.0966 82.4363 38.0966 82.4363 38.0966C82.4363 38.0966 82.4363 38.0966 82.4363 38.0966C82.4363 38.0966 82.4363 38.0966 82.4363 38.0966C82.4363 38.0966 82.4363 38.0966 82.4363 38.0966C82.4363 38.0966 82.4363 38.0966 82.4363 38.0966C82.4363 38.0966 82.4363 38.0966 82.4363 38.0966C82.4363 38.0966 82.4363 38.0966 82.4363 38.0966C82.4363 38.0966 82.4363 38.0966 82.4363 38.0966C82.4363 38.0966 82.4363 38.0966 82.4363 38.0966C82.4363 38.0966 82.4363 38.0966 82.4363 38.0966C82.4363 38.0966 82.4363 38.0966 82.4363 38.0966C82.4363 38.0966 82.4363 38.0966 82.4363 38.0966C82.4363 38.0966 82.4363 38.0966 82.4363 38.0966C82.4363 38.0966 82.4363 38.0966 82.4363 38.0966C82.4363 38.0966 82.4363 38.0966 82.4363 38.0966C82.4363 38.0966 82.4363 38.0966 82.4363 38.0966C82.4363 38.0966 82.4363 38.0966 82.4363 38.0966C82.4363 38.0966 82.4363 38.0966 82.4363 38.0966C82.4363 38.0966 82.4363 38.0966 82.4363 38.0966C82.4363 38.0966 82.4363 38.0966 82.4363 38.0966C82.4363 38.0966 82.4363 38.0966 82.4363 38.0966C82.4363 38.0966 82.4363 38.0966 82.4363 38.0966C82.4363 38.0966 82.4363 38.0966 82.4363 38.0966C82.4363 38.0966 82.4363 38.0966 82.4363 38.0966C82.4363 38.0966 82.4363 38.0966 82.4363 38.0966C82.4363 38.0966 82.4363 38.0966 82.4363 38.0966C82.4363 38.0966 82.4363 38.0966 82.4363 38.0966C82.4363 38.0966 82.4363 38.0966 82.4363 38.0966C82.4363 38.0966 82.4363 38.0966 82.4363 38.0966C82.4363 38.0966 82.4363 38.0966 82.4363 38.0966C82.4363 38.0966 82.4363 38.0966 82.4363 38.0966C82.4363 38.0966 82.4363 38.0966 82.4363 38.0966C82.4363 38.0966 82.4363 38.0966 82.4363 38.0966C82.4363 38.0966 82.4363 38.0966 82.4363 38.0966C82.4363 38.0966 82.4363 38.0966 82.4363 38.0966C82.4363 38.0966 82.4363 38.0966 82.4363 38.0966C82.4363 38.0966 82.4363 38.0966 82.4363 38.0966C82.4363 38.0966 82.4363 38.0966 82.4363 38.0966C82.4363 38.0966 82.4363 38.0966 82.4363 38.0966C82.4363 38.0966 82.4363 38.0966 82.4363 38.0966C82.4363 38.0966 82.4363 38.0966 82.4363 38.0966C82.4363 38.0966 82.4363 38.0966 82.4363 38.0966C82.4363 38.0966 82.4363 38.0966 82.4363 38.0966C82.4363 38.0966 82.4363 38.0966 82.4363 38.0966C82.4363 38.0966 82.4363 38.0966 82.4363 38.0966C82.4363 38.0966 82.4363 38.0966 82.4363 38.0966C82.4363 38.0966 82.4363 38.0966 82.4363 38.0966C82.4363 38.0966 82.4363 38.0966 82.4363 38.0966C82.4363 38.0966 82.4363 38.0966 82.4363 38.0966C82.4363 38.0966 82.4363 38.0966 82.4363 38.0966C82.4363 38.0966 82.4363 38.0966 82.4363 38.0966C82.4363 38.0966 82.4363 38.0966 82.4363 38.0966C82.4363 38.0966 82.4363 38.0966 82.4363 38.0966C82.4363 38.0966 82.4363 38.0966 82.4363 38.0966C82.4363 38.0966 82.4363 38.0966 82.4363 38.0966C82.4363 38.0966 82.4363 38.0966 82.4363 38.0966C82.4363 38.0966 82.4363 38.0966 82.4363 38.0966C82.4363 38.0966 82.4363 38.0966 82.4363 38.0966C82.4363 38.0966 82.4363 38.0966 82.4363 38.0966C82.4363 38.0966 82.4363 38.0966 82.4363 38.0966C82.4363 38.0966 82.4363 38.0966 82.4363 38.0966C82.4363 38.0966 82.4363 38.0966 82.4363 38.0966C82.4363 38.0966 82.4363 38.0966 82.4363 38.0966C82.4363 38.0966 82.4363 38.0966 82.4363 38.0966C82.4363 38.0966 82.4363 38.0966 82.4363 38.0966C82.4363 38.0966 82.4363 38.0966 82.4363 38.0966C82.4363 38.0966 82.4363 38.0966 82.4363 38.0966C82.4363 38.0966 82.4363 38.0966 82.4363 38.0966C82.4363 38.0966 82.4363 38.0966 82.4363 38.0966C82.4363 38.0966 82.4363 38.0965 82.4363 38.0965C82.4363 38.0965 82.4363 38.0965 82.4363 38.0965C82.4363 38.0965 82.4363 38.0965 82.4363 38.0965C82.4363 38.0965 82.4363 38.0965 82.4363 38.0965C82.4363 38.0965 82.4363 38.0965 82.4363 38.0965C82.4363 38.0965 82.4363 38.0965 82.4363 38.0965C82.4363 38.0965 82.4363 38.0965 82.4363 38.0965C82.4363 38.0965 82.4363 38.0965 82.4363 38.0965C82.4363 38.0965 82.4363 38.0965 82.4363 38.0965C82.4363 38.0965 82.4363 38.0965 82.4363 38.0965C82.4363 38.0965 82.4363 38.0965 82.4363 38.0965C82.4363 38.0965 82.4363 38.0965 82.4363 38.0965C82.4363 38.0965 82.4363 38.0965 82.4363 38.0965C82.4363 38.0965 82.4363 38.0965 82.4363 38.0965C82.4363 38.0965 82.4363 38.0965 82.4363 38.0965C82.4363 38.0965 82.4363 38.0965 82.4363 38.0965C82.4363 38.0965 82.4363 38.0965 82.4363 38.0965C82.4363 38.0965 82.4363 38.0965 82.4363 38.0965C82.4363 38.0965 82.4363 38.0965 82.4363 38.0965C82.4363 38.0965 82.4363 38.0965 82.4363 38.0965C82.4363 38.0965 82.4363 38.0965 82.4363 38.0965C82.4363 38.0965 82.4363 38.0965 82.4363 38.0965C82.4363 38.0965 82.4363 38.0965 82.4363 38.0965C82.4363 38.0965 82.4363 38.0965 82.4363 38.0965C82.4363 38.0965 82.4363 38.0965 82.4363 38.0965C82.4363 38.0965 82.4363 38.0965 82.4363 38.0965C82.4363 38.0965 82.4363 38.0965 82.4363 38.0965C82.4363 38.0965 82.4363 38.0965 82.4363 38.0965C82.4363 38.0965 82.4363 38.0965 82.4363 38.0965C82.4363 38.0965 82.4363 38.0965 82.4363 38.0965C82.4363 38.0965 82.4363 38.0965 82.4363 38.0965C82.4363 38.0965 82.4363 38.0965 82.4363 38.0965C82.4363 38.0965 82.4363 38.0965 82.4363 38.0965C82.4363 38.0965 82.4363 38.0965 82.4363 38.0965C82.4363 38.0965 82.4363 38.0965 82.4363 38.0965C82.4363 38.0965 82.4363 38.0965 82.4363 38.0965C82.4363 38.0965 82.4363 38.0965 82.4363 38.0965C82.4363 38.0965 82.4363 38.0965 82.4363 38.0965C82.4363 38.0965 82.4363 38.0965 82.4363 38.0965C82.4363 38.0965 82.4363 38.0965 82.4363 38.0965C82.4363 38.0965 82.4363 38.0965 82.4363 38.0965C82.4363 38.0965 82.4363 38.0965 82.4363 38.0965C82.4363 38.0965 82.4363 38.0965 82.4363 38.0965C82.4363 38.0965 82.4363 38.0965 82.4363 38.0965C82.4363 38.0965 82.4363 38.0965 82.4363 38.0965C82.4363 38.0965 82.4363 38.0965 82.4363 38.0965C82.4363 38.0965 82.4363 38.0965 82.4363 38.0965C82.4363 38.0965 82.4363 38.0965 82.4363 38.0965C82.4363 38.0965 82.4363 38.0965 82.4363 38.0965C82.4363 38.0965 82.4363 38.0965 82.4363 38.0965C82.4363 38.0965 82.4363 38.0965 82.4363 38.0965C82.4363 38.0965 82.4363 38.0965 82.4363 38.0965C82.4363 38.0965 82.4363 38.0965 82.4363 38.0965C82.4363 38.0965 82.4363 38.0965 82.4363 38.0965C82.4363 38.0965 82.4363 38.0965 82.4363 38.0965C82.4363 38.0965 82.4363 38.0965 82.4363 38.0965C82.4363 38.0965 82.4363 38.0965 82.4363 38.0965C82.4363 38.0965 82.4363 38.0965 82.4363 38.0965C82.4363 38.0965 82.4363 38.0965 82.4363 38.0965C82.4363 38.0965 82.4363 38.0965 82.4363 38.0965C82.4363 38.0965 82.4363 38.0965 82.4363 38.0965C82.4363 38.0965 82.4363 38.0965 82.4363 38.0965C82.4363 38.0965 82.4363 38.0965 82.4363 38.0965C82.4363 38.0965 82.4363 38.0965 82.4363 38.0965C82.4363 38.0965 82.4363 38.0965 82.4363 38.0965C82.4363 38.0965 82.4363 38.0965 82.4363 38.0965C82.4363 38.0965 82.4363 38.0965 82.4363 38.0965C82.4363 38.0965 82.4363 38.0965 82.4363 38.0965C82.4363 38.0965 82.4363 38.0965 82.4363 38.0965C82.4363 38.0965 82.4363 38.0965 82.4363 38.0965C82.4363 38.0965 82.4363 38.0965 82.4363 38.0965C82.4363 38.0965 82.4363 38.0965 82.4363 38.0965C82.4363 38.0965 82.4363 38.0965 82.4363 38.0965C82.4363 38.0965 82.4363 38.0965 82.4363 38.0965C82.4363 38.0965 82.4363 38.0965 82.4363 38.0965C82.4363 38.0965 82.4363 38.0965 82.4363 38.0965C82.4363 38.0965 82.4363 38.0965 82.4363 38.0965C82.4363 38.0965 82.4363 38.0965 82.4363 38.0965C82.4363 38.0965 82.4363 38.0965 82.4363 38.0965C82.4363 38.0965 82.4363 38.0965 82.4363 38.0965C82.4363 38.0965 82.4363 38.0965 82.4363 38.0965C82.4363 38.0965 82.4363 38.0965 82.4363 38.0965C82.4363 38.0965 82.4363 38.0965 82.4363 38.0965C82.4363 38.0965 82.4363 38.0965 82.4363 38.0965C82.4363 38.0965 82.4363 38.0965 82.4363 38.0965C82.4363 38.0965 82.4363 38.0965 82.4363 38.0965C82.4363 38.0965 82.4363 38.0965 82.4363 38.0965C82.4363 38.0965 82.4363 38.0965 82.4363 38.0965C82.4363 38.0965 82.4363 38.0965 82.4363 38.0965C82.4363 38.0965 82.4363 38.0965 82.4363 38.0965C82.4363 38.0965 82.4363 38.0965 82.4363 38.0965C82.4363 38.0965 82.4363 38.0965 82.4363 38.0965C82.4363 38.0965 82.4363 38.0965 82.4363 38.0965C82.4363 38.0965 82.4363 38.0965 82.4363 38.0965C82.4363 38.0965 82.4363 38.0965 82.4363 38.0965C82.4363 38.0965 82.4363 38.0965 82.4363 38.0965C82.4363 38.0965 82.4363 38.0965 82.4363 38.0965C82.4363 38.0965 82.4363 38.0965 82.4363 38.0965C82.4363 38.0965 82.4363 38.0965 82.4363 38.0965C82.4363 38.0965 82.4363 38.0965 82.4363 38.0965C82.4363 38.0965 82.4363 38.0965 82.4363 38.0965C82.4363 38.0965 82.4363 38.0965 82.4363 38.0965C82.4363 38.0965 82.4363 38.0965 82.4363 38.0965C82.4363 38.0965 82.4363 38.0965 82.4363 38.0965C82.4363 38.0965 82.4363 38.0965 82.4363 38.0965C82.4363 38.0965 82.4363 38.0965 82.4363 38.0965C82.4363 38.0965 82.4363 38.0965 82.4363 38.0965C82.4363 38.0965 82.4363 38.0965 82.4363 38.0965C82.4363 38.0965 82.4363 38.0965 82.4363 38.0965C82.4363 38.0965 82.4363 38.0965 82.4363 38.0965C82.4363 38.0965 82.4363 38.0965 82.4363 38.0965C82.4363 38.0965 82.4363 38.0965 82.4363 38.0965C82.4363 38.0965 82.4363 38.0965 82.4363 38.0965C82.4363 38.0965 82.4363 38.0965 82.4363 38.0965C82.4363 38.0965 82.4363 38.0965 82.4363 38.0965C82.4363 38.0965 82.4363 38.0965 82.4363 38.0965C82.4363 38.0965 82.4363 38.0965 82.4363 38.0965C82.4363 38.0965 82.4363 38.0965 82.4363 38.0965C82.4363 38.0965 82.4363 38.0965 82.4363 38.0965C82.4363 38.0965 82.4363 38.0965 82.4363 38.0965C82.4363 38.0965 82.4363 38.0965 82.4363 38.0965C82.4363 38.0965 82.4363 38.0965 82.4363 38.0965C82.4363 38.0965 82.4363 38.0965 82.4363 38.0965C82.4363 38.0965 82.4363 38.0965 82.4363 38.0965C82.4363 38.0965 82.4363 38.0964 82.4363 38.0964C82.4363 38.0964 82.4363 38.0964 82.4363 38.0964C82.4363 38.0964 82.4363 38.0964 82.4363 38.0964C82.4363 38.0964 82.4363 38.0964 82.4363 38.0964C82.4363 38.0964 82.4363 38.0964 82.4363 38.0964C82.4363 38.0964 82.4363 38.0964 82.4363 38.0964C82.4363 38.0964 82.4363 38.0964 82.4363 38.0964C82.4363 38.0964 82.4363 38.0964 82.4363 38.0964C82.4363 38.0964 82.4363 38.0964 82.4363 38.0964C82.4363 38.0964 82.4363 38.0964 82.4363 38.0964C82.4363 38.0964 82.4363 38.0964 82.4363 38.0964C82.4363 38.0964 82.4363 38.0964 82.4363 38.0964C82.4363 38.0964 82.4363 38.0964 82.4363 38.0964C82.4363 38.0964 82.4363 38.0964 82.4363 38.0964C82.4363 38.0964 82.4363 38.0964 82.4363 38.0964C82.4363 38.0964 82.4363 38.0964 82.4363 38.0964C82.4363 38.0964 82.4363 38.0964 82.4363 38.0964C82.4363 38.0964 82.4363 38.0964 82.4363 38.0964C82.4363 38.0964 82.4363 38.0964 82.4363 38.0964C82.4363 38.0964 82.4363 38.0964 82.4363 38.0964C82.4363 38.0964 82.4363 38.0964 82.4363 38.0964C82.4363 38.0964 82.4363 38.0964 82.4363 38.0964C82.4363 38.0964 82.4363 38.0964 82.4363 38.0964C82.4363 38.0964 82.4363 38.0964 82.4363 38.0964C82.4363 38.0964 82.4363 38.0964 82.4363 38.0964C82.4363 38.0964 82.4363 38.0964 82.4363 38.0964C82.4363 38.0964 82.4363 38.0964 82.4363 38.0964C82.4363 38.0964 82.4363 38.0964 82.4363 38.0964C82.4363 38.0964 82.4363 38.0964 82.4363 38.0964C82.4363 38.0964 82.4363 38.0964 82.4363 38.0964C82.4363 38.0964 82.4363 38.0964 82.4363 38.0964C82.4363 38.0964 82.4363 38.0964 82.4363 38.0964C82.4363 38.0964 82.4363 38.0964 82.4363 38.0964C82.4363 38.0964 82.4363 38.0964 82.4363 38.0964C82.4363 38.0964 82.4363 38.0964 82.4363 38.0964C82.4363 38.0964 82.4363 38.0964 82.4363 38.0964C82.4363 38.0964 82.4363 38.0964 82.4363 38.0964C82.4363 38.0964 82.4363 38.0964 82.4363 38.0964C82.4363 38.0964 82.4363 38.0964 82.4363 38.0964C82.4363 38.0964 82.4363 38.0964 82.4363 38.0964C82.4363 38.0964 82.4363 38.0964 82.4363 38.0964C82.4363 38.0964 82.4363 38.0964 82.4363 38.0964C82.4363 38.0964 82.4363 38.0964 82.4363 38.0964C82.4363 38.0964 82.4363 38.0964 82.4363 38.0964C82.4363 38.0964 82.4363 38.0964 82.4363 38.0964C82.4363 38.0964 82.4363 38.0964 82.4363 38.0964C82.4363 38.0964 82.4363 38.0964 82.4363 38.0964C82.4363 38.0964 82.4363 38.0964 82.4363 38.0964C82.4363 38.0964 82.4363 38.0964 82.4363 38.0964C82.4363 38.0964 82.4363 38.0964 82.4363 38.0964C82.4363 38.0964 82.4363 38.0964 82.4363 38.0964C82.4363 38.0964 82.4363 38.0964 82.4363 38.0964C82.4363 38.0964 82.4363 38.0964 82.4363 38.0964C82.4363 38.0964 82.4363 38.0964 82.4363 38.0964C82.4363 38.0964 82.4363 38.0964 82.4363 38.0964C82.4363 38.0964 82.4363 38.0964 82.4363 38.0964C82.4363 38.0964 82.4363 38.0964 82.4363 38.0964C82.4363 38.0964 82.4363 38.0964 82.4363 38.0964C82.4363 38.0964 82.4363 38.0964 82.4363 38.0964C82.4363 38.0964 82.4363 38.0964 82.4363 38.0964C82.4363 38.0964 82.4363 38.0964 82.4363 38.0964C82.4363 38.0964 82.4363 38.0964 82.4363 38.0964C82.4363 38.0964 82.4363 38.0964 82.4363 38.0964C82.4363 38.0964 82.4363 38.0964 82.4363 38.0964C82.4363 38.0964 82.4363 38.0964 82.4363 38.0964C82.4363 38.0964 82.4363 38.0964 82.4363 38.0964C82.4363 38.0964 82.4363 38.0964 82.4363 38.0964C82.4363 38.0964 82.4363 38.0964 82.4363 38.0964C82.4363 38.0964 82.4363 38.0964 82.4363 38.0964C82.4363 38.0964 82.4363 38.0964 82.4363 38.0964C82.4363 38.0964 82.4363 38.0964 82.4363 38.0964C82.4363 38.0964 82.4363 38.0964 82.4363 38.0964C82.4363 38.0964 82.4363 38.0964 82.4363 38.0964C82.4363 38.0964 82.4363 38.0964 82.4363 38.0964C82.4363 38.0964 82.4363 38.0964 82.4363 38.0964C82.4363 38.0964 82.4363 38.0964 82.4363 38.0964C82.4363 38.0964 82.4363 38.0964 82.4363 38.0964C82.4363 38.0964 82.4363 38.0964 82.4363 38.0964C82.4363 38.0964 82.4363 38.0964 82.4363 38.0964C82.4363 38.0964 82.4363 38.0964 82.4363 38.0964C82.4363 38.0964 82.4363 38.0964 82.4363 38.0964C82.4363 38.0964 82.4363 38.0964 82.4363 38.0964C82.4363 38.0964 82.4363 38.0964 82.4363 38.0964C82.4363 38.0964 82.4363 38.0964 82.4363 38.0964C82.4363 38.0964 82.4363 38.0964 82.4363 38.0964C82.4363 38.0964 82.4363 38.0964 82.4363 38.0964C82.4363 38.0964 82.4363 38.0964 82.4363 38.0964C82.4363 38.0964 82.4363 38.0964 82.4363 38.0964C82.4363 38.0964 82.4363 38.0964 82.4363 38.0964C82.4363 38.0964 82.4363 38.0964 82.4363 38.0964C82.4363 38.0964 82.4363 38.0964 82.4363 38.0964C82.4363 38.0964 82.4363 38.0964 82.4363 38.0964C82.4363 38.0964 82.4363 38.0964 82.4363 38.0964C82.4363 38.0964 82.4363 38.0964 82.4363 38.0964C82.4363 38.0964 82.4363 38.0964 82.4363 38.0964C82.4363 38.0964 82.4363 38.0964 82.4363 38.0964C82.4363 38.0964 82.4363 38.0964 82.4363 38.0964C82.4363 38.0964 82.4363 38.0964 82.4363 38.0964C82.4363 38.0964 82.4363 38.0964 82.4363 38.0964C82.4363 38.0964 82.4363 38.0964 82.4363 38.0964C82.4363 38.0964 82.4363 38.0964 82.4363 38.0964C82.4363 38.0964 82.4363 38.0964 82.4363 38.0964C82.4363 38.0964 82.4363 38.0964 82.4363 38.0964C82.4363 38.0964 82.4363 38.0964 82.4363 38.0964C82.4363 38.0964 82.4363 38.0964 82.4363 38.0964C82.4363 38.0964 82.4363 38.0964 82.4363 38.0964C82.4363 38.0964 82.4363 38.0964 82.4363 38.0964C82.4363 38.0964 82.4363 38.0964 82.4363 38.0964C82.4363 38.0964 82.4363 38.0964 82.4363 38.0964C82.4363 38.0964 82.4363 38.0964 82.4363 38.0964C82.4363 38.0964 82.4363 38.0964 82.4363 38.0964C82.4363 38.0964 82.4363 38.0964 82.4363 38.0964C82.4363 38.0964 82.4363 38.0964 82.4363 38.0964C82.4363 38.0964 82.4363 38.0964 82.4363 38.0964C82.4363 38.0964 82.4363 38.0964 82.4363 38.0964C82.4363 38.0964 82.4363 38.0964 82.4363 38.0964C82.4363 38.0964 82.4363 38.0964 82.4363 38.0964C82.4363 38.0964 82.4363 38.0964 82.4363 38.0964C82.4363 38.0964 82.4363 38.0964 82.4363 38.0964C82.4363 38.0964 82.4363 38.0964 82.4363 38.0964C82.4363 38.0964 82.4363 38.0964 82.4363 38.0964C82.4363 38.0964 82.4363 38.0964 82.4363 38.0964C82.4363 38.0964 82.4363 38.0964 82.4363 38.0964C82.4363 38.0964 82.4363 38.0964 82.4363 38.0964C82.4363 38.0964 82.4363 38.0963 82.4363 38.0963C82.4363 38.0963 82.4363 38.0963 82.4363 38.0963C82.4363 38.0963 82.4363 38.0963 82.4363 38.0963C82.4363 38.0963 82.4363 38.0963 82.4363 38.0963C82.4363 38.0963 82.4363 38.0963 82.4363 38.0963C82.4363 38.0963 82.4363 38.0963 82.4363 38.0963C82.4363 38.0963 82.4363 38.0963 82.4363 38.0963C82.4363 38.0963 82.4363 38.0963 82.4363 38.0963C82.4363 38.0963 82.4363 38.0963 82.4363 38.0963C82.4363 38.0963 82.4363 38.0963 82.4363 38.0963C82.4363 38.0963 82.4363 38.0963 82.4363 38.0963C82.4363 38.0963 82.4363 38.0963 82.4363 38.0963C82.4363 38.0963 82.4363 38.0963 82.4363 38.0963C82.4363 38.0963 82.4363 38.0963 82.4363 38.0963C82.4363 38.0963 82.4363 38.0963 82.4363 38.0963C82.4363 38.0963 82.4363 38.0963 82.4363 38.0963C82.4363 38.0963 82.4363 38.0963 82.4363 38.0963C82.4363 38.0963 82.4363 38.0963 82.4363 38.0963C82.4363 38.0963 82.4363 38.0963 82.4363 38.0963C82.4363 38.0963 82.4363 38.0963 82.4363 38.0963C82.4363 38.0963 82.4363 38.0963 82.4363 38.0963C82.4363 38.0963 82.4363 38.0963 82.4363 38.0963C82.4363 38.0963 82.4363 38.0963 82.4363 38.0963C82.4363 38.0963 82.4363 38.0963 82.4363 38.0963C82.4363 38.0963 82.4363 38.0963 82.4363 38.0963C82.4363 38.0963 82.4363 38.0963 82.4363 38.0963C82.4363 38.0963 82.4363 38.0963 82.4363 38.0963C82.4363 38.0963 82.4363 38.0963 82.4363 38.0963C82.4363 38.0963 82.4363 38.0963 82.4363 38.0963C82.4363 38.0963 82.4363 38.0963 82.4363 38.0963C82.4363 38.0963 82.4363 38.0963 82.4363 38.0963C82.4363 38.0963 82.4363 38.0963 82.4363 38.0963C82.4363 38.0963 82.4363 38.0963 82.4363 38.0963C82.4363 38.0963 82.4363 38.0963 82.4363 38.0963C82.4363 38.0963 82.4363 38.0963 82.4363 38.0963C82.4363 38.0963 82.4363 38.0963 82.4363 38.0963C82.4363 38.0963 82.4363 38.0963 82.4363 38.0963C82.4363 38.0963 82.4363 38.0963 82.4363 38.0963C82.4363 38.0963 82.4363 38.0963 82.4363 38.0963C82.4363 38.0963 82.4363 38.0963 82.4363 38.0963C82.4363 38.0963 82.4363 38.0963 82.4363 38.0963C82.4363 38.0963 82.4363 38.0963 82.4363 38.0963C82.4363 38.0963 82.4363 38.0963 82.4363 38.0963C82.4363 38.0963 82.4363 38.0963 82.4363 38.0963C82.4363 38.0963 82.4363 38.0963 82.4363 38.0963C82.4363 38.0963 82.4363 38.0963 82.4363 38.0963C82.4363 38.0963 82.4363 38.0963 82.4363 38.0963C82.4363 38.0963 82.4363 38.0963 82.4363 38.0963C82.4363 38.0963 82.4363 38.0963 82.4363 38.0963C82.4363 38.0963 82.4363 38.0963 82.4363 38.0963C82.4363 38.0963 82.4363 38.0963 82.4363 38.0963C82.4363 38.0963 82.4363 38.0963 82.4363 38.0963C82.4363 38.0963 82.4363 38.0963 82.4363 38.0963C82.4363 38.0963 82.4363 38.0963 82.4363 38.0963C82.4363 38.0963 82.4363 38.0963 82.4363 38.0963C82.4363 38.0963 82.4363 38.0963 82.4363 38.0963C82.4363 38.0963 82.4363 38.0963 82.4363 38.0963C82.4363 38.0963 82.4363 38.0963 82.4363 38.0963C82.4363 38.0963 82.4363 38.0963 82.4363 38.0963C82.4363 38.0963 82.4363 38.0963 82.4363 38.0963C82.4363 38.0963 82.4363 38.0963 82.4363 38.0963C82.4363 38.0963 82.4363 38.0963 82.4363 38.0963C82.4363 38.0963 82.4363 38.0963 82.4363 38.0963C82.4363 38.0963 82.4363 38.0963 82.4363 38.0963C82.4363 38.0963 82.4363 38.0963 82.4363 38.0963C82.4363 38.0963 82.4363 38.0963 82.4363 38.0963C82.4363 38.0963 82.4363 38.0963 82.4363 38.0963C82.4363 38.0963 82.4363 38.0963 82.4363 38.0963C82.4363 38.0963 82.4363 38.0963 82.4363 38.0963C82.4363 38.0963 82.4363 38.0963 82.4363 38.0963C82.4363 38.0963 82.4363 38.0963 82.4363 38.0963C82.4363 38.0963 82.4363 38.0963 82.4363 38.0963C82.4363 38.0963 82.4363 38.0963 82.4363 38.0963C82.4363 38.0963 82.4363 38.0963 82.4363 38.0963C82.4363 38.0963 82.4363 38.0963 82.4363 38.0963C82.4363 38.0963 82.4363 38.0963 82.4363 38.0963C82.4363 38.0963 82.4363 38.0963 82.4363 38.0963C82.4363 38.0963 82.4363 38.0963 82.4363 38.0963C82.4363 38.0963 82.4363 38.0963 82.4363 38.0963C82.4363 38.0963 82.4363 38.0963 82.4363 38.0963C82.4363 38.0963 82.4363 38.0963 82.4363 38.0963C82.4363 38.0963 82.4363 38.0963 82.4363 38.0963C82.4363 38.0963 82.4363 38.0963 82.4363 38.0963C82.4363 38.0963 82.4363 38.0963 82.4363 38.0963C82.4363 38.0963 82.4363 38.0963 82.4363 38.0963C82.4363 38.0963 82.4363 38.0963 82.4363 38.0963C82.4363 38.0963 82.4363 38.0963 82.4363 38.0963C82.4363 38.0963 82.4363 38.0963 82.4363 38.0963C82.4363 38.0963 82.4363 38.0963 82.4363 38.0963C82.4363 38.0963 82.4363 38.0963 82.4363 38.0963C82.4363 38.0963 82.4363 38.0963 82.4363 38.0963C82.4363 38.0963 82.4363 38.0963 82.4363 38.0963C82.4363 38.0963 82.4363 38.0963 82.4363 38.0963C82.4363 38.0963 82.4363 38.0963 82.4363 38.0963C82.4363 38.0963 82.4363 38.0963 82.4363 38.0963C82.4363 38.0963 82.4363 38.0963 82.4363 38.0963C82.4363 38.0963 82.4363 38.0963 82.4363 38.0963C82.4363 38.0963 82.4363 38.0963 82.4363 38.0963C82.4363 38.0963 82.4363 38.0963 82.4363 38.0963C82.4363 38.0963 82.4363 38.0963 82.4363 38.0963C82.4363 38.0963 82.4363 38.0963 82.4363 38.0963C82.4363 38.0963 82.4363 38.0963 82.4363 38.0963C82.4363 38.0963 82.4363 38.0963 82.4363 38.0963C82.4363 38.0963 82.4363 38.0963 82.4363 38.0963H84.4363ZM96.7133 26.2443C92.4258 26.0321 89.3881 27.8213 87.3951 30.2423C85.3722 32.6995 84.4363 35.8013 84.4363 38.0963H82.4363C82.4363 35.3456 83.5283 31.7926 85.851 28.9711C88.2036 26.1134 91.8291 24.0001 96.8122 24.2468L96.7133 26.2443ZM110.089 17.9844C105.913 17.9844 103.88 18.3443 102.376 19.3617C100.823 20.4121 99.6949 22.2388 97.6244 25.7532L95.9012 24.738C97.8865 21.3682 99.2462 19.0644 101.255 17.7052C103.313 16.313 105.915 15.9844 110.089 15.9844V17.9844ZM122.462 25.0876C120.916 20.1877 116.264 17.9844 110.089 17.9844V15.9844C116.655 15.9844 122.439 18.371 124.369 24.4856L122.462 25.0876ZM135.742 38.0963C135.742 31.9913 130.354 25.7866 123.416 25.7866V23.7866C131.542 23.7866 137.742 30.973 137.742 38.0963H135.742ZM135.742 38.0967C135.742 38.0966 135.742 38.0965 135.742 38.0965C135.742 38.0964 135.742 38.0963 135.742 38.0963H137.742C137.742 38.0963 137.742 38.0964 137.742 38.0965C137.742 38.0966 137.742 38.0966 137.742 38.0967H135.742ZM136.742 39.0967H83.4363V37.0967H136.742V39.0967Z" fill="black" mask="url(#path-30-inside-5_261_2380)"/>
<line x1="109.18" y1="9" x2="109.18" y2="17.6012" stroke="black"/>
<path d="M113.45 4.69155C113.45 7.01219 111.593 8.8831 109.315 8.8831C107.037 8.8831 105.18 7.01219 105.18 4.69155C105.18 2.37092 107.037 0.5 109.315 0.5C111.593 0.5 113.45 2.37092 113.45 4.69155Z" fill="#4B5C62" stroke="black"/>
<path d="M119.244 194.872C119.244 197.841 116.869 200.237 113.95 200.237C111.032 200.237 108.656 197.841 108.656 194.872C108.656 191.904 111.032 189.508 113.95 189.508C116.869 189.508 119.244 191.904 119.244 194.872Z" fill="black" stroke="black"/>
<path d="M119.244 228.495C119.244 231.464 116.869 233.86 113.95 233.86C111.032 233.86 108.656 231.464 108.656 228.495C108.656 225.527 111.032 223.131 113.95 223.131C116.869 223.131 119.244 225.527 119.244 228.495Z" fill="black" stroke="black"/>
<path d="M119.244 258.99C119.244 261.959 116.869 264.355 113.95 264.355C111.032 264.355 108.656 261.959 108.656 258.99C108.656 256.022 111.032 253.626 113.95 253.626C116.869 253.626 119.244 256.022 119.244 258.99Z" fill="black" stroke="black"/>
</svg>
