<svg width="237" height="394" viewBox="0 0 237 394" fill="none" xmlns="http://www.w3.org/2000/svg">
<path d="M130.656 274H143.79L145.721 309.187C145.721 309.187 150.779 314.123 149.97 317.788C149.249 321.056 143.79 323.652 143.79 323.652V351.411H130.656V274Z" fill="#5A6E75" stroke="black"/>
<path d="M102.396 274H89.2632L87.3318 309.187C87.3318 309.187 82.2742 314.123 83.0828 317.788C83.8037 321.056 89.2632 323.652 89.2632 323.652V351.411H102.396V274Z" fill="#5A6E75" stroke="black"/>
<rect x="53.8066" y="38.5962" width="111.792" height="115.507" rx="20.5" fill="#DAEBF3" stroke="black"/>
<path d="M181.778 206.478C181.772 206.483 181.766 206.488 181.761 206.492H167.643H167.607L167.572 206.497L162.164 207.279L161.735 207.341V207.774V261.02C161.735 268.476 155.691 274.52 148.235 274.52H82.3707C74.9149 274.52 68.8707 268.476 68.8707 261.02V207.774V207.346L68.4476 207.28L63.4261 206.498L63.3944 206.493L63.3624 206.492L48.8909 206.107C48.832 206.044 48.7563 205.962 48.6674 205.864C48.4429 205.616 48.1356 205.266 47.8049 204.857C47.1344 204.029 46.4023 203.002 46.0443 202.114C45.2906 200.244 44.9473 198.482 45.0938 196.821C45.2396 195.168 45.8735 193.583 47.1253 192.062C47.9255 191.091 48.9338 191.032 50.2323 191.062C50.3201 191.064 50.4094 191.066 50.5001 191.069C51.6964 191.102 53.124 191.141 54.3806 190.188C55.6172 189.251 56.6253 187.597 57.3105 186.24C57.6585 185.551 57.9333 184.918 58.1211 184.458C58.2151 184.227 58.2876 184.039 58.3368 183.908C58.3615 183.843 58.3803 183.791 58.3931 183.756L58.4077 183.715L58.4116 183.704L58.4127 183.701L58.4131 183.7L58.4132 183.7C58.4132 183.7 58.4132 183.7 57.9413 183.534L58.4133 183.7L58.4162 183.691L61.3932 174.651H169.926C169.93 174.674 169.935 174.698 169.939 174.722C169.997 175.035 170.084 175.486 170.205 176.039C170.445 177.146 170.816 178.667 171.34 180.325C172.38 183.612 174.054 187.541 176.583 189.774C177.578 190.652 178.578 191.08 179.489 191.469C179.553 191.496 179.615 191.523 179.677 191.55C180.64 191.964 181.509 192.371 182.343 193.26C184.807 195.884 186.426 198.14 185.696 201.41C185.433 202.592 184.457 203.876 183.476 204.905C182.995 205.409 182.532 205.834 182.188 206.132C182.017 206.282 181.876 206.399 181.778 206.478Z" fill="#DAEBF3" stroke="black"/>
<path d="M199.197 272.468L167.671 207.692L181.248 207.692L213.267 268.45L199.197 272.468Z" fill="#5A6E75" stroke="black"/>
<path d="M34.8852 271.419L66.4106 206.643L52.8341 206.643L20.8154 267.401L34.8852 271.419Z" fill="#5A6E75" stroke="black"/>
<mask id="path-7-inside-1_630_84" fill="white">
<path d="M196.11 292.229C195.02 288.673 195.072 284.86 196.259 281.337C197.445 277.813 199.706 274.762 202.714 272.621C205.723 270.48 209.325 269.36 213.003 269.422C216.68 269.485 220.243 270.726 223.179 272.968C226.115 275.209 228.273 278.336 229.343 281.897C230.412 285.459 230.338 289.272 229.13 292.788C227.923 296.305 225.645 299.343 222.624 301.465C219.603 303.588 215.994 304.686 212.317 304.602L212.534 294.946C214.192 294.984 215.819 294.489 217.182 293.531C218.545 292.574 219.572 291.204 220.117 289.618C220.661 288.032 220.695 286.312 220.212 284.706C219.73 283.1 218.757 281.689 217.432 280.678C216.108 279.667 214.501 279.108 212.843 279.079C211.184 279.051 209.56 279.556 208.203 280.522C206.846 281.487 205.826 282.864 205.291 284.453C204.756 286.042 204.732 287.762 205.224 289.365L196.11 292.229Z"/>
</mask>
<path d="M196.11 292.229C195.02 288.673 195.072 284.86 196.259 281.337C197.445 277.813 199.706 274.762 202.714 272.621C205.723 270.48 209.325 269.36 213.003 269.422C216.68 269.485 220.243 270.726 223.179 272.968C226.115 275.209 228.273 278.336 229.343 281.897C230.412 285.459 230.338 289.272 229.13 292.788C227.923 296.305 225.645 299.343 222.624 301.465C219.603 303.588 215.994 304.686 212.317 304.602L212.534 294.946C214.192 294.984 215.819 294.489 217.182 293.531C218.545 292.574 219.572 291.204 220.117 289.618C220.661 288.032 220.695 286.312 220.212 284.706C219.73 283.1 218.757 281.689 217.432 280.678C216.108 279.667 214.501 279.108 212.843 279.079C211.184 279.051 209.56 279.556 208.203 280.522C206.846 281.487 205.826 282.864 205.291 284.453C204.756 286.042 204.732 287.762 205.224 289.365L196.11 292.229Z" fill="#DAEBF3" stroke="black" stroke-width="2" mask="url(#path-7-inside-1_630_84)"/>
<mask id="path-8-inside-2_630_84" fill="white">
<path d="M40.8115 293.01C41.9018 289.455 41.8498 285.642 40.6632 282.118C39.4765 278.595 37.2162 275.543 34.2075 273.402C31.1988 271.261 27.5967 270.142 23.9194 270.204C20.242 270.266 16.679 271.508 13.7428 273.749C10.8066 275.991 8.64861 279.118 7.57919 282.679C6.50976 286.241 6.58405 290.054 7.79138 293.57C8.9987 297.086 11.2768 300.124 14.298 302.247C17.3193 304.37 20.9279 305.468 24.6048 305.384L24.3883 295.728C22.73 295.766 21.1025 295.27 19.7399 294.313C18.3773 293.356 17.3498 291.985 16.8053 290.4C16.2608 288.814 16.2273 287.094 16.7096 285.488C17.1919 283.881 18.1652 282.471 19.4895 281.46C20.8137 280.449 22.4207 279.889 24.0792 279.861C25.7377 279.833 27.3623 280.338 28.7193 281.304C30.0762 282.269 31.0956 283.646 31.6308 285.235C32.166 286.824 32.1894 288.544 31.6977 290.147L40.8115 293.01Z"/>
</mask>
<path d="M40.8115 293.01C41.9018 289.455 41.8498 285.642 40.6632 282.118C39.4765 278.595 37.2162 275.543 34.2075 273.402C31.1988 271.261 27.5967 270.142 23.9194 270.204C20.242 270.266 16.679 271.508 13.7428 273.749C10.8066 275.991 8.64861 279.118 7.57919 282.679C6.50976 286.241 6.58405 290.054 7.79138 293.57C8.9987 297.086 11.2768 300.124 14.298 302.247C17.3193 304.37 20.9279 305.468 24.6048 305.384L24.3883 295.728C22.73 295.766 21.1025 295.27 19.7399 294.313C18.3773 293.356 17.3498 291.985 16.8053 290.4C16.2608 288.814 16.2273 287.094 16.7096 285.488C17.1919 283.881 18.1652 282.471 19.4895 281.46C20.8137 280.449 22.4207 279.889 24.0792 279.861C25.7377 279.833 27.3623 280.338 28.7193 281.304C30.0762 282.269 31.0956 283.646 31.6308 285.235C32.166 286.824 32.1894 288.544 31.6977 290.147L40.8115 293.01Z" fill="#DAEBF3" stroke="black" stroke-width="2" mask="url(#path-8-inside-2_630_84)"/>
<path d="M119.613 350.5H164.247L152.137 383.058L152.01 383.401L152.298 383.626L164.673 393.288H126.779L124.131 372.612L124.129 372.594L124.125 372.576L119.613 350.5Z" fill="#DAEBF3" stroke="black"/>
<path d="M112.512 350.5H67.8778L79.9877 383.058L80.1154 383.401L79.8268 383.626L67.4523 393.288H105.346L107.994 372.612L107.996 372.594L108 372.576L112.512 350.5Z" fill="#DAEBF3" stroke="black"/>
<rect x="104.795" y="155.103" width="15.2235" height="18.5481" fill="#5A6E75" stroke="black"/>
<path d="M160.962 50.216C160.962 51.0252 160.316 51.6709 159.531 51.6709C158.746 51.6709 158.1 51.0252 158.1 50.216C158.1 49.4069 158.746 48.7612 159.531 48.7612C160.316 48.7612 160.962 49.4069 160.962 50.216Z" fill="black" stroke="black"/>
<path d="M60.5307 63.5085C60.5307 64.3177 59.8842 64.9633 59.0993 64.9633C58.3145 64.9633 57.668 64.3177 57.668 63.5085C57.668 62.6993 58.3145 62.0537 59.0993 62.0537C59.8842 62.0537 60.5307 62.6993 60.5307 63.5085Z" fill="black" stroke="black"/>
<path d="M62.0405 74.9548C62.0405 75.764 61.394 76.4096 60.6091 76.4096C59.8243 76.4096 59.1777 75.764 59.1777 74.9548C59.1777 74.1456 59.8243 73.5 60.6091 73.5C61.394 73.5 62.0405 74.1456 62.0405 74.9548Z" fill="black" stroke="black"/>
<path d="M60.5307 52.5622C60.5307 53.3714 59.8842 54.017 59.0993 54.017C58.3145 54.017 57.668 53.3714 57.668 52.5622C57.668 51.7531 58.3145 51.1074 59.0993 51.1074C59.8842 51.1074 60.5307 51.7531 60.5307 52.5622Z" fill="black" stroke="black"/>
<path d="M160.962 61.1628C160.962 61.972 160.316 62.6176 159.531 62.6176C158.746 62.6176 158.1 61.972 158.1 61.1628C158.1 60.3536 158.746 59.708 159.531 59.708C160.316 59.708 160.962 60.3536 160.962 61.1628Z" fill="black" stroke="black"/>
<path d="M160.04 74.9548C160.04 75.764 159.394 76.4096 158.609 76.4096C157.824 76.4096 157.178 75.764 157.178 74.9548C157.178 74.1456 157.824 73.5 158.609 73.5C159.394 73.5 160.04 74.1456 160.04 74.9548Z" fill="black" stroke="black"/>
<path d="M53.6777 68.1001H166.097" stroke="black"/>
<path d="M155.687 107.946C155.687 116.261 149.029 122.99 140.829 122.99C132.628 122.99 125.971 116.261 125.971 107.946C125.971 99.6317 132.628 92.9019 140.829 92.9019C149.029 92.9019 155.687 99.6317 155.687 107.946Z" fill="white" stroke="black"/>
<path d="M137.663 119.87C137.701 119.83 137.74 119.789 137.779 119.746C138.179 119.311 138.682 118.686 139.08 117.935C139.478 117.186 139.782 116.286 139.747 115.313C139.711 114.327 139.328 113.311 138.426 112.347C136.601 110.398 134.328 110.419 132.594 110.885C131.726 111.118 130.973 111.466 130.439 111.753C130.326 111.814 130.223 111.872 130.13 111.926C129.432 109.516 129.501 106.939 130.337 104.563C131.243 101.989 132.994 99.808 135.299 98.3838C137.603 96.9597 140.32 96.379 142.996 96.739C145.672 97.099 148.145 98.3777 150.002 100.362C151.859 102.345 152.986 104.914 153.197 107.638C153.407 110.363 152.687 113.077 151.157 115.329C149.627 117.58 147.381 119.232 144.792 120.008C142.453 120.71 139.962 120.658 137.663 119.87Z" fill="black" stroke="black"/>
<path d="M145.504 104.057C145.971 104.953 146.18 105.85 146.162 106.562C146.143 107.293 145.898 107.708 145.602 107.866C145.305 108.025 144.828 107.995 144.222 107.596C143.632 107.209 143.019 106.527 142.552 105.631C142.086 104.735 141.877 103.837 141.894 103.126C141.913 102.394 142.158 101.979 142.455 101.821C142.751 101.663 143.228 101.693 143.835 102.091C144.425 102.479 145.038 103.16 145.504 104.057Z" fill="#D9D9D9" stroke="black"/>
<path d="M90.8935 108.234C90.8935 116.549 84.2358 123.279 76.0356 123.279C67.8355 123.279 61.1777 116.549 61.1777 108.234C61.1777 99.9198 67.8355 93.1899 76.0356 93.1899C84.2358 93.1899 90.8935 99.9198 90.8935 108.234Z" fill="white" stroke="black"/>
<path d="M73.542 119.088C73.5796 119.048 73.6184 119.007 73.6582 118.963C74.0575 118.529 74.5613 117.904 74.9592 117.153C75.3564 116.404 75.6613 115.504 75.6261 114.531C75.5904 113.544 75.2067 112.529 74.3044 111.565C72.4804 109.616 70.2072 109.637 68.4729 110.103C67.6053 110.336 66.852 110.684 66.3177 110.971C66.2053 111.031 66.1022 111.089 66.0093 111.143C65.311 108.734 65.3802 106.157 66.2162 103.781C67.1221 101.207 68.8734 99.0257 71.1774 97.6016C73.4815 96.1775 76.1987 95.5968 78.8749 95.9568C81.5512 96.3168 84.0244 97.5955 85.881 99.5794C87.7377 101.563 88.8654 104.132 89.0756 106.856C89.2859 109.581 88.5659 112.295 87.0361 114.547C85.5064 116.798 83.2595 118.45 80.671 119.226C78.3315 119.928 75.8412 119.875 73.542 119.088Z" fill="black" stroke="black"/>
<path d="M81.2327 103.852C81.6992 104.748 81.9083 105.645 81.8904 106.357C81.872 107.088 81.6267 107.503 81.3301 107.661C81.0335 107.819 80.5565 107.789 79.9503 107.391C79.36 107.004 78.7472 106.322 78.2807 105.426C77.8141 104.529 77.605 103.632 77.6229 102.921C77.6413 102.189 77.8866 101.774 78.1832 101.616C78.4799 101.458 78.9568 101.488 79.5631 101.886C80.1533 102.273 80.7661 102.955 81.2327 103.852Z" fill="#D9D9D9" stroke="black"/>
<path d="M108.285 121.873C109.494 121.873 110.704 121.873 111.913 121.873C112.797 121.873 113.811 121.73 114.654 122.059C115.142 122.249 115.599 122.538 115.934 122.953C116.147 123.218 116.277 123.635 116.384 123.959" stroke="black" stroke-linecap="round"/>
<mask id="path-26-inside-3_630_84" fill="white">
<path fill-rule="evenodd" clip-rule="evenodd" d="M166 128.969C170.247 128.968 177.202 126.232 176.815 119.976C182.609 117.24 183.768 116.619 183.768 110.984C183.768 106.686 181.837 103.165 177.202 101.992C177.202 96.9098 171.567 93.0003 166 93V128.969Z"/>
</mask>
<path fill-rule="evenodd" clip-rule="evenodd" d="M166 128.969C170.247 128.968 177.202 126.232 176.815 119.976C182.609 117.24 183.768 116.619 183.768 110.984C183.768 106.686 181.837 103.165 177.202 101.992C177.202 96.9098 171.567 93.0003 166 93V128.969Z" fill="#5A6E75"/>
<path d="M176.815 119.976L176.388 119.072L175.775 119.362L175.817 120.038L176.815 119.976ZM166 128.969H165V129.969L166 129.969L166 128.969ZM177.202 101.992H176.202V102.771L176.956 102.962L177.202 101.992ZM166 93L166 92L165 91.9999V93H166ZM175.817 120.038C175.982 122.713 174.606 124.655 172.594 125.983C170.552 127.331 167.948 127.968 166 127.969L166 129.969C168.299 129.968 171.295 129.237 173.696 127.653C176.126 126.049 178.034 123.495 177.813 119.915L175.817 120.038ZM182.768 110.984C182.768 113.784 182.464 115.017 181.7 115.922C181.3 116.396 180.725 116.838 179.848 117.342C178.966 117.849 177.847 118.383 176.388 119.072L177.242 120.881C178.681 120.201 179.879 119.631 180.845 119.076C181.814 118.518 182.615 117.94 183.229 117.212C184.493 115.713 184.768 113.819 184.768 110.984H182.768ZM176.956 102.962C179.061 103.494 180.485 104.536 181.396 105.878C182.318 107.235 182.768 108.979 182.768 110.984H184.768C184.768 108.692 184.253 106.526 183.05 104.754C181.837 102.968 179.977 101.663 177.447 101.023L176.956 102.962ZM166 94C168.562 94.0001 171.149 94.9043 173.08 96.3841C175.011 97.8639 176.202 99.8444 176.202 101.992H178.202C178.202 99.0576 176.574 96.5421 174.297 94.7966C172.018 93.0509 169.005 92.0002 166 92L166 94ZM165 93V128.969H167V93H165Z" fill="black" mask="url(#path-26-inside-3_630_84)"/>
<mask id="path-28-inside-4_630_84" fill="white">
<path fill-rule="evenodd" clip-rule="evenodd" d="M53.7695 128.969C49.5227 128.968 42.568 126.232 42.9542 119.976C37.1601 117.24 36.0011 116.619 36.0011 110.984C36.0011 106.686 37.9327 103.165 42.568 101.992C42.568 96.9098 48.2029 93.0003 53.7695 93V128.969Z"/>
</mask>
<path fill-rule="evenodd" clip-rule="evenodd" d="M53.7695 128.969C49.5227 128.968 42.568 126.232 42.9542 119.976C37.1601 117.24 36.0011 116.619 36.0011 110.984C36.0011 106.686 37.9327 103.165 42.568 101.992C42.568 96.9098 48.2029 93.0003 53.7695 93V128.969Z" fill="#5A6E75"/>
<path d="M42.9542 119.976L43.3813 119.072L43.9941 119.362L43.9523 120.038L42.9542 119.976ZM53.7695 128.969H54.7695V129.969L53.7695 129.969L53.7695 128.969ZM42.568 101.992H43.568V102.771L42.8133 102.962L42.568 101.992ZM53.7695 93L53.7695 92L54.7695 91.9999V93H53.7695ZM43.9523 120.038C43.7872 122.713 45.1631 124.655 47.1753 125.983C49.2172 127.331 51.822 127.968 53.7696 127.969L53.7695 129.969C51.4703 129.968 48.4743 129.237 46.0736 127.653C43.6433 126.049 41.735 123.495 41.9561 119.915L43.9523 120.038ZM37.0011 110.984C37.0011 113.784 37.3055 115.017 38.0691 115.922C38.4691 116.396 39.0446 116.838 39.922 117.342C40.8034 117.849 41.9227 118.383 43.3813 119.072L42.5271 120.881C41.0887 120.201 39.8903 119.631 38.9248 119.076C37.9553 118.518 37.1547 117.94 36.5406 117.212C35.2762 115.713 35.0011 113.819 35.0011 110.984H37.0011ZM42.8133 102.962C40.7085 103.494 39.2848 104.536 38.3735 105.878C37.4519 107.235 37.0011 108.979 37.0011 110.984H35.0011C35.0011 108.692 35.516 106.526 36.719 104.754C37.9324 102.968 39.7921 101.663 42.3227 101.023L42.8133 102.962ZM53.7696 94C51.2075 94.0001 48.6206 94.9043 46.6895 96.3841C44.7583 97.8639 43.568 99.8444 43.568 101.992H41.568C41.568 99.0576 43.1951 96.5421 45.473 94.7966C47.7511 93.0509 50.765 92.0002 53.7695 92L53.7696 94ZM54.7695 93V128.969H52.7695V93H54.7695Z" fill="black" mask="url(#path-28-inside-4_630_84)"/>
<mask id="path-30-inside-5_630_84" fill="white">
<path fill-rule="evenodd" clip-rule="evenodd" d="M83.4363 38.0967C83.4363 38.0965 83.4363 38.0964 83.4363 38.0963C83.4363 33.0506 87.4922 24.7866 96.7628 25.2456C100.819 18.3614 101.739 16.9844 110.089 16.9844C116.459 16.9844 121.677 19.2793 123.416 24.7866C130.948 24.7866 136.742 31.4822 136.742 38.0963C136.742 38.0964 136.742 38.0965 136.742 38.0967H83.4363Z"/>
</mask>
<path fill-rule="evenodd" clip-rule="evenodd" d="M83.4363 38.0967C83.4363 38.0965 83.4363 38.0964 83.4363 38.0963C83.4363 33.0506 87.4922 24.7866 96.7628 25.2456C100.819 18.3614 101.739 16.9844 110.089 16.9844C116.459 16.9844 121.677 19.2793 123.416 24.7866C130.948 24.7866 136.742 31.4822 136.742 38.0963C136.742 38.0964 136.742 38.0965 136.742 38.0967H83.4363Z" fill="#5A6E75"/>
<path d="M83.4363 38.0967V39.0967H82.4363V38.0967H83.4363ZM96.7628 25.2456L97.6244 25.7532L97.3174 26.2743L96.7133 26.2443L96.7628 25.2456ZM123.416 24.7866V25.7866H122.683L122.462 25.0876L123.416 24.7866ZM136.742 38.0967H137.742V39.0967H136.742V38.0967ZM84.4363 38.0963C84.4363 38.0963 84.4363 38.0963 84.4363 38.0963C84.4363 38.0963 84.4363 38.0963 84.4363 38.0963C84.4363 38.0963 84.4363 38.0963 84.4363 38.0963C84.4363 38.0963 84.4363 38.0963 84.4363 38.0963C84.4363 38.0963 84.4363 38.0963 84.4363 38.0963C84.4363 38.0963 84.4363 38.0963 84.4363 38.0963C84.4363 38.0963 84.4363 38.0963 84.4363 38.0963C84.4363 38.0963 84.4363 38.0963 84.4363 38.0963C84.4363 38.0963 84.4363 38.0963 84.4363 38.0963C84.4363 38.0963 84.4363 38.0963 84.4363 38.0963C84.4363 38.0963 84.4363 38.0963 84.4363 38.0963C84.4363 38.0963 84.4363 38.0963 84.4363 38.0963C84.4363 38.0963 84.4363 38.0963 84.4363 38.0963C84.4363 38.0963 84.4363 38.0963 84.4363 38.0963C84.4363 38.0963 84.4363 38.0963 84.4363 38.0963C84.4363 38.0963 84.4363 38.0963 84.4363 38.0963C84.4363 38.0963 84.4363 38.0963 84.4363 38.0963C84.4363 38.0963 84.4363 38.0963 84.4363 38.0963C84.4363 38.0963 84.4363 38.0963 84.4363 38.0963C84.4363 38.0963 84.4363 38.0963 84.4363 38.0963C84.4363 38.0963 84.4363 38.0963 84.4363 38.0963C84.4363 38.0963 84.4363 38.0963 84.4363 38.0963C84.4363 38.0963 84.4363 38.0963 84.4363 38.0963C84.4363 38.0963 84.4363 38.0963 84.4363 38.0963C84.4363 38.0963 84.4363 38.0963 84.4363 38.0963C84.4363 38.0963 84.4363 38.0963 84.4363 38.0963C84.4363 38.0963 84.4363 38.0963 84.4363 38.0963C84.4363 38.0963 84.4363 38.0963 84.4363 38.0963C84.4363 38.0963 84.4363 38.0963 84.4363 38.0963C84.4363 38.0963 84.4363 38.0963 84.4363 38.0963C84.4363 38.0963 84.4363 38.0963 84.4363 38.0963C84.4363 38.0963 84.4363 38.0963 84.4363 38.0963C84.4363 38.0963 84.4363 38.0963 84.4363 38.0963C84.4363 38.0963 84.4363 38.0963 84.4363 38.0963C84.4363 38.0963 84.4363 38.0963 84.4363 38.0963C84.4363 38.0963 84.4363 38.0963 84.4363 38.0963C84.4363 38.0963 84.4363 38.0963 84.4363 38.0963C84.4363 38.0963 84.4363 38.0963 84.4363 38.0963C84.4363 38.0963 84.4363 38.0963 84.4363 38.0963C84.4363 38.0963 84.4363 38.0963 84.4363 38.0963C84.4363 38.0963 84.4363 38.0963 84.4363 38.0963C84.4363 38.0963 84.4363 38.0963 84.4363 38.0963C84.4363 38.0963 84.4363 38.0963 84.4363 38.0963C84.4363 38.0963 84.4363 38.0963 84.4363 38.0963C84.4363 38.0963 84.4363 38.0963 84.4363 38.0963C84.4363 38.0963 84.4363 38.0963 84.4363 38.0963C84.4363 38.0963 84.4363 38.0963 84.4363 38.0963C84.4363 38.0963 84.4363 38.0963 84.4363 38.0963C84.4363 38.0963 84.4363 38.0963 84.4363 38.0963C84.4363 38.0963 84.4363 38.0963 84.4363 38.0963C84.4363 38.0963 84.4363 38.0963 84.4363 38.0963C84.4363 38.0963 84.4363 38.0963 84.4363 38.0963C84.4363 38.0963 84.4363 38.0963 84.4363 38.0963C84.4363 38.0963 84.4363 38.0963 84.4363 38.0963C84.4363 38.0963 84.4363 38.0963 84.4363 38.0963C84.4363 38.0963 84.4363 38.0963 84.4363 38.0963C84.4363 38.0963 84.4363 38.0963 84.4363 38.0963C84.4363 38.0963 84.4363 38.0963 84.4363 38.0963C84.4363 38.0963 84.4363 38.0963 84.4363 38.0963C84.4363 38.0963 84.4363 38.0963 84.4363 38.0963C84.4363 38.0963 84.4363 38.0963 84.4363 38.0963C84.4363 38.0963 84.4363 38.0963 84.4363 38.0963C84.4363 38.0963 84.4363 38.0963 84.4363 38.0963C84.4363 38.0963 84.4363 38.0963 84.4363 38.0963C84.4363 38.0963 84.4363 38.0963 84.4363 38.0963C84.4363 38.0963 84.4363 38.0963 84.4363 38.0963C84.4363 38.0963 84.4363 38.0963 84.4363 38.0963C84.4363 38.0963 84.4363 38.0963 84.4363 38.0963C84.4363 38.0963 84.4363 38.0963 84.4363 38.0963C84.4363 38.0963 84.4363 38.0963 84.4363 38.0963C84.4363 38.0963 84.4363 38.0963 84.4363 38.0963C84.4363 38.0963 84.4363 38.0963 84.4363 38.0963C84.4363 38.0963 84.4363 38.0963 84.4363 38.0963C84.4363 38.0963 84.4363 38.0963 84.4363 38.0963C84.4363 38.0963 84.4363 38.0963 84.4363 38.0963C84.4363 38.0963 84.4363 38.0963 84.4363 38.0963C84.4363 38.0963 84.4363 38.0963 84.4363 38.0963C84.4363 38.0963 84.4363 38.0963 84.4363 38.0963C84.4363 38.0963 84.4363 38.0963 84.4363 38.0963C84.4363 38.0963 84.4363 38.0963 84.4363 38.0963C84.4363 38.0963 84.4363 38.0963 84.4363 38.0963C84.4363 38.0963 84.4363 38.0963 84.4363 38.0963C84.4363 38.0963 84.4363 38.0963 84.4363 38.0963C84.4363 38.0963 84.4363 38.0963 84.4363 38.0963C84.4363 38.0963 84.4363 38.0963 84.4363 38.0963C84.4363 38.0963 84.4363 38.0963 84.4363 38.0963C84.4363 38.0963 84.4363 38.0963 84.4363 38.0963C84.4363 38.0963 84.4363 38.0963 84.4363 38.0963C84.4363 38.0963 84.4363 38.0963 84.4363 38.0963C84.4363 38.0963 84.4363 38.0963 84.4363 38.0963C84.4363 38.0963 84.4363 38.0963 84.4363 38.0963C84.4363 38.0963 84.4363 38.0963 84.4363 38.0963C84.4363 38.0963 84.4363 38.0963 84.4363 38.0963C84.4363 38.0963 84.4363 38.0963 84.4363 38.0963C84.4363 38.0963 84.4363 38.0963 84.4363 38.0963C84.4363 38.0963 84.4363 38.0963 84.4363 38.0963C84.4363 38.0963 84.4363 38.0963 84.4363 38.0963C84.4363 38.0963 84.4363 38.0963 84.4363 38.0963C84.4363 38.0963 84.4363 38.0963 84.4363 38.0963C84.4363 38.0963 84.4363 38.0963 84.4363 38.0963C84.4363 38.0963 84.4363 38.0963 84.4363 38.0963C84.4363 38.0963 84.4363 38.0963 84.4363 38.0963C84.4363 38.0963 84.4363 38.0963 84.4363 38.0963C84.4363 38.0963 84.4363 38.0964 84.4363 38.0964C84.4363 38.0964 84.4363 38.0964 84.4363 38.0964C84.4363 38.0964 84.4363 38.0964 84.4363 38.0964C84.4363 38.0964 84.4363 38.0964 84.4363 38.0964C84.4363 38.0964 84.4363 38.0964 84.4363 38.0964C84.4363 38.0964 84.4363 38.0964 84.4363 38.0964C84.4363 38.0964 84.4363 38.0964 84.4363 38.0964C84.4363 38.0964 84.4363 38.0964 84.4363 38.0964C84.4363 38.0964 84.4363 38.0964 84.4363 38.0964C84.4363 38.0964 84.4363 38.0964 84.4363 38.0964C84.4363 38.0964 84.4363 38.0964 84.4363 38.0964C84.4363 38.0964 84.4363 38.0964 84.4363 38.0964C84.4363 38.0964 84.4363 38.0964 84.4363 38.0964C84.4363 38.0964 84.4363 38.0964 84.4363 38.0964C84.4363 38.0964 84.4363 38.0964 84.4363 38.0964C84.4363 38.0964 84.4363 38.0964 84.4363 38.0964C84.4363 38.0964 84.4363 38.0964 84.4363 38.0964C84.4363 38.0964 84.4363 38.0964 84.4363 38.0964C84.4363 38.0964 84.4363 38.0964 84.4363 38.0964C84.4363 38.0964 84.4363 38.0964 84.4363 38.0964C84.4363 38.0964 84.4363 38.0964 84.4363 38.0964C84.4363 38.0964 84.4363 38.0964 84.4363 38.0964C84.4363 38.0964 84.4363 38.0964 84.4363 38.0964C84.4363 38.0964 84.4363 38.0964 84.4363 38.0964C84.4363 38.0964 84.4363 38.0964 84.4363 38.0964C84.4363 38.0964 84.4363 38.0964 84.4363 38.0964C84.4363 38.0964 84.4363 38.0964 84.4363 38.0964C84.4363 38.0964 84.4363 38.0964 84.4363 38.0964C84.4363 38.0964 84.4363 38.0964 84.4363 38.0964C84.4363 38.0964 84.4363 38.0964 84.4363 38.0964C84.4363 38.0964 84.4363 38.0964 84.4363 38.0964C84.4363 38.0964 84.4363 38.0964 84.4363 38.0964C84.4363 38.0964 84.4363 38.0964 84.4363 38.0964C84.4363 38.0964 84.4363 38.0964 84.4363 38.0964C84.4363 38.0964 84.4363 38.0964 84.4363 38.0964C84.4363 38.0964 84.4363 38.0964 84.4363 38.0964C84.4363 38.0964 84.4363 38.0964 84.4363 38.0964C84.4363 38.0964 84.4363 38.0964 84.4363 38.0964C84.4363 38.0964 84.4363 38.0964 84.4363 38.0964C84.4363 38.0964 84.4363 38.0964 84.4363 38.0964C84.4363 38.0964 84.4363 38.0964 84.4363 38.0964C84.4363 38.0964 84.4363 38.0964 84.4363 38.0964C84.4363 38.0964 84.4363 38.0964 84.4363 38.0964C84.4363 38.0964 84.4363 38.0964 84.4363 38.0964C84.4363 38.0964 84.4363 38.0964 84.4363 38.0964C84.4363 38.0964 84.4363 38.0964 84.4363 38.0964C84.4363 38.0964 84.4363 38.0964 84.4363 38.0964C84.4363 38.0964 84.4363 38.0964 84.4363 38.0964C84.4363 38.0964 84.4363 38.0964 84.4363 38.0964C84.4363 38.0964 84.4363 38.0964 84.4363 38.0964C84.4363 38.0964 84.4363 38.0964 84.4363 38.0964C84.4363 38.0964 84.4363 38.0964 84.4363 38.0964C84.4363 38.0964 84.4363 38.0964 84.4363 38.0964C84.4363 38.0964 84.4363 38.0964 84.4363 38.0964C84.4363 38.0964 84.4363 38.0964 84.4363 38.0964C84.4363 38.0964 84.4363 38.0964 84.4363 38.0964C84.4363 38.0964 84.4363 38.0964 84.4363 38.0964C84.4363 38.0964 84.4363 38.0964 84.4363 38.0964C84.4363 38.0964 84.4363 38.0964 84.4363 38.0964C84.4363 38.0964 84.4363 38.0964 84.4363 38.0964C84.4363 38.0964 84.4363 38.0964 84.4363 38.0964C84.4363 38.0964 84.4363 38.0964 84.4363 38.0964C84.4363 38.0964 84.4363 38.0964 84.4363 38.0964C84.4363 38.0964 84.4363 38.0964 84.4363 38.0964C84.4363 38.0964 84.4363 38.0964 84.4363 38.0964C84.4363 38.0964 84.4363 38.0964 84.4363 38.0964C84.4363 38.0964 84.4363 38.0964 84.4363 38.0964C84.4363 38.0964 84.4363 38.0964 84.4363 38.0964C84.4363 38.0964 84.4363 38.0964 84.4363 38.0964C84.4363 38.0964 84.4363 38.0964 84.4363 38.0964C84.4363 38.0964 84.4363 38.0964 84.4363 38.0964C84.4363 38.0964 84.4363 38.0964 84.4363 38.0964C84.4363 38.0964 84.4363 38.0964 84.4363 38.0964C84.4363 38.0964 84.4363 38.0964 84.4363 38.0964C84.4363 38.0964 84.4363 38.0964 84.4363 38.0964C84.4363 38.0964 84.4363 38.0964 84.4363 38.0964C84.4363 38.0964 84.4363 38.0964 84.4363 38.0964C84.4363 38.0964 84.4363 38.0964 84.4363 38.0964C84.4363 38.0964 84.4363 38.0964 84.4363 38.0964C84.4363 38.0964 84.4363 38.0964 84.4363 38.0964C84.4363 38.0964 84.4363 38.0964 84.4363 38.0964C84.4363 38.0964 84.4363 38.0964 84.4363 38.0964C84.4363 38.0964 84.4363 38.0964 84.4363 38.0964C84.4363 38.0964 84.4363 38.0964 84.4363 38.0964C84.4363 38.0964 84.4363 38.0964 84.4363 38.0964C84.4363 38.0964 84.4363 38.0964 84.4363 38.0964C84.4363 38.0964 84.4363 38.0964 84.4363 38.0964C84.4363 38.0964 84.4363 38.0964 84.4363 38.0964C84.4363 38.0964 84.4363 38.0964 84.4363 38.0964C84.4363 38.0964 84.4363 38.0964 84.4363 38.0964C84.4363 38.0964 84.4363 38.0964 84.4363 38.0964C84.4363 38.0964 84.4363 38.0964 84.4363 38.0964C84.4363 38.0964 84.4363 38.0964 84.4363 38.0964C84.4363 38.0964 84.4363 38.0964 84.4363 38.0964C84.4363 38.0964 84.4363 38.0964 84.4363 38.0964C84.4363 38.0964 84.4363 38.0964 84.4363 38.0964C84.4363 38.0964 84.4363 38.0964 84.4363 38.0964C84.4363 38.0964 84.4363 38.0964 84.4363 38.0964C84.4363 38.0964 84.4363 38.0964 84.4363 38.0964C84.4363 38.0964 84.4363 38.0964 84.4363 38.0964C84.4363 38.0964 84.4363 38.0964 84.4363 38.0964C84.4363 38.0964 84.4363 38.0964 84.4363 38.0964C84.4363 38.0964 84.4363 38.0964 84.4363 38.0964C84.4363 38.0964 84.4363 38.0964 84.4363 38.0964C84.4363 38.0964 84.4363 38.0964 84.4363 38.0964C84.4363 38.0964 84.4363 38.0964 84.4363 38.0964C84.4363 38.0964 84.4363 38.0964 84.4363 38.0964C84.4363 38.0964 84.4363 38.0964 84.4363 38.0964C84.4363 38.0964 84.4363 38.0964 84.4363 38.0964C84.4363 38.0964 84.4363 38.0964 84.4363 38.0964C84.4363 38.0964 84.4363 38.0964 84.4363 38.0964C84.4363 38.0964 84.4363 38.0964 84.4363 38.0964C84.4363 38.0964 84.4363 38.0964 84.4363 38.0964C84.4363 38.0964 84.4363 38.0964 84.4363 38.0964C84.4363 38.0964 84.4363 38.0964 84.4363 38.0964C84.4363 38.0964 84.4363 38.0964 84.4363 38.0964C84.4363 38.0964 84.4363 38.0964 84.4363 38.0964C84.4363 38.0964 84.4363 38.0964 84.4363 38.0964C84.4363 38.0964 84.4363 38.0964 84.4363 38.0964C84.4363 38.0964 84.4363 38.0964 84.4363 38.0964C84.4363 38.0964 84.4363 38.0964 84.4363 38.0964C84.4363 38.0964 84.4363 38.0964 84.4363 38.0964C84.4363 38.0964 84.4363 38.0964 84.4363 38.0964C84.4363 38.0964 84.4363 38.0964 84.4363 38.0964C84.4363 38.0964 84.4363 38.0965 84.4363 38.0965C84.4363 38.0965 84.4363 38.0965 84.4363 38.0965C84.4363 38.0965 84.4363 38.0965 84.4363 38.0965C84.4363 38.0965 84.4363 38.0965 84.4363 38.0965C84.4363 38.0965 84.4363 38.0965 84.4363 38.0965C84.4363 38.0965 84.4363 38.0965 84.4363 38.0965C84.4363 38.0965 84.4363 38.0965 84.4363 38.0965C84.4363 38.0965 84.4363 38.0965 84.4363 38.0965C84.4363 38.0965 84.4363 38.0965 84.4363 38.0965C84.4363 38.0965 84.4363 38.0965 84.4363 38.0965C84.4363 38.0965 84.4363 38.0965 84.4363 38.0965C84.4363 38.0965 84.4363 38.0965 84.4363 38.0965C84.4363 38.0965 84.4363 38.0965 84.4363 38.0965C84.4363 38.0965 84.4363 38.0965 84.4363 38.0965C84.4363 38.0965 84.4363 38.0965 84.4363 38.0965C84.4363 38.0965 84.4363 38.0965 84.4363 38.0965C84.4363 38.0965 84.4363 38.0965 84.4363 38.0965C84.4363 38.0965 84.4363 38.0965 84.4363 38.0965C84.4363 38.0965 84.4363 38.0965 84.4363 38.0965C84.4363 38.0965 84.4363 38.0965 84.4363 38.0965C84.4363 38.0965 84.4363 38.0965 84.4363 38.0965C84.4363 38.0965 84.4363 38.0965 84.4363 38.0965C84.4363 38.0965 84.4363 38.0965 84.4363 38.0965C84.4363 38.0965 84.4363 38.0965 84.4363 38.0965C84.4363 38.0965 84.4363 38.0965 84.4363 38.0965C84.4363 38.0965 84.4363 38.0965 84.4363 38.0965C84.4363 38.0965 84.4363 38.0965 84.4363 38.0965C84.4363 38.0965 84.4363 38.0965 84.4363 38.0965C84.4363 38.0965 84.4363 38.0965 84.4363 38.0965C84.4363 38.0965 84.4363 38.0965 84.4363 38.0965C84.4363 38.0965 84.4363 38.0965 84.4363 38.0965C84.4363 38.0965 84.4363 38.0965 84.4363 38.0965C84.4363 38.0965 84.4363 38.0965 84.4363 38.0965C84.4363 38.0965 84.4363 38.0965 84.4363 38.0965C84.4363 38.0965 84.4363 38.0965 84.4363 38.0965C84.4363 38.0965 84.4363 38.0965 84.4363 38.0965C84.4363 38.0965 84.4363 38.0965 84.4363 38.0965C84.4363 38.0965 84.4363 38.0965 84.4363 38.0965C84.4363 38.0965 84.4363 38.0965 84.4363 38.0965C84.4363 38.0965 84.4363 38.0965 84.4363 38.0965C84.4363 38.0965 84.4363 38.0965 84.4363 38.0965C84.4363 38.0965 84.4363 38.0965 84.4363 38.0965C84.4363 38.0965 84.4363 38.0965 84.4363 38.0965C84.4363 38.0965 84.4363 38.0965 84.4363 38.0965C84.4363 38.0965 84.4363 38.0965 84.4363 38.0965C84.4363 38.0965 84.4363 38.0965 84.4363 38.0965C84.4363 38.0965 84.4363 38.0965 84.4363 38.0965C84.4363 38.0965 84.4363 38.0965 84.4363 38.0965C84.4363 38.0965 84.4363 38.0965 84.4363 38.0965C84.4363 38.0965 84.4363 38.0965 84.4363 38.0965C84.4363 38.0965 84.4363 38.0965 84.4363 38.0965C84.4363 38.0965 84.4363 38.0965 84.4363 38.0965C84.4363 38.0965 84.4363 38.0965 84.4363 38.0965C84.4363 38.0965 84.4363 38.0965 84.4363 38.0965C84.4363 38.0965 84.4363 38.0965 84.4363 38.0965C84.4363 38.0965 84.4363 38.0965 84.4363 38.0965C84.4363 38.0965 84.4363 38.0965 84.4363 38.0965C84.4363 38.0965 84.4363 38.0965 84.4363 38.0965C84.4363 38.0965 84.4363 38.0965 84.4363 38.0965C84.4363 38.0965 84.4363 38.0965 84.4363 38.0965C84.4363 38.0965 84.4363 38.0965 84.4363 38.0965C84.4363 38.0965 84.4363 38.0965 84.4363 38.0965C84.4363 38.0965 84.4363 38.0965 84.4363 38.0965C84.4363 38.0965 84.4363 38.0965 84.4363 38.0965C84.4363 38.0965 84.4363 38.0965 84.4363 38.0965C84.4363 38.0965 84.4363 38.0965 84.4363 38.0965C84.4363 38.0965 84.4363 38.0965 84.4363 38.0965C84.4363 38.0965 84.4363 38.0965 84.4363 38.0965C84.4363 38.0965 84.4363 38.0965 84.4363 38.0965C84.4363 38.0965 84.4363 38.0965 84.4363 38.0965C84.4363 38.0965 84.4363 38.0965 84.4363 38.0965C84.4363 38.0965 84.4363 38.0965 84.4363 38.0965C84.4363 38.0965 84.4363 38.0965 84.4363 38.0965C84.4363 38.0965 84.4363 38.0965 84.4363 38.0965C84.4363 38.0965 84.4363 38.0965 84.4363 38.0965C84.4363 38.0965 84.4363 38.0965 84.4363 38.0965C84.4363 38.0965 84.4363 38.0965 84.4363 38.0965C84.4363 38.0965 84.4363 38.0965 84.4363 38.0965C84.4363 38.0965 84.4363 38.0965 84.4363 38.0965C84.4363 38.0965 84.4363 38.0965 84.4363 38.0965C84.4363 38.0965 84.4363 38.0965 84.4363 38.0965C84.4363 38.0965 84.4363 38.0965 84.4363 38.0965C84.4363 38.0965 84.4363 38.0965 84.4363 38.0965C84.4363 38.0965 84.4363 38.0965 84.4363 38.0965C84.4363 38.0965 84.4363 38.0965 84.4363 38.0965C84.4363 38.0965 84.4363 38.0965 84.4363 38.0965C84.4363 38.0965 84.4363 38.0965 84.4363 38.0965C84.4363 38.0965 84.4363 38.0965 84.4363 38.0965C84.4363 38.0965 84.4363 38.0965 84.4363 38.0965C84.4363 38.0965 84.4363 38.0965 84.4363 38.0965C84.4363 38.0965 84.4363 38.0965 84.4363 38.0965C84.4363 38.0965 84.4363 38.0965 84.4363 38.0965C84.4363 38.0965 84.4363 38.0965 84.4363 38.0965C84.4363 38.0965 84.4363 38.0965 84.4363 38.0965C84.4363 38.0965 84.4363 38.0965 84.4363 38.0965C84.4363 38.0965 84.4363 38.0965 84.4363 38.0965C84.4363 38.0965 84.4363 38.0965 84.4363 38.0965C84.4363 38.0965 84.4363 38.0965 84.4363 38.0965C84.4363 38.0965 84.4363 38.0965 84.4363 38.0965C84.4363 38.0965 84.4363 38.0965 84.4363 38.0965C84.4363 38.0965 84.4363 38.0965 84.4363 38.0965C84.4363 38.0965 84.4363 38.0965 84.4363 38.0965C84.4363 38.0965 84.4363 38.0965 84.4363 38.0965C84.4363 38.0965 84.4363 38.0965 84.4363 38.0965C84.4363 38.0965 84.4363 38.0965 84.4363 38.0965C84.4363 38.0965 84.4363 38.0965 84.4363 38.0965C84.4363 38.0965 84.4363 38.0965 84.4363 38.0965C84.4363 38.0965 84.4363 38.0965 84.4363 38.0965C84.4363 38.0965 84.4363 38.0965 84.4363 38.0965C84.4363 38.0965 84.4363 38.0965 84.4363 38.0965C84.4363 38.0965 84.4363 38.0965 84.4363 38.0965C84.4363 38.0965 84.4363 38.0965 84.4363 38.0965C84.4363 38.0965 84.4363 38.0965 84.4363 38.0965C84.4363 38.0965 84.4363 38.0965 84.4363 38.0965C84.4363 38.0965 84.4363 38.0965 84.4363 38.0965C84.4363 38.0965 84.4363 38.0965 84.4363 38.0965C84.4363 38.0965 84.4363 38.0965 84.4363 38.0965C84.4363 38.0965 84.4363 38.0965 84.4363 38.0965C84.4363 38.0965 84.4363 38.0965 84.4363 38.0965C84.4363 38.0965 84.4363 38.0965 84.4363 38.0965C84.4363 38.0965 84.4363 38.0965 84.4363 38.0965C84.4363 38.0965 84.4363 38.0965 84.4363 38.0965C84.4363 38.0965 84.4363 38.0965 84.4363 38.0965C84.4363 38.0965 84.4363 38.0965 84.4363 38.0965C84.4363 38.0965 84.4363 38.0966 84.4363 38.0966C84.4363 38.0966 84.4363 38.0966 84.4363 38.0966C84.4363 38.0966 84.4363 38.0966 84.4363 38.0966C84.4363 38.0966 84.4363 38.0966 84.4363 38.0966C84.4363 38.0966 84.4363 38.0966 84.4363 38.0966C84.4363 38.0966 84.4363 38.0966 84.4363 38.0966C84.4363 38.0966 84.4363 38.0966 84.4363 38.0966C84.4363 38.0966 84.4363 38.0966 84.4363 38.0966C84.4363 38.0966 84.4363 38.0966 84.4363 38.0966C84.4363 38.0966 84.4363 38.0966 84.4363 38.0966C84.4363 38.0966 84.4363 38.0966 84.4363 38.0966C84.4363 38.0966 84.4363 38.0966 84.4363 38.0966C84.4363 38.0966 84.4363 38.0966 84.4363 38.0966C84.4363 38.0966 84.4363 38.0966 84.4363 38.0966C84.4363 38.0966 84.4363 38.0966 84.4363 38.0966C84.4363 38.0966 84.4363 38.0966 84.4363 38.0966C84.4363 38.0966 84.4363 38.0966 84.4363 38.0966C84.4363 38.0966 84.4363 38.0966 84.4363 38.0966C84.4363 38.0966 84.4363 38.0966 84.4363 38.0966C84.4363 38.0966 84.4363 38.0966 84.4363 38.0966C84.4363 38.0966 84.4363 38.0966 84.4363 38.0966C84.4363 38.0966 84.4363 38.0966 84.4363 38.0966C84.4363 38.0966 84.4363 38.0966 84.4363 38.0966C84.4363 38.0966 84.4363 38.0966 84.4363 38.0966C84.4363 38.0966 84.4363 38.0966 84.4363 38.0966C84.4363 38.0966 84.4363 38.0966 84.4363 38.0966C84.4363 38.0966 84.4363 38.0966 84.4363 38.0966C84.4363 38.0966 84.4363 38.0966 84.4363 38.0966C84.4363 38.0966 84.4363 38.0966 84.4363 38.0966C84.4363 38.0966 84.4363 38.0966 84.4363 38.0966C84.4363 38.0966 84.4363 38.0966 84.4363 38.0966C84.4363 38.0966 84.4363 38.0966 84.4363 38.0966C84.4363 38.0966 84.4363 38.0966 84.4363 38.0966C84.4363 38.0966 84.4363 38.0966 84.4363 38.0966C84.4363 38.0966 84.4363 38.0966 84.4363 38.0966C84.4363 38.0966 84.4363 38.0966 84.4363 38.0966C84.4363 38.0966 84.4363 38.0966 84.4363 38.0966C84.4363 38.0966 84.4363 38.0966 84.4363 38.0966C84.4363 38.0966 84.4363 38.0966 84.4363 38.0966C84.4363 38.0966 84.4363 38.0966 84.4363 38.0966C84.4363 38.0966 84.4363 38.0966 84.4363 38.0966C84.4363 38.0966 84.4363 38.0966 84.4363 38.0966C84.4363 38.0966 84.4363 38.0966 84.4363 38.0966C84.4363 38.0966 84.4363 38.0966 84.4363 38.0966C84.4363 38.0966 84.4363 38.0966 84.4363 38.0966C84.4363 38.0966 84.4363 38.0966 84.4363 38.0966C84.4363 38.0966 84.4363 38.0966 84.4363 38.0966C84.4363 38.0966 84.4363 38.0966 84.4363 38.0966C84.4363 38.0966 84.4363 38.0966 84.4363 38.0966C84.4363 38.0966 84.4363 38.0966 84.4363 38.0966C84.4363 38.0966 84.4363 38.0966 84.4363 38.0966C84.4363 38.0966 84.4363 38.0966 84.4363 38.0966C84.4363 38.0966 84.4363 38.0966 84.4363 38.0966C84.4363 38.0966 84.4363 38.0966 84.4363 38.0966C84.4363 38.0966 84.4363 38.0966 84.4363 38.0966C84.4363 38.0966 84.4363 38.0966 84.4363 38.0966C84.4363 38.0966 84.4363 38.0966 84.4363 38.0966C84.4363 38.0966 84.4363 38.0966 84.4363 38.0966C84.4363 38.0966 84.4363 38.0966 84.4363 38.0966C84.4363 38.0966 84.4363 38.0966 84.4363 38.0966C84.4363 38.0966 84.4363 38.0966 84.4363 38.0966C84.4363 38.0966 84.4363 38.0966 84.4363 38.0966C84.4363 38.0966 84.4363 38.0966 84.4363 38.0966C84.4363 38.0966 84.4363 38.0966 84.4363 38.0966C84.4363 38.0966 84.4363 38.0966 84.4363 38.0966C84.4363 38.0966 84.4363 38.0966 84.4363 38.0966C84.4363 38.0966 84.4363 38.0966 84.4363 38.0966C84.4363 38.0966 84.4363 38.0966 84.4363 38.0966C84.4363 38.0966 84.4363 38.0966 84.4363 38.0966C84.4363 38.0966 84.4363 38.0966 84.4363 38.0966C84.4363 38.0966 84.4363 38.0966 84.4363 38.0966C84.4363 38.0966 84.4363 38.0966 84.4363 38.0966C84.4363 38.0966 84.4363 38.0966 84.4363 38.0966C84.4363 38.0966 84.4363 38.0966 84.4363 38.0966C84.4363 38.0966 84.4363 38.0966 84.4363 38.0966C84.4363 38.0966 84.4363 38.0966 84.4363 38.0966C84.4363 38.0966 84.4363 38.0966 84.4363 38.0966C84.4363 38.0966 84.4363 38.0966 84.4363 38.0966C84.4363 38.0966 84.4363 38.0966 84.4363 38.0966C84.4363 38.0966 84.4363 38.0966 84.4363 38.0966C84.4363 38.0966 84.4363 38.0966 84.4363 38.0966C84.4363 38.0966 84.4363 38.0966 84.4363 38.0966C84.4363 38.0966 84.4363 38.0966 84.4363 38.0966C84.4363 38.0966 84.4363 38.0966 84.4363 38.0966C84.4363 38.0966 84.4363 38.0966 84.4363 38.0966C84.4363 38.0966 84.4363 38.0966 84.4363 38.0966C84.4363 38.0966 84.4363 38.0966 84.4363 38.0966C84.4363 38.0966 84.4363 38.0966 84.4363 38.0966C84.4363 38.0966 84.4363 38.0966 84.4363 38.0966C84.4363 38.0966 84.4363 38.0966 84.4363 38.0966C84.4363 38.0966 84.4363 38.0966 84.4363 38.0966C84.4363 38.0966 84.4363 38.0966 84.4363 38.0966C84.4363 38.0966 84.4363 38.0966 84.4363 38.0966C84.4363 38.0966 84.4363 38.0966 84.4363 38.0966C84.4363 38.0966 84.4363 38.0966 84.4363 38.0966C84.4363 38.0966 84.4363 38.0966 84.4363 38.0966C84.4363 38.0966 84.4363 38.0966 84.4363 38.0966C84.4363 38.0966 84.4363 38.0966 84.4363 38.0966C84.4363 38.0966 84.4363 38.0966 84.4363 38.0966C84.4363 38.0966 84.4363 38.0966 84.4363 38.0966C84.4363 38.0966 84.4363 38.0966 84.4363 38.0966C84.4363 38.0966 84.4363 38.0966 84.4363 38.0966C84.4363 38.0966 84.4363 38.0966 84.4363 38.0966C84.4363 38.0966 84.4363 38.0966 84.4363 38.0966C84.4363 38.0966 84.4363 38.0966 84.4363 38.0966C84.4363 38.0966 84.4363 38.0966 84.4363 38.0966C84.4363 38.0966 84.4363 38.0966 84.4363 38.0966C84.4363 38.0966 84.4363 38.0966 84.4363 38.0966C84.4363 38.0966 84.4363 38.0966 84.4363 38.0966C84.4363 38.0966 84.4363 38.0966 84.4363 38.0966C84.4363 38.0966 84.4363 38.0966 84.4363 38.0966C84.4363 38.0966 84.4363 38.0966 84.4363 38.0966C84.4363 38.0966 84.4363 38.0966 84.4363 38.0966C84.4363 38.0966 84.4363 38.0966 84.4363 38.0966C84.4363 38.0966 84.4363 38.0966 84.4363 38.0966C84.4363 38.0966 84.4363 38.0966 84.4363 38.0966C84.4363 38.0966 84.4363 38.0966 84.4363 38.0966C84.4363 38.0966 84.4363 38.0966 84.4363 38.0966C84.4363 38.0966 84.4363 38.0966 84.4363 38.0966C84.4363 38.0966 84.4363 38.0966 84.4363 38.0966C84.4363 38.0966 84.4363 38.0966 84.4363 38.0966C84.4363 38.0966 84.4363 38.0966 84.4363 38.0966C84.4363 38.0966 84.4363 38.0966 84.4363 38.0966C84.4363 38.0966 84.4363 38.0966 84.4363 38.0966C84.4363 38.0967 84.4363 38.0967 84.4363 38.0967C84.4363 38.0967 84.4363 38.0967 84.4363 38.0967C84.4363 38.0967 84.4363 38.0967 84.4363 38.0967C84.4363 38.0967 84.4363 38.0967 84.4363 38.0967C84.4363 38.0967 84.4363 38.0967 84.4363 38.0967C84.4363 38.0967 84.4363 38.0967 84.4363 38.0967C84.4363 38.0967 84.4363 38.0967 84.4363 38.0967C84.4363 38.0967 84.4363 38.0967 84.4363 38.0967C84.4363 38.0967 84.4363 38.0967 84.4363 38.0967C84.4363 38.0967 84.4363 38.0967 84.4363 38.0967C84.4363 38.0967 84.4363 38.0967 84.4363 38.0967C84.4363 38.0967 84.4363 38.0967 84.4363 38.0967C84.4363 38.0967 84.4363 38.0967 84.4363 38.0967C84.4363 38.0967 84.4363 38.0967 84.4363 38.0967C84.4363 38.0967 84.4363 38.0967 84.4363 38.0967C84.4363 38.0967 84.4363 38.0967 84.4363 38.0967C84.4363 38.0967 84.4363 38.0967 84.4363 38.0967C84.4363 38.0967 84.4363 38.0967 84.4363 38.0967C84.4363 38.0967 84.4363 38.0967 84.4363 38.0967C84.4363 38.0967 84.4363 38.0967 84.4363 38.0967C84.4363 38.0967 84.4363 38.0967 84.4363 38.0967C84.4363 38.0967 84.4363 38.0967 84.4363 38.0967C84.4363 38.0967 84.4363 38.0967 84.4363 38.0967C84.4363 38.0967 84.4363 38.0967 84.4363 38.0967C84.4363 38.0967 84.4363 38.0967 84.4363 38.0967C84.4363 38.0967 84.4363 38.0967 84.4363 38.0967C84.4363 38.0967 84.4363 38.0967 84.4363 38.0967C84.4363 38.0967 84.4363 38.0967 84.4363 38.0967C84.4363 38.0967 84.4363 38.0967 84.4363 38.0967C84.4363 38.0967 84.4363 38.0967 84.4363 38.0967C84.4363 38.0967 84.4363 38.0967 84.4363 38.0967C84.4363 38.0967 84.4363 38.0967 84.4363 38.0967C84.4363 38.0967 84.4363 38.0967 84.4363 38.0967C84.4363 38.0967 84.4363 38.0967 84.4363 38.0967C84.4363 38.0967 84.4363 38.0967 84.4363 38.0967C84.4363 38.0967 84.4363 38.0967 84.4363 38.0967C84.4363 38.0967 84.4363 38.0967 84.4363 38.0967H82.4363C82.4363 38.0967 82.4363 38.0967 82.4363 38.0967C82.4363 38.0967 82.4363 38.0967 82.4363 38.0967C82.4363 38.0967 82.4363 38.0967 82.4363 38.0967C82.4363 38.0967 82.4363 38.0967 82.4363 38.0967C82.4363 38.0967 82.4363 38.0967 82.4363 38.0967C82.4363 38.0967 82.4363 38.0967 82.4363 38.0967C82.4363 38.0967 82.4363 38.0967 82.4363 38.0967C82.4363 38.0967 82.4363 38.0967 82.4363 38.0967C82.4363 38.0967 82.4363 38.0967 82.4363 38.0967C82.4363 38.0967 82.4363 38.0967 82.4363 38.0967C82.4363 38.0967 82.4363 38.0967 82.4363 38.0967C82.4363 38.0967 82.4363 38.0967 82.4363 38.0967C82.4363 38.0967 82.4363 38.0967 82.4363 38.0967C82.4363 38.0967 82.4363 38.0967 82.4363 38.0967C82.4363 38.0967 82.4363 38.0967 82.4363 38.0967C82.4363 38.0967 82.4363 38.0967 82.4363 38.0967C82.4363 38.0967 82.4363 38.0967 82.4363 38.0967C82.4363 38.0967 82.4363 38.0967 82.4363 38.0967C82.4363 38.0967 82.4363 38.0967 82.4363 38.0967C82.4363 38.0967 82.4363 38.0967 82.4363 38.0967C82.4363 38.0967 82.4363 38.0967 82.4363 38.0967C82.4363 38.0967 82.4363 38.0967 82.4363 38.0967C82.4363 38.0967 82.4363 38.0967 82.4363 38.0967C82.4363 38.0967 82.4363 38.0967 82.4363 38.0967C82.4363 38.0967 82.4363 38.0967 82.4363 38.0967C82.4363 38.0967 82.4363 38.0967 82.4363 38.0967C82.4363 38.0967 82.4363 38.0967 82.4363 38.0967C82.4363 38.0967 82.4363 38.0967 82.4363 38.0967C82.4363 38.0967 82.4363 38.0967 82.4363 38.0967C82.4363 38.0967 82.4363 38.0967 82.4363 38.0967C82.4363 38.0967 82.4363 38.0967 82.4363 38.0967C82.4363 38.0967 82.4363 38.0967 82.4363 38.0967C82.4363 38.0967 82.4363 38.0967 82.4363 38.0967C82.4363 38.0967 82.4363 38.0967 82.4363 38.0967C82.4363 38.0967 82.4363 38.0967 82.4363 38.0967C82.4363 38.0967 82.4363 38.0967 82.4363 38.0967C82.4363 38.0967 82.4363 38.0967 82.4363 38.0966C82.4363 38.0966 82.4363 38.0966 82.4363 38.0966C82.4363 38.0966 82.4363 38.0966 82.4363 38.0966C82.4363 38.0966 82.4363 38.0966 82.4363 38.0966C82.4363 38.0966 82.4363 38.0966 82.4363 38.0966C82.4363 38.0966 82.4363 38.0966 82.4363 38.0966C82.4363 38.0966 82.4363 38.0966 82.4363 38.0966C82.4363 38.0966 82.4363 38.0966 82.4363 38.0966C82.4363 38.0966 82.4363 38.0966 82.4363 38.0966C82.4363 38.0966 82.4363 38.0966 82.4363 38.0966C82.4363 38.0966 82.4363 38.0966 82.4363 38.0966C82.4363 38.0966 82.4363 38.0966 82.4363 38.0966C82.4363 38.0966 82.4363 38.0966 82.4363 38.0966C82.4363 38.0966 82.4363 38.0966 82.4363 38.0966C82.4363 38.0966 82.4363 38.0966 82.4363 38.0966C82.4363 38.0966 82.4363 38.0966 82.4363 38.0966C82.4363 38.0966 82.4363 38.0966 82.4363 38.0966C82.4363 38.0966 82.4363 38.0966 82.4363 38.0966C82.4363 38.0966 82.4363 38.0966 82.4363 38.0966C82.4363 38.0966 82.4363 38.0966 82.4363 38.0966C82.4363 38.0966 82.4363 38.0966 82.4363 38.0966C82.4363 38.0966 82.4363 38.0966 82.4363 38.0966C82.4363 38.0966 82.4363 38.0966 82.4363 38.0966C82.4363 38.0966 82.4363 38.0966 82.4363 38.0966C82.4363 38.0966 82.4363 38.0966 82.4363 38.0966C82.4363 38.0966 82.4363 38.0966 82.4363 38.0966C82.4363 38.0966 82.4363 38.0966 82.4363 38.0966C82.4363 38.0966 82.4363 38.0966 82.4363 38.0966C82.4363 38.0966 82.4363 38.0966 82.4363 38.0966C82.4363 38.0966 82.4363 38.0966 82.4363 38.0966C82.4363 38.0966 82.4363 38.0966 82.4363 38.0966C82.4363 38.0966 82.4363 38.0966 82.4363 38.0966C82.4363 38.0966 82.4363 38.0966 82.4363 38.0966C82.4363 38.0966 82.4363 38.0966 82.4363 38.0966C82.4363 38.0966 82.4363 38.0966 82.4363 38.0966C82.4363 38.0966 82.4363 38.0966 82.4363 38.0966C82.4363 38.0966 82.4363 38.0966 82.4363 38.0966C82.4363 38.0966 82.4363 38.0966 82.4363 38.0966C82.4363 38.0966 82.4363 38.0966 82.4363 38.0966C82.4363 38.0966 82.4363 38.0966 82.4363 38.0966C82.4363 38.0966 82.4363 38.0966 82.4363 38.0966C82.4363 38.0966 82.4363 38.0966 82.4363 38.0966C82.4363 38.0966 82.4363 38.0966 82.4363 38.0966C82.4363 38.0966 82.4363 38.0966 82.4363 38.0966C82.4363 38.0966 82.4363 38.0966 82.4363 38.0966C82.4363 38.0966 82.4363 38.0966 82.4363 38.0966C82.4363 38.0966 82.4363 38.0966 82.4363 38.0966C82.4363 38.0966 82.4363 38.0966 82.4363 38.0966C82.4363 38.0966 82.4363 38.0966 82.4363 38.0966C82.4363 38.0966 82.4363 38.0966 82.4363 38.0966C82.4363 38.0966 82.4363 38.0966 82.4363 38.0966C82.4363 38.0966 82.4363 38.0966 82.4363 38.0966C82.4363 38.0966 82.4363 38.0966 82.4363 38.0966C82.4363 38.0966 82.4363 38.0966 82.4363 38.0966C82.4363 38.0966 82.4363 38.0966 82.4363 38.0966C82.4363 38.0966 82.4363 38.0966 82.4363 38.0966C82.4363 38.0966 82.4363 38.0966 82.4363 38.0966C82.4363 38.0966 82.4363 38.0966 82.4363 38.0966C82.4363 38.0966 82.4363 38.0966 82.4363 38.0966C82.4363 38.0966 82.4363 38.0966 82.4363 38.0966C82.4363 38.0966 82.4363 38.0966 82.4363 38.0966C82.4363 38.0966 82.4363 38.0966 82.4363 38.0966C82.4363 38.0966 82.4363 38.0966 82.4363 38.0966C82.4363 38.0966 82.4363 38.0966 82.4363 38.0966C82.4363 38.0966 82.4363 38.0966 82.4363 38.0966C82.4363 38.0966 82.4363 38.0966 82.4363 38.0966C82.4363 38.0966 82.4363 38.0966 82.4363 38.0966C82.4363 38.0966 82.4363 38.0966 82.4363 38.0966C82.4363 38.0966 82.4363 38.0966 82.4363 38.0966C82.4363 38.0966 82.4363 38.0966 82.4363 38.0966C82.4363 38.0966 82.4363 38.0966 82.4363 38.0966C82.4363 38.0966 82.4363 38.0966 82.4363 38.0966C82.4363 38.0966 82.4363 38.0966 82.4363 38.0966C82.4363 38.0966 82.4363 38.0966 82.4363 38.0966C82.4363 38.0966 82.4363 38.0966 82.4363 38.0966C82.4363 38.0966 82.4363 38.0966 82.4363 38.0966C82.4363 38.0966 82.4363 38.0966 82.4363 38.0966C82.4363 38.0966 82.4363 38.0966 82.4363 38.0966C82.4363 38.0966 82.4363 38.0966 82.4363 38.0966C82.4363 38.0966 82.4363 38.0966 82.4363 38.0966C82.4363 38.0966 82.4363 38.0966 82.4363 38.0966C82.4363 38.0966 82.4363 38.0966 82.4363 38.0966C82.4363 38.0966 82.4363 38.0966 82.4363 38.0966C82.4363 38.0966 82.4363 38.0966 82.4363 38.0966C82.4363 38.0966 82.4363 38.0966 82.4363 38.0966C82.4363 38.0966 82.4363 38.0966 82.4363 38.0966C82.4363 38.0966 82.4363 38.0966 82.4363 38.0966C82.4363 38.0966 82.4363 38.0966 82.4363 38.0966C82.4363 38.0966 82.4363 38.0966 82.4363 38.0966C82.4363 38.0966 82.4363 38.0966 82.4363 38.0966C82.4363 38.0966 82.4363 38.0966 82.4363 38.0966C82.4363 38.0966 82.4363 38.0966 82.4363 38.0966C82.4363 38.0966 82.4363 38.0966 82.4363 38.0966C82.4363 38.0966 82.4363 38.0966 82.4363 38.0966C82.4363 38.0966 82.4363 38.0966 82.4363 38.0966C82.4363 38.0966 82.4363 38.0966 82.4363 38.0966C82.4363 38.0966 82.4363 38.0966 82.4363 38.0966C82.4363 38.0966 82.4363 38.0966 82.4363 38.0966C82.4363 38.0966 82.4363 38.0966 82.4363 38.0966C82.4363 38.0966 82.4363 38.0966 82.4363 38.0966C82.4363 38.0966 82.4363 38.0966 82.4363 38.0966C82.4363 38.0966 82.4363 38.0966 82.4363 38.0966C82.4363 38.0966 82.4363 38.0966 82.4363 38.0966C82.4363 38.0966 82.4363 38.0966 82.4363 38.0966C82.4363 38.0966 82.4363 38.0966 82.4363 38.0966C82.4363 38.0966 82.4363 38.0966 82.4363 38.0966C82.4363 38.0966 82.4363 38.0966 82.4363 38.0966C82.4363 38.0966 82.4363 38.0966 82.4363 38.0966C82.4363 38.0966 82.4363 38.0966 82.4363 38.0966C82.4363 38.0966 82.4363 38.0966 82.4363 38.0966C82.4363 38.0966 82.4363 38.0966 82.4363 38.0966C82.4363 38.0966 82.4363 38.0966 82.4363 38.0966C82.4363 38.0966 82.4363 38.0966 82.4363 38.0966C82.4363 38.0966 82.4363 38.0966 82.4363 38.0966C82.4363 38.0966 82.4363 38.0966 82.4363 38.0966C82.4363 38.0966 82.4363 38.0966 82.4363 38.0966C82.4363 38.0966 82.4363 38.0966 82.4363 38.0966C82.4363 38.0966 82.4363 38.0966 82.4363 38.0966C82.4363 38.0966 82.4363 38.0966 82.4363 38.0966C82.4363 38.0966 82.4363 38.0966 82.4363 38.0966C82.4363 38.0966 82.4363 38.0966 82.4363 38.0966C82.4363 38.0966 82.4363 38.0966 82.4363 38.0966C82.4363 38.0966 82.4363 38.0966 82.4363 38.0966C82.4363 38.0966 82.4363 38.0966 82.4363 38.0966C82.4363 38.0966 82.4363 38.0965 82.4363 38.0965C82.4363 38.0965 82.4363 38.0965 82.4363 38.0965C82.4363 38.0965 82.4363 38.0965 82.4363 38.0965C82.4363 38.0965 82.4363 38.0965 82.4363 38.0965C82.4363 38.0965 82.4363 38.0965 82.4363 38.0965C82.4363 38.0965 82.4363 38.0965 82.4363 38.0965C82.4363 38.0965 82.4363 38.0965 82.4363 38.0965C82.4363 38.0965 82.4363 38.0965 82.4363 38.0965C82.4363 38.0965 82.4363 38.0965 82.4363 38.0965C82.4363 38.0965 82.4363 38.0965 82.4363 38.0965C82.4363 38.0965 82.4363 38.0965 82.4363 38.0965C82.4363 38.0965 82.4363 38.0965 82.4363 38.0965C82.4363 38.0965 82.4363 38.0965 82.4363 38.0965C82.4363 38.0965 82.4363 38.0965 82.4363 38.0965C82.4363 38.0965 82.4363 38.0965 82.4363 38.0965C82.4363 38.0965 82.4363 38.0965 82.4363 38.0965C82.4363 38.0965 82.4363 38.0965 82.4363 38.0965C82.4363 38.0965 82.4363 38.0965 82.4363 38.0965C82.4363 38.0965 82.4363 38.0965 82.4363 38.0965C82.4363 38.0965 82.4363 38.0965 82.4363 38.0965C82.4363 38.0965 82.4363 38.0965 82.4363 38.0965C82.4363 38.0965 82.4363 38.0965 82.4363 38.0965C82.4363 38.0965 82.4363 38.0965 82.4363 38.0965C82.4363 38.0965 82.4363 38.0965 82.4363 38.0965C82.4363 38.0965 82.4363 38.0965 82.4363 38.0965C82.4363 38.0965 82.4363 38.0965 82.4363 38.0965C82.4363 38.0965 82.4363 38.0965 82.4363 38.0965C82.4363 38.0965 82.4363 38.0965 82.4363 38.0965C82.4363 38.0965 82.4363 38.0965 82.4363 38.0965C82.4363 38.0965 82.4363 38.0965 82.4363 38.0965C82.4363 38.0965 82.4363 38.0965 82.4363 38.0965C82.4363 38.0965 82.4363 38.0965 82.4363 38.0965C82.4363 38.0965 82.4363 38.0965 82.4363 38.0965C82.4363 38.0965 82.4363 38.0965 82.4363 38.0965C82.4363 38.0965 82.4363 38.0965 82.4363 38.0965C82.4363 38.0965 82.4363 38.0965 82.4363 38.0965C82.4363 38.0965 82.4363 38.0965 82.4363 38.0965C82.4363 38.0965 82.4363 38.0965 82.4363 38.0965C82.4363 38.0965 82.4363 38.0965 82.4363 38.0965C82.4363 38.0965 82.4363 38.0965 82.4363 38.0965C82.4363 38.0965 82.4363 38.0965 82.4363 38.0965C82.4363 38.0965 82.4363 38.0965 82.4363 38.0965C82.4363 38.0965 82.4363 38.0965 82.4363 38.0965C82.4363 38.0965 82.4363 38.0965 82.4363 38.0965C82.4363 38.0965 82.4363 38.0965 82.4363 38.0965C82.4363 38.0965 82.4363 38.0965 82.4363 38.0965C82.4363 38.0965 82.4363 38.0965 82.4363 38.0965C82.4363 38.0965 82.4363 38.0965 82.4363 38.0965C82.4363 38.0965 82.4363 38.0965 82.4363 38.0965C82.4363 38.0965 82.4363 38.0965 82.4363 38.0965C82.4363 38.0965 82.4363 38.0965 82.4363 38.0965C82.4363 38.0965 82.4363 38.0965 82.4363 38.0965C82.4363 38.0965 82.4363 38.0965 82.4363 38.0965C82.4363 38.0965 82.4363 38.0965 82.4363 38.0965C82.4363 38.0965 82.4363 38.0965 82.4363 38.0965C82.4363 38.0965 82.4363 38.0965 82.4363 38.0965C82.4363 38.0965 82.4363 38.0965 82.4363 38.0965C82.4363 38.0965 82.4363 38.0965 82.4363 38.0965C82.4363 38.0965 82.4363 38.0965 82.4363 38.0965C82.4363 38.0965 82.4363 38.0965 82.4363 38.0965C82.4363 38.0965 82.4363 38.0965 82.4363 38.0965C82.4363 38.0965 82.4363 38.0965 82.4363 38.0965C82.4363 38.0965 82.4363 38.0965 82.4363 38.0965C82.4363 38.0965 82.4363 38.0965 82.4363 38.0965C82.4363 38.0965 82.4363 38.0965 82.4363 38.0965C82.4363 38.0965 82.4363 38.0965 82.4363 38.0965C82.4363 38.0965 82.4363 38.0965 82.4363 38.0965C82.4363 38.0965 82.4363 38.0965 82.4363 38.0965C82.4363 38.0965 82.4363 38.0965 82.4363 38.0965C82.4363 38.0965 82.4363 38.0965 82.4363 38.0965C82.4363 38.0965 82.4363 38.0965 82.4363 38.0965C82.4363 38.0965 82.4363 38.0965 82.4363 38.0965C82.4363 38.0965 82.4363 38.0965 82.4363 38.0965C82.4363 38.0965 82.4363 38.0965 82.4363 38.0965C82.4363 38.0965 82.4363 38.0965 82.4363 38.0965C82.4363 38.0965 82.4363 38.0965 82.4363 38.0965C82.4363 38.0965 82.4363 38.0965 82.4363 38.0965C82.4363 38.0965 82.4363 38.0965 82.4363 38.0965C82.4363 38.0965 82.4363 38.0965 82.4363 38.0965C82.4363 38.0965 82.4363 38.0965 82.4363 38.0965C82.4363 38.0965 82.4363 38.0965 82.4363 38.0965C82.4363 38.0965 82.4363 38.0965 82.4363 38.0965C82.4363 38.0965 82.4363 38.0965 82.4363 38.0965C82.4363 38.0965 82.4363 38.0965 82.4363 38.0965C82.4363 38.0965 82.4363 38.0965 82.4363 38.0965C82.4363 38.0965 82.4363 38.0965 82.4363 38.0965C82.4363 38.0965 82.4363 38.0965 82.4363 38.0965C82.4363 38.0965 82.4363 38.0965 82.4363 38.0965C82.4363 38.0965 82.4363 38.0965 82.4363 38.0965C82.4363 38.0965 82.4363 38.0965 82.4363 38.0965C82.4363 38.0965 82.4363 38.0965 82.4363 38.0965C82.4363 38.0965 82.4363 38.0965 82.4363 38.0965C82.4363 38.0965 82.4363 38.0965 82.4363 38.0965C82.4363 38.0965 82.4363 38.0965 82.4363 38.0965C82.4363 38.0965 82.4363 38.0965 82.4363 38.0965C82.4363 38.0965 82.4363 38.0965 82.4363 38.0965C82.4363 38.0965 82.4363 38.0965 82.4363 38.0965C82.4363 38.0965 82.4363 38.0965 82.4363 38.0965C82.4363 38.0965 82.4363 38.0965 82.4363 38.0965C82.4363 38.0965 82.4363 38.0965 82.4363 38.0965C82.4363 38.0965 82.4363 38.0965 82.4363 38.0965C82.4363 38.0965 82.4363 38.0965 82.4363 38.0965C82.4363 38.0965 82.4363 38.0965 82.4363 38.0965C82.4363 38.0965 82.4363 38.0965 82.4363 38.0965C82.4363 38.0965 82.4363 38.0965 82.4363 38.0965C82.4363 38.0965 82.4363 38.0965 82.4363 38.0965C82.4363 38.0965 82.4363 38.0965 82.4363 38.0965C82.4363 38.0965 82.4363 38.0965 82.4363 38.0965C82.4363 38.0965 82.4363 38.0965 82.4363 38.0965C82.4363 38.0965 82.4363 38.0965 82.4363 38.0965C82.4363 38.0965 82.4363 38.0965 82.4363 38.0965C82.4363 38.0965 82.4363 38.0965 82.4363 38.0965C82.4363 38.0965 82.4363 38.0965 82.4363 38.0965C82.4363 38.0965 82.4363 38.0965 82.4363 38.0965C82.4363 38.0965 82.4363 38.0965 82.4363 38.0965C82.4363 38.0965 82.4363 38.0965 82.4363 38.0965C82.4363 38.0965 82.4363 38.0965 82.4363 38.0965C82.4363 38.0965 82.4363 38.0965 82.4363 38.0965C82.4363 38.0965 82.4363 38.0965 82.4363 38.0965C82.4363 38.0965 82.4363 38.0965 82.4363 38.0965C82.4363 38.0965 82.4363 38.0965 82.4363 38.0965C82.4363 38.0965 82.4363 38.0965 82.4363 38.0965C82.4363 38.0965 82.4363 38.0965 82.4363 38.0965C82.4363 38.0965 82.4363 38.0965 82.4363 38.0965C82.4363 38.0965 82.4363 38.0964 82.4363 38.0964C82.4363 38.0964 82.4363 38.0964 82.4363 38.0964C82.4363 38.0964 82.4363 38.0964 82.4363 38.0964C82.4363 38.0964 82.4363 38.0964 82.4363 38.0964C82.4363 38.0964 82.4363 38.0964 82.4363 38.0964C82.4363 38.0964 82.4363 38.0964 82.4363 38.0964C82.4363 38.0964 82.4363 38.0964 82.4363 38.0964C82.4363 38.0964 82.4363 38.0964 82.4363 38.0964C82.4363 38.0964 82.4363 38.0964 82.4363 38.0964C82.4363 38.0964 82.4363 38.0964 82.4363 38.0964C82.4363 38.0964 82.4363 38.0964 82.4363 38.0964C82.4363 38.0964 82.4363 38.0964 82.4363 38.0964C82.4363 38.0964 82.4363 38.0964 82.4363 38.0964C82.4363 38.0964 82.4363 38.0964 82.4363 38.0964C82.4363 38.0964 82.4363 38.0964 82.4363 38.0964C82.4363 38.0964 82.4363 38.0964 82.4363 38.0964C82.4363 38.0964 82.4363 38.0964 82.4363 38.0964C82.4363 38.0964 82.4363 38.0964 82.4363 38.0964C82.4363 38.0964 82.4363 38.0964 82.4363 38.0964C82.4363 38.0964 82.4363 38.0964 82.4363 38.0964C82.4363 38.0964 82.4363 38.0964 82.4363 38.0964C82.4363 38.0964 82.4363 38.0964 82.4363 38.0964C82.4363 38.0964 82.4363 38.0964 82.4363 38.0964C82.4363 38.0964 82.4363 38.0964 82.4363 38.0964C82.4363 38.0964 82.4363 38.0964 82.4363 38.0964C82.4363 38.0964 82.4363 38.0964 82.4363 38.0964C82.4363 38.0964 82.4363 38.0964 82.4363 38.0964C82.4363 38.0964 82.4363 38.0964 82.4363 38.0964C82.4363 38.0964 82.4363 38.0964 82.4363 38.0964C82.4363 38.0964 82.4363 38.0964 82.4363 38.0964C82.4363 38.0964 82.4363 38.0964 82.4363 38.0964C82.4363 38.0964 82.4363 38.0964 82.4363 38.0964C82.4363 38.0964 82.4363 38.0964 82.4363 38.0964C82.4363 38.0964 82.4363 38.0964 82.4363 38.0964C82.4363 38.0964 82.4363 38.0964 82.4363 38.0964C82.4363 38.0964 82.4363 38.0964 82.4363 38.0964C82.4363 38.0964 82.4363 38.0964 82.4363 38.0964C82.4363 38.0964 82.4363 38.0964 82.4363 38.0964C82.4363 38.0964 82.4363 38.0964 82.4363 38.0964C82.4363 38.0964 82.4363 38.0964 82.4363 38.0964C82.4363 38.0964 82.4363 38.0964 82.4363 38.0964C82.4363 38.0964 82.4363 38.0964 82.4363 38.0964C82.4363 38.0964 82.4363 38.0964 82.4363 38.0964C82.4363 38.0964 82.4363 38.0964 82.4363 38.0964C82.4363 38.0964 82.4363 38.0964 82.4363 38.0964C82.4363 38.0964 82.4363 38.0964 82.4363 38.0964C82.4363 38.0964 82.4363 38.0964 82.4363 38.0964C82.4363 38.0964 82.4363 38.0964 82.4363 38.0964C82.4363 38.0964 82.4363 38.0964 82.4363 38.0964C82.4363 38.0964 82.4363 38.0964 82.4363 38.0964C82.4363 38.0964 82.4363 38.0964 82.4363 38.0964C82.4363 38.0964 82.4363 38.0964 82.4363 38.0964C82.4363 38.0964 82.4363 38.0964 82.4363 38.0964C82.4363 38.0964 82.4363 38.0964 82.4363 38.0964C82.4363 38.0964 82.4363 38.0964 82.4363 38.0964C82.4363 38.0964 82.4363 38.0964 82.4363 38.0964C82.4363 38.0964 82.4363 38.0964 82.4363 38.0964C82.4363 38.0964 82.4363 38.0964 82.4363 38.0964C82.4363 38.0964 82.4363 38.0964 82.4363 38.0964C82.4363 38.0964 82.4363 38.0964 82.4363 38.0964C82.4363 38.0964 82.4363 38.0964 82.4363 38.0964C82.4363 38.0964 82.4363 38.0964 82.4363 38.0964C82.4363 38.0964 82.4363 38.0964 82.4363 38.0964C82.4363 38.0964 82.4363 38.0964 82.4363 38.0964C82.4363 38.0964 82.4363 38.0964 82.4363 38.0964C82.4363 38.0964 82.4363 38.0964 82.4363 38.0964C82.4363 38.0964 82.4363 38.0964 82.4363 38.0964C82.4363 38.0964 82.4363 38.0964 82.4363 38.0964C82.4363 38.0964 82.4363 38.0964 82.4363 38.0964C82.4363 38.0964 82.4363 38.0964 82.4363 38.0964C82.4363 38.0964 82.4363 38.0964 82.4363 38.0964C82.4363 38.0964 82.4363 38.0964 82.4363 38.0964C82.4363 38.0964 82.4363 38.0964 82.4363 38.0964C82.4363 38.0964 82.4363 38.0964 82.4363 38.0964C82.4363 38.0964 82.4363 38.0964 82.4363 38.0964C82.4363 38.0964 82.4363 38.0964 82.4363 38.0964C82.4363 38.0964 82.4363 38.0964 82.4363 38.0964C82.4363 38.0964 82.4363 38.0964 82.4363 38.0964C82.4363 38.0964 82.4363 38.0964 82.4363 38.0964C82.4363 38.0964 82.4363 38.0964 82.4363 38.0964C82.4363 38.0964 82.4363 38.0964 82.4363 38.0964C82.4363 38.0964 82.4363 38.0964 82.4363 38.0964C82.4363 38.0964 82.4363 38.0964 82.4363 38.0964C82.4363 38.0964 82.4363 38.0964 82.4363 38.0964C82.4363 38.0964 82.4363 38.0964 82.4363 38.0964C82.4363 38.0964 82.4363 38.0964 82.4363 38.0964C82.4363 38.0964 82.4363 38.0964 82.4363 38.0964C82.4363 38.0964 82.4363 38.0964 82.4363 38.0964C82.4363 38.0964 82.4363 38.0964 82.4363 38.0964C82.4363 38.0964 82.4363 38.0964 82.4363 38.0964C82.4363 38.0964 82.4363 38.0964 82.4363 38.0964C82.4363 38.0964 82.4363 38.0964 82.4363 38.0964C82.4363 38.0964 82.4363 38.0964 82.4363 38.0964C82.4363 38.0964 82.4363 38.0964 82.4363 38.0964C82.4363 38.0964 82.4363 38.0964 82.4363 38.0964C82.4363 38.0964 82.4363 38.0964 82.4363 38.0964C82.4363 38.0964 82.4363 38.0964 82.4363 38.0964C82.4363 38.0964 82.4363 38.0964 82.4363 38.0964C82.4363 38.0964 82.4363 38.0964 82.4363 38.0964C82.4363 38.0964 82.4363 38.0964 82.4363 38.0964C82.4363 38.0964 82.4363 38.0964 82.4363 38.0964C82.4363 38.0964 82.4363 38.0964 82.4363 38.0964C82.4363 38.0964 82.4363 38.0964 82.4363 38.0964C82.4363 38.0964 82.4363 38.0964 82.4363 38.0964C82.4363 38.0964 82.4363 38.0964 82.4363 38.0964C82.4363 38.0964 82.4363 38.0964 82.4363 38.0964C82.4363 38.0964 82.4363 38.0964 82.4363 38.0964C82.4363 38.0964 82.4363 38.0964 82.4363 38.0964C82.4363 38.0964 82.4363 38.0964 82.4363 38.0964C82.4363 38.0964 82.4363 38.0964 82.4363 38.0964C82.4363 38.0964 82.4363 38.0964 82.4363 38.0964C82.4363 38.0964 82.4363 38.0964 82.4363 38.0964C82.4363 38.0964 82.4363 38.0964 82.4363 38.0964C82.4363 38.0964 82.4363 38.0964 82.4363 38.0964C82.4363 38.0964 82.4363 38.0964 82.4363 38.0964C82.4363 38.0964 82.4363 38.0964 82.4363 38.0964C82.4363 38.0964 82.4363 38.0964 82.4363 38.0964C82.4363 38.0964 82.4363 38.0964 82.4363 38.0964C82.4363 38.0964 82.4363 38.0964 82.4363 38.0964C82.4363 38.0964 82.4363 38.0964 82.4363 38.0964C82.4363 38.0964 82.4363 38.0964 82.4363 38.0964C82.4363 38.0964 82.4363 38.0964 82.4363 38.0964C82.4363 38.0964 82.4363 38.0964 82.4363 38.0964C82.4363 38.0964 82.4363 38.0964 82.4363 38.0964C82.4363 38.0964 82.4363 38.0963 82.4363 38.0963C82.4363 38.0963 82.4363 38.0963 82.4363 38.0963C82.4363 38.0963 82.4363 38.0963 82.4363 38.0963C82.4363 38.0963 82.4363 38.0963 82.4363 38.0963C82.4363 38.0963 82.4363 38.0963 82.4363 38.0963C82.4363 38.0963 82.4363 38.0963 82.4363 38.0963C82.4363 38.0963 82.4363 38.0963 82.4363 38.0963C82.4363 38.0963 82.4363 38.0963 82.4363 38.0963C82.4363 38.0963 82.4363 38.0963 82.4363 38.0963C82.4363 38.0963 82.4363 38.0963 82.4363 38.0963C82.4363 38.0963 82.4363 38.0963 82.4363 38.0963C82.4363 38.0963 82.4363 38.0963 82.4363 38.0963C82.4363 38.0963 82.4363 38.0963 82.4363 38.0963C82.4363 38.0963 82.4363 38.0963 82.4363 38.0963C82.4363 38.0963 82.4363 38.0963 82.4363 38.0963C82.4363 38.0963 82.4363 38.0963 82.4363 38.0963C82.4363 38.0963 82.4363 38.0963 82.4363 38.0963C82.4363 38.0963 82.4363 38.0963 82.4363 38.0963C82.4363 38.0963 82.4363 38.0963 82.4363 38.0963C82.4363 38.0963 82.4363 38.0963 82.4363 38.0963C82.4363 38.0963 82.4363 38.0963 82.4363 38.0963C82.4363 38.0963 82.4363 38.0963 82.4363 38.0963C82.4363 38.0963 82.4363 38.0963 82.4363 38.0963C82.4363 38.0963 82.4363 38.0963 82.4363 38.0963C82.4363 38.0963 82.4363 38.0963 82.4363 38.0963C82.4363 38.0963 82.4363 38.0963 82.4363 38.0963C82.4363 38.0963 82.4363 38.0963 82.4363 38.0963C82.4363 38.0963 82.4363 38.0963 82.4363 38.0963C82.4363 38.0963 82.4363 38.0963 82.4363 38.0963C82.4363 38.0963 82.4363 38.0963 82.4363 38.0963C82.4363 38.0963 82.4363 38.0963 82.4363 38.0963C82.4363 38.0963 82.4363 38.0963 82.4363 38.0963C82.4363 38.0963 82.4363 38.0963 82.4363 38.0963C82.4363 38.0963 82.4363 38.0963 82.4363 38.0963C82.4363 38.0963 82.4363 38.0963 82.4363 38.0963C82.4363 38.0963 82.4363 38.0963 82.4363 38.0963C82.4363 38.0963 82.4363 38.0963 82.4363 38.0963C82.4363 38.0963 82.4363 38.0963 82.4363 38.0963C82.4363 38.0963 82.4363 38.0963 82.4363 38.0963C82.4363 38.0963 82.4363 38.0963 82.4363 38.0963C82.4363 38.0963 82.4363 38.0963 82.4363 38.0963C82.4363 38.0963 82.4363 38.0963 82.4363 38.0963C82.4363 38.0963 82.4363 38.0963 82.4363 38.0963C82.4363 38.0963 82.4363 38.0963 82.4363 38.0963C82.4363 38.0963 82.4363 38.0963 82.4363 38.0963C82.4363 38.0963 82.4363 38.0963 82.4363 38.0963C82.4363 38.0963 82.4363 38.0963 82.4363 38.0963C82.4363 38.0963 82.4363 38.0963 82.4363 38.0963C82.4363 38.0963 82.4363 38.0963 82.4363 38.0963C82.4363 38.0963 82.4363 38.0963 82.4363 38.0963C82.4363 38.0963 82.4363 38.0963 82.4363 38.0963C82.4363 38.0963 82.4363 38.0963 82.4363 38.0963C82.4363 38.0963 82.4363 38.0963 82.4363 38.0963C82.4363 38.0963 82.4363 38.0963 82.4363 38.0963C82.4363 38.0963 82.4363 38.0963 82.4363 38.0963C82.4363 38.0963 82.4363 38.0963 82.4363 38.0963C82.4363 38.0963 82.4363 38.0963 82.4363 38.0963C82.4363 38.0963 82.4363 38.0963 82.4363 38.0963C82.4363 38.0963 82.4363 38.0963 82.4363 38.0963C82.4363 38.0963 82.4363 38.0963 82.4363 38.0963C82.4363 38.0963 82.4363 38.0963 82.4363 38.0963C82.4363 38.0963 82.4363 38.0963 82.4363 38.0963C82.4363 38.0963 82.4363 38.0963 82.4363 38.0963C82.4363 38.0963 82.4363 38.0963 82.4363 38.0963C82.4363 38.0963 82.4363 38.0963 82.4363 38.0963C82.4363 38.0963 82.4363 38.0963 82.4363 38.0963C82.4363 38.0963 82.4363 38.0963 82.4363 38.0963C82.4363 38.0963 82.4363 38.0963 82.4363 38.0963C82.4363 38.0963 82.4363 38.0963 82.4363 38.0963C82.4363 38.0963 82.4363 38.0963 82.4363 38.0963C82.4363 38.0963 82.4363 38.0963 82.4363 38.0963C82.4363 38.0963 82.4363 38.0963 82.4363 38.0963C82.4363 38.0963 82.4363 38.0963 82.4363 38.0963C82.4363 38.0963 82.4363 38.0963 82.4363 38.0963C82.4363 38.0963 82.4363 38.0963 82.4363 38.0963C82.4363 38.0963 82.4363 38.0963 82.4363 38.0963C82.4363 38.0963 82.4363 38.0963 82.4363 38.0963C82.4363 38.0963 82.4363 38.0963 82.4363 38.0963C82.4363 38.0963 82.4363 38.0963 82.4363 38.0963C82.4363 38.0963 82.4363 38.0963 82.4363 38.0963C82.4363 38.0963 82.4363 38.0963 82.4363 38.0963C82.4363 38.0963 82.4363 38.0963 82.4363 38.0963C82.4363 38.0963 82.4363 38.0963 82.4363 38.0963C82.4363 38.0963 82.4363 38.0963 82.4363 38.0963C82.4363 38.0963 82.4363 38.0963 82.4363 38.0963C82.4363 38.0963 82.4363 38.0963 82.4363 38.0963C82.4363 38.0963 82.4363 38.0963 82.4363 38.0963C82.4363 38.0963 82.4363 38.0963 82.4363 38.0963C82.4363 38.0963 82.4363 38.0963 82.4363 38.0963C82.4363 38.0963 82.4363 38.0963 82.4363 38.0963C82.4363 38.0963 82.4363 38.0963 82.4363 38.0963C82.4363 38.0963 82.4363 38.0963 82.4363 38.0963C82.4363 38.0963 82.4363 38.0963 82.4363 38.0963C82.4363 38.0963 82.4363 38.0963 82.4363 38.0963C82.4363 38.0963 82.4363 38.0963 82.4363 38.0963C82.4363 38.0963 82.4363 38.0963 82.4363 38.0963C82.4363 38.0963 82.4363 38.0963 82.4363 38.0963C82.4363 38.0963 82.4363 38.0963 82.4363 38.0963C82.4363 38.0963 82.4363 38.0963 82.4363 38.0963C82.4363 38.0963 82.4363 38.0963 82.4363 38.0963C82.4363 38.0963 82.4363 38.0963 82.4363 38.0963C82.4363 38.0963 82.4363 38.0963 82.4363 38.0963C82.4363 38.0963 82.4363 38.0963 82.4363 38.0963C82.4363 38.0963 82.4363 38.0963 82.4363 38.0963H84.4363ZM96.7133 26.2443C92.4258 26.0321 89.3881 27.8213 87.3951 30.2423C85.3722 32.6995 84.4363 35.8013 84.4363 38.0963H82.4363C82.4363 35.3456 83.5283 31.7926 85.851 28.9711C88.2036 26.1134 91.8291 24.0001 96.8122 24.2468L96.7133 26.2443ZM110.089 17.9844C105.913 17.9844 103.88 18.3443 102.376 19.3617C100.823 20.4121 99.6949 22.2388 97.6244 25.7532L95.9012 24.738C97.8865 21.3682 99.2462 19.0644 101.255 17.7052C103.313 16.313 105.915 15.9844 110.089 15.9844V17.9844ZM122.462 25.0876C120.916 20.1877 116.264 17.9844 110.089 17.9844V15.9844C116.655 15.9844 122.439 18.371 124.369 24.4856L122.462 25.0876ZM135.742 38.0963C135.742 31.9913 130.354 25.7866 123.416 25.7866V23.7866C131.542 23.7866 137.742 30.973 137.742 38.0963H135.742ZM135.742 38.0967C135.742 38.0966 135.742 38.0965 135.742 38.0965C135.742 38.0964 135.742 38.0963 135.742 38.0963H137.742C137.742 38.0963 137.742 38.0964 137.742 38.0965C137.742 38.0966 137.742 38.0966 137.742 38.0967H135.742ZM136.742 39.0967H83.4363V37.0967H136.742V39.0967Z" fill="black" mask="url(#path-30-inside-5_630_84)"/>
<line x1="109.178" y1="9" x2="109.178" y2="17.6012" stroke="black"/>
<path d="M113.448 4.69155C113.448 7.01219 111.591 8.8831 109.313 8.8831C107.035 8.8831 105.178 7.01219 105.178 4.69155C105.178 2.37092 107.035 0.5 109.313 0.5C111.591 0.5 113.448 2.37092 113.448 4.69155Z" fill="#4B5C62" stroke="black"/>
<path d="M119.244 194.872C119.244 197.841 116.869 200.237 113.95 200.237C111.032 200.237 108.656 197.841 108.656 194.872C108.656 191.904 111.032 189.508 113.95 189.508C116.869 189.508 119.244 191.904 119.244 194.872Z" fill="black" stroke="black"/>
<path d="M119.244 228.495C119.244 231.464 116.869 233.86 113.95 233.86C111.032 233.86 108.656 231.464 108.656 228.495C108.656 225.527 111.032 223.131 113.95 223.131C116.869 223.131 119.244 225.527 119.244 228.495Z" fill="black" stroke="black"/>
<path d="M119.244 258.99C119.244 261.959 116.869 264.355 113.95 264.355C111.032 264.355 108.656 261.959 108.656 258.99C108.656 256.022 111.032 253.626 113.95 253.626C116.869 253.626 119.244 256.022 119.244 258.99Z" fill="black" stroke="black"/>
</svg>
