<svg width="264" height="361" viewBox="0 0 264 361" fill="none" xmlns="http://www.w3.org/2000/svg">
<rect x="87.4219" y="3.5" width="87.3943" height="82.9103" rx="1.5" fill="#D9D9D9" stroke="black"/>
<path d="M76.1367 32.4873H86.9259C87.202 32.4873 87.4259 32.7112 87.4259 32.9873V63.0258C87.4259 63.3019 87.202 63.5258 86.9259 63.5258H76.1367C75.8606 63.5258 75.6367 63.3019 75.6367 63.0258V32.9873C75.6367 32.7112 75.8606 32.4873 76.1367 32.4873Z" fill="#BDBDBD" stroke="black"/>
<path d="M67.7847 99.4944C68.1796 99.5264 68.5042 99.5536 68.7422 99.5739V121.5H42.0124L41.756 99.5767C41.9936 99.5564 42.3163 99.5293 42.7083 99.4975C43.5911 99.4259 44.8252 99.3303 46.23 99.2348C49.0427 99.0434 52.5276 98.8529 55.2465 98.8525C57.9653 98.8522 61.4503 99.0419 64.263 99.2326C65.6677 99.3278 66.9018 99.423 67.7847 99.4944Z" fill="#D9D9D9" stroke="black"/>
<mask id="path-4-inside-1_555_4847" fill="white">
<path d="M218.698 33.7084C217.067 33.4192 215.505 34.5118 215.444 36.17C215.338 39.035 215.752 41.9044 216.675 44.6264C217.92 48.2963 220.047 51.5773 222.855 54.1595C225.664 56.7416 229.062 58.5398 232.729 59.3842C236.395 60.2285 240.209 60.0912 243.81 58.9852C247.411 57.8792 250.68 55.841 253.309 53.063C255.938 50.285 257.84 46.859 258.835 43.1085C259.83 39.3579 259.886 35.4065 258.996 31.6275C258.349 28.8747 257.215 26.2795 255.662 23.969C254.711 22.5548 252.745 22.4752 251.528 23.6403L250.74 24.3954C249.576 25.5092 249.543 27.3477 250.384 28.7432C251.233 30.1546 251.864 31.7024 252.247 33.3306C252.857 35.9217 252.819 38.6309 252.137 41.2025C251.454 43.7741 250.15 46.1232 248.348 48.0279C246.545 49.9326 244.304 51.3302 241.835 52.0885C239.366 52.8469 236.751 52.941 234.237 52.3621C231.723 51.7831 229.393 50.5502 227.467 48.7797C225.541 47.0092 224.083 44.7596 223.23 42.2433C222.698 40.6761 222.413 39.0377 222.378 37.3897C222.343 35.7297 221.269 34.1639 219.637 33.8748L218.698 33.7084Z"/>
</mask>
<path d="M218.698 33.7084C217.067 33.4192 215.505 34.5118 215.444 36.17C215.338 39.035 215.752 41.9044 216.675 44.6264C217.92 48.2963 220.047 51.5773 222.855 54.1595C225.664 56.7416 229.062 58.5398 232.729 59.3842C236.395 60.2285 240.209 60.0912 243.81 58.9852C247.411 57.8792 250.68 55.841 253.309 53.063C255.938 50.285 257.84 46.859 258.835 43.1085C259.83 39.3579 259.886 35.4065 258.996 31.6275C258.349 28.8747 257.215 26.2795 255.662 23.969C254.711 22.5548 252.745 22.4752 251.528 23.6403L250.74 24.3954C249.576 25.5092 249.543 27.3477 250.384 28.7432C251.233 30.1546 251.864 31.7024 252.247 33.3306C252.857 35.9217 252.819 38.6309 252.137 41.2025C251.454 43.7741 250.15 46.1232 248.348 48.0279C246.545 49.9326 244.304 51.3302 241.835 52.0885C239.366 52.8469 236.751 52.941 234.237 52.3621C231.723 51.7831 229.393 50.5502 227.467 48.7797C225.541 47.0092 224.083 44.7596 223.23 42.2433C222.698 40.6761 222.413 39.0377 222.378 37.3897C222.343 35.7297 221.269 34.1639 219.637 33.8748L218.698 33.7084Z" fill="#D9D9D9" stroke="black" stroke-width="2" mask="url(#path-4-inside-1_555_4847)"/>
<mask id="path-5-inside-2_555_4847" fill="white">
<path d="M17.1293 193.691C15.9293 194.833 14.0461 194.765 13.1147 193.385C11.5363 191.048 10.3888 188.418 9.74011 185.627C8.86103 181.846 8.92719 177.895 9.93235 174.147C10.9375 170.399 12.8485 166.979 15.4849 164.208C18.1212 161.438 21.3959 159.409 24.9998 158.313C28.6037 157.218 32.4178 157.091 36.0819 157.946C39.746 158.801 43.1393 160.609 45.9412 163.199C48.7432 165.789 50.8614 169.076 52.0959 172.75C53.0053 175.456 53.4129 178.307 53.3071 181.152C53.2443 182.84 51.6919 183.959 50.0857 183.67L49.0468 183.483C47.4471 183.194 46.4086 181.612 46.3733 179.931C46.3391 178.296 46.0581 176.67 45.5352 175.114C44.6888 172.595 43.2364 170.342 41.3152 168.566C39.3941 166.79 37.0674 165.55 34.5551 164.964C32.0428 164.378 29.4276 164.464 26.9566 165.216C24.4856 165.967 22.2403 167.358 20.4327 169.258C18.625 171.157 17.3147 173.502 16.6256 176.072C15.9364 178.642 15.891 181.351 16.4937 183.944C16.8658 185.544 17.4773 187.068 18.3009 188.462C19.1493 189.897 19.0976 191.817 17.8976 192.959L17.1293 193.691Z"/>
</mask>
<path d="M17.1293 193.691C15.9293 194.833 14.0461 194.765 13.1147 193.385C11.5363 191.048 10.3888 188.418 9.74011 185.627C8.86103 181.846 8.92719 177.895 9.93235 174.147C10.9375 170.399 12.8485 166.979 15.4849 164.208C18.1212 161.438 21.3959 159.409 24.9998 158.313C28.6037 157.218 32.4178 157.091 36.0819 157.946C39.746 158.801 43.1393 160.609 45.9412 163.199C48.7432 165.789 50.8614 169.076 52.0959 172.75C53.0053 175.456 53.4129 178.307 53.3071 181.152C53.2443 182.84 51.6919 183.959 50.0857 183.67L49.0468 183.483C47.4471 183.194 46.4086 181.612 46.3733 179.931C46.3391 178.296 46.0581 176.67 45.5352 175.114C44.6888 172.595 43.2364 170.342 41.3152 168.566C39.3941 166.79 37.0674 165.55 34.5551 164.964C32.0428 164.378 29.4276 164.464 26.9566 165.216C24.4856 165.967 22.2403 167.358 20.4327 169.258C18.625 171.157 17.3147 173.502 16.6256 176.072C15.9364 178.642 15.891 181.351 16.4937 183.944C16.8658 185.544 17.4773 187.068 18.3009 188.462C19.1493 189.897 19.0976 191.817 17.8976 192.959L17.1293 193.691Z" fill="#D9D9D9" stroke="black" stroke-width="2" mask="url(#path-5-inside-2_555_4847)"/>
<rect x="113.178" y="219.5" width="39" height="106" fill="#D9D9D9" stroke="black"/>
<path d="M177.35 324.5L152.311 219.5H187.247L216.022 324.5H177.35Z" fill="#D9D9D9" stroke="black"/>
<path d="M48.6542 324.769L79.0543 219H112.545L87.3727 324.769H48.6542Z" fill="#D9D9D9" stroke="black"/>
<mask id="path-9-inside-3_555_4847" fill="white">
<path d="M43.6777 328C43.6777 326.343 45.0209 325 46.6777 325H87.6777C89.3346 325 90.6777 326.343 90.6777 328V353H43.6777V328Z"/>
</mask>
<path d="M43.6777 328C43.6777 326.343 45.0209 325 46.6777 325H87.6777C89.3346 325 90.6777 326.343 90.6777 328V353H43.6777V328Z" fill="#D9D9D9"/>
<path d="M42.6777 328C42.6777 325.791 44.4686 324 46.6777 324H87.6777C89.8869 324 91.6777 325.791 91.6777 328H89.6777C89.6777 326.895 88.7823 326 87.6777 326H46.6777C45.5732 326 44.6777 326.895 44.6777 328H42.6777ZM90.6777 353H43.6777H90.6777ZM42.6777 353V328C42.6777 325.791 44.4686 324 46.6777 324V326C45.5732 326 44.6777 326.895 44.6777 328V353H42.6777ZM87.6777 324C89.8869 324 91.6777 325.791 91.6777 328V353H89.6777V328C89.6777 326.895 88.7823 326 87.6777 326V324Z" fill="black" mask="url(#path-9-inside-3_555_4847)"/>
<path d="M110.098 325.77H155.661C157.042 325.77 158.161 326.889 158.161 328.27V355.282H107.598V328.27C107.598 326.889 108.717 325.77 110.098 325.77Z" fill="#D9D9D9" stroke="black"/>
<mask id="path-12-inside-4_555_4847" fill="white">
<path d="M173.678 328C173.678 326.343 175.021 325 176.678 325H217.678C219.335 325 220.678 326.343 220.678 328V353H173.678V328Z"/>
</mask>
<path d="M173.678 328C173.678 326.343 175.021 325 176.678 325H217.678C219.335 325 220.678 326.343 220.678 328V353H173.678V328Z" fill="#D9D9D9"/>
<path d="M172.678 328C172.678 325.791 174.469 324 176.678 324H217.678C219.887 324 221.678 325.791 221.678 328H219.678C219.678 326.895 218.782 326 217.678 326H176.678C175.573 326 174.678 326.895 174.678 328H172.678ZM220.678 353H173.678H220.678ZM172.678 353V328C172.678 325.791 174.469 324 176.678 324V326C175.573 326 174.678 326.895 174.678 328V353H172.678ZM217.678 324C219.887 324 221.678 325.791 221.678 328V353H219.678V328C219.678 326.895 218.782 326 217.678 326V324Z" fill="black" mask="url(#path-12-inside-4_555_4847)"/>
<rect x="41.1777" y="353.5" width="52" height="5" rx="1.5" fill="#D9D9D9" stroke="black"/>
<rect x="103.178" y="354.757" width="59.4028" height="5.10256" rx="1.5" fill="#D9D9D9" stroke="black"/>
<rect x="171.178" y="353.5" width="52" height="5" rx="1.5" fill="#D9D9D9" stroke="black"/>
<path d="M37.8037 158.994C37.651 158.963 37.4727 158.926 37.2722 158.887C36.5619 158.748 35.5701 158.572 34.4431 158.421C32.2047 158.12 29.3752 157.911 27.1618 158.328C24.7253 158.787 21.8996 160.219 19.7167 161.506C18.6177 162.154 17.6673 162.773 16.9915 163.231C16.8897 163.3 16.7941 163.365 16.7051 163.426V128.276H37.8037V158.994Z" fill="#D9D9D9" stroke="black"/>
<path d="M55.0727 118.786C54.8749 118.874 54.6415 118.979 54.3781 119.1C53.5025 119.503 52.2942 120.082 50.9623 120.789C48.3129 122.195 45.1219 124.133 43.1117 126.217C41.4636 127.925 39.963 130.657 38.8856 132.919C38.3431 134.058 37.9011 135.092 37.5946 135.842C37.4746 136.136 37.3753 136.386 37.2988 136.582L16.8804 127.833C16.8918 127.808 16.9038 127.782 16.9161 127.756C17.0841 127.396 17.3311 126.873 17.6464 126.227C18.2773 124.933 19.1811 123.144 20.2723 121.16C22.461 117.181 25.3814 112.463 28.3499 109.384C30.5707 107.081 33.8502 104.627 36.5945 102.738C37.9628 101.796 39.191 101 40.0769 100.439C40.453 100.201 40.7672 100.005 41.0041 99.8593L44.4821 109.201L44.5267 109.321L44.6206 109.405L55.0727 118.786Z" fill="#D9D9D9" stroke="black"/>
<path d="M222.617 99.0594C223 98.9968 223.309 98.9446 223.527 98.9074L232.687 116.42C232.416 116.54 232.038 116.705 231.573 116.903C230.571 117.329 229.168 117.91 227.56 118.525C224.335 119.76 220.322 121.122 217.087 121.677C213.62 122.272 209.093 122.274 205.409 122.123C203.572 122.048 201.954 121.935 200.795 121.841C200.216 121.794 199.752 121.752 199.433 121.722C199.418 121.72 199.403 121.719 199.389 121.717V99.8358C199.582 99.8539 199.821 99.8758 200.1 99.9005C200.886 99.9699 201.984 100.061 203.234 100.146C205.73 100.316 208.849 100.466 211.296 100.378C213.785 100.288 216.937 99.9035 219.456 99.5438C220.718 99.3636 221.825 99.189 222.617 99.0594Z" fill="#D9D9D9" stroke="black"/>
<path d="M233.676 116.151L216.951 102.874C217.132 102.738 217.354 102.57 217.609 102.374C218.347 101.807 219.366 101.003 220.491 100.054C222.732 98.1638 225.426 95.6712 227.141 93.3204C228.794 91.0546 230.337 87.8227 231.461 85.1837C232.025 83.8592 232.487 82.6743 232.809 81.8204C232.938 81.4762 233.045 81.1856 233.126 80.9611L250.512 89.4918C250.508 89.5169 250.503 89.5433 250.499 89.5708C250.451 89.8649 250.378 90.2922 250.279 90.8228C250.081 91.8842 249.78 93.3568 249.366 95.0004C248.534 98.3033 247.261 102.237 245.492 104.93C243.714 107.635 240.702 110.487 238.104 112.681C236.81 113.773 235.629 114.693 234.772 115.34C234.343 115.664 233.996 115.919 233.756 116.093C233.728 116.113 233.701 116.132 233.676 116.151Z" fill="#D9D9D9" stroke="black"/>
<path d="M249.12 56.482L250.533 88.6789L229.828 87.9081L230.906 58.5933C231.013 58.625 231.131 58.6597 231.26 58.6969C231.871 58.8724 232.725 59.1024 233.699 59.3201C235.631 59.7521 238.092 60.1499 240.059 59.9462C242.143 59.7305 244.602 58.7442 246.506 57.8386C247.465 57.3822 248.298 56.9391 248.891 56.61C248.972 56.5651 249.048 56.5224 249.12 56.482Z" fill="#D9D9D9" stroke="black"/>
<path d="M175.305 32.5H187.999C188.275 32.5 188.499 32.7239 188.499 33V63C188.499 63.2761 188.275 63.5 187.999 63.5H175.305C175.028 63.5 174.805 63.2761 174.805 63L174.805 33C174.805 32.7239 175.029 32.5 175.305 32.5Z" fill="#BDBDBD" stroke="black"/>
<rect x="109.178" y="86.5" width="44" height="9" fill="#9A9A9A" stroke="black"/>
<rect x="66.7969" y="95.0386" width="131.591" height="124.103" rx="1.5" fill="#D9D9D9" stroke="black"/>
<circle cx="132.347" cy="31.5841" r="22.5" transform="rotate(-14.2982 132.347 31.5841)" fill="white" stroke="black"/>
<path d="M129.66 50.0292C129.756 49.867 129.864 49.6796 129.976 49.4704C130.39 48.7028 130.88 47.6282 131.174 46.4177C131.467 45.2084 131.57 43.8355 131.175 42.4907C130.776 41.1333 129.882 39.8487 128.262 38.8123C124.996 36.7241 121.805 37.559 119.499 38.8547C118.346 39.5027 117.395 40.2744 116.735 40.8815C116.497 41.1001 116.295 41.2983 116.134 41.463C114.085 38.1134 113.16 34.1819 113.509 30.2601C113.877 26.1264 115.639 22.254 118.499 19.2898C121.36 16.3257 125.146 14.4494 129.225 13.9747C133.304 13.5 137.429 14.4557 140.911 16.6819C144.392 18.9081 147.018 22.2701 148.351 26.2058C149.684 30.1416 149.643 34.4126 148.234 38.3052C146.826 42.1977 144.135 45.476 140.612 47.592C137.314 49.5726 133.474 50.4227 129.66 50.0292Z" fill="black" stroke="black"/>
<path d="M136.671 21.053C137.866 22.0391 138.709 23.1885 139.12 24.2285C139.537 25.2865 139.472 26.1147 139.072 26.6093C138.672 27.104 137.882 27.3346 136.772 27.1328C135.681 26.9344 134.398 26.3299 133.202 25.3438C132.007 24.3578 131.164 23.2084 130.753 22.1683C130.336 21.1103 130.401 20.2822 130.801 19.7875C131.201 19.2929 131.991 19.0622 133.101 19.2641C134.192 19.4625 135.475 20.067 136.671 21.053Z" fill="#D9D9D9" stroke="black"/>
</svg>
