<svg width="76" height="52" viewBox="0 0 76 52" fill="none" xmlns="http://www.w3.org/2000/svg">
<circle cx="14.5" cy="7.5" r="7" fill="black" stroke="black"/>
<circle cx="61.5" cy="7.5" r="7" fill="black" stroke="black"/>
<path d="M63.4805 46.1701C60.9717 39.5724 69.1031 29 69.1031 29C69.1031 29 76.9411 39.5545 74.5443 46.1701C73.6371 48.6741 71.9615 50.9533 69.1031 50.9992C66.1916 51.0459 64.5686 49.0318 63.4805 46.1701Z" fill="#45C9ED" stroke="black"/>
<path d="M1.48047 46.1701C-1.02826 39.5724 7.10307 29 7.10307 29C7.10307 29 14.9411 39.5545 12.5443 46.1701C11.6371 48.6741 9.96149 50.9533 7.10307 50.9992C4.19162 51.0459 2.5686 49.0318 1.48047 46.1701Z" fill="#45C9ED" stroke="black"/>
</svg>
