<svg width="36" height="3300" viewBox="0 0 36 3300" fill="none" xmlns="http://www.w3.org/2000/svg">
<path d="M0 3504H36V0H0V3504Z" fill="#2A2A4E"/>
<path d="M35 1164.28C35 1154.52 27.557 1146.7 18.5 1146.7C9.44296 1146.7 2 1154.52 2 1164.28C2 1174.05 9.44296 1181.87 18.5 1181.87C27.557 1181.87 35 1174.05 35 1164.28Z" fill="#8F90AD" stroke="#36364E" stroke-width="2"/>
<path d="M35 1631.48C35 1621.72 27.557 1613.9 18.5 1613.9C9.44296 1613.9 2 1621.72 2 1631.48C2 1641.25 9.44296 1649.07 18.5 1649.07C27.557 1649.07 35 1641.25 35 1631.48Z" fill="#8F90AD" stroke="#36364E" stroke-width="2"/>
<path d="M35 2098.68C35 2088.92 27.557 2081.1 18.5 2081.1C9.44296 2081.1 2 2088.92 2 2098.68C2 2108.45 9.44296 2116.27 18.5 2116.27C27.557 2116.27 35 2108.45 35 2098.68Z" fill="#8F90AD" stroke="#36364E" stroke-width="2"/>
<path d="M35 2565.88C35 2556.12 27.557 2548.3 18.5 2548.3C9.44296 2548.3 2 2556.12 2 2565.88C2 2575.65 9.44296 2583.46 18.5 2583.46C27.557 2583.46 35 2575.65 35 2565.88Z" fill="#8F90AD" stroke="#36364E" stroke-width="2"/>
<path d="M35 224.574C35 214.807 27.557 206.993 18.5 206.993C9.44296 206.993 2 214.807 2 224.574C2 234.342 9.44296 242.156 18.5 242.156C27.557 242.156 35 234.342 35 224.574Z" fill="#8F90AD" stroke="#36364E" stroke-width="2"/>
<path d="M35 691.774C35 682.006 27.557 674.192 18.5 674.192C9.44296 674.192 2 682.006 2 691.774C2 701.541 9.44296 709.355 18.5 709.355C27.557 709.355 35 701.541 35 691.774Z" fill="#8F90AD" stroke="#36364E" stroke-width="2"/>
</svg>
