<svg width="44" height="3301" viewBox="0 0 44 3301" fill="none" xmlns="http://www.w3.org/2000/svg">
<path d="M-5 3504H44V0H-5V3504Z" fill="#2A2A4E"/>
<path d="M39 1163.93C39 1154.17 31.5573 1146.36 22.5 1146.36C13.4427 1146.36 6 1154.17 6 1163.93C6 1173.7 13.4427 1181.51 22.5 1181.51C31.5573 1181.51 39 1173.7 39 1163.93Z" fill="#8F90AD" stroke="#36364E" stroke-width="2"/>
<path d="M39 1630.99C39 1621.23 31.5573 1613.41 22.5 1613.41C13.4427 1613.41 6 1621.23 6 1630.99C6 1640.75 13.4427 1648.57 22.5 1648.57C31.5573 1648.57 39 1640.75 39 1630.99Z" fill="#8F90AD" stroke="#36364E" stroke-width="2"/>
<path d="M39 2098.05C39 2088.28 31.5573 2080.47 22.5 2080.47C13.4427 2080.47 6 2088.28 6 2098.05C6 2107.81 13.4427 2115.62 22.5 2115.62C31.5573 2115.62 39 2107.81 39 2098.05Z" fill="#8F90AD" stroke="#36364E" stroke-width="2"/>
<path d="M39 2565.11C39 2555.34 31.5573 2547.53 22.5 2547.53C13.4427 2547.53 6 2555.34 6 2565.11C6 2574.87 13.4427 2582.68 22.5 2582.68C31.5573 2582.68 39 2574.87 39 2565.11Z" fill="#8F90AD" stroke="#36364E" stroke-width="2"/>
<path d="M39 224.506C39 214.742 31.5573 206.93 22.5 206.93C13.4427 206.93 6 214.742 6 224.506C6 234.27 13.4427 242.082 22.5 242.082C31.5573 242.082 39 234.27 39 224.506Z" fill="#8F90AD" stroke="#36364E" stroke-width="2"/>
<path d="M39 691.564C39 681.8 31.5573 673.988 22.5 673.988C13.4427 673.988 6 681.8 6 691.564C6 701.329 13.4427 709.141 22.5 709.141C31.5573 709.141 39 701.329 39 691.564Z" fill="#8F90AD" stroke="#36364E" stroke-width="2"/>
</svg>
