<svg width="827" height="525" viewBox="0 0 827 525" fill="none" xmlns="http://www.w3.org/2000/svg">
<mask id="mask0_686_4044" style="mask-type:alpha" maskUnits="userSpaceOnUse" x="0" y="0" width="827" height="525">
<rect x="1" y="1" width="825" height="523" rx="9" fill="#35355F" stroke="black" stroke-width="2"/>
</mask>
<g mask="url(#mask0_686_4044)">
<line y1="-2" x2="959.577" y2="-2" transform="matrix(-0.844249 -0.53595 -0.844249 0.53595 815.748 521.428)" stroke="#A259FF" stroke-width="4"/>
<line y1="-2" x2="959.577" y2="-2" transform="matrix(-0.844249 -0.53595 -0.844249 0.53595 864.506 484.525)" stroke="#A259FF" stroke-width="4"/>
<line y1="-2" x2="959.577" y2="-2" transform="matrix(-0.844249 -0.53595 -0.844249 0.53595 915.139 445.238)" stroke="#A259FF" stroke-width="4"/>
<line y1="-2" x2="959.577" y2="-2" transform="matrix(-0.844249 -0.53595 -0.844249 0.53595 960.145 408.334)" stroke="#A259FF" stroke-width="4"/>
<line y1="-2" x2="959.577" y2="-2" transform="matrix(-0.844249 -0.53595 -0.844249 0.53595 1008.9 376.191)" stroke="#A259FF" stroke-width="4"/>
<line y1="-2" x2="959.577" y2="-2" transform="matrix(-0.844249 -0.53595 -0.844249 0.53595 1052.03 340.477)" stroke="#A259FF" stroke-width="4"/>
<line y1="-2" x2="959.577" y2="-2" transform="matrix(-0.844249 -0.53595 -0.844249 0.53595 1102.67 308.334)" stroke="#A259FF" stroke-width="4"/>
<line y1="-2" x2="959.577" y2="-2" transform="matrix(-0.844249 -0.53595 -0.844249 0.53595 1145.8 277.383)" stroke="#A259FF" stroke-width="4"/>
<line y1="-2" x2="959.577" y2="-2" transform="matrix(-0.844249 -0.53595 -0.844249 0.53595 740.736 547.619)" stroke="#A259FF" stroke-width="4"/>
<line y1="-2" x2="959.577" y2="-2" transform="matrix(-0.844249 -0.53595 -0.844249 0.53595 675.102 577.381)" stroke="#A259FF" stroke-width="4"/>
<line y1="-2" x2="959.577" y2="-2" transform="matrix(-0.844249 -0.53595 -0.844249 0.53595 607.594 603.572)" stroke="#A259FF" stroke-width="4"/>
<line y1="-2" x2="959.577" y2="-2" transform="matrix(-0.844249 -0.53595 -0.844249 0.53595 540.08 633.334)" stroke="#A259FF" stroke-width="4"/>
<line y1="-2" x2="959.577" y2="-2" transform="matrix(-0.844249 -0.53595 -0.844249 0.53595 481.949 671.428)" stroke="#A259FF" stroke-width="4"/>
<line y1="-2" x2="959.577" y2="-2" transform="matrix(-0.844249 -0.53595 -0.844249 0.53595 423.814 710.715)" stroke="#A259FF" stroke-width="4"/>
</g>
</svg>
